<?xml version="1.0" encoding="utf-8"?>
<!-- Generator: Adobe Illustrator 23.0.6, SVG Export Plug-In . SVG Version: 6.00 Build 0)  -->
<svg version="1.1" id="Layer_1" xmlns="http://www.w3.org/2000/svg" xmlns:xlink="http://www.w3.org/1999/xlink" x="0px" y="0px"
	 viewBox="0 0 515.6 370.4" style="enable-background:new 0 0 515.6 370.4;" xml:space="preserve">
<title>logo-icon-black</title>
<g>
	<g id="Layer_2-2">
		<path d="M0,185.2c0,102.3,81.7,185.2,181.4,185.2c8.7,0,17.4-0.6,26-1.9c2.1-0.3,3.9-1.7,4.8-3.7c1.4-3.1-0.1-6.8-3.2-8.2
			c-64.1-27.7-110.1-94-110.1-171.5S145,41.4,209,13.8c2-0.9,3.3-2.7,3.6-4.8c0.5-3.4-1.8-6.6-5.2-7.1c-8.6-1.3-17.3-1.9-26-1.9
			C81.7,0,0,82.9,0,185.2z"/>
		<path d="M357.5,307.5c69.7-43.7,137.6-101.7,156.1-117.9c0.2-0.2,0.4-0.4,0.6-0.6c2.1-2.4,1.8-6.1-0.6-8.2
			c-18.6-16.2-86.4-74.2-156.1-117.9c-63-39.5-187.9-18.9-187.9,122.3C169.6,326.5,294.5,347,357.5,307.5z"/>
	</g>
</g>
</svg>
