<svg id="Layer_1" data-name="Layer 1" xmlns="http://www.w3.org/2000/svg" viewBox="0 0 600 600"><title>clipboard-primary</title><path d="M377.92,291.44l-4.43-33.51a7.51,7.51,0,0,0-8.42-6.45l-33.51,4.43a7.5,7.5,0,1,0,2,14.87l15.56-2.06L266,377.17a31.1,31.1,0,1,0,11.73,9.36L361,277.85l2.06,15.56a7.5,7.5,0,0,0,7.42,6.52,6.82,6.82,0,0,0,1-.07A7.5,7.5,0,0,0,377.92,291.44Zm-124.86,130a16,16,0,1,1,16-16A16.06,16.06,0,0,1,253.06,421.43Z" style="fill:#1e1848"/><path d="M375.79,425.34l-15-14.95,15-14.94a7.5,7.5,0,0,0-10.61-10.61l-14.95,14.94-14.94-14.94a7.5,7.5,0,0,0-10.61,10.61l14.95,14.94-14.95,14.95A7.5,7.5,0,0,0,335.29,436L350.23,421,365.18,436a7.5,7.5,0,0,0,10.61-10.61Z" style="fill:#1e1848"/><path d="M263.66,284.16l14.95-14.94A7.5,7.5,0,0,0,268,258.61l-14.94,14.94-14.95-14.94a7.5,7.5,0,0,0-10.61,10.61l14.95,14.94L227.5,299.11a7.5,7.5,0,0,0,10.61,10.61l14.94-15L268,309.71a7.5,7.5,0,0,0,10.61-10.6Z" style="fill:#1e1848"/><path d="M482.44,337.91a7.5,7.5,0,0,0-7.5,7.5V521.34A19.68,19.68,0,0,1,455.28,541H144.72a19.68,19.68,0,0,1-19.66-19.66V134.47a19.67,19.67,0,0,1,19.66-19.65h63.53v4.24a19.52,19.52,0,0,0,19.5,19.5h2.82v13.36H163.12a12.72,12.72,0,0,0-12.71,12.71V502.74a12.72,12.72,0,0,0,12.71,12.71h119.5a7.5,7.5,0,0,0,0-15H165.41V166.92h65.16v11.82a16.57,16.57,0,0,0,16.55,16.55H352.88a16.58,16.58,0,0,0,16.55-16.55V166.92h65.16V500.45h-117a7.5,7.5,0,1,0,0,15H436.88a12.72,12.72,0,0,0,12.71-12.71V164.63a12.72,12.72,0,0,0-12.71-12.71H369.43V138.56h2.81a19.52,19.52,0,0,0,19.5-19.5v-4.24h63.54a19.67,19.67,0,0,1,19.66,19.65V310.41a7.5,7.5,0,0,0,15,0V134.47a34.7,34.7,0,0,0-34.66-34.66H391.74V95.27a19.53,19.53,0,0,0-19.5-19.5H331.4V63.57A19.59,19.59,0,0,0,311.83,44H288.17A19.59,19.59,0,0,0,268.6,63.57v12.2H227.76a19.52,19.52,0,0,0-19.51,19.5v4.54H144.72a34.7,34.7,0,0,0-34.66,34.66V521.34A34.7,34.7,0,0,0,144.72,556H455.28a34.7,34.7,0,0,0,34.66-34.66V345.41A7.5,7.5,0,0,0,482.44,337.91Zm-128-159.17a1.55,1.55,0,0,1-1.54,1.55H247.12a1.56,1.56,0,0,1-1.55-1.55V166.92H354.43v11.82Zm0-26.82H245.57V138.56H354.43v13.36ZM283.6,63.57h0A4.63,4.63,0,0,1,288.17,59h23.65a4.63,4.63,0,0,1,4.57,4.57v12.2H283.6Zm-60.35,31.7a4.56,4.56,0,0,1,4.5-4.5H372.24a4.56,4.56,0,0,1,4.5,4.5V119a4.63,4.63,0,0,1-4.57,4.57H227.82a4.63,4.63,0,0,1-4.57-4.57Z" style="fill:#1e1848"/></svg>