<svg id="Layer_1" data-name="Layer 1" xmlns="http://www.w3.org/2000/svg" viewBox="0 0 600 600"><title>flasks-primary</title><path d="M442.52,254.81V139.86A22.5,22.5,0,0,0,440,95H340a22.5,22.5,0,0,0-2.5,44.86v115a145.19,145.19,0,0,0-58.61,42,7.5,7.5,0,1,0,11.49,9.64,130.13,130.13,0,0,1,57.07-39.35,7.51,7.51,0,0,0,5-7.09V140H395a7.5,7.5,0,0,0,0-15H340a7.5,7.5,0,0,1,0-15H440a7.5,7.5,0,0,1,0,15H425a7.5,7.5,0,0,0,0,15h2.5V260a7.5,7.5,0,0,0,5,7.09A130.09,130.09,0,0,1,520,390c0,71.68-58.32,130-130,130a129.24,129.24,0,0,1-48.9-9.52,7.5,7.5,0,0,0-5.64,13.9A144.31,144.31,0,0,0,390,535c80,0,145-65.05,145-145a145.11,145.11,0,0,0-92.5-135.19Z" style="fill:#1e1848"/><circle cx="445.91" cy="416.37" r="7.5" style="fill:#1e1848"/><circle cx="415.91" cy="446.37" r="7.5" style="fill:#1e1848"/><path d="M347.66,480.6a7.5,7.5,0,0,0-6.37,13.59,115,115,0,0,0,148.33-161.7,7.5,7.5,0,0,0-7.52-3.67l-2.73.38a6.85,6.85,0,0,0-1,.22C467,332.63,460.9,337.54,456,341.49c-5.45,4.37-9,7.26-19.42,7.26-8.86,0-12.86-3.43-18.39-8.19-6.13-5.26-13.75-11.81-28.17-11.81s-22,6.55-28.16,11.81c-5.54,4.76-9.53,8.19-18.39,8.19-10.38,0-14-2.89-19.42-7.26-4.91-3.95-11-8.86-22.36-12.07a7,7,0,0,0-1-.22l-2.73-.38a7.51,7.51,0,0,0-7.52,3.66l-.2.35A7.5,7.5,0,0,0,297.94,344l.13,0c8.09,2.37,12.22,5.69,16.58,9.2,6.47,5.19,13.15,10.56,28.81,10.56,14.41,0,22-6.55,28.16-11.81,5.53-4.75,9.53-8.19,18.39-8.19s12.86,3.44,18.39,8.19c6.13,5.26,13.75,11.81,28.17,11.81,15.65,0,22.34-5.37,28.81-10.56,3.85-3.1,7.52-6,13.89-8.33A100,100,0,0,1,390,490a99,99,0,0,1-42.36-9.4Z" style="fill:#1e1848"/><path d="M246,258.78V109.86A22.5,22.5,0,0,0,243.52,65h-100a22.5,22.5,0,0,0-2.5,44.86V230a7.5,7.5,0,0,0,15,0V110h42.5a7.5,7.5,0,0,0,0-15h-55a7.5,7.5,0,0,1,0-15h100a7.5,7.5,0,0,1,0,15h-15a7.5,7.5,0,1,0,0,15H231V260a7.29,7.29,0,0,0,.41,2.45l72.89,210.76c4.4,12.72,3.41,24.53-2.8,33.24S284.48,520,271,520H116c-13.47,0-24.3-4.8-30.51-13.51s-7.2-20.52-2.79-33.24L155.6,262.5a7.5,7.5,0,1,0-14.17-4.91L68.54,468.34c-6,17.44-4.34,34.08,4.75,46.85S97.56,535,116,535H271c18.45,0,33.62-7,42.72-19.81s10.78-29.41,4.75-46.85L246,258.78Z" style="fill:#1e1848"/><path d="M129.64,413.78A7.5,7.5,0,0,0,118,417.25l-21.06,60.9c-2.77,8-2.47,15,.84,19.64S107.53,505,116,505H271c8.48,0,15-2.56,18.28-7.21s3.61-11.62.84-19.64l-21.06-60.9a7.5,7.5,0,0,0-11.69-3.47c-4.09,3.17-8,5.6-17.32,5.6-8.86,0-12.86-3.44-18.39-8.19-6.13-5.26-13.75-11.81-28.17-11.81s-22,6.55-28.17,11.81c-5.53,4.75-9.53,8.19-18.39,8.19-9.35,0-13.22-2.43-17.31-5.6Zm45.48,8.78c5.53-4.75,9.53-8.18,18.39-8.18s12.86,3.43,18.39,8.18c6.13,5.27,13.75,11.82,28.17,11.82,7.84,0,13.48-1.41,17.89-3.38l18,52.05a14.28,14.28,0,0,1,1,6,14.29,14.29,0,0,1-6,1H116a14.31,14.31,0,0,1-6-1,14.28,14.28,0,0,1,1-6l18-52.05c4.4,2,10.05,3.38,17.89,3.38,14.41,0,22-6.55,28.16-11.82Z" style="fill:#1e1848"/></svg>