<svg id="Layer_1" data-name="Layer 1" xmlns="http://www.w3.org/2000/svg" viewBox="0 0 600 600"><title>growth2-primary</title><path d="M551,235.68l-.17-.16c-18.64-17.17-40.33-9.21-54.41,4L466,264.73a104.16,104.16,0,0,0-69.82-30.16V132.28h24.13A34.3,34.3,0,0,0,454.55,98V60.9a7.5,7.5,0,0,0-7.5-7.5H415.43a34.32,34.32,0,0,0-34.28,34.28v4.44A53.37,53.37,0,0,0,342,75H300.9a7.5,7.5,0,0,0-7.5,7.5v30.92a53.59,53.59,0,0,0,53.53,53.53h34.22v68.21A103.74,103.74,0,0,0,302.3,287a70.85,70.85,0,0,0-20.7,4.7l-.2.08-50.83,21-.7-1.88A16.88,16.88,0,0,0,208.11,301L61.76,356.19a18.13,18.13,0,0,0-10.59,23.37l51,135.28a18.12,18.12,0,0,0,23.37,10.58l146.36-55.15a16.88,16.88,0,0,0,9.85-21.76l-.66-1.75C308.76,435,308.25,434,339.4,434c5.29,0,8.11-3.7,8.11-7.5a7.51,7.51,0,0,0-7.89-7.5c-34.34,0-35.86,1.77-63.85,13.67L235.86,326.8,287,305.64c14.76-5.6,23.6-4.4,97-4.4,8.15,0,13.82,2.81,17.33,8.58a24.49,24.49,0,0,1,3.21,9.44c-.22,2.95-2,16.63-15.43,18.91-20.55,3.49-64.86,9.84-65.31,9.9a7.5,7.5,0,0,0,2.12,14.85c.45-.07,45-6.44,65.7-10,19-3.23,26.05-19.42,27.6-30l86.82-72,.26-.23.34-.31c8.63-8.08,21.51-15.31,33.91-4,14,13.9,1.15,30.44-1.81,33.85L429.17,398.07l-.16.18c-15.35,17.6-36.13,20.52-44.54,20.95H375a7.5,7.5,0,0,0,0,15h10c10.19-.49,36-4,55.21-26L549.92,290.35l.08-.09C559.69,279.15,570.81,255.14,551,235.68ZM396.15,114.83V87.68A19.3,19.3,0,0,1,415.43,68.4h24.12V98a19.29,19.29,0,0,1-19.27,19.27H396.15Zm-15.67,37.11H346.93a38.57,38.57,0,0,1-38.53-38.53V90H342a38.57,38.57,0,0,1,38.53,38.52ZM267.69,453.81a1.87,1.87,0,0,1-1.1,2.42l-33.37,12.58-21.69-57.54a7.5,7.5,0,1,0-14,5.29l21.68,57.54-98.94,37.29a3.16,3.16,0,0,1-4-1.83l-51-135.29a3.13,3.13,0,0,1,1.83-4l99-37.29,19.16,50.84a7.5,7.5,0,1,0,14-5.29L180,327.65l33.38-12.57a1.87,1.87,0,0,1,2.42,1.09C218.69,323.76,265.78,448.74,267.69,453.81Zm148.62-147.9c-4.47-9.83-14.08-19.67-32.29-19.67-29.95,0-49.9-.21-63.4,0a89.07,89.07,0,0,1,133.75-11.85Z" style="fill:#1e1848"/></svg>