<svg id="Layer_1" data-name="Layer 1" xmlns="http://www.w3.org/2000/svg" viewBox="0 0 600 600"><title>megaphone-primary</title><path d="M548.5,128H496.09a7.5,7.5,0,1,0,0,15H548.5a7.5,7.5,0,0,0,0-15Z" style="fill:#1e1848"/><path d="M548.5,194.81H496.09a7.5,7.5,0,0,0,0,15H548.5a7.5,7.5,0,0,0,0-15Z" style="fill:#1e1848"/><path d="M548.5,261.62H496.09a7.5,7.5,0,0,0,0,15H548.5a7.5,7.5,0,0,0,0-15Z" style="fill:#1e1848"/><path d="M548.5,328.43H496.09a7.5,7.5,0,0,0,0,15H548.5a7.5,7.5,0,0,0,0-15Z" style="fill:#1e1848"/><path d="M548.5,395.24H496.09a7.5,7.5,0,1,0,0,15H548.5a7.5,7.5,0,0,0,0-15Z" style="fill:#1e1848"/><path d="M302.65,219.83H250.24a7.5,7.5,0,0,0,0,15h52.41a7.5,7.5,0,0,0,0-15Z" style="fill:#1e1848"/><path d="M302.65,261.62H250.24a7.5,7.5,0,0,0,0,15h52.41a7.5,7.5,0,0,0,0-15Z" style="fill:#1e1848"/><path d="M302.65,303.41H250.24a7.5,7.5,0,0,0,0,15h52.41a7.5,7.5,0,0,0,0-15Z" style="fill:#1e1848"/><path d="M456.44,259.12a7.5,7.5,0,0,0,7.73-7.5V101.52A19.5,19.5,0,0,0,444.67,82H427.25a19.5,19.5,0,0,0-19.5,19.5v13.42C363.31,165,293,181,250.73,186.06a19.52,19.52,0,0,0-17-9.94H190.19a7.7,7.7,0,0,0-7.81,7.27,7.5,7.5,0,0,0,7.5,7.73h43.87a4.54,4.54,0,0,1,3.86,2.26c.86,1.42.64,5.37.64,5.37V339.49c.35,5.83-2,7.63-4.5,7.63H119.82a4.51,4.51,0,0,1-4.5-4.5v-147a4.52,4.52,0,0,1,4.5-4.5h34.74a7.7,7.7,0,0,0,7.81-7.27,7.5,7.5,0,0,0-7.49-7.73H119.82a19.5,19.5,0,0,0-19.5,19.5v13H66.64A22.64,22.64,0,0,0,44,231.24V307a22.64,22.64,0,0,0,22.64,22.64h33.68v13a19.5,19.5,0,0,0,19.5,19.5h6.07v137.1A18.77,18.77,0,0,0,144.66,518h27.82a18.78,18.78,0,0,0,18.44-15.27l26.65-140.59h16.18a19.5,19.5,0,0,0,17-9.94c42.23,5.08,112.58,21.06,157,71.13v13.42a19.5,19.5,0,0,0,19.5,19.5h17.42a19.5,19.5,0,0,0,19.5-19.5V286.94a7.7,7.7,0,0,0-7.27-7.81,7.5,7.5,0,0,0-7.73,7.49V436.73a4.51,4.51,0,0,1-4.5,4.5H427.25a4.52,4.52,0,0,1-4.5-4.5V101.52a4.51,4.51,0,0,1,4.5-4.5h17.42a4.51,4.51,0,0,1,4.5,4.5V251.31A7.71,7.71,0,0,0,456.44,259.12ZM100.32,314.64H66.64A7.65,7.65,0,0,1,59,307V231.24a7.64,7.64,0,0,1,7.64-7.63h33.68Zm75.86,185.28a3.76,3.76,0,0,1-3.7,3.06H144.66a3.76,3.76,0,0,1-3.76-3.77V362.12h61.4Zm231.57-98.14c-41.05-38.69-99-57.69-154.5-64.41V200.87c55.55-6.71,113.46-25.72,154.5-64.41Z" style="fill:#1e1848"/></svg>