<svg id="Layer_1" data-name="Layer 1" xmlns="http://www.w3.org/2000/svg" viewBox="0 0 600 600"><title>music-primary</title><path d="M492.59,373.82h0c-2.62-1.12-6.05-2.38-10.15-3.74,3.75-14.51,7.31-42.93,6.43-60.51h6.23a7.52,7.52,0,0,0,7.49-7.85c-2.33-50.19-24.71-97.59-63-133.45S351.61,112.53,300,112.53s-101.17,19.79-139.55,55.73-60.67,83.26-63,133.45a7.52,7.52,0,0,0,7.49,7.85h4.62c-.17,17.79,4.17,47,8.67,60.83l-9.68,3.06-.85.27a15.86,15.86,0,0,0-10.12,19L119,472.63a15.79,15.79,0,0,0,19.32,11.16l.33-.09,24.84-7.86.45,1.66.06.22a23.27,23.27,0,0,0,28.49,16.46l8-2.15,16-4.28,8-2.15a23.3,23.3,0,0,0,16.46-28.5l-30-111.88a23.25,23.25,0,0,0-28.51-16.46l-32,8.57a23.25,23.25,0,0,0-16.56,28.09l-1.37.44c-4-12.17-8.17-40.72-8-56.3h5.92A15.66,15.66,0,0,0,146,295.69c3.57-36.57,21.6-70.67,50.77-96a155.91,155.91,0,0,1,206.36,0c29.18,25.35,47.22,59.46,50.79,96a15.66,15.66,0,0,0,15.58,13.87h4.29c.88,14.36-2.15,41.78-5.78,56.11l-1.88-.53a23.29,23.29,0,0,0-16.64-27.82l-32-8.56a23.24,23.24,0,0,0-28.5,16.45l-30,111.89a23.28,23.28,0,0,0,16.46,28.5l8,2.14,16,4.29,8,2.14a23.24,23.24,0,0,0,28.37-16c0-.16.09-.32.14-.49l.5-1.87,24.85,7.86.32.1a16,16,0,0,0,4.1.54A15.78,15.78,0,0,0,481,472.64l21.42-79.92h0A15.8,15.8,0,0,0,492.59,373.82Zm-338.25-22,32-8.56a8.25,8.25,0,0,1,10.14,5.85l30,111.88a8.29,8.29,0,0,1-5.85,10.14l-8,2.14-16,4.28-8,2.15a8.29,8.29,0,0,1-10.14-5.86h0l-1.73-6.47a7.52,7.52,0,0,0-.15-3.19c-10.18-37.62-16.11-59.61-19.64-72.69-5.23-19.39-5.23-19.39-6-21.73-.12-.41-.28-.9-.49-1.62a7.93,7.93,0,0,0-.82-1.77l-1.18-4.41A8.29,8.29,0,0,1,154.34,351.81Zm-16.56,28.12,21.82,81.41-25.24,8a.77.77,0,0,1-.88-.57l-21.41-79.89a.82.82,0,0,1,.54-1l.33-.09Zm331.76-85.37a.76.76,0,0,1-.65-.34c-3.95-40.41-23.79-78-55.88-105.9a170.92,170.92,0,0,0-226,0c-32.08,27.88-51.92,65.49-55.86,105.87a.75.75,0,0,1-.65.35H113c4-43.35,24.31-84.06,57.73-115.35,35.58-33.33,81.5-51.68,129.29-51.68s93.71,18.35,129.29,51.68c33.42,31.29,53.73,72,57.73,115.35Zm-48,179.27a8.3,8.3,0,0,1-8,6.14,8.64,8.64,0,0,1-2.12-.28l-8-2.15-16-4.28-8-2.15A8.28,8.28,0,0,1,373.58,461l30-111.88a8.25,8.25,0,0,1,10.14-5.85l32,8.56a8.29,8.29,0,0,1,5.86,10.13l-1.17,4.38a7.56,7.56,0,0,0-.62,1.2c-.18.45-.31.77-.43,1.05-.88,2.08-.93,2.27-3.57,12.29-2.86,10.84-8.8,33.38-22.31,83.3a7.52,7.52,0,0,0-.15,3.19l-1.73,6.48Zm66.41-85-21.42,79.92a.73.73,0,0,1-.35.47.81.81,0,0,1-.52.09l-25.24-8,21.9-81.71c14.35,4.05,21.34,6.68,24.37,8,.38.16.62.25.79.31A.79.79,0,0,1,487.93,388.84Z" style="fill:#1e1848"/></svg>