<svg id="Layer_1" data-name="Layer 1" xmlns="http://www.w3.org/2000/svg" viewBox="0 0 600 600"><title>nature-primary</title><path d="M540,326a106,106,0,0,0-156.63-93.13,281.12,281.12,0,0,0-24.18-65.77c-21.41-40.74-49-64.1-75.69-64.1-40.78,0-77.43,52.28-95.48,113.27l-23.29-84.76a7.5,7.5,0,0,0-14.46,0l-75,273A7.5,7.5,0,0,0,82.5,414H150v79.5a7.5,7.5,0,0,0,15,0V414h67.5a7.48,7.48,0,0,0,6-2.95c0-.07.09-.14.14-.2a112.34,112.34,0,0,0,36.9,7.89V493a7.5,7.5,0,0,0,15,0V418.8c25.67-1.2,46.82-9.14,63.17-23.66A106.54,106.54,0,0,0,427,431.76V493.5a7.5,7.5,0,0,0,15,0V431.7A106.13,106.13,0,0,0,540,326ZM165,399V388.77l17.83-18a7.5,7.5,0,1,0-10.66-10.56l-6.74,6.8a7.38,7.38,0,0,0-.43-3.22V304.1a7.5,7.5,0,0,0-15,0v44.45l-15.35-14.5a7.5,7.5,0,1,0-10.3,10.9L150,369.18V399H92.34L157.5,161.81l23.25,84.64c-.09.47-.16.93-.24,1.4-.15.83-.3,1.66-.44,2.49-.29,1.72-.57,3.43-.83,5.14-.09.59-.19,1.17-.27,1.75-.16,1.11-.32,2.21-.46,3.32-.07.5-.14,1-.2,1.51q-.7,5.42-1.17,10.74c0,.54-.09,1.08-.13,1.61-.09,1.08-.18,2.16-.25,3.23,0,.53-.06,1.06-.1,1.59-.1,1.72-.19,3.43-.26,5.13,0,.83-.07,1.66-.1,2.49l-.06,2.43c0,1.11,0,2.22,0,3.32,0,2.58,0,5.14.08,7.67,0,.48,0,1,.05,1.43.06,1.55.12,3.09.21,4.63l.12,1.89c.1,1.39.2,2.77.32,4.14.06.63.11,1.26.18,1.89.13,1.42.29,2.82.46,4.21.06.53.12,1.05.19,1.57.21,1.66.45,3.29.7,4.91,0,.24.07.48.11.71q.9,5.58,2.12,10.9.72,3.06,1.55,6a2.76,2.76,0,0,0,.08.27c.44,1.6.92,3.18,1.41,4.74l.45,1.37c.37,1.12.75,2.24,1.15,3.33.27.78.56,1.55.86,2.32s.52,1.37.8,2c.43,1.09.87,2.16,1.33,3.22l.33.74a106,106,0,0,0,11.52,20.13A91.24,91.24,0,0,0,218,399Zm125.5,4.77v-19l33.7-32.37a7.5,7.5,0,0,0-10.4-10.82L290.5,364V321.11l28.8-28.81a7.5,7.5,0,0,0-10.6-10.6l-18.2,18.19V256a7.5,7.5,0,0,0-15,0v62h0v26.21l-24.27-23.59a7.5,7.5,0,0,0-10.46,10.76l34.73,33.74v38.6c-16.05-1-29.95-5-41.59-12.05-1.07-.65-2.13-1.33-3.16-2l-.48-.32c-1-.71-2-1.43-3-2.18l-.42-.33c-.91-.71-1.8-1.44-2.68-2.19l-.43-.36c-.83-.72-1.65-1.48-2.45-2.24-.28-.27-.57-.53-.85-.81-.72-.7-1.42-1.43-2.11-2.16-.37-.39-.73-.79-1.09-1.18-.49-.55-1-1.11-1.46-1.68s-1.08-1.29-1.61-1.95l-.79-1c-.36-.46-.72-.92-1.06-1.39-7.76-10.54-13.47-23.66-17-38.83,0-.21-.09-.43-.14-.64-.31-1.4-.62-2.82-.9-4.26-.11-.56-.2-1.13-.3-1.69-.21-1.12-.41-2.24-.59-3.38-.1-.63-.19-1.27-.29-1.9-.16-1.11-.32-2.23-.47-3.36-.07-.62-.14-1.24-.22-1.86-.13-1.2-.26-2.39-.38-3.6l-.15-1.7c-.11-1.33-.21-2.66-.3-4,0-.46-.06-.93-.08-1.4-.09-1.53-.15-3.07-.2-4.62,0-.3,0-.6,0-.9-.06-1.86-.08-3.72-.09-5.61V294c0-1.08,0-2.15,0-3.22l0-1.43c0-1,0-2,.08-3,0-1.33.1-2.66.17-4,0-.43,0-.87.07-1.31.09-1.51.19-3,.31-4.54l0-.38a259.59,259.59,0,0,1,3.91-28.61,8.46,8.46,0,0,0,.11-.88C209.13,178.85,247.74,118,283.5,118c35.56,0,73.93,60.16,87.35,127.53a5.4,5.4,0,0,0,.08.69,245.2,245.2,0,0,1,4.83,51.85c0,.35,0,.7,0,1,0,1-.07,2.06-.11,3.08q0,1.08-.09,2.16c-.05.95-.1,1.9-.17,2.84s-.11,1.65-.18,2.46-.13,1.68-.21,2.51c-.14,1.55-.3,3.09-.49,4.61-.06.55-.14,1.09-.21,1.63-.15,1.12-.3,2.23-.47,3.33-.1.67-.21,1.34-.32,2-.18,1.09-.36,2.16-.56,3.22-.1.51-.19,1-.29,1.53-.28,1.38-.56,2.74-.87,4.09l-.12.53c-3.09,13.34-7.89,25.08-14.29,34.88l-.52.78c-.57.85-1.14,1.67-1.73,2.49-.44.6-.88,1.21-1.33,1.8-.11.14-.21.28-.32.41-.69.9-1.4,1.77-2.13,2.63l-.18.21c-.7.82-1.42,1.63-2.15,2.42C334.75,394.05,315.14,402.45,290.5,403.77ZM442,416.64V385.48L461.69,367a7.5,7.5,0,0,0-10.26-10.95L442,364.92V319.1a7.5,7.5,0,0,0-15,0v22.84l-11.37-10.66a7.5,7.5,0,0,0-10.25,11L427,362.49v18.05a7.51,7.51,0,0,0,0,3.88v32.3a91.42,91.42,0,0,1-62.93-32.5l0,0c.92-1.14,1.82-2.29,2.69-3.48.31-.42.6-.86.9-1.28.42-.6.85-1.21,1.26-1.82s.85-1.26,1.26-1.9.86-1.36,1.29-2.06.71-1.13,1.05-1.72c.7-1.2,1.38-2.43,2-3.67l.69-1.33c.55-1.06,1.08-2.14,1.61-3.23l.45-.95c13.9-29.76,17.31-69.66,9.25-114.44A91,91,0,1,1,442,416.64Z" style="fill:#1e1848"/></svg>