<svg id="Layer_1" data-name="Layer 1" xmlns="http://www.w3.org/2000/svg" viewBox="0 0 600 600"><title>padlock-accent</title><path d="M445.73,219.32H395.15V179.16a7.49,7.49,0,1,0-15,0v40.16H349.24V139.15a49.24,49.24,0,1,0-98.48,0v80.17H219.83V139.15a80.18,80.18,0,0,1,160-7.26,7.49,7.49,0,0,0,14.92-1.34,95.15,95.15,0,0,0-189.92,8.6v80.17H154.27a40.06,40.06,0,0,0-40,40v88.1a7.49,7.49,0,1,0,15,0V323H470.77V516a25.06,25.06,0,0,1-25,25H154.27a25.06,25.06,0,0,1-25-25V392.38a7.49,7.49,0,0,0-15,0V516a40.06,40.06,0,0,0,40,40H445.73a40.06,40.06,0,0,0,40-40V259.34A40.06,40.06,0,0,0,445.73,219.32Zm-180-80.17a34.26,34.26,0,1,1,68.52,0v80.17H265.74ZM470.77,308H129.23V259.34a25.07,25.07,0,0,1,25-25H445.73a25.07,25.07,0,0,1,25,25Z" style="fill:#ff4080"/><path d="M300,474a22.67,22.67,0,0,0,22.65-22.65V433.42a2.85,2.85,0,0,1,1.11-2.26,38.52,38.52,0,1,0-47.39.1,2.72,2.72,0,0,1,1,2.16v17.94A22.67,22.67,0,0,0,300,474Zm-23.4-75.74a23.23,23.23,0,0,1,20.69-20.82,25.25,25.25,0,0,1,2.73-.15,23.26,23.26,0,0,1,15.68,6,23.54,23.54,0,0,1-1.18,36.07,17.75,17.75,0,0,0-6.85,14.05v17.94a7.67,7.67,0,0,1-15.34,0V433.42a17.82,17.82,0,0,0-6.77-14A23.49,23.49,0,0,1,276.6,398.27Z" style="fill:#ff4080"/><path d="M229.54,245.42a25.73,25.73,0,1,0,25.74,25.73A25.76,25.76,0,0,0,229.54,245.42Zm0,36.48a10.75,10.75,0,1,1,10.76-10.75A10.77,10.77,0,0,1,229.54,281.9Z" style="fill:#ff4080"/><path d="M300,245.42a25.73,25.73,0,1,0,25.73,25.73A25.76,25.76,0,0,0,300,245.42Zm0,36.48a10.75,10.75,0,1,1,10.75-10.75A10.76,10.76,0,0,1,300,281.9Z" style="fill:#ff4080"/><path d="M370.46,245.42a25.73,25.73,0,1,0,25.73,25.73A25.76,25.76,0,0,0,370.46,245.42Zm0,36.48a10.75,10.75,0,1,1,10.75-10.75A10.76,10.76,0,0,1,370.46,281.9Z" style="fill:#ff4080"/></svg>