<svg id="Layer_1" data-name="Layer 1" xmlns="http://www.w3.org/2000/svg" viewBox="0 0 600 600"><title>rocket-secondary</title><path d="M119.28,412.33a7.5,7.5,0,0,0-10.61,0l-25.5,25.5a7.5,7.5,0,0,0,10.6,10.6l25.51-25.5A7.51,7.51,0,0,0,119.28,412.33Z" style="fill:#6b96ff"/><path d="M144.08,437.14a7.49,7.49,0,0,0-10.6,0L108,462.64a7.5,7.5,0,0,0,10.6,10.6l25.5-25.5A7.49,7.49,0,0,0,144.08,437.14Z" style="fill:#6b96ff"/><path d="M193.7,486.75a7.5,7.5,0,0,0-10.61,0l-25.5,25.5a7.5,7.5,0,1,0,10.61,10.61l25.5-25.5A7.5,7.5,0,0,0,193.7,486.75Z" style="fill:#6b96ff"/><path d="M168.89,461.94a7.5,7.5,0,0,0-10.61,0l-25.5,25.5a7.5,7.5,0,1,0,10.61,10.61l25.5-25.5A7.5,7.5,0,0,0,168.89,461.94Z" style="fill:#6b96ff"/><path d="M537.31,44.6l-157,45.88a7.6,7.6,0,0,0-3.19,1.9L272.26,197.27l-46.86,3.94a283.64,283.64,0,0,0-176.53,82,16.55,16.55,0,0,0,10.26,28.19l91.08,7.95-9.43,9.44a15,15,0,0,0,0,21.19l9.1,9.11-18.47,18.47a18.6,18.6,0,0,0,0,26.25l64.82,64.81a18.57,18.57,0,0,0,26.24,0l18.47-18.47,8.62,8.62a15.7,15.7,0,0,0,22.17,0l8.95-8.95,7.95,91.08a16.55,16.55,0,0,0,28.19,10.26,281.23,281.23,0,0,0,65.35-102,7.5,7.5,0,0,0-14.07-5.2,266.31,266.31,0,0,1-61.89,96.59,1.53,1.53,0,0,1-2.63-1l-9.05-103.62,91.79-91.79c-3.05,37.18-3.87,46.88-8.13,65.73a7.5,7.5,0,0,0,14.64,3.3c5.19-23,5.58-33.95,9.9-85.44l104.89-104.9a7.6,7.6,0,0,0,1.9-3.19l20.82-71.26h0l25-85.7A14.6,14.6,0,0,0,537.31,44.6ZM60.44,296.42a1.53,1.53,0,0,1-1-2.63,268.6,268.6,0,0,1,167.18-77.63l29.17-2.45-91.77,91.76Zm106.45,27.44,40.86,40.85-15.5,15.5C176.06,364,155,343,151.38,339.37ZM163.45,409a19.33,19.33,0,0,0-2.5,3.09L142,393.17a3.61,3.61,0,0,1,0-5l18.47-18.47,21.15,21.15Zm17.31,16.57a4.48,4.48,0,0,1-6.33-6.33l149.49-149.5a4.48,4.48,0,1,1,6.33,6.33L230,376.35Zm31.1,32.4a3.59,3.59,0,0,1-5,0L187.9,439.05a19.33,19.33,0,0,0,3.09-2.5l18.19-18.19,21.15,21.15Zm49.26-9.85s0,0-.05,0a.67.67,0,0,1-.9,0c-4.48-4.47-35.68-35.67-40.38-40.38l15.5-15.49,40.85,40.85ZM495.66,213.6,286.75,422.5,245.9,381.65l95.33-95.33c6.87-6.87,8.19-18.62-.74-27.55a19,19,0,0,0-26.81,0l-95.33,95.34L177.5,313.25,386.4,104.34l65.15-19,63.15,63.15ZM519.5,132,468,80.5l72.81-21.28Z" style="fill:#6b96ff"/><path d="M425.91,174.09a50,50,0,0,0-14.76-10.21A7.51,7.51,0,0,0,405,177.56a35,35,0,1,1-28.82,0A7.5,7.5,0,0,0,370,163.88c-31.85,14.39-39.44,56.23-14.76,80.91a49.83,49.83,0,0,0,35.34,14.62C435,259.41,457.32,205.5,425.91,174.09Z" style="fill:#6b96ff"/></svg>