<svg id="Layer_1" data-name="Layer 1" xmlns="http://www.w3.org/2000/svg" viewBox="0 0 600 600"><title>sparkle-primary</title><path d="M378.09,363.25H365.5a7.5,7.5,0,0,1,0-15h12.59a7.5,7.5,0,0,1,0,15Z" style="fill:#1e1848"/><path d="M450,363.25H437.41a7.5,7.5,0,0,1,0-15H450a7.5,7.5,0,0,1,0,15Z" style="fill:#1e1848"/><path d="M407.75,405.5a7.5,7.5,0,0,1-7.5-7.5V385.41a7.5,7.5,0,0,1,15,0V398A7.5,7.5,0,0,1,407.75,405.5Z" style="fill:#1e1848"/><path d="M407.75,333.59a7.5,7.5,0,0,1-7.5-7.5V313.5a7.5,7.5,0,0,1,15,0v12.59A7.5,7.5,0,0,1,407.75,333.59Z" style="fill:#1e1848"/><path d="M375.59,395.41a7.51,7.51,0,0,1-5.3-12.81l8.9-8.9a7.5,7.5,0,0,1,10.61,10.61l-8.9,8.9A7.52,7.52,0,0,1,375.59,395.41Z" style="fill:#1e1848"/><path d="M431,340a7.51,7.51,0,0,1-5.3-12.81l8.9-8.9a7.5,7.5,0,0,1,10.61,10.61l-8.9,8.9A7.52,7.52,0,0,1,431,340Z" style="fill:#1e1848"/><path d="M439.91,395.41a7.52,7.52,0,0,1-5.31-2.2l-8.9-8.9a7.5,7.5,0,0,1,10.61-10.61l8.9,8.9a7.51,7.51,0,0,1-5.3,12.81Z" style="fill:#1e1848"/><path d="M384.5,340a7.52,7.52,0,0,1-5.31-2.2l-8.9-8.9a7.5,7.5,0,0,1,10.61-10.61l8.9,8.9A7.51,7.51,0,0,1,384.5,340Z" style="fill:#1e1848"/><path d="M449.66,264.5a7.49,7.49,0,0,1-7.19-5.37c-11.67-39.3-52.85-53-53.26-53.15a7.51,7.51,0,0,1-5.21-7.14v-.68a7.5,7.5,0,0,1,5.1-7.11,101.87,101.87,0,0,0,23.75-12.87,7.5,7.5,0,1,1,8.79,12.15,121.69,121.69,0,0,1-12.78,8.07c12.37,6.71,29.57,19,40.71,39.09,10.89-19.69,28.34-32.07,40.86-38.91-12.38-6.72-29.56-19-40.69-39.09a85.15,85.15,0,0,1-7.8,11.65,7.5,7.5,0,1,1-11.75-9.32A66.59,66.59,0,0,0,442.43,138a7.5,7.5,0,0,1,7.15-5.52h.08a7.5,7.5,0,0,1,7.19,5.37c11.73,39.52,52.83,53,53.24,53.14a7.51,7.51,0,0,1,5.23,7.15v.68a7.51,7.51,0,0,1-5.1,7.11c-.42.14-42.92,15.09-53.33,53a7.5,7.5,0,0,1-7.15,5.52Z" style="fill:#1e1848"/><path d="M303,515.55a7.5,7.5,0,0,1-7.19-5.37c-8.21-27.65-37.31-37.4-37.6-37.49a7.52,7.52,0,0,1-5.21-7.14v-.5a7.5,7.5,0,0,1,5.1-7.11c.28-.09,30.36-10.71,37.67-37.37a7.5,7.5,0,0,1,14.42-.16c8.21,27.66,37.31,37.4,37.6,37.5a7.52,7.52,0,0,1,5.21,7.14v.5a7.49,7.49,0,0,1-5.08,7.1c-.52.18-30.4,10.82-37.69,37.38a7.5,7.5,0,0,1-7.15,5.52Zm-25.74-50.31a76.26,76.26,0,0,1,25.68,24.58c7.28-11.58,17.49-19.48,25.8-24.46a76.26,76.26,0,0,1-25.68-24.58C295.78,452.36,285.57,460.26,277.26,465.24Zm68.24.31h0Z" style="fill:#1e1848"/><path d="M212.25,410.56a7.5,7.5,0,0,1-7.19-5.37C189,351,151.78,315.85,123.43,296c-30.84-21.66-57.93-30.41-58.2-30.5A7.49,7.49,0,0,1,60,258.31V256.6a7.5,7.5,0,0,1,5.1-7.1c.27-.1,28.61-9.86,60-32.06,28.57-20.24,65.63-55.33,80-107.57a7.5,7.5,0,0,1,7.15-5.52h.08a7.5,7.5,0,0,1,7.19,5.37C235.54,164,272.72,199.06,301.07,219c30.84,21.65,57.93,30.41,58.2,30.5a7.49,7.49,0,0,1,5.23,7.14v1.71a7.5,7.5,0,0,1-5.1,7.1c-.29.1-30.11,10.38-62.43,33.84a7.5,7.5,0,1,1-8.81-12.14A294,294,0,0,1,339,257.56a274.94,274.94,0,0,1-46.51-26.32c-26.58-18.66-60.42-49.88-80-96.65-14.93,36.49-41.93,69.14-79.07,95.36a293.9,293.9,0,0,1-47.8,27.39,275.82,275.82,0,0,1,46.51,26.33c26.57,18.65,60.41,49.86,80,96.61,10.58-26,27.14-49.81,49.44-71a7.5,7.5,0,1,1,10.34,10.86c-26.11,24.88-43.73,53.46-52.37,85a7.5,7.5,0,0,1-7.15,5.52Z" style="fill:#1e1848"/><circle cx="418" cy="498" r="10" style="fill:#1e1848"/><circle cx="347" cy="121" r="10" style="fill:#1e1848"/></svg>