<svg id="Layer_1" data-name="Layer 1" xmlns="http://www.w3.org/2000/svg" viewBox="0 0 600 600"><title>stopwatch-accent</title><path d="M314.56,371.2a31.69,31.69,0,0,0,23.22-13l83.45-115.36a8.92,8.92,0,0,0-12.45-12.45L293.4,313.86a31.76,31.76,0,0,0,18.66,57.44C312.89,371.3,313.72,371.26,314.56,371.2Zm-12.34-21.81a14,14,0,0,1,1.65-21.11l70.38-50.92-50.9,70.37a13.94,13.94,0,0,1-21.13,1.66Z" style="fill:#ff4080"/><path d="M514,206.42c-.11-.18-.28-.27-.4-.44a242.19,242.19,0,0,0-31.77-42.86L501,144l12.61,12.6,37.8-37.81L513.59,81l-37.82,37.81,12.61,12.61-19.14,19.14a241.8,241.8,0,0,0-42.86-31.79c-.17-.11-.27-.28-.45-.39a5.44,5.44,0,0,0-.57-.19,238.8,238.8,0,0,0-91.55-30.34V77.19h13.37a22.28,22.28,0,1,0,0-44.56H267a22.28,22.28,0,1,0,0,44.56h13.37V87.5a245,245,0,0,0-28.74,4.76,8.91,8.91,0,0,0,4,17.37,228.53,228.53,0,0,1,24.77-4.25l9.57-.74c2.92-.22,5.61-.38,8.23-.5v17.62a8.92,8.92,0,0,0,17.83,0V104.2a221.07,221.07,0,0,1,93.18,25.35l-8.79,15.22a8.91,8.91,0,1,0,15.44,8.91l8.76-15.18a224.47,224.47,0,0,1,69.27,69.27l-15.18,8.76A8.91,8.91,0,1,0,487.59,232l15.21-8.78a221,221,0,0,1,25.39,94.64h-17.6a8.91,8.91,0,1,0,0,17.82h17.6a221.08,221.08,0,0,1-25.39,94.64l-15.21-8.79a8.91,8.91,0,0,0-8.91,15.44l15.17,8.76A224.51,224.51,0,0,1,424.59,515l-8.76-15.17a8.91,8.91,0,1,0-15.44,8.91l8.79,15.21A221.08,221.08,0,0,1,316,549.26V531.72a8.91,8.91,0,0,0-17.82,0v17.61a224.72,224.72,0,0,1-42.57-5.5,8.91,8.91,0,0,0-4,17.37,240.8,240.8,0,0,0,54,6.17c.44,0,.86,0,1.29,0,.06,0,.11,0,.16,0s.14,0,.21,0a239.05,239.05,0,0,0,117.81-31.84c.27-.13.57-.19.84-.35s.27-.27.44-.39a242.33,242.33,0,0,0,87.1-87c.17-.24.38-.43.54-.7s.09-.38.18-.57a239.69,239.69,0,0,0,0-239.49C514.1,206.8,514.1,206.61,514,206.42Zm-.43-100.25,12.6,12.6-12.6,12.61L501,118.77ZM316,86.29c-3.11-.12-6.07-.18-8.92-.18h-1.45c-1.46,0-2.92.09-4.38.12-1,0-2,0-3.08.06V59.37H267a4.46,4.46,0,1,1,0-8.91h80.21a4.46,4.46,0,0,1,0,8.91H316Z" style="fill:#ff4080"/><path d="M226.85,157.4H182.29a8.92,8.92,0,0,0,0,17.83h44.56a8.92,8.92,0,1,0,0-17.83Z" style="fill:#ff4080"/><path d="M226.85,219.79H137.73a8.91,8.91,0,1,0,0,17.82h89.12a8.91,8.91,0,1,0,0-17.82Z" style="fill:#ff4080"/><path d="M226.85,282.18H93.17a8.91,8.91,0,1,0,0,17.82H226.85a8.91,8.91,0,1,0,0-17.82Z" style="fill:#ff4080"/><path d="M226.85,344.56H57.52a8.92,8.92,0,0,0,0,17.83H226.85a8.92,8.92,0,1,0,0-17.83Z" style="fill:#ff4080"/><path d="M226.85,407H111a8.91,8.91,0,0,0,0,17.82H226.85a8.91,8.91,0,1,0,0-17.82Z" style="fill:#ff4080"/><path d="M226.85,469.33H164.47a8.92,8.92,0,1,0,0,17.83h62.38a8.92,8.92,0,1,0,0-17.83Z" style="fill:#ff4080"/></svg>