<svg id="Layer_1" data-name="Layer 1" xmlns="http://www.w3.org/2000/svg" viewBox="0 0 600 600"><title>text-accent</title><path d="M462.78,469.9H434.55c-7.73.07-13.62-2.11-18-6.74-10.36-11-9-32.14-8.9-33,0-.33,0-.65,0-1V252.33a6.66,6.66,0,1,0-13.32,0V429.17a77.69,77.69,0,0,0,.79,16.67c1.73,11.16,5.67,20.06,11.7,26.46,7,7.39,16.32,11,27.77,10.91h28.14a.45.45,0,0,1,.45.44v34.82a.45.45,0,0,1-.45.44H332.16a6.66,6.66,0,0,0,0,13.32H462.78a13.78,13.78,0,0,0,13.76-13.76V483.65A13.77,13.77,0,0,0,462.78,469.9Z" style="fill:#ff4080"/><path d="M533.24,77.77H181.12a13.78,13.78,0,0,0-13.76,13.76v132.1a13.78,13.78,0,0,0,13.76,13.76h43.53a13.77,13.77,0,0,0,13.54-11.27c2.54-13.73,11.7-46.07,41.89-49.89h26.14a.45.45,0,0,1,.45.45V429.15c0,.33,0,.65,0,1,.07.89,1.46,22.05-8.9,33-4.37,4.63-10.27,6.84-18.08,6.73H251.58a13.77,13.77,0,0,0-13.76,13.76v34.82a13.78,13.78,0,0,0,13.76,13.76h39.74a6.66,6.66,0,0,0,0-13.32H251.58a.45.45,0,0,1-.45-.44V483.65a.45.45,0,0,1,.45-.44h28c11.49.18,20.89-3.52,27.86-10.91,13.79-14.62,12.83-38.49,12.49-43.15V176.67a13.77,13.77,0,0,0-13.76-13.76h-26a13.19,13.19,0,0,0-1.78.11c-16.84,2.13-30.9,11.45-40.65,26.95-7.92,12.58-11.34,26.53-12.66,33.73a.46.46,0,0,1-.45.37H181.12a.44.44,0,0,1-.44-.44V91.53a.44.44,0,0,1,.44-.44H533.24a.44.44,0,0,1,.44.44v132.1a.44.44,0,0,1-.44.44H489.71a.44.44,0,0,1-.44-.37c-1.33-7.2-4.75-21.15-12.67-33.73-9.75-15.5-23.81-24.82-40.66-26.95a12.94,12.94,0,0,0-1.77-.11h-26a13.77,13.77,0,0,0-13.76,13.76V210.6a6.66,6.66,0,1,0,13.32,0V176.67a.44.44,0,0,1,.44-.45h26.14c30.19,3.82,39.36,36.16,41.89,49.89a13.77,13.77,0,0,0,13.54,11.27h43.53A13.77,13.77,0,0,0,547,223.63V91.53A13.78,13.78,0,0,0,533.24,77.77Z" style="fill:#ff4080"/><path d="M98.5,59a7.5,7.5,0,0,0,0-15h-52a7.5,7.5,0,0,0-7.5,7.5V548.46a7.5,7.5,0,0,0,7.5,7.5h52a7.5,7.5,0,0,0,0-15H54V525.9H72.5a7.5,7.5,0,0,0,0-15H54V489.58H98.5a7.5,7.5,0,0,0,0-15H54V453.26H72.5a7.5,7.5,0,0,0,0-15H54V416.93H72.5a7.5,7.5,0,0,0,0-15H54V380.61H72.5a7.5,7.5,0,0,0,0-15H54V344.28H98.5a7.5,7.5,0,0,0,0-15H54V308H72.5a7.5,7.5,0,0,0,0-15H54V271.63H72.5a7.5,7.5,0,0,0,0-15H54V235.31H72.5a7.5,7.5,0,0,0,0-15H54V199H98.5a7.5,7.5,0,0,0,0-15H54V162.66H72.5a7.5,7.5,0,0,0,0-15H54V126.33H72.5a7.5,7.5,0,0,0,0-15H54V90H72.5a7.5,7.5,0,0,0,0-15H54V59Z" style="fill:#ff4080"/></svg>