<svg id="Layer_1" data-name="Layer 1" xmlns="http://www.w3.org/2000/svg" viewBox="0 0 600 600"><title>wireframe-accent</title><path d="M57.5,153a7.5,7.5,0,0,1-7.5-7.5V84A33,33,0,0,1,83,51H241.32a7.5,7.5,0,0,1,0,15H83A18,18,0,0,0,65,84v61.53A7.5,7.5,0,0,1,57.5,153Z" style="fill:#ff4080"/><path d="M82.75,101.81a22,22,0,1,0,22-22A22,22,0,0,0,82.75,101.81Zm29,0a7,7,0,1,1-7-7A7,7,0,0,1,111.78,101.81Z" style="fill:#ff4080"/><path d="M138.8,101.81a22,22,0,1,0,22-22A22,22,0,0,0,138.8,101.81Zm29,0a7,7,0,1,1-7-7A7,7,0,0,1,167.83,101.81Z" style="fill:#ff4080"/><path d="M194.85,101.81a22,22,0,1,0,22-22A22,22,0,0,0,194.85,101.81Zm29,0a7,7,0,1,1-7-7A7,7,0,0,1,223.88,101.81Z" style="fill:#ff4080"/><path d="M529,51H288.67a7.5,7.5,0,0,0,0,15H529a18,18,0,0,1,18,18v54H65V84A18,18,0,0,1,83,66H241.32a7.5,7.5,0,0,0,0-15H83A33,33,0,0,0,50,84V530a33,33,0,0,0,33,33H529a33,33,0,0,0,33-33V84A33,33,0,0,0,529,51Zm18,479a18,18,0,0,1-18,18H83a18,18,0,0,1-18-18V153H547Z" style="fill:#ff4080"/><path d="M90.26,233.36a7.5,7.5,0,0,0,7.5-7.5v-11a19.23,19.23,0,0,1,3.17-10.63A7.5,7.5,0,0,0,88.39,196a34.25,34.25,0,0,0-5.64,18.87v11A7.5,7.5,0,0,0,90.26,233.36Z" style="fill:#ff4080"/><path d="M111.66,514.57a34.86,34.86,0,0,0,5.5.43h22.28a7.5,7.5,0,1,0,0-15H117.16a19,19,0,0,1-3.11-.25,7.51,7.51,0,0,0-2.39,14.82Z" style="fill:#ff4080"/><path d="M117.16,195.46h26.55a7.5,7.5,0,0,0,0-15h-26.6a7.5,7.5,0,1,0,0,15Z" style="fill:#ff4080"/><path d="M166.05,515h26.61a7.5,7.5,0,0,0,0-15H166.05a7.5,7.5,0,1,0,0,15Z" style="fill:#ff4080"/><path d="M170.32,195.46h26.61a7.5,7.5,0,0,0,0-15H170.32a7.5,7.5,0,0,0,0,15Z" style="fill:#ff4080"/><path d="M90.26,286.58a7.5,7.5,0,0,0,7.5-7.5V252.47a7.51,7.51,0,0,0-15,0v26.61A7.5,7.5,0,0,0,90.26,286.58Z" style="fill:#ff4080"/><path d="M92.61,499.11a7.51,7.51,0,0,0,6.84-10.58,19.1,19.1,0,0,1-1.69-7.94V465.33a7.51,7.51,0,0,0-15,0v15.26a34.27,34.27,0,0,0,3,14.09A7.51,7.51,0,0,0,92.61,499.11Z" style="fill:#ff4080"/><path d="M219.27,515h26.6a7.5,7.5,0,1,0,0-15h-26.6a7.5,7.5,0,1,0,0,15Z" style="fill:#ff4080"/><path d="M90.26,339.79a7.5,7.5,0,0,0,7.5-7.5V305.68a7.51,7.51,0,0,0-15,0v26.61A7.5,7.5,0,0,0,90.26,339.79Z" style="fill:#ff4080"/><path d="M90.26,446.23a7.5,7.5,0,0,0,7.5-7.5V412.12a7.51,7.51,0,1,0-15,0v26.61A7.5,7.5,0,0,0,90.26,446.23Z" style="fill:#ff4080"/><path d="M90.26,393a7.5,7.5,0,0,0,7.5-7.5V358.9a7.51,7.51,0,0,0-15,0v26.61A7.5,7.5,0,0,0,90.26,393Z" style="fill:#ff4080"/><path d="M326,302.4a7.5,7.5,0,0,0-7.51,7.5v26.61a7.51,7.51,0,0,0,15,0V309.9A7.5,7.5,0,0,0,326,302.4Z" style="fill:#ff4080"/><path d="M326,249.18a7.5,7.5,0,0,0-7.51,7.5v26.61a7.51,7.51,0,0,0,15,0V256.68A7.5,7.5,0,0,0,326,249.18Z" style="fill:#ff4080"/><path d="M326,355.62a7.5,7.5,0,0,0-7.51,7.5v26.61a7.51,7.51,0,0,0,15,0V363.12A7.5,7.5,0,0,0,326,355.62Z" style="fill:#ff4080"/><path d="M318.49,214.87v15.21a7.51,7.51,0,0,0,15,0V214.87a34.06,34.06,0,0,0-3-14.15,7.5,7.5,0,1,0-13.67,6.17A19.32,19.32,0,0,1,318.49,214.87Z" style="fill:#ff4080"/><path d="M326,408.83a7.5,7.5,0,0,0-7.51,7.5v26.61a7.51,7.51,0,0,0,15,0V416.33A7.5,7.5,0,0,0,326,408.83Z" style="fill:#ff4080"/><path d="M276.75,195.46h22.34a19.56,19.56,0,0,1,3.07.25,8,8,0,0,0,1.19.09,7.5,7.5,0,0,0,1.17-14.91,35.09,35.09,0,0,0-5.43-.43H276.75a7.5,7.5,0,0,0,0,15Z" style="fill:#ff4080"/><path d="M223.54,195.46h26.61a7.5,7.5,0,0,0,0-15H223.54a7.5,7.5,0,0,0,0,15Z" style="fill:#ff4080"/><path d="M272.48,515H299.2a7.5,7.5,0,1,0,0-15H272.48a7.5,7.5,0,0,0,0,15Z" style="fill:#ff4080"/><path d="M317.52,501.58a7.52,7.52,0,0,0,10.39-2.17,34.36,34.36,0,0,0,5.59-18.81V469.55a7.5,7.5,0,1,0-15,0V480.6a19.33,19.33,0,0,1-3.15,10.6A7.49,7.49,0,0,0,317.52,501.58Z" style="fill:#ff4080"/><path d="M368.94,317.23a7.39,7.39,0,0,0,1.51,1.3,34.31,34.31,0,0,0,24,9.75H415a7.5,7.5,0,0,0,0-15h-20.6a19.26,19.26,0,0,1-7.82-1.66l53.23-47.11,53.31,47.18a19.24,19.24,0,0,1-7.67,1.59h-25.6a7.5,7.5,0,0,0,0,15h25.6a34.31,34.31,0,0,0,24.74-10.53,6.26,6.26,0,0,0,.51-.52l.09-.11a34.3,34.3,0,0,0,9.07-23.24v-79a34.45,34.45,0,0,0-34.41-34.41H394.42a34.3,34.3,0,0,0-24.93,10.73,7.3,7.3,0,0,0-.55.56l-.2.25A34.28,34.28,0,0,0,360,214.87v79a34.26,34.26,0,0,0,8,22A7.67,7.67,0,0,0,368.94,317.23ZM504.88,214.87v79a19.36,19.36,0,0,1-1.33,7l-52.4-46.38,52.46-46.44A19.34,19.34,0,0,1,504.88,214.87ZM394.42,195.46h91.05a19.21,19.21,0,0,1,7.84,1.68l-53.48,47.33-53.41-47.26A19.32,19.32,0,0,1,394.42,195.46ZM375,214.87a19.37,19.37,0,0,1,1.2-6.66l52.3,46.28-52.23,46.23a19.43,19.43,0,0,1-1.27-6.85Z" style="fill:#ff4080"/><path d="M369.05,503.84a6.38,6.38,0,0,0,.52.52A34.32,34.32,0,0,0,394.42,515h91.05a34.32,34.32,0,0,0,24.85-10.64c.18-.17.35-.34.51-.52l.09-.12a34.27,34.27,0,0,0,9-23.13v-79a34.31,34.31,0,0,0-9-23.13l-.09-.11a5.83,5.83,0,0,0-.55-.56,34.31,34.31,0,0,0-24.81-10.61H394.42a34.29,34.29,0,0,0-24.81,10.61,5.92,5.92,0,0,0-.56.56l-.09.11A34.3,34.3,0,0,0,360,401.59v79A34.26,34.26,0,0,0,369,503.72ZM485.47,500H394.42a19.27,19.27,0,0,1-7.83-1.66l53.35-47.23,53.36,47.23A19.31,19.31,0,0,1,485.47,500Zm19.41-98.41v79a19.4,19.4,0,0,1-1.27,6.83l-52.35-46.34,52.35-46.32A19.3,19.3,0,0,1,504.88,401.59Zm-110.46-19.4h91.05a19.34,19.34,0,0,1,7.83,1.66l-53.36,47.23-53.35-47.23A19.27,19.27,0,0,1,394.42,382.19ZM375,401.59a19.18,19.18,0,0,1,1.27-6.83l52.34,46.33-52.34,46.34a19.19,19.19,0,0,1-1.27-6.84Z" style="fill:#ff4080"/></svg>