<svg xmlns="http://www.w3.org/2000/svg" viewBox="0 0 515.63 370.43"><title>logo-icon-black</title><g id="Layer_2" data-name="Layer 2"><g id="Layer_2-2" data-name="Layer 2"><path d="M-785.8-1220a176.77,176.77,0,0,0-26,1.91,6.23,6.23,0,0,0-1.58,11.86c64.06,27.65,110.11,94,110.11,171.44s-46,143.79-110.11,171.45a6.22,6.22,0,0,0,1.58,11.85,176.77,176.77,0,0,0,26,1.92c99.69,0,181.43-82.93,181.43-185.22S-686.11-1220-785.8-1220Z" transform="translate(1120 1220)"/><path d="M-774-1034.79c0-141.24-124.9-161.8-187.86-122.29-69.7,43.74-137.55,101.7-156.13,117.91a5.78,5.78,0,0,0,0,8.76c18.58,16.22,86.43,74.17,156.13,117.91C-898.9-873-774-893.54-774-1034.79Z" transform="translate(1120 1220)"/></g></g></svg>