<svg id="Layer_1" data-name="Layer 1" xmlns="http://www.w3.org/2000/svg" viewBox="0 0 600 600"><title>algorithm-primary</title><path d="M476,253.88h23.7a7.52,7.52,0,0,0,0-15H476a7.52,7.52,0,1,0,0,15Z" style="fill:#1e1848"/><path d="M499.66,488.18H476a7.52,7.52,0,1,0,0,15h23.7a7.52,7.52,0,0,0,0-15Z" style="fill:#1e1848"/><path d="M245.22,472.82V461.46a12.55,12.55,0,0,0-12.54-12.53H104V206.38h60.67a6.4,6.4,0,0,0,1-.08l64.48,37.77v51H159.52a13.29,13.29,0,0,0-13.27,13.27v38.45A13.28,13.28,0,0,0,159.52,360h70.66V370H159.52a13.29,13.29,0,0,0-13.27,13.27v38.45A13.28,13.28,0,0,0,159.52,435h16.84a7.52,7.52,0,0,0,0-15H161.29V385H314.1v34.9H223a7.52,7.52,0,0,0,0,15h92.89a13.28,13.28,0,0,0,13.26-13.27V383.23A13.29,13.29,0,0,0,315.88,370H245.22V360h70.66a13.28,13.28,0,0,0,13.26-13.27V308.32a13.29,13.29,0,0,0-13.26-13.27H245.22V242.94l61.23-35.86a9.53,9.53,0,0,0,0-16.44l-61.23-35.87V127.63H261.8a7.52,7.52,0,0,0,0-15h-115V69H328.63v43.54H308.85a7.52,7.52,0,1,0,0,15H329A14.67,14.67,0,0,0,343.67,113V68.66A14.68,14.68,0,0,0,329,54H146.39a14.68,14.68,0,0,0-14.67,14.66V113a14.69,14.69,0,0,0,14.67,14.67h83.79v26L165.7,191.41a6.41,6.41,0,0,0-1-.07H101.54A12.55,12.55,0,0,0,89,203.87V451.44A12.55,12.55,0,0,0,101.54,464H230.18v8.85a46.89,46.89,0,1,0,15,0ZM314.1,310.1V345H161.29V310.1ZM236.73,167.24l54,31.62-54,31.61-54-31.61Zm1,383.72a31.86,31.86,0,1,1,31.85-31.86A31.89,31.89,0,0,1,237.7,551Z" style="fill:#1e1848"/><path d="M348.91,227.51H329.86a12.56,12.56,0,0,0-12.54,12.54V258.1a12.56,12.56,0,0,0,12.54,12.54h19.05a12.55,12.55,0,0,0,12.54-12.54V240.05A12.55,12.55,0,0,0,348.91,227.51Z" style="fill:#1e1848"/><path d="M380,278.66h34.77a7.52,7.52,0,1,0,0-15H380a7.52,7.52,0,1,0,0,15Z" style="fill:#1e1848"/><path d="M500.35,263.62H433.72a7.52,7.52,0,0,0,0,15h66.63a7.52,7.52,0,0,0,0-15Z" style="fill:#1e1848"/><path d="M380,253.88h14.81a7.52,7.52,0,1,0,0-15H380a7.52,7.52,0,1,0,0,15Z" style="fill:#1e1848"/><path d="M412.92,253.88h44.3a7.52,7.52,0,0,0,0-15h-44.3a7.52,7.52,0,0,0,0,15Z" style="fill:#1e1848"/><path d="M348.91,476.85H329.86a12.56,12.56,0,0,0-12.54,12.54v18.05A12.56,12.56,0,0,0,329.86,520h19.05a12.55,12.55,0,0,0,12.54-12.54V489.39A12.55,12.55,0,0,0,348.91,476.85Z" style="fill:#1e1848"/><path d="M414.77,513H380a7.52,7.52,0,0,0,0,15h34.77a7.52,7.52,0,1,0,0-15Z" style="fill:#1e1848"/><path d="M500.35,513H433.72a7.52,7.52,0,0,0,0,15h66.63a7.52,7.52,0,0,0,0-15Z" style="fill:#1e1848"/><path d="M380,503.22h14.81a7.52,7.52,0,1,0,0-15H380a7.52,7.52,0,1,0,0,15Z" style="fill:#1e1848"/><path d="M412.92,488.18a7.52,7.52,0,1,0,0,15h44.3a7.52,7.52,0,0,0,0-15Z" style="fill:#1e1848"/></svg>