<svg id="Layer_1" data-name="Layer 1" xmlns="http://www.w3.org/2000/svg" viewBox="0 0 600 600"><defs><style>.cls-1{fill:#fff;}</style></defs><title>brain</title><path class="cls-1" d="M500.85,205c9.4-50.55-29.47-96.91-80.35-97.09a67,67,0,0,0-39.67-36.37A7.49,7.49,0,1,0,376,85.73c23.65,8,36.65,31.65,36.65,54.61a7.49,7.49,0,1,0,15,0,76.61,76.61,0,0,0-2.11-17.21,67.11,67.11,0,0,1,61.28,74.59,80.12,80.12,0,0,0-18.74-5.85,35.81,35.81,0,0,0-17.16-24.08,7.49,7.49,0,0,0-7.5,13,20.68,20.68,0,0,1,0,35.83,7.48,7.48,0,1,0,7.5,12.95A35.83,35.83,0,0,0,467.71,207c25.52,5.45,72.92,36.62,72.92,93a95.1,95.1,0,0,1-47.16,81.94c-1,.46-13.34,8.32-25.76,11a35.82,35.82,0,0,0-16.8-22.53,7.49,7.49,0,0,0-7.5,13,20.71,20.71,0,0,1,0,35.83,7.49,7.49,0,0,0,7.5,13,35.74,35.74,0,0,0,17.15-24.07,80,80,0,0,0,18.74-5.85,67.1,67.1,0,0,1-61.29,74.65,76.39,76.39,0,0,0,2.13-17.27,7.49,7.49,0,0,0-15,0c0,29.9-21.27,57-52.59,57.41-29.1.44-52.57-24.31-52.57-53V453.44h.74a21.3,21.3,0,0,0,21.28-21.28v-6.42a21.38,21.38,0,0,0,14.18-20.06v-1.06a21.47,21.47,0,0,0-5.09-13.8A21.55,21.55,0,0,0,343.69,377V376a21.46,21.46,0,0,0-3.48-11.65,20.93,20.93,0,0,0,6.93-15.52V336.16a6,6,0,0,1,2.88-5.05,95.17,95.17,0,0,0,42.13-59.18,7.49,7.49,0,1,0-14.61-3.32,80.05,80.05,0,0,1-35.46,49.79h0a21,21,0,0,0-8.33,9.82.8.8,0,0,0-.08.16c-1.86,4.63-1.5,6.87-1.5,20.42a5.9,5.9,0,0,1-5.89,5.89H307.49V318.36a30.43,30.43,0,0,0,23.76-29.64v-10.8a7.49,7.49,0,0,0-2.33-14.61H270.69A7.48,7.48,0,0,0,268.75,278v10.7a30.43,30.43,0,0,0,23.76,29.64v36.33H273.72a5.9,5.9,0,0,1-5.89-5.89c0-13.67.06-13.56-.16-15.33a20.88,20.88,0,0,0-9.73-15.05A79.16,79.16,0,0,1,231.8,210.34c38.32-63.72,133.52-45,146.45,26.32A7.49,7.49,0,0,0,393,234a94.52,94.52,0,0,0-85.5-77.23V136a53.19,53.19,0,0,1,38.05-51,7.49,7.49,0,1,0-4.14-14.39A67.71,67.71,0,0,0,300,105c-26.15-51.32-98-48.2-120.46,2.91-50.88.19-89.76,46.53-80.37,97.09-72.92,42.35-72.78,147.71,0,190-9.39,50.55,29.48,96.91,80.37,97.09C201.9,543,273.76,546.56,300,494.92c26.11,51.37,98,48.31,120.5-2.85,50.88-.18,89.75-46.52,80.36-97.09C573.79,352.64,573.65,247.28,500.85,205ZM283.73,288.73V278.29h32.54v10.44a15.41,15.41,0,0,1-15.39,15.38h-1.76A15.4,15.4,0,0,1,283.73,288.73Zm30.81,143.43a6.31,6.31,0,0,1-6.31,6.3H291.77a6.31,6.31,0,0,1-6.31-6.3V427h29.08Zm7.87-62.49a6.31,6.31,0,0,1,6.31,6.3V377a6.31,6.31,0,0,1-6.31,6.3H277.58a6.31,6.31,0,0,1-6.3-6.3V376a6.31,6.31,0,0,1,6.3-6.3Zm0,28.64a6.32,6.32,0,0,1,6.31,6.31v1.06A6.33,6.33,0,0,1,322,412H278a6.33,6.33,0,0,1-6.69-6.31v-1.06a6.32,6.32,0,0,1,6.31-6.31ZM239.93,517c-31.35-.43-52.58-27.57-52.58-57.41a7.49,7.49,0,1,0-15,0,76.39,76.39,0,0,0,2.13,17.27,67.1,67.1,0,0,1-61.29-74.65,79.89,79.89,0,0,0,18.73,5.85,35.81,35.81,0,0,0,17.15,24.07,7.49,7.49,0,1,0,7.5-13,20.71,20.71,0,0,1,0-35.83,7.49,7.49,0,1,0-7.51-13,35.82,35.82,0,0,0-16.79,22.53c-25-5.34-72.92-35.7-72.92-92.92,0-57.73,48.84-87.84,72.92-93a35.82,35.82,0,0,0,16.79,22.53,7.49,7.49,0,1,0,7.51-13,20.71,20.71,0,0,1,0-35.83,7.49,7.49,0,0,0-7.5-13,35.83,35.83,0,0,0-17.15,24.08,80,80,0,0,0-18.74,5.85,67.11,67.11,0,0,1,61.28-74.59,76.61,76.61,0,0,0-2.11,17.21,7.49,7.49,0,1,0,15,0c0-13.24,5.54-25.64,5.65-25.89l0-.06,0-.09A51.91,51.91,0,0,1,240.64,83c29.06,0,51.87,24.83,51.87,53v20.75c-48.15,3.8-86.89,44.39-87,94A94,94,0,0,0,250,331.12a5.92,5.92,0,0,1,2.85,5V348.8a20.92,20.92,0,0,0,6.93,15.52A21.43,21.43,0,0,0,256.3,376V377a21.55,21.55,0,0,0,5.09,13.79,21.68,21.68,0,0,0-5.09,13.8v1.06a21.39,21.39,0,0,0,14.18,20.06v6.42a21.31,21.31,0,0,0,21.28,21.28h.75V464C292.51,492.49,269.29,517.4,239.93,517Z"/></svg>