<svg id="Layer_1" data-name="Layer 1" xmlns="http://www.w3.org/2000/svg" viewBox="0 0 600 600"><title>calligraphy-accent</title><path d="M358.64,276.18a43.91,43.91,0,0,0-33.41-15.42H294.07V246.64h29.12V188.17a29.38,29.38,0,0,0-29.34-29.35H162.78a29.38,29.38,0,0,0-29.34,29.35v58.47h29.12v14.12H131.4a43.92,43.92,0,0,0-43.35,50.85l23.54,147.14v28.67a22.09,22.09,0,0,0,22.07,22.07H323A22.09,22.09,0,0,0,345,487.42V458.75l23.54-147.14A43.9,43.9,0,0,0,358.64,276.18Zm-210.2-44.54V188.17a14.36,14.36,0,0,1,14.34-14.35H293.85a14.36,14.36,0,0,1,14.34,14.35v43.47Zm130.63,15v14.12H177.56V246.64Zm74.7,62.6L330,457.56v29.86a7.08,7.08,0,0,1-7.07,7.07H133.66a7.08,7.08,0,0,1-7.07-7.07V472.36H295a7.5,7.5,0,0,0,0-15H126.56l-23.7-148.12a28.91,28.91,0,0,1,28.54-33.48H325.23a28.92,28.92,0,0,1,28.54,33.48Z" style="fill:#ff4080"/><path d="M418.34,465.56a25.55,25.55,0,0,0,5.39,30.83l28.35,25.83,2.19,13.87a17,17,0,0,0,19.49,14.16l16.83-2.66a17,17,0,0,0,14.16-19.49l-2.2-13.87,19-33.34a25.55,25.55,0,0,0-4.42-31l-19.05-18.48-2.53-16a17,17,0,0,0,6.12-15.82l-3.07-19.38a16.43,16.43,0,0,0,5.59-16.34l-22.88-108-12.36-58.41L442.37,71.89a35.35,35.35,0,0,0-69.75,11l31.49,296.83a17.08,17.08,0,0,0,6.59,11.7,16.44,16.44,0,0,0,3.78,2.1L417.55,413a17,17,0,0,0,10.71,13.15l2.53,16Zm86.91-3.42a8.52,8.52,0,0,1,1.48,10.33l-19,33.32a17,17,0,0,0-2,11.1l2.19,13.87-16.82,2.67-2.2-13.87a17.08,17.08,0,0,0-5.35-9.93L435.2,483.8a8.53,8.53,0,0,1-1.8-10.28l12.42-23.47a17.16,17.16,0,0,0,1.76-10.62l-2.15-13.61,33.65-5.33,2.15,13.61a17.23,17.23,0,0,0,5,9.56ZM431.69,393.5l50.47-8,2.67,16.82-50.48,8Zm48.65-59.87,7.15,33.79L421,378,389.57,81.11a18.3,18.3,0,0,1,36.12-5.72l14,66.33m26.49,125.16,10.59,50.06m-23-108.47,8.84,41.72m-19.43-91.78,7.06,33.38" style="fill:#ff4080"/><path d="M465.16,470.88a8.63,8.63,0,0,0,0,12.1,8.52,8.52,0,1,0,0-12.1Z" style="fill:#ff4080"/></svg>