<svg id="Layer_1" data-name="Layer 1" xmlns="http://www.w3.org/2000/svg" viewBox="0 0 600 600"><title>coding-secondary</title><path d="M521.41,45.56H148.6a34.13,34.13,0,0,0-34.09,34.08v33.81H78.59A34.13,34.13,0,0,0,44.5,147.54V520.35a34.12,34.12,0,0,0,34.08,34.09H243.1a7.49,7.49,0,1,0,0-15H78.58a19.14,19.14,0,0,1-19.11-19.12v-324h411v324a19.13,19.13,0,0,1-19.11,19.11H278a7.49,7.49,0,1,0,0,15H451.4a34.12,34.12,0,0,0,34.08-34.08V486.55h35.93a34.13,34.13,0,0,0,34.09-34.09V296.61a7.49,7.49,0,1,0-15,0V452.46a19.14,19.14,0,0,1-19.12,19.11H485.48v-324a33.92,33.92,0,0,0-5.87-19.11h60.92V261.68a7.49,7.49,0,0,0,15,0v-182A34.13,34.13,0,0,0,521.41,45.56Zm-372.81,15h35.93v52.92h-55V79.64A19.13,19.13,0,0,1,148.6,60.53ZM59.47,181.35V147.54a19.13,19.13,0,0,1,19.11-19.11h35.93v52.92Zm70,0V128.43H451.4a19.13,19.13,0,0,1,19.11,19.11v33.81Zm70-67.9V60.53h321.9a19.14,19.14,0,0,1,19.12,19.11v33.81Z" style="fill:#6b96ff"/><path d="M514.28,79.51H493.36a7.49,7.49,0,1,0,0,15h20.92a7.49,7.49,0,1,0,0-15Z" style="fill:#6b96ff"/><path d="M444.26,147.4H423.34a7.49,7.49,0,0,0,0,15h20.92a7.49,7.49,0,1,0,0-15Z" style="fill:#6b96ff"/><path d="M238.55,443.64a20.25,20.25,0,0,0,11.75-10.3l57-115.5a20.35,20.35,0,0,0,8.35,17.29l32.83,24-32.83,24a20.32,20.32,0,0,0-8.13,13.36c-2.77,17.94,17.62,30.32,32.26,19.61l55.34-40.51a20.42,20.42,0,0,0,0-33l-55.34-40.52a20.37,20.37,0,0,0-25.15.82,20.42,20.42,0,0,0-36.67-18l-55.4,112.29a20.35,20.35,0,0,0-8.19-14.08l-32.83-24,32.83-24a20.43,20.43,0,0,0-24.13-33l-55.34,40.52a20.42,20.42,0,0,0,0,33l55.34,40.51a20.44,20.44,0,0,0,22.63,1C206.78,433.3,222.34,449.15,238.55,443.64Zm88.31-130.39c3.08-.47-.82-2.58,59.4,41.51a5.45,5.45,0,0,1,0,8.8l-55.34,40.52a5.47,5.47,0,0,1-8.62-5.24c.49-3.11-1-1.23,43.25-33.64a7.49,7.49,0,0,0,0-12.08c-44.4-32.5-42.77-30.57-43.25-33.64A5.46,5.46,0,0,1,326.86,313.25ZM227.09,421.89l64.27-130.28a5.46,5.46,0,0,1,9.79,4.82L236.88,426.72a5.46,5.46,0,1,1-9.79-4.83Zm-20.4-19a5.46,5.46,0,0,1-7.63,1.18l-55.34-40.52a5.45,5.45,0,0,1,0-8.8l55.34-40.52a5.46,5.46,0,1,1,6.45,8.8l-41.08,30.08a7.5,7.5,0,0,0,0,12.08l41.08,30.07A5.46,5.46,0,0,1,206.69,402.9Z" style="fill:#6b96ff"/></svg>