<svg id="Layer_1" data-name="Layer 1" xmlns="http://www.w3.org/2000/svg" viewBox="0 0 600 600"><title>contact-card-accent</title><path d="M507.78,122.71H92.22a34,34,0,0,0-34,34V443.31a34,34,0,0,0,34,34H507.78a34,34,0,0,0,34-34V156.69A34,34,0,0,0,507.78,122.71Zm17.86,320.6a17.88,17.88,0,0,1-17.86,17.86H92.22a17.88,17.88,0,0,1-17.86-17.86V156.69a17.88,17.88,0,0,1,17.86-17.86H507.78a17.88,17.88,0,0,1,17.86,17.86Z" style="fill:#ff4080"/><path d="M174,214.76a51.26,51.26,0,0,0,24.59,6c1.63,0,3.28-.07,4.91-.2,1.11-.09,2.28-.13,3.46-.13,33.3,0,40.12,15.45,42.34,28.91l.95,5.76,4.6,3.6a6.72,6.72,0,0,1,2.63,5.29v7.28a6.64,6.64,0,0,1-3.59,5.95l-5.41,2.87-1.86,5.84c-3.48,11-9.28,18.53-17.73,23.14L221,313.31v20.9l8.18,4.18,26.48,13.52.05,0,0,0a16.09,16.09,0,0,1,8.92,14.45v7.23c-4,1.92-17.53,6.36-57.8,6.36s-53.83-4.44-57.8-6.36v-7.81a16.14,16.14,0,0,1,8.19-14.06l27.12-13.37,8.37-4.12v-21L185,309c-8.44-4.61-14.24-12.18-17.72-23.14l-1.86-5.84L160,277.19a6.64,6.64,0,0,1-3.59-5.95V264a6.75,6.75,0,0,1,2.6-5.27l4.66-3.71.85-5.91a66.22,66.22,0,0,1,4.14-15.72c.86-2.12,1.62-3.75,2.29-5.2l.16-.35c2.48-5.34,3.19-8.71,2.86-13M165.28,191a8.73,8.73,0,0,0-3.34.67,8.64,8.64,0,0,0-5.34,9.07c.3,2.73.76,5.89,1.45,9.37,1.41,7.09,1.41,7.09-.56,11.34-.75,1.61-1.66,3.57-2.74,6.21a81.11,81.11,0,0,0-5.1,19.27,21.72,21.72,0,0,0-8.26,17v7.28A21.67,21.67,0,0,0,153,290.44c4.65,14.65,13,25.3,24.84,31.77V325l-27.44,13.52a31.14,31.14,0,0,0-16.24,27.36v9.65c0,5.84,0,19.52,72.8,19.52s72.8-13.68,72.8-19.52v-9.07a31,31,0,0,0-17.2-27.86L236,325v-2.82c11.85-6.47,20.18-17.13,24.84-31.77a21.67,21.67,0,0,0,11.56-19.2V264a21.72,21.72,0,0,0-8.38-17.1c-4.54-27.52-23.75-41.46-57.14-41.46-1.58,0-3.12.06-4.63.17-1.16.1-2.41.16-3.74.16-5.89,0-13.22-1.17-19.73-5.55a29.51,29.51,0,0,1-6.66-5.77,8.71,8.71,0,0,0-6.87-3.38Z" style="fill:#ff4080"/><path d="M318,243.59h60.59a8.06,8.06,0,0,0,0-16.12H318a8.06,8.06,0,0,0,0,16.12Z" style="fill:#ff4080"/><path d="M410.82,243.59h8.06a8.06,8.06,0,0,0,0-16.12h-8.06a8.06,8.06,0,1,0,0,16.12Z" style="fill:#ff4080"/><path d="M443.06,364.47H426.94a8.06,8.06,0,1,0,0,16.12h16.12a8.06,8.06,0,0,0,0-16.12Z" style="fill:#ff4080"/><path d="M469.57,366.81A8.09,8.09,0,0,0,481,378.25a8.09,8.09,0,0,0-11.44-11.44Z" style="fill:#ff4080"/><path d="M475.29,275.82H318a8.06,8.06,0,0,0,0,16.12H475.29a8.06,8.06,0,1,0,0-16.12Z" style="fill:#ff4080"/><path d="M475.29,322.18H318a8.06,8.06,0,1,0,0,16.11H475.29a8.06,8.06,0,1,0,0-16.11Z" style="fill:#ff4080"/><path d="M394.41,364.47H318.29a8.06,8.06,0,1,0,0,16.12h76.12a8.06,8.06,0,1,0,0-16.12Z" style="fill:#ff4080"/></svg>