<svg id="Layer_1" data-name="Layer 1" xmlns="http://www.w3.org/2000/svg" viewBox="0 0 600 600"><title>data-primary</title><path d="M103.35,231a7.48,7.48,0,1,0,10.57-10.58L95.76,202.22l18.16-18.15a7.48,7.48,0,0,0-10.57-10.58L79.9,196.94a7.47,7.47,0,0,0,0,10.57Z" style="fill:#1e1848"/><path d="M177.56,202.22,159.4,220.38A7.48,7.48,0,0,0,170,231l23.45-23.45a7.47,7.47,0,0,0,0-10.57L170,173.49a7.47,7.47,0,0,0-10.57,10.57Z" style="fill:#1e1848"/><path d="M125.51,232.63a7.48,7.48,0,0,0,9.7-4.22l18.42-46.9A7.48,7.48,0,1,0,139.71,176l-18.42,46.9A7.48,7.48,0,0,0,125.51,232.63Z" style="fill:#1e1848"/><path d="M89.42,277H139.8a7.48,7.48,0,1,0,0-15H89.42a7.48,7.48,0,1,0,0,15Z" style="fill:#1e1848"/><path d="M255.84,262.07H167.27a7.48,7.48,0,1,0,0,15h88.57a7.48,7.48,0,1,0,0-15Z" style="fill:#1e1848"/><path d="M89.42,308.57h21.46a7.48,7.48,0,1,0,0-15H89.42a7.48,7.48,0,0,0,0,15Z" style="fill:#1e1848"/><path d="M228.48,293.61a7.48,7.48,0,0,0,0,15h13.07a7.48,7.48,0,1,0,0-15Z" style="fill:#1e1848"/><path d="M208.8,301.09a7.48,7.48,0,0,0-7.48-7.48h-64.2a7.48,7.48,0,0,0,0,15h64.2A7.48,7.48,0,0,0,208.8,301.09Z" style="fill:#1e1848"/><path d="M257.79,301.09a7.48,7.48,0,0,0,7.48,7.48h24.47a7.48,7.48,0,1,0,0-15H265.27A7.48,7.48,0,0,0,257.79,301.09Z" style="fill:#1e1848"/><path d="M217.06,208.22h25.82a7.48,7.48,0,0,0,0-15H217.06a7.48,7.48,0,0,0,0,15Z" style="fill:#1e1848"/><path d="M271.8,208.22H429.35a7.48,7.48,0,0,0,0-15H271.8a7.48,7.48,0,0,0,0,15Z" style="fill:#1e1848"/><path d="M405.42,226.17H341.6a7.48,7.48,0,0,0,0,15h63.82a7.48,7.48,0,0,0,0-15Z" style="fill:#1e1848"/><path d="M317.67,226.17H295.73a7.48,7.48,0,0,0,0,15h21.94a7.48,7.48,0,0,0,0-15Z" style="fill:#1e1848"/><path d="M217.06,241.13H270.8a7.48,7.48,0,0,0,0-15H217.06a7.48,7.48,0,0,0,0,15Z" style="fill:#1e1848"/><path d="M201.41,324.89H151a7.48,7.48,0,1,0,0,14.95h50.37a7.48,7.48,0,1,0,0-14.95Z" style="fill:#1e1848"/><path d="M128.13,324.89H89.42a7.48,7.48,0,1,0,0,14.95h38.71a7.48,7.48,0,0,0,0-14.95Z" style="fill:#1e1848"/><path d="M292.74,324.89H226.93a7.48,7.48,0,1,0,0,14.95h65.81a7.48,7.48,0,1,0,0-14.95Z" style="fill:#1e1848"/><path d="M381.74,286.47h-36a7.48,7.48,0,0,0,0,15h36a7.48,7.48,0,1,0,0-15Z" style="fill:#1e1848"/><path d="M444.19,301.43H495a7.48,7.48,0,1,0,0-15h-50.8a7.48,7.48,0,0,0,0,15Z" style="fill:#1e1848"/><path d="M418.79,286.47H407.14a7.48,7.48,0,1,0,0,15h11.65a7.48,7.48,0,0,0,0-15Z" style="fill:#1e1848"/><path d="M345.75,382.93h36a7.48,7.48,0,1,0,0-15h-36a7.48,7.48,0,0,0,0,15Z" style="fill:#1e1848"/><path d="M444.19,382.93H495a7.48,7.48,0,1,0,0-15h-50.8a7.48,7.48,0,1,0,0,15Z" style="fill:#1e1848"/><path d="M407.14,382.93h11.65a7.48,7.48,0,0,0,0-15H407.14a7.48,7.48,0,0,0,0,15Z" style="fill:#1e1848"/><path d="M381.74,449.47h-36a7.48,7.48,0,1,0,0,15h36a7.48,7.48,0,1,0,0-15Z" style="fill:#1e1848"/><path d="M495,449.47h-50.8a7.48,7.48,0,0,0,0,15H495a7.48,7.48,0,1,0,0-15Z" style="fill:#1e1848"/><path d="M418.79,449.47H407.14a7.48,7.48,0,1,0,0,15h11.65a7.48,7.48,0,0,0,0-15Z" style="fill:#1e1848"/><path d="M522.59,44.78H77.42A33,33,0,0,0,44.5,77.69V439.55a33,33,0,0,0,32.92,32.91h28.14a7.48,7.48,0,1,0,0-14.95H77.42a18,18,0,0,1-18-18V411.18H331.92v12.89H326a14.73,14.73,0,0,0-14.71,14.71v18.73H151a7.48,7.48,0,1,0,0,14.95h71.91v26.83H200.36A27.34,27.34,0,0,0,173,526.6v16.16a12.47,12.47,0,0,0,12.46,12.46H413.93a12.48,12.48,0,0,0,12.47-12.46V526.6a27.35,27.35,0,0,0-27.32-27.31H376.5v-9.46H514.75a14.72,14.72,0,0,0,14.71-14.71V471.6a33,33,0,0,0,25.47-32.05l.57-361.86A32.94,32.94,0,0,0,522.59,44.78ZM326.24,393.38V357.53H514.5v35.85Zm20.64-50.81V326.83h147v15.74Zm147,65.76v15.74h-147V408.33Zm-256,64.13h73.39v2.67A14.72,14.72,0,0,0,326,489.83h35.55v9.46H237.89Zm161.19,41.79a12.37,12.37,0,0,1,12.36,12.35v13.67H188V526.6a12.37,12.37,0,0,1,12.37-12.35ZM514.5,474.87H326.24V439H514.5ZM540,439.55a18,18,0,0,1-10.52,16.32V438.78a14.73,14.73,0,0,0-14.71-14.71h-5.93V411.18H540Zm0-43.32H529.22c.15-.85.24-39,.24-39a14.73,14.73,0,0,0-14.71-14.71h-5.93V326.83h5.93a14.73,14.73,0,0,0,14.71-14.71V275.78a14.73,14.73,0,0,0-14.71-14.71H472.51a7.48,7.48,0,0,0,0,15h42v35.85H326.24V276H426a7.48,7.48,0,0,0,0-15H326a14.73,14.73,0,0,0-14.71,14.71v36.34A14.73,14.73,0,0,0,326,326.83h5.93v15.74H326a14.73,14.73,0,0,0-14.71,14.71s.1,38.1.25,39H59.46V146.51H540Zm0-264.68H60V77.69a18,18,0,0,1,18-18H522a18,18,0,0,1,18,18Z" style="fill:#1e1848"/><path d="M99.65,73.48a22,22,0,1,0,21.95,22A22,22,0,0,0,99.65,73.48Zm0,28.94a7,7,0,1,1,7-7A7,7,0,0,1,99.65,102.42Z" style="fill:#1e1848"/><path d="M155.53,73.48a22,22,0,1,0,21.95,22A22,22,0,0,0,155.53,73.48Zm0,28.94a7,7,0,1,1,7-7A7,7,0,0,1,155.53,102.42Z" style="fill:#1e1848"/><path d="M211.41,73.48a22,22,0,1,0,22,22A22,22,0,0,0,211.41,73.48Zm0,28.94a7,7,0,1,1,7-7A7,7,0,0,1,211.41,102.42Z" style="fill:#1e1848"/></svg>