<svg id="Layer_1" data-name="Layer 1" xmlns="http://www.w3.org/2000/svg" viewBox="0 0 600 600"><title>growth-accent</title><path d="M522.81,118l-.24,0c-18.94-3.1-33.94,8.37-39.14,29.94l-31.12,93.54c-7.83-4.66-18.89-6.92-31.41.33a67,67,0,0,0-38.77-12.37c-1.44,0-2.91.05-4.39.15a91.59,91.59,0,0,0-67.36-38.22V108.88h24.13a34.31,34.31,0,0,0,34.28-34.27V37.5a7.5,7.5,0,0,0-7.5-7.5H329.66a34.32,34.32,0,0,0-34.28,34.27V80.35a42.37,42.37,0,0,0-27.56-10.17H226.4a7.5,7.5,0,0,0-7.5,7.5v31.6a42.61,42.61,0,0,0,42.57,42.56h33.92v39.53A91.63,91.63,0,0,0,228,229.58c-1.47-.1-2.94-.14-4.38-.14A66.3,66.3,0,0,0,187.55,240a29.18,29.18,0,0,0-27.86,1.49l-31.12-93.54c-5.2-21.57-20.2-33-39.14-29.94l-.24,0C64.54,122.9,61,146.51,62.78,159.7c0,.15,0,.29.07.43L91.38,306.57c3.57,25.81,21,41.06,28.4,46.42l.29.21c52.07,34.27,52.65,32.79,63,49H168.14a15.77,15.77,0,0,0-15.79,15.7V525.17A16.85,16.85,0,0,0,169.18,542H296.1a17.31,17.31,0,0,0,9.9-3.11,17.31,17.31,0,0,0,9.9,3.11h50.66a7.5,7.5,0,0,0,0-15H315.9a2.41,2.41,0,0,1-2.4-2.4V463.78H444.65v61.39a1.83,1.83,0,0,1-1.83,1.83H401.56a7.5,7.5,0,1,0,0,15h41.26a16.85,16.85,0,0,0,16.83-16.83V417.88a15.76,15.76,0,0,0-15.78-15.69H428.93c10.43-16.31,11.49-15.09,63-49l.3-.21c7.35-5.36,24.82-20.6,28.4-46.41L526.4,277a7.5,7.5,0,0,0-14.73-2.86l-5.81,29.84c0,.17-.06.34-.08.51-2.65,19.31-15,31-22.25,36.33-55.23,36.35-55,33.76-70.27,58.15l-2.05,3.27H318c9.05-53,7-48.88,40-96.49,8.05-11.15,15.14-14.57,69.05-50,12.86-8.48,21.28,1.29,22.8,3.29l.05.06.09.13c1.67,2.16,6.48,9.77-1.42,16.73-13.91,12.24-46.9,41.51-47.24,41.8a7.5,7.5,0,1,0,10,11.22c.33-.29,33.3-29.54,47.19-41.76,12.39-10.91,10.62-24.9,5.68-33.71l33.61-101a4.91,4.91,0,0,0,.15-.51l.1-.41c2.35-9.75,8.09-20.89,22-18.68,16.12,3.26,14.87,20.69,14.36,24.69l-15.9,81.6A7.5,7.5,0,0,0,533.22,242l15.93-81.82a3,3,0,0,0,.07-.43C551,146.52,547.47,122.9,522.81,118Zm-261.35,18.8a27.59,27.59,0,0,1-27.56-27.56V85.19h33.92a27.59,27.59,0,0,1,27.56,27.56v24.09Zm48.92-50.7V64.27A19.3,19.3,0,0,1,329.65,45h24.13V74.61a19.29,19.29,0,0,1-19.27,19.27H310.38V86.14ZM128.47,340.77c-7.24-5.31-19.59-17-22.25-36.29,0-.19,0-.37-.08-.55L77.61,157.49c-.51-4-1.76-21.44,14.36-24.7,13.94-2.21,19.66,8.93,22,18.68l.1.42a4.74,4.74,0,0,0,.15.5l33.61,101c-4.94,8.81-6.71,22.8,5.68,33.71,13.89,12.22,46.86,41.47,47.19,41.76a7.5,7.5,0,1,0,9.95-11.22c-.33-.29-33.32-29.56-47.23-41.8-7.9-6.95-3.1-14.55-1.43-16.73l.06-.08.05-.06c5.11-6.71,13.38-9.1,22-3.84.49.3,23.79,15.56,24.27,15.87,33,21.56,38.93,25.44,45.61,34.71l0,0c33.73,48.73,31.14,45,39.92,96.44H200.79l-2-3.27C183.51,374.54,183.74,377.15,128.47,340.77ZM296.1,527H169.18a1.83,1.83,0,0,1-1.83-1.83V463.78H298.5V524.6h0A2.41,2.41,0,0,1,296.1,527Zm2.4-108.95v30.73H167.35V417.89a.74.74,0,0,1,.79-.7h129.6a.73.73,0,0,1,.29.07l0,0a.88.88,0,0,1,.44.76Zm145.36-.86a.75.75,0,0,1,.79.69v30.9H313.5V418s0-.08,0-.13a.8.8,0,0,1,.74-.71ZM347.52,294.65l-.08.09c-34.64,44.88-38.55,71.72-41.44,88.59-2.72-15.88-4.83-26.41-9-36.47-6.84-16.66-30.85-50.26-34-54.07-8.43-10.11-19.27-16.54-60.52-43.59l-.26-.17a51.58,51.58,0,0,1,21.42-4.59,52.11,52.11,0,0,1,7.07.49,7.51,7.51,0,0,0,7.32-3.38,77,77,0,0,1,129.71,0,7.52,7.52,0,0,0,7.32,3.38,51.85,51.85,0,0,1,32,5.88C365.7,277.91,356.09,283.58,347.52,294.65Z" style="fill:#ff4080"/></svg>