<svg id="Layer_1" data-name="Layer 1" xmlns="http://www.w3.org/2000/svg" viewBox="0 0 600 600"><title>idea-accent</title><path d="M127.57,246.31H102.69a7.5,7.5,0,0,0,0,15h24.88a7.5,7.5,0,0,0,0-15Z" style="fill:#ff4080"/><path d="M497.31,246.31H472.43a7.5,7.5,0,0,0,0,15h24.88a7.5,7.5,0,0,0,0-15Z" style="fill:#ff4080"/><path d="M183.38,370.43a7.5,7.5,0,0,0-10.61,0L155.18,388a7.5,7.5,0,0,0,10.61,10.61L183.38,381A7.49,7.49,0,0,0,183.38,370.43Z" style="fill:#ff4080"/><path d="M300,39a7.5,7.5,0,0,0-7.5,7.5V71.38a7.5,7.5,0,0,0,15,0V46.5A7.5,7.5,0,0,0,300,39Z" style="fill:#ff4080"/><path d="M444.82,388l-17.59-17.59A7.5,7.5,0,0,0,416.62,381l17.59,17.6A7.5,7.5,0,0,0,444.82,388Z" style="fill:#ff4080"/><path d="M183.38,126.58,165.79,109a7.5,7.5,0,0,0-10.61,10.6l17.59,17.6a7.5,7.5,0,0,0,10.61-10.61Z" style="fill:#ff4080"/><path d="M478.59,96.57H435.25a18.32,18.32,0,0,0,0,36.64h.12l-21.24,21.6a151.57,151.57,0,0,0-95.72-51.22,7.5,7.5,0,1,0-1.82,14.89,136.46,136.46,0,0,1,87,47.06l-78.29,79.63-24-17A18.29,18.29,0,0,0,277,230.9l-62.25,70a18.32,18.32,0,0,0,27.38,24.35l51.33-57.71,23.32,16.56A18.24,18.24,0,0,0,340.47,282l83.22-84.64a134.41,134.41,0,0,1,10.53,36,7.5,7.5,0,0,0,14.84-2.17A149.25,149.25,0,0,0,434.88,186l25.39-25.82v.24a18.32,18.32,0,0,0,36.64,0V114.89A18.34,18.34,0,0,0,478.59,96.57Zm3.32,63.81c0,4.38-6.64,4.39-6.64,0V141.81a7.51,7.51,0,0,0-12.85-5.25L329.78,271.46a3.3,3.3,0,0,1-4.29.38l-28.8-20.45a7.5,7.5,0,0,0-9.95,1.13l-55.8,62.73a3.32,3.32,0,0,1-5-4.41l62.25-70a3.34,3.34,0,0,1,4.4-.5l29.19,20.73a7.53,7.53,0,0,0,9.69-.86L458.62,131a7.51,7.51,0,0,0-5.35-12.76h-18c-4.39,0-4.39-6.64,0-6.64h43.33a3.32,3.32,0,0,1,3.32,3.32v45.49Z" style="fill:#ff4080"/><path d="M443.21,259.82a7.5,7.5,0,0,0-8.19,6.73,136.56,136.56,0,0,1-63,101.59,50.45,50.45,0,0,0-23.85,42.91v30.87H251.81V410.37a49.41,49.41,0,0,0-23.11-41.78A135.68,135.68,0,0,1,283.42,118.5a7.5,7.5,0,0,0-1.84-14.88A150.67,150.67,0,0,0,220.8,381.35a34.27,34.27,0,0,1,16,29V443a19.52,19.52,0,0,0-13.13,18.41v10.69a19.47,19.47,0,0,0,4.16,12,19.42,19.42,0,0,0-4.16,12v10.69a19.53,19.53,0,0,0,19.5,19.5h23.58v17A17.76,17.76,0,0,0,284.5,561h31a17.75,17.75,0,0,0,17.73-17.74v-17h23.58a19.52,19.52,0,0,0,19.5-19.5V496.12a19.36,19.36,0,0,0-4.16-12,19.41,19.41,0,0,0,4.16-12V461.42A19.51,19.51,0,0,0,363.19,443v-32A35.55,35.55,0,0,1,380,380.84,150.65,150.65,0,0,0,449.94,268,7.49,7.49,0,0,0,443.21,259.82Zm-125,283.44h0A2.78,2.78,0,0,1,315.5,546h-31a2.78,2.78,0,0,1-2.73-2.74v-17h36.47Zm43.08-36.46a4.56,4.56,0,0,1-4.5,4.5H243.18a4.57,4.57,0,0,1-4.5-4.5V496.11a4.57,4.57,0,0,1,4.5-4.5H356.82a4.56,4.56,0,0,1,4.5,4.5Zm0-34.69a4.56,4.56,0,0,1-4.5,4.5H243.18a4.57,4.57,0,0,1-4.5-4.5V461.42a4.57,4.57,0,0,1,4.5-4.5H356.82a4.56,4.56,0,0,1,4.5,4.5v10.69Z" style="fill:#ff4080"/></svg>