<svg id="Layer_1" data-name="Layer 1" xmlns="http://www.w3.org/2000/svg" viewBox="0 0 600 600"><title>invitations-accent</title><g id="Page-1"><path d="M390.19,300.4h-28.4a14.2,14.2,0,0,0-14.2,14.2v35.5a14.2,14.2,0,0,0,14.2,14.2h28.4a14.2,14.2,0,0,0,14.2-14.2V314.6A14.19,14.19,0,0,0,390.19,300.4Zm0,49.7h-28.4V314.6h28.4Z" style="fill:#ff4080"/><path d="M413.45,227.53a56.22,56.22,0,0,0,12.25-36.3A63.21,63.21,0,0,0,424.5,179l79.3-68.93v196Zm-122,10.38,2,1.91c1.55,1.46,3.05,2.88,4.45,4.31,6.18,6.24,20,18.46,30.71,27.84H252.26Zm16.54-3.77c-1.52-1.52-3.14-3.06-4.8-4.63-9.56-9-19.45-18.41-19.45-38.28,0-20.87,10.83-32.84,29.71-32.84a31.82,31.82,0,0,1,27.8,17.35,7.41,7.41,0,0,0,12.73,0,31.79,31.79,0,0,1,27.85-17.35c18.89,0,29.71,12,29.71,32.84,0,19.88-9.89,29.24-19.45,38.3-1.66,1.57-3.28,3.11-4.79,4.63-7.91,8-30,27.22-39.66,35.56-9.65-8.34-31.74-27.55-39.65-35.56Zm73.84-89.95a44.31,44.31,0,0,0-34.19,15.93,44.29,44.29,0,0,0-34.19-15.93,41,41,0,0,0-37.52,20.53l-72.62-63.13H491.92l-72.61,63.13A41,41,0,0,0,381.78,144.19Zm-190.4-34.08,79.31,69a62,62,0,0,0-1.2,12.15,56.16,56.16,0,0,0,12.25,36.3L230.62,272H191.38ZM366.64,272c10.74-9.38,24.53-21.6,30.71-27.85,1.42-1.42,2.9-2.84,4.45-4.31l2-1.91,88.14,76.67H433.06v14.2H503.8a14.2,14.2,0,0,0,10.11-4.26c0-.05.1-.07.14-.12s.07-.15.13-.22a14.09,14.09,0,0,0,3.82-9.6v-213A14.07,14.07,0,0,0,514.18,92c-.06-.07-.06-.16-.13-.22a.2.2,0,0,0-.15-.1,14.13,14.13,0,0,0-10.1-4.26H191.38a14.09,14.09,0,0,0-10.09,4.26s-.12.06-.16.12-.07.15-.13.22a14.14,14.14,0,0,0-3.82,9.6V272" style="fill:#ff4080"/></g><path d="M295,442.5H272a7.5,7.5,0,0,1,0-15h23a7.5,7.5,0,0,1,0,15Z" style="fill:#ff4080"/><path d="M242,442.5H199a7.5,7.5,0,0,1,0-15h43a7.5,7.5,0,0,1,0,15Z" style="fill:#ff4080"/><path d="M416.22,513.62H109.08A20.31,20.31,0,0,1,88.8,493.34V292.06a20.31,20.31,0,0,1,20.28-20.28H416.22a20.31,20.31,0,0,1,20.28,20.28V493.34A20.31,20.31,0,0,1,416.22,513.62ZM109.08,286.78a5.29,5.29,0,0,0-5.28,5.28V493.34a5.29,5.29,0,0,0,5.28,5.28H416.22a5.29,5.29,0,0,0,5.28-5.28V292.06a5.29,5.29,0,0,0-5.28-5.28Z" style="fill:#ff4080"/><path d="M302,412.5H199a7.5,7.5,0,0,1,0-15H302a7.5,7.5,0,0,1,0,15Z" style="fill:#ff4080"/><path d="M302,382.5H199a7.5,7.5,0,0,1,0-15H302a7.5,7.5,0,0,1,0,15Z" style="fill:#ff4080"/></svg>