<svg id="Layer_1" data-name="Layer 1" xmlns="http://www.w3.org/2000/svg" viewBox="0 0 600 600"><defs><style>.cls-1{fill:#fff;}</style></defs><title>mobile</title><path class="cls-1" d="M279.44,76.85H258.88a7.5,7.5,0,0,0,0,15h20.56a7.5,7.5,0,0,0,0-15Z"/><path class="cls-1" d="M341.13,76.85h-38a7.5,7.5,0,0,0,0,15h38a7.5,7.5,0,0,0,0-15Z"/><path class="cls-1" d="M185.26,168.57h56.57a7.5,7.5,0,0,0,0-15H185.26a17.72,17.72,0,0,0-17.7,17.7V257.7a17.72,17.72,0,0,0,17.7,17.7H414.74a17.73,17.73,0,0,0,17.71-17.7V171.27a17.73,17.73,0,0,0-17.71-17.7H287.43a7.5,7.5,0,0,0,0,15H414.74a2.71,2.71,0,0,1,2.71,2.7V257.7a2.72,2.72,0,0,1-2.71,2.71h-10l-48.08-54.18a12.5,12.5,0,0,0-18.2-.55L315.23,228.9l-32.67-36.81a12.5,12.5,0,0,0-18.2-.55l-68.9,68.86h-10.2a2.7,2.7,0,0,1-2.7-2.7V171.27A2.7,2.7,0,0,1,185.26,168.57ZM273.1,204l40.72,45.9a7.5,7.5,0,0,0,11.37-9.77l22-22,37.5,42.25h-168Z"/><path class="cls-1" d="M428.39,44H171.62A35.67,35.67,0,0,0,136,79.63V365.7a7.5,7.5,0,1,0,15,0V129H449V471H151v-57.2a7.5,7.5,0,1,0-15,0V520.37A35.67,35.67,0,0,0,171.62,556H428.38A35.67,35.67,0,0,0,464,520.37V79.63A35.66,35.66,0,0,0,428.39,44ZM449,520.37A20.66,20.66,0,0,1,428.38,541H171.62A20.66,20.66,0,0,1,151,520.37V486H449ZM449,114H151V79.63A20.66,20.66,0,0,1,171.62,59H428.38A20.66,20.66,0,0,1,449,79.63Z"/><path class="cls-1" d="M277.94,522.15h44.13a7.5,7.5,0,1,0,0-15H277.94a7.5,7.5,0,1,0,0,15Z"/><path class="cls-1" d="M251,298.52H184.65a7.5,7.5,0,1,0,0,15H251a7.5,7.5,0,1,0,0-15Z"/><path class="cls-1" d="M317.3,313.52a7.5,7.5,0,0,0,0-15H291.62a7.5,7.5,0,0,0,0,15Z"/><path class="cls-1" d="M415.35,298.52H354.79a7.5,7.5,0,1,0,0,15h60.56a7.5,7.5,0,0,0,0-15Z"/><path class="cls-1" d="M184.65,356.11h42.29a7.5,7.5,0,0,0,0-15H184.65a7.5,7.5,0,1,0,0,15Z"/><path class="cls-1" d="M249,348.61a7.5,7.5,0,0,0,7.5,7.5h76.66a7.5,7.5,0,0,0,0-15H256.5A7.5,7.5,0,0,0,249,348.61Z"/><path class="cls-1" d="M415.35,341.11H368.69a7.5,7.5,0,0,0,0,15h46.66a7.5,7.5,0,0,0,0-15Z"/><path class="cls-1" d="M184.65,395.3h53.58a7.5,7.5,0,0,0,0-15H184.65a7.5,7.5,0,0,0,0,15Z"/><path class="cls-1" d="M370.76,387.8a7.5,7.5,0,0,0-7.5-7.5H272.47a7.5,7.5,0,0,0,0,15h90.79A7.5,7.5,0,0,0,370.76,387.8Z"/><path class="cls-1" d="M415.35,380.3H394.51a7.5,7.5,0,0,0,0,15h20.84a7.5,7.5,0,0,0,0-15Z"/><path class="cls-1" d="M184.65,437.89h92.28a7.5,7.5,0,0,0,0-15H184.65a7.5,7.5,0,1,0,0,15Z"/><path class="cls-1" d="M308.19,422.89a7.5,7.5,0,1,0,0,15h40.18a7.5,7.5,0,0,0,0-15Z"/><path class="cls-1" d="M376.65,437.89h38.7a7.5,7.5,0,0,0,0-15h-38.7a7.5,7.5,0,0,0,0,15Z"/></svg>