<svg id="Layer_1" data-name="Layer 1" xmlns="http://www.w3.org/2000/svg" viewBox="0 0 600 600"><title>mountain-primary</title><path d="M551.83,462.44H539.77l-81.6-129a7.92,7.92,0,0,0-13.38,8.46l76.26,120.55H177.75c2.32-3.68,168.25-266,170.84-270.08a1,1,0,0,1,1.61,0l74.85,118.33a7.91,7.91,0,0,0,13.37-8.46L363.58,183.91a16.75,16.75,0,0,0-6.27-5.83v-8.85H400.2a9.72,9.72,0,0,0,7.93-15.32l-10.85-15.35,11.64-16.47a9,9,0,0,0-7.36-14.19H356.8a7.9,7.9,0,0,0-15.31,2.78v67.39a16.81,16.81,0,0,0-6.26,5.83L256.39,308.52,220.66,252a14.92,14.92,0,0,0-25.21,0L62.36,462.44H48.17A18.19,18.19,0,0,0,30,480.61V492.2a18.19,18.19,0,0,0,18.17,18.17H281.54a7.91,7.91,0,0,0,0-15.82H48.17a2.38,2.38,0,0,1-2.35-2.35V480.61a2.38,2.38,0,0,1,2.35-2.35H551.83a2.38,2.38,0,0,1,2.35,2.35V492.2a2.38,2.38,0,0,1-2.35,2.35H318.46a7.91,7.91,0,1,0,0,15.82H551.83A18.19,18.19,0,0,0,570,492.2V480.61A18.19,18.19,0,0,0,551.83,462.44Zm-470.75,0,127-200.73,39,61.61L159,462.44Z" style="fill:#1e1848"/></svg>