<svg id="Layer_1" data-name="Layer 1" xmlns="http://www.w3.org/2000/svg" viewBox="0 0 600 600"><defs><style>.cls-1{fill:#fff;}</style></defs><title>pencil</title><path class="cls-1" d="M379.52,427.16V381.52a7.5,7.5,0,0,0-15,0v45.22H348.79V206.5h15.73v129a7.5,7.5,0,0,0,15,0v-113c0-7.36.07-14.73,0-22.1-.06-5.39-3.57-8.56-6.92-12.84-8.4-10.75-16.69-21.58-25.06-32.35l-37.83-48.69a12.3,12.3,0,0,0-19.42,0l-24.23,31.18q-13.65,17.56-27.29,35.13L228.19,186.5c-2.57,3.31-7.71,8.42-7.71,12.5v44a7.51,7.51,0,0,0,15,0V206.5h15.72V426.74H235.49V289.5a7.51,7.51,0,0,0-15,0V427.16A17.21,17.21,0,0,0,207,443.92v35.63a17.2,17.2,0,0,0,17.18,17.18h8v15A44.32,44.32,0,0,0,276.47,556h47.06a44.32,44.32,0,0,0,44.26-44.26v-15h8A17.2,17.2,0,0,0,393,479.55V443.92A17.21,17.21,0,0,0,379.52,427.16Zm-58.84-282H279.32L300,118.52Zm-77.37,46.35,24.35-31.35h64.68l24.35,31.35Zm90.48,15V426.74H321.91V206.5Zm-26.89,0V426.74H293.1V206.5Zm-28.8,0V426.74H266.21V206.5Zm74.69,305.24A29.29,29.29,0,0,1,323.53,541H276.47a29.29,29.29,0,0,1-29.26-29.26v-15H352.79ZM378,479.55a2.18,2.18,0,0,1-2.18,2.17H224.22a2.18,2.18,0,0,1-2.18-2.17V443.92a2.19,2.19,0,0,1,2.18-2.18H375.78a2.19,2.19,0,0,1,2.18,2.18Z"/><path class="cls-1" d="M542,104a13.51,13.51,0,0,0,13.5-13.5v-33A13.51,13.51,0,0,0,542,44H509a13.52,13.52,0,0,0-13.5,13.5v9h-167a454.67,454.67,0,0,0-55.07-.24q-2,.1-4.08.24H104.52v-9A13.51,13.51,0,0,0,91,44H58a13.52,13.52,0,0,0-13.5,13.5v33A13.51,13.51,0,0,0,58,104h9V246.46c0,1.22,0,2.43,0,3.65a7.14,7.14,0,0,0,0,.8v59.14H58a13.52,13.52,0,0,0-13.5,13.5v33A13.51,13.51,0,0,0,58,370.05H91a13.51,13.51,0,0,0,13.5-13.5v-33A13.51,13.51,0,0,0,91,310.05H82V247.82a144.74,144.74,0,0,1,26.81-82.52c29.4-41.14,75.72-69.51,130.44-79.87a260.51,260.51,0,0,1,30.51-3.93H328c28.63,2.06,53.42,7.44,75.9,16.35,35.62,14.12,65.78,37.44,87.23,67.45a144.91,144.91,0,0,1,26.84,84.81,7.16,7.16,0,0,0,.05.8v59.14h-9a13.51,13.51,0,0,0-13.5,13.5v33a13.51,13.51,0,0,0,13.5,13.5h33a13.51,13.51,0,0,0,13.5-13.5v-33a13.51,13.51,0,0,0-13.5-13.5h-9V104ZM89.52,325.05v30h-30v-30Zm-30-236V59h30V89Zm37.1,67.57a158.28,158.28,0,0,0-14.6,25V104h9a13.51,13.51,0,0,0,13.5-13.5v-9h92.71C155.84,96.71,120.92,122.57,96.62,156.57Zm406.67,0c-23.12-32.36-55.59-57.48-93.9-72.67-2.09-.83-4.2-1.62-6.33-2.4h92.42v9A13.51,13.51,0,0,0,509,104h9v77.74A157.72,157.72,0,0,0,503.29,156.57Zm37.19,168.48v30h-30v-30Zm-30-236V59h30V89Z"/></svg>