<svg id="Layer_1" data-name="Layer 1" xmlns="http://www.w3.org/2000/svg" viewBox="0 0 600 600"><title>pencil_1-primary</title><path d="M481.85,118.14a65.59,65.59,0,0,0-92.62,0L126.85,380.53c-.12.12-.2.27-.31.4s-.28.37-.42.56a7.2,7.2,0,0,0-.91,1.74c-.06.18-.16.35-.21.54a2,2,0,0,1-.09.22L99.19,492a8.07,8.07,0,0,0-.16,1.47c0,.09,0,.18,0,.27a6.94,6.94,0,0,0,.47,2.42,4.61,4.61,0,0,0,.22.51,6.77,6.77,0,0,0,3.81,3.74,7.12,7.12,0,0,0,2.76.55,7.42,7.42,0,0,0,1.68-.2l108-25.72a4.63,4.63,0,0,0,.56-.21c.25-.09.48-.18.72-.29a7.29,7.29,0,0,0,1.47-.89c.17-.14.35-.24.52-.4a2.31,2.31,0,0,0,.19-.14L481.84,210.76A65.57,65.57,0,0,0,481.85,118.14Zm-10.29,10.29a51,51,0,0,1,4.73,66.48L405.08,123.7A51,51,0,0,1,471.56,128.43Zm-36,108-72-72,10.29-10.29,72,72ZM135.1,464.89a7.26,7.26,0,0,0-10.29,0l-5.51,5.51,18.59-78.06,32.17-3.57L165.92,426a7.2,7.2,0,0,0,.07.8,7,7,0,0,0-.07.8,5.75,5.75,0,0,0,.21.67,7.2,7.2,0,0,0,.36,1.2,6.81,6.81,0,0,0,.69,1.31,6.65,6.65,0,0,0,.73.93,7.5,7.5,0,0,0,1.14,1,6.85,6.85,0,0,0,1,.61,7.18,7.18,0,0,0,1.51.48,7.3,7.3,0,0,0,.79.26,6.85,6.85,0,0,0,.79,0h0a7,7,0,0,0,.79,0l37.27-4.14-3.57,32.17-78.07,18.59,5.51-5.51A7.28,7.28,0,0,0,135.1,464.89ZM226.41,425,389.23,262.2a7.28,7.28,0,1,0-10.29-10.29L216.12,414.74l-34.72,3.85,3.85-34.72L348.09,221.05a7.28,7.28,0,0,0-10.29-10.29L175,373.58l-23.16,2.57L353.22,174.73l72,72L223.84,448.18ZM456.12,215.9l-72-72,10.29-10.29,72,72Z" style="fill:#1e1848"/></svg>