<svg id="Layer_1" data-name="Layer 1" xmlns="http://www.w3.org/2000/svg" viewBox="0 0 600 600"><title>pets-white</title><path d="M325.06,327.61a8.52,8.52,0,1,0,8.52,8.52A8.51,8.51,0,0,0,325.06,327.61Z" style="fill:#fff"/><path d="M360.1,490.26a70.78,70.78,0,0,1-19-2.61,163.27,163.27,0,0,0-81.52-.18A71.23,71.23,0,0,1,201.12,478a63.65,63.65,0,0,1-7.64-100.53c1.2-1.05,28.13-25,48.12-70.89a63.38,63.38,0,0,1,117,0l0,0c16.16,37.08,36.85,59.86,45,67.94l.11.1a63,63,0,0,1,24.52,50c0,22-10.62,41.56-29.13,53.8h0A70.93,70.93,0,0,1,360.1,490.26ZM300,467.39a170.1,170.1,0,0,1,45.1,5.81A55.77,55.77,0,0,0,390.9,466h0c14.44-9.54,22.4-24.21,22.4-41.28a48.07,48.07,0,0,0-18.74-38.21,15.93,15.93,0,0,1-1.44-1.27c-8.77-8.69-31-33.17-48.21-72.63-.05-.12-.09-.2-.12-.28a48.38,48.38,0,0,0-89.33,0l-.11.25c-21,48.11-48.81,73.4-51.92,76.12a48.41,48.41,0,0,0-16,36c0,16.86,7.83,31.37,22,40.86A56.31,56.31,0,0,0,255.58,473,170.59,170.59,0,0,1,300,467.39Z" style="fill:#fff"/><path d="M348.26,361.51A8.51,8.51,0,1,0,334,370.8a243.66,243.66,0,0,0,31.41,39.28,8.52,8.52,0,1,0,12-12.09A225.8,225.8,0,0,1,348.26,361.51Z" style="fill:#fff"/><path d="M246.49,240.78a27.57,27.57,0,0,1-5.5-.56c-18.88-3.84-35.58-27.58-38.84-55.21-2-16.84,1-33.7,8.16-46.25h0c7-12.25,16.89-19,27.81-19,20.73,0,40.54,25,44.17,55.75,2,16.83-1,33.69-8.17,46.26C265.22,237.33,254.37,240.78,246.49,240.78Zm-23.16-94.57c-5.62,9.82-7.91,23.33-6.29,37,2.75,23.28,16.13,40.07,26.94,42.28,6.37,1.29,12.13-2.48,17.13-11.21,5.63-9.84,7.92-23.34,6.29-37C265,157.2,252,134.76,238.13,134.76c-7.17,0-12.35,7.17-14.8,11.45Z" style="fill:#fff"/><path d="M158,328.26a42.89,42.89,0,0,1-18.82-4.69c-12-5.88-22.43-16.55-29.4-30s-9.64-28.19-7.5-41.37c2-12.57,8.23-22.3,17.48-27.56l1.43-1.43h1.41c9.51-4.19,20.77-3.51,32,2,12,5.88,22.42,16.55,29.4,30s9.64,28.19,7.5,41.36-8.72,23.06-18.57,28.15h0A32.14,32.14,0,0,1,158,328.26ZM127.59,237.4c-5.46,2.88-9.2,9-10.54,17.17-1.62,10,.51,21.41,6,32.07s13.57,19,22.68,23.46c7.51,3.69,14.69,4.14,20.22,1.29h0c5.53-2.86,9.31-9,10.65-17.23,1.63-10-.51-21.41-6-32.08s-13.56-19-22.68-23.46c-4.35-2.14-12.76-5.14-20.21-1.28Z" style="fill:#fff"/><path d="M354.08,241a24.85,24.85,0,0,1-3.11-.19l-.23,0c-10.19-1.19-19.65-8.87-25.87-21.05s-8.84-28.35-7-44h0c3.64-30.74,23.46-55.75,44.18-55.75a22.76,22.76,0,0,1,3,.17c10.3,1.17,19.79,8.85,26,21.08s8.84,28.35,7,44c-2.36,19.89-11.8,38.47-24.65,48.47C367.21,238.47,360.6,241,354.08,241Zm-1.48-15.1.16,0c4.39.57,8.64-1.89,11.42-4.06,9.65-7.52,17.1-22.59,19-38.41,1.52-12.77-.47-25.68-5.44-35.41-3.87-7.58-9.25-12.44-14.4-13l-.14,0a11,11,0,0,0-1.11-.05c-11.45,0-26.4,18.18-29.28,42.52h0c-1.51,12.78.47,25.69,5.44,35.42,3.85,7.54,9.21,12.39,14.35,13Z" style="fill:#fff"/><path d="M442,328.29a32.22,32.22,0,0,1-14.88-3.54c-9.86-5.09-16.45-15.09-18.57-28.15-4.42-27.23,12.13-59.27,36.89-71.42,11.88-5.83,23.85-6.24,33.71-1.14s16.45,15.09,18.57,28.16c4.42,27.22-12.13,59.26-36.89,71.41h0A42.87,42.87,0,0,1,442,328.29Zm22.25-92.78a27.94,27.94,0,0,0-12.2,3.14c-18.94,9.29-32.08,34.73-28.7,55.54,1.34,8.26,5.12,14.38,10.65,17.23s12.71,2.4,20.22-1.28h0c18.94-9.29,32.08-34.72,28.7-55.54-1.35-8.26-5.13-14.38-10.66-17.24A17.36,17.36,0,0,0,464.28,235.51Z" style="fill:#fff"/></svg>