<svg id="Layer_1" data-name="Layer 1" xmlns="http://www.w3.org/2000/svg" viewBox="0 0 600 600"><title>statistics-primary</title><path d="M527.5,490H110V72.5a7.5,7.5,0,0,0-15,0v63.33H72.5a7.5,7.5,0,0,0,0,15H95v55.84H72.5a7.5,7.5,0,1,0,0,15H95V277.5H72.5a7.5,7.5,0,0,0,0,15H95v55.83H72.5a7.5,7.5,0,0,0,0,15H95v55.84H72.5a7.5,7.5,0,0,0,0,15H95V497.5a7.5,7.5,0,0,0,7.5,7.5H213.33v22.5a7.5,7.5,0,0,0,15,0V505H401.67v22.5a7.5,7.5,0,0,0,15,0V505H527.5a7.5,7.5,0,0,0,0-15Z" style="fill:#1e1848"/><path d="M142.5,475a7.5,7.5,0,0,0,7.5-7.5v-175h63.33v175a7.5,7.5,0,0,0,15,0V363.33H287.5V467.5a7.5,7.5,0,0,0,15,0V355.83a7.5,7.5,0,0,0-7.5-7.5H228.33V285a7.5,7.5,0,0,0-7.5-7.5H142.5A7.5,7.5,0,0,0,135,285V467.5A7.5,7.5,0,0,0,142.5,475Z" style="fill:#1e1848"/><path d="M335,475a7.5,7.5,0,0,0,7.5-7.5V150.83h59.17V467.5a7.5,7.5,0,0,0,15,0V221.67H480V467.5a7.5,7.5,0,0,0,15,0V214.17a7.5,7.5,0,0,0-7.5-7.5H416.67V143.33a7.5,7.5,0,0,0-7.5-7.5H335a7.5,7.5,0,0,0-7.5,7.5V467.5A7.5,7.5,0,0,0,335,475Z" style="fill:#1e1848"/></svg>