<svg id="Layer_1" data-name="Layer 1" xmlns="http://www.w3.org/2000/svg" viewBox="0 0 600 600"><title>target-primary</title><path d="M557.17,144.69A13,13,0,0,0,546.53,136l-37.66-4.91a28.46,28.46,0,0,0-25-42h0a28.26,28.26,0,0,0-12.63,3l-4.91-37.68a13,13,0,0,0-22.12-7.53l-53.69,53.69a13,13,0,0,0-3.64,11.27l8.68,54.05-2.48,2.5a215.14,215.14,0,0,0-255.83-4.52,7.5,7.5,0,0,0,8.71,12.2,199.9,199.9,0,0,1,236.37,3.1l-30.42,30.51a156.66,156.66,0,0,0-89.8-28.19c-86.84,0-157.5,70.66-157.5,157.51s70.66,157.5,157.5,157.5,157.5-70.66,157.5-157.5A156.56,156.56,0,0,0,392,250l30.46-30.56a199.05,199.05,0,0,1,39.7,119.49C462.14,449.26,372.38,539,262.06,539S62,449.26,62,338.94A199.68,199.68,0,0,1,113,205.5a7.49,7.49,0,1,0-11.16-10A215.05,215.05,0,1,0,433.2,208.66l1.9-1.91,54,8.68a13.11,13.11,0,0,0,11.28-3.65l11.52-11.53a7.49,7.49,0,1,0-10.59-10.59l-10.82,10.81-42.13-6.77,49-49,43.26,5.64-6.5,6.5a7.49,7.49,0,0,0,10.6,10.59l9.31-9.31A13,13,0,0,0,557.17,144.69ZM451.93,60.24l5.65,43.26-49,49-6.77-42.12Zm-47.35,278.7c0,78.58-63.93,142.51-142.52,142.51S119.55,417.52,119.55,338.94s63.93-142.52,142.51-142.52a141.65,141.65,0,0,1,79.05,24L310,251.62a99.72,99.72,0,1,0,40,40.51l31.21-31.31A141.66,141.66,0,0,1,404.58,338.94ZM248.13,354a28.28,28.28,0,0,0,20.13,8.34h0a28.32,28.32,0,0,0,20.14-8.37L299,343.26a37.23,37.23,0,1,1-39-41.5l-11.93,12A28.52,28.52,0,0,0,248.13,354Zm-38.29-15a52.22,52.22,0,1,0,103.47-10l25.54-25.63a84.74,84.74,0,1,1-39.93-40.58L273.7,288a52.2,52.2,0,0,0-63.86,50.9Zm68,4.4a13.37,13.37,0,0,1-9.53,4h0a13.48,13.48,0,0,1-9.54-23L474.29,108a13.41,13.41,0,0,1,9.54-4h0a13.48,13.48,0,0,1,9.54,23Z" style="fill:#1e1848"/></svg>