<svg id="Layer_1" data-name="Layer 1" xmlns="http://www.w3.org/2000/svg" viewBox="0 0 600 600"><title>tea-accent</title><path d="M469.84,456.78H378.59c23.16-9.27,40.9-22.43,54.43-38.37,55.33-8.28,80.12-54,80.12-96,0-29.81-16.6-54.7-38.08-59,0-.23,0-.45,0-.68a14.77,14.77,0,0,0-4.48-10.45c-2.24-3-6.72-4.48-10.46-4.48H116.72a15.31,15.31,0,0,0-14.93,14.93c.58,79.79,14.59,161.36,96.48,194.11h-92a19.76,19.76,0,0,0-19.41,19.41c0,8.95,6,15.67,17.17,17.91l94.07,7.47c3.73,0,4.48,1.49,5.22,3a21.53,21.53,0,0,0,19.41,11.94H346.66c8.21,0,15.68-4.48,17.92-11.94a5.36,5.36,0,0,1,5.22-3l102.28-7.47h.75c10.45-2.24,16.42-9,16.42-17.91A19.27,19.27,0,0,0,469.84,456.78ZM497.46,322.4c0,29.11-13.44,64.2-50.76,76.89,22.39-36.58,26.87-81.37,28.37-120.19C487.76,283.58,497.46,301.49,497.46,322.4ZM378,303l22.4,22.39v49.28H355.62V325.38ZM116.72,262.67H370.55v26.88l-27.62,27.62a6.76,6.76,0,0,0-2.24,5.23v59.72a7.05,7.05,0,0,0,7.46,7.47h59.73a7.05,7.05,0,0,0,7.46-7.47V322.4a6.76,6.76,0,0,0-2.24-5.23l-27.62-27.62V262.67h74.66c-.75,100.79-22.4,194.11-171.71,194.11S117.47,363.46,116.72,262.67Zm355.36,216.5-101.53,7.47c-7.47.75-14.18,4.48-17.17,11.2-1.49,2.24-3.73,3.73-6,3.73H222.73c-2.24,0-4.48-1.49-6-3.73-3-6.72-9.71-10.46-17.17-11.2l-94.07-7.47c-3.73-.74-3.73-2.24-3.73-3a4.82,4.82,0,0,1,4.48-4.48H471.33a4.82,4.82,0,0,1,4.48,4.48C475.81,476.93,475.81,478.43,472.08,479.17Z" style="fill:#ff4080"/><path d="M275.74,145.46c-11.2,11.2-17.17,22.4-17.17,34.35s6,23.88,17.17,35.83a6.77,6.77,0,0,0,5.22,2.24,8.07,8.07,0,0,0,5.23-2.24,7.23,7.23,0,0,0,0-10.45c-8.21-9-12.69-17.17-12.69-25.39s4.48-16.42,12.69-23.88c11.2-10.46,17.17-22.4,17.17-34.35,0-12.69-6-24.63-17.17-35.83a7.39,7.39,0,0,0-10.45,10.45c8.21,9,12.69,17.17,12.69,25.38S284,138,275.74,145.46Z" style="fill:#ff4080"/><path d="M365.32,145.46c-11.2,11.2-17.17,22.4-17.17,34.35s6,23.88,17.17,35.83a6.81,6.81,0,0,0,5.23,2.24,8.07,8.07,0,0,0,5.22-2.24,7.21,7.21,0,0,0,0-10.45c-8.21-9-12.69-17.17-12.69-25.39s4.48-16.42,12.69-23.88c11.2-10.46,17.17-22.4,17.17-34.35,0-12.69-6-24.63-17.17-35.83a7.39,7.39,0,1,0-10.45,10.45c8.21,9,12.69,17.17,12.69,25.38S373.54,138,365.32,145.46Z" style="fill:#ff4080"/><path d="M201.08,145.46c-11.2,11.2-17.17,22.4-17.17,34.35s6,23.88,17.17,35.83a6.81,6.81,0,0,0,5.23,2.24,8.07,8.07,0,0,0,5.22-2.24,7.21,7.21,0,0,0,0-10.45c-8.21-9-12.69-17.17-12.69-25.39s4.48-16.42,12.69-23.88c11.2-10.46,17.17-22.4,17.17-34.35,0-12.69-6-24.63-17.17-35.83a7.39,7.39,0,0,0-10.45,10.45c8.21,9,12.69,17.17,12.69,25.38S209.29,138,201.08,145.46Z" style="fill:#ff4080"/><path d="M245.13,419.45c-53-9-79.88-38.82-91.08-98.55a7.61,7.61,0,1,0-14.93,3c11.94,66.44,44,100,103,110.49h1.5a7.27,7.27,0,0,0,7.46-6A7.74,7.74,0,0,0,245.13,419.45Z" style="fill:#ff4080"/></svg>