<svg id="Layer_1" data-name="Layer 1" xmlns="http://www.w3.org/2000/svg" viewBox="0 0 600 600"><title>text-primary</title><path d="M466.14,485.74h-31.8c-8.72.09-15.35-2.36-20.27-7.58C402.4,465.79,404,442,404,440.94c0-.37,0-.73,0-1.1V240.67a7.5,7.5,0,0,0-15,0v199.2a88,88,0,0,0,.89,18.78c2,12.57,6.39,22.6,13.19,29.8,7.85,8.33,18.38,12.43,31.28,12.29h31.7a.51.51,0,0,1,.5.5v39.22a.51.51,0,0,1-.5.5H319a7.5,7.5,0,0,0,0,15H466.14a15.53,15.53,0,0,0,15.5-15.5V501.24A15.53,15.53,0,0,0,466.14,485.74Z" style="fill:#1e1848"/><path d="M545.5,44H148.86a15.53,15.53,0,0,0-15.5,15.5v148.8a15.52,15.52,0,0,0,15.5,15.5h49a15.51,15.51,0,0,0,15.24-12.69c2.86-15.47,13.19-51.9,47.19-56.2h29.45a.5.5,0,0,1,.5.5v284.4c0,.38,0,.74,0,1.11.07,1,1.64,24.84-10,37.21-4.92,5.22-11.56,7.7-20.36,7.58h-31.7a15.51,15.51,0,0,0-15.5,15.5v39.22a15.52,15.52,0,0,0,15.5,15.5H273a7.5,7.5,0,0,0,0-15H228.23a.5.5,0,0,1-.5-.5V501.24a.5.5,0,0,1,.5-.5h31.59c12.95.2,23.53-4,31.39-12.29,15.53-16.47,14.45-43.35,14.07-48.61V155.44a15.51,15.51,0,0,0-15.5-15.5H260.46a16.69,16.69,0,0,0-2,.12c-19,2.4-34.8,12.9-45.79,30.36-8.92,14.18-12.77,29.89-14.27,38a.49.49,0,0,1-.49.42h-49a.5.5,0,0,1-.5-.5V59.54a.51.51,0,0,1,.5-.5H545.5a.51.51,0,0,1,.5.5v148.8a.5.5,0,0,1-.5.5h-49a.5.5,0,0,1-.49-.42c-1.5-8.11-5.35-23.82-14.27-38-11-17.46-26.82-28-45.8-30.36a16.36,16.36,0,0,0-2-.12H404.58a15.52,15.52,0,0,0-15.5,15.5v38.23a7.5,7.5,0,1,0,15,0V155.44a.5.5,0,0,1,.5-.5H434c34,4.31,44.34,40.74,47.2,56.21a15.51,15.51,0,0,0,15.24,12.69h49a15.51,15.51,0,0,0,15.5-15.5V59.54A15.52,15.52,0,0,0,545.5,44Z" style="fill:#1e1848"/><path d="M98.5,59a7.5,7.5,0,0,0,0-15h-52a7.5,7.5,0,0,0-7.5,7.5V548.46a7.5,7.5,0,0,0,7.5,7.5h52a7.5,7.5,0,0,0,0-15H54V525.9H72.5a7.5,7.5,0,0,0,0-15H54V489.58H98.5a7.5,7.5,0,0,0,0-15H54V453.26H72.5a7.5,7.5,0,0,0,0-15H54V416.93H72.5a7.5,7.5,0,0,0,0-15H54V380.61H72.5a7.5,7.5,0,0,0,0-15H54V344.28H98.5a7.5,7.5,0,0,0,0-15H54V308H72.5a7.5,7.5,0,0,0,0-15H54V271.63H72.5a7.5,7.5,0,0,0,0-15H54V235.31H72.5a7.5,7.5,0,0,0,0-15H54V199H98.5a7.5,7.5,0,0,0,0-15H54V162.66H72.5a7.5,7.5,0,0,0,0-15H54V126.33H72.5a7.5,7.5,0,0,0,0-15H54V90H72.5a7.5,7.5,0,0,0,0-15H54V59Z" style="fill:#1e1848"/></svg>