<svg id="Layer_1" data-name="Layer 1" xmlns="http://www.w3.org/2000/svg" viewBox="0 0 600 600"><defs><style>.cls-1{fill:#fff;}</style></defs><title>tshirt</title><path class="cls-1" d="M286.44,83h41.7a8.08,8.08,0,1,0,0-16.16h-41.7a8.08,8.08,0,1,0,0,16.16Z"/><path class="cls-1" d="M547.71,231.69,519.9,117.09c-.28-1.14-7-27.91-33.65-39.22C467,69.69,406.11,46.57,390.86,40.8a8.08,8.08,0,0,0-5.08-1.8H229.38a6.62,6.62,0,0,0-.77,0l-.33,0-.43.07c-.13,0-.25.06-.38.09a3.58,3.58,0,0,0-.35.09l-.4.12-.2.07c-3.14,1.19-77.17,29.17-98.77,38.35-25.58,10.87-32.81,36-33.58,39h0a.47.47,0,0,1,0,.14s0,.1,0,.11L74.34,198.53h0l-8,33.17a8.08,8.08,0,0,0,4.87,9.42l79.47,31.56V542.92a8.08,8.08,0,0,0,8.08,8.08H455.29a8.08,8.08,0,0,0,8.08-8.08V356.13a8.09,8.09,0,1,0-16.17,0V502H248.52a8.08,8.08,0,0,0,0,16.16H447.2v16.7H166.8v-16.7h54.77a8.08,8.08,0,1,0,0-16.16H166.8V169.89a8.05,8.05,0,0,0-1.17-4.19L124.86,98.28a38.66,38.66,0,0,1,9.21-5.52c16.55-7,66.18-26,87.86-34.2,5.19,47.77,42.3,86.2,85.65,86.2s80.24-38.2,85.61-85.78c22.22,8.44,70.47,26.86,86.74,33.77a38.82,38.82,0,0,1,9.21,5.53L448.37,165.7a8.1,8.1,0,0,0-1.16,4.18v159.3a8.08,8.08,0,1,0,16.16,0v-56.5l79.47-31.57A8.08,8.08,0,0,0,547.71,231.69Zm-397.08,23.6-67-26.61,4.15-17.12,62.82,26.34v17.39Zm0-83.15v48.23L91.68,195.65l18.13-74.71a44.18,44.18,0,0,1,4.09-9.54Zm157-43.55c-31.95,0-66-29.17-69.78-73.42H377.36C373.62,99.42,339.53,128.59,307.58,128.59Zm155.79,43.55L500.1,111.4a48.69,48.69,0,0,1,3.65,8.09v0c.06.15.1.3.15.43a.19.19,0,0,0,0,.07c0,.11.06.2.09.29l0,.1.06.19a.19.19,0,0,0,0,.08l0,.11a.11.11,0,0,0,0,.06.22.22,0,0,0,0,.06l18.15,74.75-59,24.72V172.14Zm0,83.15V237.9l62.82-26.34,4.15,17.12Z"/></svg>