<svg id="Layer_1" data-name="Layer 1" xmlns="http://www.w3.org/2000/svg" viewBox="0 0 600 600"><title>userexperience-secondary</title><path d="M355.17,520.06a12.52,12.52,0,1,1,12.52-12.52A12.53,12.53,0,0,1,355.17,520.06Z" style="fill:#6b96ff"/><path d="M192.41,161.16a8.33,8.33,0,0,0,5.9-2.45L215,142a8.34,8.34,0,0,0-11.8-11.8l-16.69,16.69a8.35,8.35,0,0,0,5.9,14.25Z" style="fill:#6b96ff"/><path d="M492.88,309.29a27.32,27.32,0,0,0-8.05-19.44l-4.65-4.65a37.49,37.49,0,0,0-24.86-65.62,35.46,35.46,0,0,0-4.51.34,37.11,37.11,0,0,0-41.73-41.74,37.11,37.11,0,0,0-41.74-41.73,35.46,35.46,0,0,0,.34-4.51,37.49,37.49,0,0,0-65.62-24.86l-6.63-6.63L264,69a27.52,27.52,0,0,0-38.88,0L122.38,171.81a27.54,27.54,0,0,0,0,38.88l31.41,31.41,41,41a37.35,37.35,0,0,0-2.22,63.77,12.48,12.48,0,0,0,1.89,2l89.78,89.43v15H267.53V561.8h217V453.29h-16.7V428a70.6,70.6,0,0,0,12.22-94.5l4.77-4.77A27.31,27.31,0,0,0,492.88,309.29Zm-16.69-52.15a20.82,20.82,0,0,1-7.82,16.25l-29.3-29.3a20.85,20.85,0,0,1,37.12,13Zm-41.73-41.73a20.87,20.87,0,0,1-7.82,16.25l-29.31-29.3a20.85,20.85,0,0,1,37.13,13Zm-41.73-41.73a20.84,20.84,0,0,1-7.83,16.25l-29.3-29.31a20.85,20.85,0,0,1,37.13,13.06Zm-62.6-62.6a20.84,20.84,0,0,1,13,37.11l-29.3-29.3A20.86,20.86,0,0,1,330.13,111.08ZM153.79,218.5l-19.61-19.6a10.84,10.84,0,0,1,0-15.28L237,80.85a10.83,10.83,0,0,1,3.55-2.35,11.55,11.55,0,0,1,1.86-.37,10.71,10.71,0,0,1,4.44,0,11.34,11.34,0,0,1,1.86.37,10.87,10.87,0,0,1,3.56,2.35l19.61,19.61,11.8,11.8,9.83,9.83,41.73,41.74,4.79,4.78,36.95,36.95,4.78,4.78,37,36.95,4.78,4.79,41.73,41.73,7.85,7.84a10.82,10.82,0,0,1,0,15.28l-3.65,3.65h0l-99.1,99.12a10.82,10.82,0,0,1-15.29,0l-66.56-66.57h8.31a37.56,37.56,0,0,0,0-75.12H213.29L165.58,230.3Zm55,76.72,3.46-.39a7.21,7.21,0,0,1,1-.13h83.46a20.87,20.87,0,1,1,0,41.73H213.27a20.85,20.85,0,0,1-4.5-41.21ZM284.22,545.1V470h70.33a46.57,46.57,0,0,1,46.52,46.52v28.6Zm183.62,0H417.77V516.5A63,63,0,0,0,397.2,470h70.64Zm.21-199.58a54,54,0,0,1-13.58,71.8l-3.32,2.5v33.47H300.91V430.6l-3-2.5c-.38-.32-.78-.62-1.5-1.16l-74.1-73.82h42.45l78.36,78.37a27.53,27.53,0,0,0,38.89,0Z" style="fill:#6b96ff"/><path d="M158,233.5a7.5,7.5,0,0,1-5.27-12.83l88-87a7.5,7.5,0,1,1,10.54,10.66l-88,87A7.44,7.44,0,0,1,158,233.5Z" style="fill:#6b96ff"/></svg>