<?xml version="1.0" encoding="utf-8"?>
<!-- Generator: Adobe Illustrator 22.1.0, SVG Export Plug-In . SVG Version: 6.00 Build 0)  -->
<svg version="1.1" id="Layer_1" xmlns="http://www.w3.org/2000/svg" xmlns:xlink="http://www.w3.org/1999/xlink" x="0px" y="0px"
	 viewBox="0 0 1000 1000" style="enable-background:new 0 0 1000 1000;" xml:space="preserve">
<style type="text/css">
	.st0{opacity:5.000000e-02;fill:#FFFFFF;enable-background:new    ;}
	.st1{fill:#FFFFFF;}
</style>
<title>bg-header1</title>
<path class="st0" d="M269.6,491.3c-9-106.3-32.6-113-23.6-149s47.6-81,111.9-81.5c84.1-0.9,143-44.3,187.1-43.1
	c66.7,1.8,79.1,25.5,145,91.3s158.1,68.9,145.5,196.9C830,562,804.9,565.1,739,631s-62.5,152.8-141,162.3
	c-59.5,7.3-251.7-37.9-317.6-103.7C226.4,631.8,278.6,597.6,269.6,491.3z"/>
<path class="st1" d="M749.9,467c8.1,93.5,15.3,138.9-14.9,184.6c-45.3,68.5-218.5,78.7-258,77.6c-130.1,0-250-165.2-248.8-258.1
	c0.6-49.7,32.4-56.1,91.6-114.1s72.8-111.5,143.3-119.8c53.4-6.4,201.3,18.1,260.5,76C772.1,363.9,741.8,373.5,749.9,467z"/>
<polygon class="st0" points="813.1,718.5 819.2,715.3 818,722 823,726.8 816.1,727.8 813.1,734 810,727.8 803.3,726.8 808.2,722 
	807,715.3 "/>
<polygon class="st0" points="240.7,691.4 246.3,688.4 245.2,694.6 249.7,699 243.5,700 240.7,705.5 237.9,700 231.7,699 
	236.2,694.6 235.1,688.4 "/>
<polygon class="st0" points="894,359.8 899.6,356.9 898.5,363.1 903,367.5 896.8,368.3 894,374 891.2,368.3 885,367.5 889.5,363.1 
	888.5,356.9 "/>
<polygon class="st0" points="568.5,134.1 573.4,134.9 569.9,138.3 570.7,143.1 566.3,140.9 562.1,143.1 562.8,138.3 559.3,134.9 
	564.2,134.1 566.3,129.8 "/>
<polygon class="st0" points="808,300 816.2,295.7 814.7,304.8 821.2,311.2 812.1,312.6 808,320.9 804,312.6 794.8,311.2 
	801.4,304.8 799.8,295.7 "/>
<polygon class="st0" points="744,743.9 747.7,742 747,746.1 749.9,749 745.8,749.5 744,753.2 742.2,749.5 738.1,749 741,746.1 
	740.4,742 "/>
<polygon class="st0" points="645.9,188.1 652.5,190.6 646.6,194.5 646.2,201.5 640.8,197 633.9,198.9 636.5,192.3 632.5,186.3 
	639.7,186.9 644.1,181.2 "/>
<polygon class="st0" points="440.9,173.3 444.9,172 443.5,175.8 445.9,179.2 441.8,179.2 439.4,182.5 438.2,178.5 434.3,177.2 
	437.7,174.9 437.6,170.8 "/>
<polygon class="st0" points="482.2,800.8 486.4,800.6 484,804 485.5,807.8 481.5,806.6 478.3,809.2 478.2,805.1 474.8,802.9 
	478.7,801.5 479.7,797.4 "/>
<polygon class="st0" points="885.9,449.8 889.7,448.5 888.5,452.5 890.9,455.8 886.7,455.7 884.3,459 883.1,455 879.2,453.8 
	882.6,451.5 882.6,447.3 "/>
<polygon class="st0" points="398.8,814.7 408.9,809.4 407,820.7 415.1,828.7 403.8,830.3 398.8,840.5 393.7,830.3 382.4,828.7 
	390.5,820.7 388.6,809.4 "/>
<polygon class="st0" points="333.1,191.8 343.3,186.4 341.3,197.8 349.6,205.8 338.2,207.4 333.1,217.7 328.1,207.4 316.7,205.8 
	324.9,197.8 322.9,186.4 "/>
<polygon class="st0" points="175.7,425.2 181.2,422.3 180.2,428.6 184.7,432.9 178.5,433.8 175.7,439.5 172.9,433.8 166.7,432.9 
	171.2,428.6 170.1,422.3 "/>
<polygon class="st0" points="130.6,493.5 138.8,489.2 137.2,498.3 143.8,504.7 134.6,506.1 130.6,514.3 126.5,506.1 117.4,504.7 
	123.9,498.3 122.4,489.2 "/>
</svg>
