<svg id="Layer_1" data-name="Layer 1" xmlns="http://www.w3.org/2000/svg" xmlns:xlink="http://www.w3.org/1999/xlink" viewBox="0 0 1000 1000"><defs><style>.cls-1,.cls-5{fill:#fff;}.cls-1{opacity:0.05;}.cls-2{fill:#161641;}.cls-3{fill:url(#linear-gradient);}.cls-4{fill:none;stroke-width:2.15px;}.cls-4,.cls-5{stroke:#161641;stroke-linecap:round;stroke-miterlimit:10;}.cls-5{stroke-width:3px;}</style><linearGradient id="linear-gradient" x1="377.3" y1="465.28" x2="377.3" y2="418.86" gradientTransform="translate(-10.09 178.31) rotate(-20.99)" gradientUnits="userSpaceOnUse"><stop offset="0" stop-color="#f9ec23"/><stop offset="0.67" stop-color="#fdd727"/><stop offset="1" stop-color="#ffcb29"/></linearGradient></defs><title>bg-header3</title><path class="cls-1" d="M361,514.48c-5.75-67.77-95.85-75.45-55.22-127.09,30.91-39.29,70.54-19.55,111.5-19.94,53.57-.52,85.63-38.67,113.73-37.91,42.5,1.15,38.41,48.76,80.41,90.75s118.31,21.83,110.27,103.38c-3.53,35.81-30.38,40.72-72.37,82.71s-28.09,85.84-78.11,91.9c-37.91,4.59-161.33-15.45-203.32-57.44C333.45,604.08,366.76,582.26,361,514.48Z"/><polygon class="cls-1" points="687.93 640.04 693.62 637.05 692.54 643.39 697.14 647.88 690.78 648.8 687.93 654.57 685.08 648.8 678.72 647.88 683.32 643.39 682.24 637.05 687.93 640.04"/><polygon class="cls-1" points="263.4 449.93 268.6 447.2 267.61 452.99 271.81 457.09 266 457.93 263.4 463.2 260.8 457.93 254.99 457.09 259.19 452.99 258.2 447.2 263.4 449.93"/><polygon class="cls-1" points="572.15 279.36 576.7 280.01 573.42 283.23 574.2 287.76 570.13 285.63 566.06 287.77 566.83 283.24 563.54 280.04 568.08 279.37 570.11 275.24 572.15 279.36"/><polygon class="cls-1" points="746.5 404.66 754.15 400.64 752.69 409.15 758.87 415.18 750.33 416.42 746.5 424.16 742.68 416.42 734.14 415.18 740.32 409.15 738.86 400.64 746.5 404.66"/><polygon class="cls-1" points="649.16 663.85 652.58 662.05 651.93 665.86 654.7 668.55 650.87 669.11 649.16 672.57 647.45 669.11 643.63 668.55 646.4 665.86 645.74 662.05 649.16 663.85"/><polygon class="cls-1" points="622.41 362.2 628.67 364.51 623.03 368.07 622.77 374.74 617.64 370.47 611.22 372.28 613.69 366.09 609.99 360.54 616.64 360.98 620.77 355.74 622.41 362.2"/><polygon class="cls-1" points="311.27 286.3 314.94 285.09 313.67 288.74 315.96 291.85 312.09 291.77 309.84 294.91 308.72 291.21 305.04 290.04 308.21 287.83 308.19 283.97 311.27 286.3"/><polygon class="cls-1" points="494.63 720.03 498.48 719.82 496.31 723.01 497.71 726.61 494 725.53 491 727.97 490.89 724.11 487.64 722.02 491.28 720.71 492.26 716.98 494.63 720.03"/><polygon class="cls-1" points="791.92 478.27 795.59 477.05 794.32 480.7 796.61 483.82 792.74 483.74 790.49 486.88 789.37 483.18 785.69 482 788.86 479.8 788.84 475.93 791.92 478.27"/><polygon class="cls-1" points="401.9 712.87 411.38 707.89 409.57 718.44 417.24 725.92 406.64 727.46 401.9 737.07 397.16 727.46 386.56 725.92 394.23 718.44 392.42 707.89 401.9 712.87"/><polygon class="cls-1" points="403.01 279.84 412.49 274.85 410.68 285.41 418.35 292.88 407.75 294.43 403.01 304.03 398.27 294.43 387.67 292.88 395.34 285.41 393.53 274.85 403.01 279.84"/><path class="cls-2" d="M515.8,492.15a7.27,7.27,0,0,1-12.8,2.61"/><path class="cls-3" d="M517.82,463.91h0a20.83,20.83,0,1,0-30.42,6.54h0l.12.09.05,0a15.68,15.68,0,0,1,5.92,9.05l11.28-2.42L516,474.78a15.68,15.68,0,0,1,1.67-10.68l0-.06Z"/><path class="cls-4" d="M509.36,478.32s-7.11-18.17-4.72-22,7.2,0,3,3-13.77,4.62-13.51,1.28,7.26-6.15,9.07,19"/><line class="cls-5" x1="494.13" y1="482.25" x2="518.19" y2="476.98"/><line class="cls-5" x1="495.54" y1="488.62" x2="519.59" y2="483.35"/><line class="cls-5" x1="497.08" y1="494.97" x2="521.14" y2="489.7"/></svg>