<svg id="Layer_1" data-name="Layer 1" xmlns="http://www.w3.org/2000/svg" viewBox="0 0 1000 1000"><defs><style>.cls-1{fill:#fff;opacity:0.05;}</style></defs><title>stars-left</title><polygon class="cls-1" points="545.97 290.08 551.47 288.26 549.57 293.74 553 298.41 547.2 298.29 543.82 303 542.14 297.45 536.62 295.69 541.38 292.38 541.35 286.58 545.97 290.08"/><polygon class="cls-1" points="437.37 327.79 451.59 320.32 448.87 336.15 460.38 347.37 444.48 349.68 437.37 364.08 430.26 349.68 414.36 347.37 425.86 336.15 423.15 320.32 437.37 327.79"/><polygon class="cls-1" points="368.34 616.92 382.56 609.44 379.84 625.28 391.35 636.49 375.45 638.8 368.34 653.21 361.23 638.8 345.33 636.49 356.83 625.28 354.12 609.44 368.34 616.92"/><polygon class="cls-1" points="825.26 308.7 836.73 302.67 834.54 315.44 843.81 324.48 830.99 326.35 825.26 337.96 819.53 326.35 806.71 324.48 815.99 315.44 813.8 302.67 825.26 308.7"/><polygon class="cls-1" points="487.17 512.03 492.67 510.21 490.77 515.68 494.2 520.36 488.4 520.24 485.02 524.94 483.34 519.4 477.82 517.63 482.58 514.33 482.55 508.53 487.17 512.03"/><polygon class="cls-1" points="164.82 475.02 155.2 466.34 167.94 463.99 173.23 452.17 179.4 463.55 192.28 464.92 183.36 474.31 186.03 486.99 174.34 481.4 163.12 487.86 164.82 475.02"/></svg>