<svg id="Layer_1" data-name="Layer 1" xmlns="http://www.w3.org/2000/svg" xmlns:xlink="http://www.w3.org/1999/xlink" viewBox="0 0 1000 1000"><defs><style>.cls-1{fill:url(#linear-gradient);}.cls-2,.cls-3{opacity:0.24;}.cls-2{fill:url(#Degradado_sin_nombre_13);}.cls-3{fill:url(#Degradado_sin_nombre_13-2);}.cls-4{fill:#fff;opacity:0.05;}</style><linearGradient id="linear-gradient" x1="589.02" y1="510.88" x2="666.35" y2="602.41" gradientUnits="userSpaceOnUse"><stop offset="0" stop-color="#4f69b1"/><stop offset="0.11" stop-color="#4e63ac" stop-opacity="0.96"/><stop offset="0.28" stop-color="#4c539e" stop-opacity="0.86"/><stop offset="0.49" stop-color="#483987" stop-opacity="0.69"/><stop offset="0.74" stop-color="#431568" stop-opacity="0.46"/><stop offset="0.8" stop-color="#420c60" stop-opacity="0.4"/><stop offset="1" stop-color="#2d0d53" stop-opacity="0"/></linearGradient><linearGradient id="Degradado_sin_nombre_13" x1="638.53" y1="525.72" x2="655.62" y2="545.94" gradientUnits="userSpaceOnUse"><stop offset="0" stop-color="#300d5d"/><stop offset="1" stop-color="#2d0d53" stop-opacity="0"/></linearGradient><linearGradient id="Degradado_sin_nombre_13-2" x1="630.12" y1="517.05" x2="638.67" y2="527.17" xlink:href="#Degradado_sin_nombre_13"/></defs><title>stars-right</title><path class="cls-1" d="M584.22,552.57a40,40,0,1,1,40,40A40,40,0,0,1,584.22,552.57Z"/><path class="cls-2" d="M655.17,534.93a8.85,8.85,0,1,1-8.85-8.85A8.85,8.85,0,0,1,655.17,534.93Z"/><path class="cls-3" d="M638.44,521.66a4.43,4.43,0,1,1-4.43-4.42A4.42,4.42,0,0,1,638.44,521.66Z"/><polygon class="cls-4" points="390.11 465.12 395.9 464.8 392.64 469.59 394.73 474.99 389.17 473.37 384.68 477.03 384.5 471.24 379.63 468.1 385.09 466.14 386.57 460.54 390.11 465.12"/><polygon class="cls-4" points="416.24 270.34 430.46 262.87 427.74 278.7 439.25 289.92 423.35 292.23 416.24 306.63 409.13 292.23 393.23 289.92 404.73 278.7 402.02 262.87 416.24 270.34"/><polygon class="cls-4" points="528.17 705.51 524.56 700.98 530.35 700.88 533.55 696.04 535.44 701.52 541.03 703.07 536.4 706.56 536.65 712.35 531.9 709.03 526.48 711.06 528.17 705.51"/><polygon class="cls-4" points="439.25 424.4 453.47 416.93 450.75 432.76 462.26 443.98 446.36 446.29 439.25 460.7 432.14 446.29 416.24 443.98 427.74 432.76 425.03 416.93 439.25 424.4"/><polygon class="cls-4" points="697.87 395.45 688.26 386.77 701 384.42 706.28 372.59 712.45 383.98 725.33 385.35 716.41 394.74 719.09 407.41 707.4 401.82 696.17 408.29 697.87 395.45"/><polygon class="cls-4" points="239.84 377.32 236.23 372.78 242.02 372.68 245.22 367.85 247.11 373.32 252.69 374.87 248.07 378.36 248.32 384.15 243.57 380.83 238.15 382.86 239.84 377.32"/></svg>