<?xml version="1.0" encoding="utf-8"?>
<!-- Generator: Adobe Illustrator 22.1.0, SVG Export Plug-In . SVG Version: 6.00 Build 0)  -->
<svg version="1.1" id="Layer_1" xmlns="http://www.w3.org/2000/svg" xmlns:xlink="http://www.w3.org/1999/xlink" x="0px" y="0px"
	 viewBox="0 0 1366 927" style="enable-background:new 0 0 1366 927;" xml:space="preserve">
<style type="text/css">
	.st0{opacity:3.000000e-02;fill:#EAE1ED;}
	.st1{opacity:2.000000e-02;fill:#FDFAFD;}
</style>
<title>wave-light</title>
<path class="st0" d="M1035.6-98.1H821.8c-21.5,18.2-40.3,44.5-55.5,80.5c-20.7,49-59.1,59.3-103.8,52.6c-36-5.4-76.1-21.8-114.2-38
	c-38.1-16.1-74.3-32-102.5-36.2c-2.3-0.3-4.6-0.6-6.8-0.8c-89.3-7.5-200.7,23.2-258.4,140.7C150.2,162.3,73.5,158,0,160.9v360.9
	c61.4,3.5,141.7-4.6,246.1-28.7c70.6-16.3,127.5-15.8,175.8-8.5c36.5,5.5,68.2,14.9,97.2,23.9c29,9,55.4,17.6,81.3,21.5
	c19.9,3,39.5,3.2,59.9-1.2c108.8-23.7,125.9-87.9,248.4-222.3C1027.5,176.2,1121.8-41.3,1035.6-98.1z"/>
<path class="st0" d="M758.8-98.1c-18,51.5-41.5,104-77.9,130.3c-27.1,19.5-63.9,15.7-105.5,9.4c-3.4-0.5-6.9-1.1-10.4-1.6
	c-3.5-0.5-7-1.1-10.6-1.6c-36.8-5.5-76.5-10.3-116.2-1.2c-168.4,38.6-115.9,159-214.9,175.3c-8.7,1.4-16.9,1.4-24.8,0.2
	C111.2,199.5,67.6,40.3,15.2,27c-0.8-0.2-1.7-0.4-2.5-0.5C8.5,25.8,4.2,26.3,0,27.8v421C88.6,512.9,223.2,573.2,348.3,592
	c77,11.6,150.4,7.4,207.1-21.4c212.1-107.5,66.9-247.9,199.8-282.8C888.2,253,975.5,146.1,1016.8-79c1.2-6.6,2.2-13,3.1-19.2H758.8z
	"/>
<path class="st1" d="M762.3-88.1C735.6-62.6,714.7-25.2,678,0.3c-61.3,42.7-178.1-9-262.8,21.3c-84.7,30.3-88.7,215.1-195.5,245
	c-17.1,4.8-33.9,5.5-50.3,3C95.7,258.6,31.8,183.9,0,132.2v331.5c119.9-70.3,190.6-75.4,247.9-66.8c15.7,2.4,30.5,5.8,44.9,9.1
	c14.5,3.4,28.7,6.7,43.4,8.9c19.5,2.9,39.9,3.9,62.9,0.4c127.5-19.4,120-206,193.3-249.8c24.4-14.6,41.8-16.1,61.2-13.2
	c7.9,1.2,16.2,3.1,25.4,5.2c9.2,2.1,19.4,4.3,31.1,6.1c33.8,5.1,80.7,6.4,155.6-10.4c140.2-31.4,178.7-178.5,167.2-241.3H762.3z"/>
</svg>
