<svg xmlns="http://www.w3.org/2000/svg" viewBox="0 0 1366 86.6"><defs><style>.cls-1{fill:#fff;}</style></defs><title>bg-wave-white</title><g id="Layer_2" data-name="Layer 2"><g id="Layer_1-2" data-name="Layer 1"><path class="cls-1" d="M1366,80.61v6H0v-65c18.11,2.63,36.14,6,54.33,7.77,51.13,5.05,102.44,5.69,153.72,3.37,53-2.41,106.09-5.18,159-9.13,51.46-3.83,102.84-8.87,154.16-14.27C574.29,3.77,627.45.42,680.74,0c32.46-.23,65,.57,97.39,1.89,55.09,2.25,110,6.76,164.59,14.73,47.25,6.91,94.37,14.72,141.42,22.85,33.44,5.77,66.55,13.49,100,19,39.08,6.39,78.35,11.7,117.64,16.67C1323.1,77.84,1366,80.61,1366,80.61Z"/></g></g></svg>