<svg id="Layer_1" data-name="Layer 1" xmlns="http://www.w3.org/2000/svg" xmlns:xlink="http://www.w3.org/1999/xlink" viewBox="0 0 1000 1000"><defs><style>.cls-1{opacity:0.15;}.cls-2{fill:#5ecae7;}.cls-3{fill:url(#linear-gradient);}.cls-4,.cls-41{fill:#fff;}.cls-5{fill:#eee;}.cls-6{fill:#2e95d1;}.cls-12,.cls-6{opacity:0.2;}.cls-7{fill:#475d9e;}.cls-8{fill:#4f69b1;}.cls-9{fill:#6178b9;}.cls-10{fill:#3f4da1;}.cls-11{fill:#ca8ede;}.cls-12{fill:#064a7d;}.cls-13{fill:#9f6fae;}.cls-14{fill:#b67fc7;}.cls-15{fill:url(#linear-gradient-2);}.cls-16{fill:#757576;}.cls-17{fill:#faced2;}.cls-18{fill:#2e205d;}.cls-19{fill:#e4f2fc;}.cls-20{fill:#b6e2eb;}.cls-21{fill:url(#linear-gradient-3);}.cls-22{fill:#42317e;}.cls-23{fill:url(#linear-gradient-4);}.cls-24{fill:url(#linear-gradient-5);}.cls-25{fill:url(#linear-gradient-6);}.cls-26{fill:#161641;}.cls-27{fill:url(#linear-gradient-7);}.cls-28{fill:url(#linear-gradient-8);}.cls-29{fill:#ebc3c7;}.cls-30{fill:#dee7ec;}.cls-31{fill:url(#linear-gradient-9);}.cls-32{fill:#cdd5d7;}.cls-33{fill:#b7bec0;}.cls-34{fill:url(#linear-gradient-10);}.cls-35{fill:url(#linear-gradient-11);}.cls-36{fill:#c21e5c;}.cls-37{fill:url(#linear-gradient-12);}.cls-38{fill:#163f59;}.cls-39{fill:url(#linear-gradient-13);}.cls-40{fill:none;stroke-width:4.54px;}.cls-40,.cls-41{stroke:#161641;stroke-linecap:round;stroke-miterlimit:10;}.cls-41{stroke-width:6.34px;}</style><linearGradient id="linear-gradient" x1="901.02" y1="860.64" x2="425.38" y2="860.64" gradientUnits="userSpaceOnUse"><stop offset="0" stop-color="#5ecae7"/><stop offset="0.03" stop-color="#5bcae6"/><stop offset="0.68" stop-color="#22c0d9"/><stop offset="1" stop-color="#0bbcd4"/></linearGradient><linearGradient id="linear-gradient-2" x1="240.8" y1="413.56" x2="527.79" y2="413.56" xlink:href="#linear-gradient"/><linearGradient id="linear-gradient-3" x1="689.68" y1="609.12" x2="689.68" y2="841.39" gradientUnits="userSpaceOnUse"><stop offset="0" stop-color="#1e1649"/><stop offset="1" stop-color="#42317e"/></linearGradient><linearGradient id="linear-gradient-4" x1="662.96" y1="618.02" x2="666.08" y2="618.02" gradientTransform="translate(43.95 -44.12) rotate(3.93)" xlink:href="#linear-gradient-3"/><linearGradient id="linear-gradient-5" x1="686.18" y1="616.44" x2="689.3" y2="616.44" gradientTransform="translate(43.87 -45.69) rotate(3.93)" xlink:href="#linear-gradient-3"/><linearGradient id="linear-gradient-6" x1="715.15" y1="614.49" x2="718.28" y2="614.49" xlink:href="#linear-gradient-3"/><linearGradient id="linear-gradient-7" x1="728.69" y1="512.86" x2="728.69" y2="658.24" xlink:href="#linear-gradient-3"/><linearGradient id="linear-gradient-8" x1="692.33" y1="112.24" x2="768.57" y2="48.27" gradientUnits="userSpaceOnUse"><stop offset="0" stop-color="#fce462"/><stop offset="0.13" stop-color="#fbdc60"/><stop offset="0.33" stop-color="#fac85c"/><stop offset="0.58" stop-color="#f7a554"/><stop offset="0.85" stop-color="#f2764a"/><stop offset="1" stop-color="#f05a44"/></linearGradient><linearGradient id="linear-gradient-9" x1="813.18" y1="321.53" x2="786.32" y2="169.21" xlink:href="#linear-gradient"/><linearGradient id="linear-gradient-10" x1="296.59" y1="753.3" x2="407.65" y2="753.3" xlink:href="#linear-gradient-3"/><linearGradient id="linear-gradient-11" x1="362.93" y1="694.49" x2="413.87" y2="694.49" gradientUnits="userSpaceOnUse"><stop offset="0" stop-color="#f05741"/><stop offset="0.36" stop-color="#ee3b50"/><stop offset="0.76" stop-color="#ed235c"/><stop offset="1" stop-color="#ec1a61"/></linearGradient><linearGradient id="linear-gradient-12" x1="273.89" y1="698.67" x2="391.75" y2="698.67" xlink:href="#linear-gradient-11"/><linearGradient id="linear-gradient-13" x1="916.92" y1="806.51" x2="916.92" y2="708.43" gradientTransform="translate(-349.44 1043.78) rotate(-86.75)" gradientUnits="userSpaceOnUse"><stop offset="0" stop-color="#f9ec23"/><stop offset="0.67" stop-color="#fdd727"/><stop offset="1" stop-color="#ffcb29"/></linearGradient></defs><title>books</title><path class="cls-1" d="M833.85,959c0,8.43-49.43,15.26-110.4,15.26s-110.4-6.83-110.4-15.26,49.43-15.26,110.4-15.26S833.85,950.58,833.85,959Z"/><path class="cls-2" d="M901,928.83H890.66c-3.41,0-6.2-3.13-6.2-7V799.4c0-3.82,2.79-6.93,6.2-6.93H901V778.6H108.53c-10.28,0-18.63,9.31-18.63,20.8V921.88c0,11.5,8.35,20.8,18.63,20.8H901Z"/><path class="cls-3" d="M901,928.83H890.66c-3.41,0-6.2-3.13-6.2-7V799.4c0-3.82,2.79-6.93,6.2-6.93H901V778.6H425.38V942.68H901Z"/><path class="cls-4" d="M884.46,921.88V799.4c0-3.82,2.79-6.93,6.2-6.93H108.53c-3.41,0-6.21,3.11-6.21,6.93V921.88c0,3.82,2.8,7,6.21,7H890.66C887.25,928.83,884.46,925.7,884.46,921.88Z"/><path class="cls-5" d="M884.46,921.88V799.4c0-3.82,2.79-6.93,6.2-6.93H413c-3.44,0-6.22,3.11-6.22,6.93V921.88c0,3.82,2.78,7,6.22,7h477.7C887.25,928.83,884.46,925.7,884.46,921.88Z"/><path class="cls-5" d="M808.83,626.67a365.79,365.79,0,0,0,1.36,130H300.27v-130Z"/><path class="cls-6" d="M808.83,626.67c-.78,4.47-1.45,9-2.06,13.58H346.82V626.67Z"/><path class="cls-7" d="M279.9,606.31H814.34a5.81,5.81,0,0,1,5.81,5.81v14.55H574.77v130H820.15V771.2a5.82,5.82,0,0,1-5.81,5.82H279.9a5.83,5.83,0,0,1-5.83-5.82V612.12A5.83,5.83,0,0,1,279.9,606.31Z"/><path class="cls-8" d="M148,606.31h413.2a5.82,5.82,0,0,0-5.82,5.81V771.2a5.82,5.82,0,0,0,5.82,5.82H148a5.83,5.83,0,0,1-5.82-5.82V612.12A5.82,5.82,0,0,1,148,606.31Z"/><path class="cls-9" d="M148,606.31h413.2a5.82,5.82,0,0,0-5.82,5.81v19.41H142.16V612.12A5.82,5.82,0,0,1,148,606.31Z"/><path class="cls-10" d="M852,593.48h-8.92c-3,0-5.36-2.7-5.36-6V481.93c0-3.29,2.4-6,5.36-6H852V464H169c-8.87,0-16.06,8-16.06,17.93V587.49c0,9.91,7.19,17.91,16.06,17.91H852Z"/><path class="cls-10" d="M852,593.48h-8.92c-3,0-5.36-2.7-5.36-6V481.93c0-3.29,2.4-6,5.36-6H852V464H442.08V605.4H852Z"/><path class="cls-4" d="M837.72,587.49V481.93c0-3.29,2.4-6,5.36-6H169c-2.95,0-5.35,2.68-5.35,6V587.49c0,3.29,2.4,6,5.35,6H843.08C840.12,593.48,837.72,590.78,837.72,587.49Z"/><path class="cls-5" d="M837.72,587.49V481.93c0-3.29,2.4-6,5.36-6H431.36c-2.95,0-5.35,2.68-5.35,6V587.49c0,3.29,2.4,6,5.35,6H843.08C840.12,593.48,837.72,590.78,837.72,587.49Z"/><polygon class="cls-11" points="238.91 631.32 212.76 615.06 186.63 631.32 186.63 569.57 212.76 569.57 238.91 569.57 238.91 631.32"/><path class="cls-5" d="M764.53,233.13a315.12,315.12,0,0,0,1.17,112H326.23v-112Z"/><path class="cls-12" d="M764.53,233.13q-1,5.77-1.77,11.71H366.36V233.13Z"/><path class="cls-13" d="M308.68,215.57h460.6a5,5,0,0,1,5,5v12.54H562.8v112H774.3v12.54a5,5,0,0,1-5,5H308.68a5,5,0,0,1-5-5V220.59A5,5,0,0,1,308.68,215.57Z"/><path class="cls-11" d="M195,215.57H551.09a5,5,0,0,0-5,5v137.1a5,5,0,0,0,5,5H195a5,5,0,0,1-5-5V220.59A5,5,0,0,1,195,215.57Z"/><path class="cls-14" d="M195,215.57H551.09a5,5,0,0,0-5,5v16.73H190V220.59A5,5,0,0,1,195,215.57Z"/><path class="cls-2" d="M240.8,452.21h8.71c2.86,0,5.21-2.72,5.21-6.11V381c0-3.37-2.35-6.12-5.21-6.12H240.8v-12.2H793.91c8.66,0,15.65,8.21,15.65,18.32V446.1c0,10.12-7,18.33-15.65,18.33H240.8Z"/><path class="cls-15" d="M240.8,452.21h8.71c2.86,0,5.21-2.72,5.21-6.11V381c0-3.37-2.35-6.12-5.21-6.12H240.8v-12.2h287V464.43h-287Z"/><path class="cls-5" d="M254.72,446.1V381c0-3.37-2.35-6.12-5.21-6.12h544.4c2.88,0,5.22,2.75,5.22,6.12V446.1c0,3.39-2.34,6.11-5.22,6.11H249.51C252.37,452.21,254.72,449.49,254.72,446.1Z"/><path class="cls-4" d="M254.72,446.1V381c0-3.37-2.35-6.12-5.21-6.12H538.23c2.88,0,5.21,2.75,5.21,6.12V446.1c0,3.39-2.33,6.11-5.21,6.11H249.51C252.37,452.21,254.72,449.49,254.72,446.1Z"/><polygon class="cls-16" points="765.35 943.75 770.24 943.75 656.63 519.74 651.74 519.74 765.35 943.75"/><polygon class="cls-16" points="698.52 943.75 703.41 943.75 589.8 519.74 584.91 519.74 698.52 943.75"/><polygon class="cls-16" points="661.23 546.03 659.92 541.14 591.45 541.14 592.76 546.03 661.23 546.03"/><polygon class="cls-16" points="671.21 583.31 669.91 578.43 601.45 578.43 602.76 583.31 671.21 583.31"/><polygon class="cls-16" points="681.21 620.6 679.9 615.71 611.43 615.71 612.75 620.6 681.21 620.6"/><polygon class="cls-16" points="691.2 657.88 689.89 652.99 621.43 652.99 622.74 657.88 691.2 657.88"/><polygon class="cls-16" points="701.19 695.17 699.88 690.28 631.42 690.28 632.73 695.17 701.19 695.17"/><polygon class="cls-16" points="711.18 732.46 709.87 727.57 641.41 727.57 642.72 732.46 711.18 732.46"/><polygon class="cls-16" points="721.17 769.74 719.86 764.86 651.39 764.86 652.71 769.74 721.17 769.74"/><polygon class="cls-16" points="731.16 807.03 729.85 802.14 661.39 802.14 662.7 807.03 731.16 807.03"/><polygon class="cls-16" points="741.15 844.32 739.84 839.42 671.38 839.42 672.69 844.32 741.15 844.32"/><polygon class="cls-16" points="751.14 881.61 749.83 876.71 681.37 876.71 682.68 881.61 751.14 881.61"/><polygon class="cls-16" points="761.13 918.89 759.82 914 691.36 914 692.67 918.89 761.13 918.89"/><path class="cls-17" d="M562.28,412s-.2.21-1,.93-.22,2.47-.22,2.47l-5-6.65-2.67.51a1.94,1.94,0,0,0-1.76.19c-.79.63-1,2.66-1,2.66s-4.45.8-4.42,2.86c0,.71,1.51,2.41,1.51,2.41l2.38,3.18,4.42,7.76,4.07,6s1.84,3.73-4.25-.56-6.74-.74-6.74-.74l2.19,1.83s9.13,6.26,11.72,7.8S574,440.37,574,440.37l2.39-1.91Z"/><path class="cls-17" d="M697.72,487.15a44.88,44.88,0,0,0-4.66,25.47c1.73,13.43-24-1-24-1s3.76-10-9.69-20.76C650.65,484,695.45,481.58,697.72,487.15Z"/><path class="cls-18" d="M665.54,520.9c-3.76-3.07-28.3-22.95-40.73-31.32-2.85-2.82-5.14-4.74-5.14-4.74-7-8.19-44.54-49-44.54-49l-8.53,7.75a317.81,317.81,0,0,0,20.23,33c4.31,6.15,12.68,15.52,21.24,23.86,16.81,22.18,48.34,53.1,48.34,53.1C662.33,542.29,670.63,525.06,665.54,520.9Z"/><path class="cls-19" d="M713.25,519.26s-19.8-7.21-39.35-6.88c-18.31.32-19.72,1.94-22.64,3.91-6,4.08-14.46,39.15-4.58,66.9a200.61,200.61,0,0,1,8.62,32.68s60.09,15.58,64,14.24,11.68-14.5,8.6-23-7.6-57.23-2.64-66.74S723.84,518.68,713.25,519.26Z"/><path class="cls-20" d="M682.12,615.7l-6.51,1.39A262.41,262.41,0,0,1,675.38,510c1.87.37,3.71.75,5.57,1.11A256.06,256.06,0,0,0,682.12,615.7Z"/><path class="cls-21" d="M705.88,714.87c-.08-2.09-2.9-4.22-6.67-5.74l24.24-100-63.16,4.18s18.21,71,19.11,101c.05,1.61.14,3.08.26,4.45-2.06,28.1,4,104.82,4,104.82S679.16,833.7,674,834.1c-20,1.59-18.06,7.29-18.06,7.29l29.79-1.2,5-3.81.14,3.6,11.82-.48c1.64-3.92.32-11,.32-11.07Z"/><path class="cls-22" d="M734.06,615.71s-64.1-1.8-64.58,2.25c-.79,6.5,4.4,19.91,10.34,29.46,2,3.18,8.65-.86,9.88,2.51,2.41,6.62-2.5,75.5,2.22,82,2.76,34.22,15,91.85,15,91.85l-.08,3.84s-3.78,5-8.91,5.29c-20.06,1.36-20.15,8.6-20.15,8.6l29.84-.87,5.15-.15,11.83-.34c1.72-4,3-16.4,3-16.4l-11.15-99.39,16.78-71.89Z"/><rect class="cls-2" x="656.55" y="612.88" width="71.45" height="6.17" transform="translate(-39.95 48.07) rotate(-3.87)"/><rect class="cls-23" x="663.23" y="613.88" width="2.57" height="8.26" transform="matrix(1, -0.07, 0.07, 1, -40.82, 47.03)"/><rect class="cls-24" x="686.46" y="612.32" width="2.57" height="8.26" transform="translate(-40.63 48.59) rotate(-3.93)"/><polygon class="cls-25" points="718.28 618.52 715.72 618.69 715.15 610.45 717.72 610.28 718.28 618.52"/><path class="cls-17" d="M678.9,452.61a18,18,0,0,0-5.26,4.13l-4.33,5.64a7.32,7.32,0,0,0-.87,1.34s-.05.07-.07.1l-2.7,5.07-4.27,8-5.62,10.54a1.48,1.48,0,0,0,.61,2l15.52,8.27c.67.36,13.22-2.45,15.52-3.47,2.71-1,5.2-1.29,6.86-2.41,2.14-1.46,2.66-8.28,2.88-16.78C697.41,465.59,683.9,449.88,678.9,452.61Z"/><path class="cls-26" d="M695.32,493.28l7.57-22.78s1-4.1-9.16-11.72-18.24-9.78-21.24-7.41-.23,6.61-.23,6.61l13.29,5.71-6.7,7-2.15,10.47,3,1.8,0,.29s2-5.62,6.17-6.46,5.25,3.65,2.27,6.33-3.14,4-3.14,4l2.48,5.63Z"/><polygon class="cls-20" points="677.24 508.26 676.05 514.07 670.15 520.72 665.12 512.05 668.91 504.61 677.24 508.26"/><polygon class="cls-20" points="694.33 508.94 696.41 516.52 683.7 523.2 676.05 514.07 677.24 508.26 694.33 508.94"/><path class="cls-27" d="M719.65,517.91l-24.91-5s-6.43,53.94,9.7,74.27c16.84,21.24,26.19,34.52,28.5,47S744,658.24,744,658.24l19.6-33.92s1.75-9.09-3.43-14.79-26.83-30.63-32-49.95S736,531.76,719.65,517.91Z"/><path class="cls-17" d="M624,626.85a7.6,7.6,0,0,1-6.64.27c-3.89-1.51-2.1,1.26-2.1,1.26l-2.1,4.8-2.79-3.73-6.17-10.09L607,608.87s2.09-1.25,3.76-.83,9.57,5.8,9.57,5.8Z"/><path class="cls-18" d="M674.3,651.68s-17.89-78.38-18.24-90.58c-.34-11.35,8.8-48.56,8.8-48.56l-11.64,1.13a56.12,56.12,0,0,0-9.39,18.45c-3.24,11.86-4.47,28.9-3.13,34.45,1.53,6.34,5.53,25.85,9.29,34.82,2.06,4.93,4.62,35,9.32,38C664.65,642.9,675.88,651.79,674.3,651.68Z"/><path class="cls-26" d="M655.75,573.6a204.91,204.91,0,0,1,2.54-24.11c2.3-14.74,6.57-37,6.57-37l-15.61,2.24L645,531.24l6.28,2.78L645,544.85A240.11,240.11,0,0,0,655.75,573.6Z"/><path class="cls-22" d="M725,521.64c.72,1,5.56,10.52,3.87,18s-28,51-38.81,60.05-15.11-.29-15.69-7.2,4.32-12.48,11.39-30.1c8.21-20.46,12.28-28.2,17.44-37.3C707.16,518.12,718.9,513.26,725,521.64Z"/><path class="cls-22" d="M692.11,590.16s2.82,9.25-14.13,16.52-54.7,22.3-54.7,22.3l-3.51-17.78s33.61-17.66,41.11-21.28S681.9,574.25,692.11,590.16Z"/><path class="cls-28" d="M760,39.9l-3.93-2.3a18.67,18.67,0,0,0-25.19,6.07l-3.55,5.72c-.48.78-1.25,2.33-4.53,4.06s-6.71,1.26-11,3.7c-2.24,1.26-3.74,4.74-6.24,6.29-3.34,2.07-7.22-.43-11.41,6-1.18,1.82-7.46,2.8-9.06,4-4.79,3.66-1.5,5.42-7,11.33-8.57,9.12,13.78,23.78,25.78,28.57,9.37,3.74,43.33,5.28,47.13-7.21.82-2.69-.58-6.11.56-10.18.83-3,2.32-1.92,3-4.92.49-2.13-.39-4,0-5.87.86-3.67,4.55-5.38,5.94-7.57,2.42-3.81,6.28-13.15,6.28-13.15C771.3,54.36,768.69,45,760,39.9ZM733.43,76.44v.28h-.1C733.36,76.62,733.4,76.53,733.43,76.44Z"/><path class="cls-29" d="M732.05,163.59s-1.07,3.36,15.05,9,41.19,10,41.19,10l-36-16.53S738.26,160.39,732.05,163.59Z"/><path class="cls-29" d="M775.19,179.3c7.58,2.93,9.37,8,11.93,10.32a58.31,58.31,0,0,1,4.87,5.26c-.44-3.89-2.85-4.93-3.68-6.45s-.7-.87,2.08,0c1.57.48,3.24,4.22,4.6,6.47a6.63,6.63,0,0,0,2.2,2.46,36,36,0,0,0-2.57-6.66,42.18,42.18,0,0,0-5.62-8.19c-1.38-1.25-6.38-3.38-10.18-4.29C774.53,177.15,769.73,177.2,775.19,179.3Z"/><path class="cls-30" d="M788.53,182.48s5.24,3.71,6,4.88c.51.8,2.27,5.06,2.27,5.06a8.2,8.2,0,0,1-2.84-2.85C793.12,187.91,788.53,182.48,788.53,182.48Z"/><path class="cls-18" d="M741.71,159.39s-15-4.78-17.39,4.3c-1.35,5.17,1.33,8.18,5.89,9.55a110.73,110.73,0,0,0,17.7,3.49l4.44-12.8Z"/><path class="cls-18" d="M742.62,152l.09-42.42S744,98.64,740,98.51c-5.72-.18-7.65,9.19-8.45,12.54-1.62,6.83-3.32,9.42-4.76,26.86-.89,10.75-2.73,22.82-2.7,30.13,0,5.05,5.4-.56,10.49-.1C742.48,168.65,742.62,152,742.62,152Z"/><path class="cls-31" d="M869.79,310.07c-2.12-1.38-11.86-2.84-11.86-2.84l-13.19-4.11L815.41,192.23s-2.13-5.92-15.95-7.15c-13.45-1.19-60.9-7.5-67.22-6.33-15,2.77,30.83,17.87,27.21,30.05l39.17,2.84L837.77,314l2.63-.38,1.72-3,15.59,2.09,12.81-1.23A2.28,2.28,0,0,0,869.79,310.07Z"/><path class="cls-17" d="M765.86,51.21a25.79,25.79,0,0,1-3.05,4.08c-6.57,6.7-18.17,4.72-25.18,4.19-3,4.31-5.89,14.35-9.09,17.1a12.46,12.46,0,0,1-8.44,2.69c-5.38,6.18-7.81,26.12,9.1,29.54,10.16,2,13-9.58,8.76-16.19-1.91-3-4.67-5.14-3.77-6.68,7.77-13.23,9.22-9,12.52-6.65s9.55.91,12.54-3.9c2.52-4.06,5.64-13.09,5.64-13.09A12.3,12.3,0,0,0,765.86,51.21Z"/><path class="cls-4" d="M701.26,189.31s6.58,2,8.38,2.86c2.4,1.15,9.79.62,9.79.62s4.13-35.87,7-48.26,6.43-15.51,6.76-19.43c.51-6.27.13-7.78-.54-12.75s3.14-11.14,1.93-10c-2,1.83-8.88,4.34-14.47-3.08C719.16,98,701.26,189.31,701.26,189.31Z"/><path class="cls-22" d="M734.28,87.63s8.31,10,7.68,13-.84,15.76-4.14,29.08-5.27,16.53-6.5,26.36.87,12.23-1,24.27c-1.49,9.42-3.72,17.65-3.72,17.65a7.88,7.88,0,0,1-7.35-3c-2.94-3.8,1.17-36.67,3.09-44.69s8.59-28.88,8.79-34.56-.4-19.35-1.25-21.22C727.75,89.86,733.52,88,734.28,87.63Z"/><path class="cls-18" d="M734.4,86.78a4.92,4.92,0,0,1-1.24,1.13,20.23,20.23,0,0,0-2.9,2.19s1.9-.71,2.46.92a30.9,30.9,0,0,1,.82,6.44s3.87-5.27,3.22-7.12C735.6,87,734.4,86.78,734.4,86.78Z"/><path class="cls-2" d="M801.85,313.59a20.18,20.18,0,0,0-2.61-2l-12-10.48s16.33-88.33,11.49-104.29c-3.4-11.21-10.44-9.7-10.44-9.7l-76.13-11.69-9.37-2-4.36-13.53L682.34,159s-8.52,9.79-10.44,21.08c-2.46,14.41,2.48,29.32,10.39,32.54,20.62,8.39,95.35,2.06,95.35,2.06l.44,91.29,3.62,3.11,1.28-.83,12.22,8.19s6.48,4,8.56,2C804.43,317.79,803.88,315.39,801.85,313.59Z"/><path class="cls-22" d="M706.42,188.19s6.41-31.78,9.78-46.8,5.19-40.53,6-44.15a53.16,53.16,0,0,1,3.18-8.7s-3-8.63-7.82-8.79c-4.27-.13-18.07,3.17-24.81,5.23-4.64,1.43-6.84,52.8-7.48,55.45-2.32,9.59-8.08,20.31-11.85,27.72A110.91,110.91,0,0,0,667.67,183S692.43,182.3,706.42,188.19Z"/><path class="cls-18" d="M718.66,77.32l3.25,4.39s4.41,7.4,2.86,6.28c-2-1.42-5,5.63-5,5.63L714.3,79.28Z"/><path class="cls-17" d="M682.37,152.7s-6.09,4.23,15,7.54,51.26,6.74,52.68,5.3-47.59-13.48-47.59-13.48S689.37,148.17,682.37,152.7Z"/><path class="cls-17" d="M754,172c2,.32,4.69,4.19,6.82,6.53A8.7,8.7,0,0,0,764,181l-1.51-5.5s-3-4.56-3.81-5.39-7.49-4.55-7.74-4.71c-1.94-1.23-12-3.87-16.87-4.35-5.48-.54-8.1,2.18-1,3.78,9.92,2.2,13.35,6.63,17,8.91a73.43,73.43,0,0,1,7.05,5.24c-1.32-4.33-4.37-5.27-5.82-6.77C750.22,171.08,750.37,171.41,754,172Z"/><path class="cls-18" d="M695.43,147.82l11-46s-.85-9.74-3.54-13.29c-3.19-4.22-10-3.66-10-3.66s-8.45,5.76-12.29,42.62c-2.64,25.23-5.87,35.4,4.91,37.47,10.07,1.93,27.13,5,27.13,5l3.54-16Z"/><rect class="cls-32" x="783.28" y="148.26" width="1.38" height="67.07" transform="translate(533.43 946.58) rotate(-84.92)"/><path class="cls-32" d="M780.12,180.68a1.84,1.84,0,0,0,1.52,2.08l34.26,3c.93.09,2.26-.47,3.63-3.08l19.69-29.41a1.78,1.78,0,0,0-1.8-2.12l-35.25-2.06a3.24,3.24,0,0,0-2.42,2.14Z"/><path class="cls-33" d="M784.14,182.5l-.35,0-33.44-3a12.39,12.39,0,0,0,5.37,1.54l28,2.49.34,0,28,2.49a12.5,12.5,0,0,0,5.56-.57Z"/><path class="cls-17" d="M387.87,727.91s12.42,27.85-9.81,44c-6.61,4.8,1.09,3,8.39.52s23.57-18.67,24.19-37.91-.47-26.65-6.16-30.51S387.87,727.91,387.87,727.91Z"/><path class="cls-34" d="M404.2,759.67a9.72,9.72,0,0,0-2.42-1.07l-77.17-33.43s-23.28-5.6-22,22.33c.46,10.27,10.95,15,24,17C315,767.8,303.89,771.81,298.12,775c-3.95,2.17,1,6.62,1,6.62l102.52.3S413.24,765.66,404.2,759.67Z"/><path class="cls-22" d="M329.89,733,277,734.88s-3.41,6.8-4.92,22.81a40.16,40.16,0,0,0,.66,7.39c-1.44,21.6,6.72,50.85,8.18,55.87l-.19-.09s-12.29,8-26.05,23.3c-10.33,11.43-31,56.11-31.33,56.09L221.79,906s15.33,5.86,16.84,6.37c2.45.83,16.46.24,16.46.24l-.25-3.4s-10.21.18-13.9-2.61a11.5,11.5,0,0,1-3.33-4.9l63.5-71.34-1.21-.56,1.21.51,13.46-68.07c4.59-6.54,10.82-15.74,10.82-15.74Z"/><path class="cls-35" d="M376,665.19s2.21-14.71,24,12.49c12.16,15.17,13.83,33.17,13.83,33.17l-2.37,15.58-27.21,1.33-.83-12.54,1.76-1.06s.68-2.56-1-4.16-6.5-10.9-19.92-25.35C358.17,678,374,666.47,376,665.19Z"/><path class="cls-36" d="M393.79,707.25l-6.48,2.32-2.53,1.08a5,5,0,0,1,.44,3.51l4.5-2.62,5.86-2.13,8.48-.36Z"/><path class="cls-4" d="M332.72,748.07s.82-4.62-3.5-5.51S314,745,314,745a51.07,51.07,0,0,0,5.28,1.76c3.11.86,6.87,1.59,6.87,1.59Z"/><path class="cls-37" d="M332.47,744.21l-58.58-9.85s25.43-48.93,31.63-57.55c7.71-10.73,24-19.87,24-19.87s23.92-8.11,37.33-.69c19.49,10.79,24.89,16.59,24.89,16.59S385.87,716.74,332.47,744.21Z"/><path class="cls-17" d="M356.84,769.13,372.22,780l9.33.52s-.32,1.26-.69,1.38c-2.42.86-10,0-10,0s-5.7-1.76-7.65-1.64-7.25,2.5-7.56,2c-1.1-1.82,1.5-1.41,2.39-2.68,1.06-1.5-.33-4.68-.33-4.68Z"/><path class="cls-17" d="M329.81,738.82,359.44,772l2.59,4s-2-.39-3.41-.82c-6.19-1.93-26.67-12.66-32.92-18.35a94.25,94.25,0,0,1-13.23-15.31Z"/><path class="cls-36" d="M338,690.89l-6.46,44-2.87,1.82,2.25,2.41-17.1,6.45-10.34-12,10-60s5-16.57,23.14-18.63C345.63,654,338.38,687.27,338,690.89Z"/><path class="cls-36" d="M305.27,739.74s18.13-3.55,24.65-3.79l-1.25.8,2.25,2.41L325,741.34l-14.52,5.39-2-3,2.46-1.15Z"/><path class="cls-38" d="M371.64,633.64a5.21,5.21,0,0,1-4,6.22L348.4,644.1a5.24,5.24,0,0,1-6.23-4h0a5.23,5.23,0,0,1,4-6.23l19.26-4.23a5.21,5.21,0,0,1,6.22,4Z"/><path class="cls-38" d="M370.05,643.26a9.66,9.66,0,0,1-7.35,11.5L352.65,657a9.65,9.65,0,0,1-11.5-7.36h0a9.66,9.66,0,0,1,7.36-11.5l10.05-2.21a9.65,9.65,0,0,1,11.49,7.36Z"/><path class="cls-17" d="M380.94,656.69l-6.48-29.47c-1-4.7-3.81.84-8.5,1.87l-4.53,1a8.7,8.7,0,0,0-6.63,10.38l4.61,21Z"/><path class="cls-17" d="M360,646.21a3.81,3.81,0,0,1-2.9,4.55h0a3.83,3.83,0,0,1-4.56-2.91h0a3.83,3.83,0,0,1,2.91-4.56h0a3.81,3.81,0,0,1,4.55,2.92Z"/><path class="cls-38" d="M368.69,657.69c-8.51,1.87-10-.53-10.87-3.47,0,0-.62,8-.09,10.37l.58,2.68c1.14,5.18,7.39,8.21,14,6.77l11.9-2.62-2.91-13.21-.69-3.13Z"/><path class="cls-38" d="M379.38,649.6l-6.8,1.5a5.8,5.8,0,0,0-4.42,6.91,5.88,5.88,0,0,0,.51,1.37l12.27-2.69Z"/><path class="cls-4" d="M371.91,657.48l.42,1.9a1,1,0,0,0,1.14.74L379,658.9a1,1,0,0,0,.74-1.16l-.42-1.88Z"/><path class="cls-38" d="M370.38,622.63l-17.44,3.83a3.47,3.47,0,0,0-2.65,4.15l1.49,6.8,20.84-4.58Z"/><path class="cls-38" d="M382.3,625.33a5.25,5.25,0,0,1-4,6.26l-11.8,2.6a5.26,5.26,0,0,1-6.27-4h0a5.26,5.26,0,0,1,4-6.27l11.8-2.6a5.26,5.26,0,0,1,6.27,4Z"/><rect class="cls-38" x="354.58" y="633.85" width="4.82" height="12.7" transform="translate(-129.14 91.59) rotate(-12.4)"/><rect class="cls-38" x="355.01" y="627.15" width="14.2" height="14.95" transform="translate(-127.84 92.57) rotate(-12.4)"/><path class="cls-17" d="M360.07,642.94a7.17,7.17,0,0,1,5.47-8.56l3.62-.8c3.88-.85,6.64,1.83,7.49,5.71h0a7.19,7.19,0,0,1-5.47,8.56l-2.55.56a7.18,7.18,0,0,1-8.56-5.47Z"/><path class="cls-26" d="M540.87,174.34a15.36,15.36,0,0,1-6.09,26.91"/><path class="cls-39" d="M489.24,145h0a44,44,0,1,0-13.79,64.28h0l.27-.15.13-.07a33,33,0,0,1,22.56-3.54l5.11-23.84,5.12-23.84a33.06,33.06,0,0,1-19.13-12.48l-.09-.12Z"/><path class="cls-40" d="M508.63,174.73s-41.17-2.07-46.41-9.95,6.22-13.89,8.37-3.28-3,30.53-9.25,27.13-5.55-19.32,44.51-1"/><line class="cls-41" x1="503" y1="207.49" x2="513.71" y2="156.57"/><line class="cls-41" x1="516.49" y1="210.31" x2="527.19" y2="159.39"/><line class="cls-41" x1="530.07" y1="212.84" x2="540.77" y2="161.91"/></svg>