<svg id="Layer_1" data-name="Layer 1" xmlns="http://www.w3.org/2000/svg" xmlns:xlink="http://www.w3.org/1999/xlink" viewBox="0 0 1000 1000"><defs><style>.cls-1{opacity:0.15;}.cls-2{fill:#faf7fa;}.cls-3,.cls-9{fill:#fff;}.cls-4{fill:url(#linear-gradient);}.cls-5{fill:#f2f2f2;}.cls-6{fill:#757576;}.cls-7{fill:#bdbdbd;}.cls-8{fill:url(#linear-gradient-2);}.cls-11,.cls-9{stroke:#161641;stroke-linecap:round;stroke-width:4.35px;}.cls-11,.cls-21,.cls-9{stroke-miterlimit:10;}.cls-10{fill:#5d54a4;}.cls-11,.cls-21{fill:none;}.cls-12{fill:url(#linear-gradient-3);}.cls-13{fill:#faced2;}.cls-14{fill:#5ecae7;}.cls-15{fill:#fdeef2;}.cls-16{fill:#1e1649;}.cls-17{fill:url(#linear-gradient-4);}.cls-18{fill:#161641;}.cls-19{fill:#2e205d;}.cls-20{fill:#e5e5e4;}.cls-21{stroke:#cbcbca;stroke-width:2.17px;}.cls-22{fill:#cbcbca;}</style><linearGradient id="linear-gradient" x1="271.23" y1="318.85" x2="729.43" y2="318.85" gradientTransform="translate(1000.66 637.7) rotate(180)" gradientUnits="userSpaceOnUse"><stop offset="0" stop-color="#f05741"/><stop offset="0.36" stop-color="#ee3b50"/><stop offset="0.76" stop-color="#ed235c"/><stop offset="1" stop-color="#ec1a61"/></linearGradient><linearGradient id="linear-gradient-2" x1="464.8" y1="479.09" x2="524.11" y2="479.09" gradientUnits="userSpaceOnUse"><stop offset="0" stop-color="#fce462"/><stop offset="0.19" stop-color="#facf5d"/><stop offset="0.58" stop-color="#f69952"/><stop offset="1" stop-color="#f05a44"/></linearGradient><linearGradient id="linear-gradient-3" x1="600.39" y1="753.14" x2="600.39" y2="664.01" xlink:href="#linear-gradient-2"/><linearGradient id="linear-gradient-4" x1="447.41" y1="529.42" x2="520.1" y2="456.73" xlink:href="#linear-gradient-2"/></defs><title>building</title><path class="cls-1" d="M650.35,833.34c0,3.81-22.33,6.9-49.87,6.9s-49.86-3.09-49.86-6.9,22.32-6.89,49.86-6.89S650.35,829.53,650.35,833.34Z"/><g id="_Group_" data-name="&lt;Group&gt;"><path class="cls-2" d="M197.91,637.55a65,65,0,0,1,24.8-5.41l-.11,0,6.74-15.82,17.37,3.07.9,17.17-.11,0a64.24,64.24,0,0,1,21.4,13.58l15.92-6.38,10.1,14.44-11.45,12.73a64.76,64.76,0,0,1,5.5,24.73l15.75,6.69-3.08,17.4-17.08.89A64.65,64.65,0,0,1,270.94,742l6.4,15.85L262.89,768l-12.73-11.45a64.84,64.84,0,0,1-24.77,5.5l-6.68,15.71-17.37-3.07-.89-17A64.92,64.92,0,0,1,179.06,744l-15.92,6.39L153,735.9l11.5-12.76a64.74,64.74,0,0,1-5.47-24.73l-15.78-6.7,3.07-17.4,17.13-.87a64.71,64.71,0,0,1,13.64-21.32l-6.42-15.92,14.44-10.14Zm49.82,63.7a24.08,24.08,0,1,0-27.93,19.53A24.08,24.08,0,0,0,247.73,701.25Z"/></g><g id="_Group_2" data-name="&lt;Group&gt;"><path class="cls-2" d="M68.3,702.76A51.41,51.41,0,0,1,88,698.46h-.08l5.34-12.54L107,688.35l.72,13.6h-.08a50.94,50.94,0,0,1,17,10.76l12.62-5.06,8,11.45-9.07,10.09a51.76,51.76,0,0,1,4.36,19.61l12.48,5.3-2.44,13.79-13.54.7a51.09,51.09,0,0,1-10.8,17l5.07,12.56-11.45,8-10.09-9.07a51.12,51.12,0,0,1-19.63,4.35l-5.3,12.46L71,811.43l-.71-13.51a51.53,51.53,0,0,1-17-10.82l-12.62,5.06-8-11.45,9.1-10.11A51.49,51.49,0,0,1,37.51,751L25,745.69l2.44-13.79L41,731.2a51.39,51.39,0,0,1,10.81-16.89l-5.08-12.63,11.45-8Zm39.49,50.48a19.09,19.09,0,1,0-22.14,15.49A19.09,19.09,0,0,0,107.79,753.24Z"/></g><rect class="cls-3" x="271.23" y="300.09" width="458.19" height="481.7" transform="translate(1000.66 1081.88) rotate(-180)"/><rect class="cls-4" x="271.23" y="300.09" width="458.19" height="37.52" transform="translate(1000.66 637.7) rotate(-180)"/><rect class="cls-5" x="546.82" y="580.42" width="106.04" height="81.87" transform="translate(1199.68 1242.71) rotate(-180)"/><path class="cls-6" d="M392.48,788.57h50.7l-3.25,19.52,2.14.35L470.89,635.1l-2.14-.36-6,35.94h-50.7L418,635.1l-2.14-.36L387,808.09l2.14.35Zm54.9-25.32h-50.7l3.49-21h50.7ZM407.86,696h50.7l-3.48,21h-50.7Zm46.86,23.14-3.49,21h-50.7l3.49-21Zm7.69-46.28-3.48,21H408.22l3.49-21ZM392.84,786.4l3.48-21H447l-3.48,21Z"/><path class="cls-7" d="M417.41,635.1l28.81,173.34,2.14-.35-3.24-19.52h50.7l3.3,19.87,2.14-.35L472.45,634.74l-2.14.36,5.92,35.58H425.52l-6-35.94Zm59.18,37.75,3.48,21h-50.7l-3.49-21Zm-39.53,67.26-3.48-21h50.7l3.49,21Zm51.07,2.17,3.48,21h-50.7l-3.48-21ZM433.22,717l-3.49-21h50.7l3.49,21Zm11.54,69.44-3.49-21H492l3.49,21Z"/><rect class="cls-7" x="410.6" y="632.23" width="65.1" height="6.51" transform="translate(886.3 1270.96) rotate(-180)"/><polygon class="cls-8" points="519.66 460.51 506.89 472.13 464.8 492.96 483.31 497.67 511.18 478.56 524.11 465.38 519.66 460.51"/><path class="cls-9" d="M256.45,518.2c38.62,0,77.61-39.21,86.92-49.21-9.32-10-48.32-49.2-87.21-49.2h0l-.8,0-1-.05c-38.62,0-77.61,39.22-86.92,49.22,9.31,10,48.3,49.21,86.92,49.21l1.12-.05Z"/><path class="cls-10" d="M255.41,431.88a36.92,36.92,0,0,1,23.5,8.4,15.59,15.59,0,0,0,9.21,28.19,15.27,15.27,0,0,0,4.34-.69c0,.41.06.8.06,1.21a37.11,37.11,0,1,1-37.11-37.11Z"/><path class="cls-11" d="M255.41,431.88a36.92,36.92,0,0,1,23.5,8.4,15.59,15.59,0,0,0,9.21,28.19,15.27,15.27,0,0,0,4.34-.69c0,.41.06.8.06,1.21a37.11,37.11,0,1,1-37.11-37.11Z"/><line class="cls-9" x1="255.41" y1="398.75" x2="255.41" y2="378.41"/><line class="cls-9" x1="223.93" y1="404.61" x2="216.48" y2="385.69"/><line class="cls-9" x1="196.6" y1="415.79" x2="184.73" y2="399.28"/><line class="cls-9" x1="167.99" y1="437.57" x2="151.84" y2="425.2"/><line class="cls-9" x1="286.2" y1="404.61" x2="293.66" y2="385.69"/><line class="cls-9" x1="313.54" y1="415.79" x2="325.41" y2="399.28"/><line class="cls-9" x1="342.15" y1="437.57" x2="358.29" y2="425.2"/><line class="cls-9" x1="255.75" y1="537.57" x2="255.75" y2="557.91"/><line class="cls-9" x1="224.28" y1="531.71" x2="216.82" y2="550.64"/><line class="cls-9" x1="196.94" y1="520.53" x2="185.07" y2="537.04"/><line class="cls-9" x1="168.33" y1="498.75" x2="152.18" y2="511.12"/><line class="cls-9" x1="286.54" y1="531.71" x2="294" y2="550.64"/><line class="cls-9" x1="313.88" y1="520.53" x2="325.75" y2="537.04"/><line class="cls-9" x1="342.49" y1="498.75" x2="358.63" y2="511.12"/><polygon class="cls-12" points="616.01 753.14 620.25 713.19 625.93 664.64 621.51 664.01 611.43 710.03 595.67 711.29 579.27 664.64 574.86 665.27 586.84 715.08 586.38 751.88 616.01 753.14"/><path class="cls-13" d="M619,662.12a3.79,3.79,0,1,0,3.79-3.78A3.79,3.79,0,0,0,619,662.12Z"/><path class="cls-13" d="M574.86,663.38a3.79,3.79,0,1,0,3.78-3.78A3.78,3.78,0,0,0,574.86,663.38Z"/><path class="cls-10" d="M596.27,704.48l-.11-.15c-.24-.35-.47-.7-.67-1.06l-.07-.14c-.17-.31-.32-.62-.46-.92l-.12-.28a9.33,9.33,0,0,1-.36-1,8.14,8.14,0,0,1-.22-3.24,8,8,0,0,1,.56-2,8.14,8.14,0,0,1,2.43-3.31,6.45,6.45,0,0,1,.82-.54,5.72,5.72,0,0,1,.58-.37,8,8,0,0,1,1.55-.6h0a8.44,8.44,0,0,1,1.77-.27l.39,0a8.21,8.21,0,0,1,1.41.11l.27.06a8.49,8.49,0,0,1,1.48.47l.1,0a8.13,8.13,0,0,1,4.61,5.29c1.19,4.35-.69,11.33-5,12.52-2,.56-4.21-.24-6.11-1.69h0a14.19,14.19,0,0,1-2-1.88.27.27,0,0,0-.07-.08C596.75,705.12,596.5,704.8,596.27,704.48Z"/><polygon class="cls-14" points="590.58 826.94 586.21 757.32 586.31 750.35 616.68 749.96 615.84 758.58 610.14 828.56 620.97 829.35 620.97 831.17 606.42 830.62 606.42 828.64 603.79 758.07 599.49 757.88 595.4 826.94 595.89 829.75 580.38 829.75 579.99 828.11 590.58 826.94"/><rect class="cls-15" x="504.02" y="380.26" width="182.46" height="94.03" transform="translate(-36.8 56.59) rotate(-5.28)"/><path class="cls-13" d="M526.49,458.35s1.82-.91,1.82-.91l1.72,2.81,8.72-4.89,2.89,3.22-12.3,9.29-2.67-3.36,1.39-1.9-.57-2.08Z"/><polygon class="cls-16" points="439.94 530.22 445.33 584.77 443.53 632.73 462.12 632.73 463.12 629.16 450.38 627.46 457.17 585 463.3 532.19 439.94 530.22"/><path class="cls-17" d="M526.5,463.13c-5.41,5.05-24.69,19-31.79,21.05l-14.86,4.35-16.4,1.78-26.59,28.56,26.69,17.5,20.33-36.21,17.32-7.53c7.12-3.09,24.67-18.8,29.5-24.88Z"/><path class="cls-13" d="M463.68,471.71a10.71,10.71,0,0,1,20.69-3,17.88,17.88,0,0,1,.68,3.67c0,.32.05.63,0,.95-.44,5.9-5.84,13.71-11.75,13.27S463.24,477.62,463.68,471.71Z"/><path class="cls-18" d="M472.08,486.36c-5.24-1.44-8.81-9.17-8.4-14.65a10.71,10.71,0,0,1,11.5-9.89,8.87,8.87,0,0,1,1,.18,5.81,5.81,0,0,1,.17,2.56,10.11,10.11,0,0,1-5.51,7S470.88,484.63,472.08,486.36Z"/><path class="cls-13" d="M469.42,472.73a4.12,4.12,0,0,0-2.47.87c-2.3,1.71-.9,5.32,1.47,6.2a6.09,6.09,0,0,0,2.4.31,3.28,3.28,0,0,0,2-.61,2.5,2.5,0,0,0,.84-1.8,5.12,5.12,0,0,0-.38-2A4.73,4.73,0,0,0,469.42,472.73Z"/><polygon class="cls-19" points="379.71 555.92 413.88 557.48 437.69 518.65 464.06 535.76 419.05 570.93 381.11 562.24 377.44 571.86 374.47 570.59 379.71 555.92"/><circle class="cls-18" cx="461.09" cy="466.55" r="6.37"/><path class="cls-20" d="M802.16,247.84V794.78H852V247.84Z"/><rect class="cls-20" x="795.33" y="767.96" width="63.5" height="45.5"/><path class="cls-20" d="M849.73,264.22H805.57a2.55,2.55,0,0,1-1.87-4.28l42.46-45.86,3.74,3.46-38.5,41.58h38.33Z"/><rect class="cls-20" x="771.11" y="197" width="80.81" height="68.13"/><rect class="cls-20" x="892.55" y="197" width="80.81" height="39.13"/><rect class="cls-20" x="773.68" y="805.33" width="106.81" height="20.02"/><path class="cls-20" d="M602,211.32a9.34,9.34,0,1,1-9.34-9.34A9.34,9.34,0,0,1,602,211.32Z"/><path class="cls-20" d="M570.32,199.43a2.55,2.55,0,0,0,2.55,2.55H972a2.53,2.53,0,0,0,1.68-.67h0a1.28,1.28,0,0,0,1.12-1.87l-.45-.86a2.88,2.88,0,0,0-.24-.46l-21.32-40.73H926.4L841.61,121.6a4.48,4.48,0,0,0,.09-.82,5.14,5.14,0,1,0-10.27,0c0,.1,0,.19,0,.29l-183.79,56H593.45l-19.78,19.77h-.8A2.55,2.55,0,0,0,570.32,199.43Zm22.38-18v15.42H577.28Zm2.55-.41,19.59,15.83H595.25Zm21.64,14.22-19.31-15.62h19.31Zm2.55-14.22L639,196.88H619.44Zm21.65,14.22-19.32-15.62h19.32Zm2.54-14.22,19.59,15.83H643.63Zm24.2,15.83V181.05l19.58,15.83Zm24.19,0V181.05l19.59,15.83Zm24.19,0V181.05l19.59,15.83Zm24.19,0V181.05L760,196.88Zm24.19,0V181.05l19.59,15.83Zm-21.86-17.23h19.32v15.62Zm-24.19,0h19.31v15.61Zm-24.19,0h19.31v15.62Zm-24.2,0h19.32v15.62Zm-24.19,0h19.32v15.62ZM832.61,124l-26.16,68.85-15.77-15.76H656.41l175.84-53.62A6.18,6.18,0,0,0,832.61,124Zm97.44,70.3-29.13-34.38h29.13ZM900,162.75l28.91,34.13H900Zm32.63.77,22,33.36h-22Zm38,33.36H957.7l-24.41-36.94h18Zm-89.77,0,16.55-32.57v32.57Zm-26.45,0a2.41,2.41,0,0,0,0-.38l-14.48-71.88a4.64,4.64,0,0,0,.64-.69l79.27,33.46H898.08L878,196.88Zm-5.12,0H810.46l-.06-.06,25.41-66.88Zm-44.38,0H788.24l-21.32-17.23h22.71l15.83,15.83Z"/><line class="cls-21" x1="592.69" y1="220.58" x2="592.69" y2="380.32"/><path class="cls-22" d="M600.71,380.32a8,8,0,1,1-8-8A8,8,0,0,1,600.71,380.32Z"/></svg>