<?xml version="1.0" encoding="utf-8"?>
<!-- Generator: Adobe Illustrator 22.1.0, SVG Export Plug-In . SVG Version: 6.00 Build 0)  -->
<svg version="1.1" id="Layer_1" xmlns="http://www.w3.org/2000/svg" xmlns:xlink="http://www.w3.org/1999/xlink" x="0px" y="0px"
	 viewBox="0 0 1000 1000" style="enable-background:new 0 0 1000 1000;" xml:space="preserve">
<style type="text/css">
	.st0{fill:#4F69B1;}
	.st1{opacity:5.000000e-02;enable-background:new    ;}
	.st2{fill:#FACED2;}
	.st3{fill:#C21E5C;}
	.st4{fill:url(#SVGID_1_);}
	.st5{fill:url(#SVGID_2_);}
	.st6{fill:#161641;}
	.st7{fill:#DEE7EC;}
	.st8{fill:#FFFFFF;}
	.st9{fill:url(#SVGID_3_);}
	.st10{fill:#42317E;}
	.st11{opacity:0.4;fill:#FFFFFF;enable-background:new    ;}
	.st12{fill:url(#SVGID_4_);}
	.st13{fill:url(#SVGID_5_);}
	.st14{fill:url(#SVGID_6_);}
	.st15{opacity:0.1;fill:#FFFFFF;enable-background:new    ;}
	.st16{fill:url(#SVGID_7_);}
	.st17{fill:url(#SVGID_8_);}
	.st18{fill:url(#SVGID_9_);}
	.st19{fill:#FFF6F0;}
	.st20{opacity:0.1;fill:#231F20;enable-background:new    ;}
	.st21{fill:#F69126;}
	.st22{fill:#FF983B;}
	.st23{fill:#30363D;}
	.st24{fill:#ED6D23;}
	.st25{fill:url(#SVGID_10_);}
	.st26{fill:url(#SVGID_11_);}
</style>
<title>pencil</title>
<path class="st0" d="M302.5,322.9l-4.9-5.3c-7.4-8.3-18.9-9-28.8-1.3s-35.3-7.3-46.1,2.3c-4.6,4.1-7.5,9.8-8.3,15.9
	c-7.4-0.6-14.6,1.8-20.2,6.7c-11.2,10-12,27.5-1.8,39s27.7,12.7,38.9,2.6c5.2-4.6,8.4-11.1,8.9-18c6.4,0.2,7.3,12,7.3,12
	c7.4,8.3,32.4-6.9,40.7-14.2l12.7-11.4C309.1,343.9,309.9,331.2,302.5,322.9C302.5,322.9,302.5,322.9,302.5,322.9z"/>
<path class="st1" d="M279.1,672.3c0,11.5-49.9,20.8-111.4,20.8s-111.3-9.3-111.3-20.8s49.9-20.8,111.3-20.8S279.1,660.8,279.1,672.3
	z"/>
<path class="st1" d="M561.6,663.2c0,11.5-49.9,20.8-111.4,20.8s-111.4-9.3-111.4-20.8s49.9-20.8,111.4-20.8S561.6,651.7,561.6,663.2
	z"/>
<path class="st1" d="M873.7,695.1c0,11.5-67.3,20.8-150.4,20.8S573,706.6,573,695.1s67.3-20.8,150.3-20.8S873.7,683.6,873.7,695.1z"
	/>
<path class="st2" d="M882.7,381.3v-2.1l-8.1-1.7l-4.9,0.4l4.8-3.9l6.5-1.5l0.6-2l-9.3,0.8l-8.9,1.2c0.5-0.6,1-1.3,1.4-2
	c3-4.9,0.3-4.3,0.3-4.3s-4.8,3.8-7.9,4.3s-10.8,12.4-10.8,12.4s-0.1,0.4-1.1,0.3c-28.8,2.9-40-22.6-40-22.6s-33.5-10.6-35.9-2
	s2.7,15.4,19.1,29.6s51.2,10.5,60.3,5.2c0.4-0.2,7.8-0.6,12.8-2.1c1-0.3,1.9-0.8,2.8-1.4l5.3,0.5l7,1.3l1.9-0.9l-9.3-4.4l1.9-0.5
	l8.8,0.9l1.7-1.9l-6.4-1.7l-2.9-1.3l2-0.6L882.7,381.3z"/>
<path class="st3" d="M754.5,292.5c0,0-15.9,4-4.2,51.9s22.1,43.3,22.1,43.3l12.4,0.1l25.6-26.5l-11.9-12.9l-2.7,0.8
	c0,0-3.2-1.8-3.4-5s-1.5-18-11-44.8C770.5,268.2,757.6,291.7,754.5,292.5z"/>
<linearGradient id="SVGID_1_" gradientUnits="userSpaceOnUse" x1="705.5132" y1="580" x2="705.5132" y2="714.36" gradientTransform="matrix(1 0 0 -1 0 999)">
	<stop  offset="0" style="stop-color:#F05741"/>
	<stop  offset="0.36" style="stop-color:#EE3B50"/>
	<stop  offset="0.76" style="stop-color:#ED235C"/>
	<stop  offset="1" style="stop-color:#EC1A61"/>
</linearGradient>
<path class="st4" d="M770.8,284.6c0,0-34.2,0-63.8,0.6c-1,0-1.9,0.1-2.9,0.2c-16.9,1.3-26.8,10.3-26.8,10.3l-47,69.3l5.4,21L660,388
	l-1.3-4.3l4.5-0.6l30.3-46.4l20.7,82.4l59.8-3.7C790.8,302,770.8,284.6,770.8,284.6z"/>
<path class="st3" d="M628.2,374c0,0,24.5,5.9,32.4,9.4l-2,0.3l1.4,4.3l-8.4-0.7l-21.2-1.5l-0.6-5h3.6L628.2,374z"/>
<polygon class="st2" points="194.4,614.4 189.2,652.2 213.2,658.4 226,658.8 201.2,646.4 207.7,614.2 "/>
<linearGradient id="SVGID_2_" gradientUnits="userSpaceOnUse" x1="144.5894" y1="478.256" x2="230.5" y2="478.256" gradientTransform="matrix(1 0 0 -1 0 999)">
	<stop  offset="0" style="stop-color:#1E1649"/>
	<stop  offset="1" style="stop-color:#42317E"/>
</linearGradient>
<path class="st5" d="M182.4,429c0,0,48.1,89.4,48.1,95.5s-21.6,94.6-21.6,94.6l-18.5,2.3c0,0,11.4-78,9.4-86
	c-2.6-10.5-63.4-83-54.2-105.1S182.4,429,182.4,429z"/>
<path class="st6" d="M188.9,658.4l5,0.4l2.7-3.5l21.3,6.3l13.5,1.1c-0.5-1-1.1-2-1.8-2.8c-2.5-2-12.3-5.7-12.3-5.7s0.2,3.1-1.4,3.5
	s-16.2-3.7-19.7-5c-6-2.3-7.4-4.2-7.8-3.9C187.5,649.6,188.9,658.4,188.9,658.4z"/>
<path class="st7" d="M314.5,489.6c0,0,1.1-1,1.9-0.2c1.4,1.3,2.8,4.9,3.2,6.2s1.8,8.6,1.8,8.6c-1.3-1.2-2.2-2.8-2.6-4.6
	C318.1,495.3,314.5,489.6,314.5,489.6z"/>
<path class="st7" d="M314.9,490.5c1.9,2,2.2,5.1,1.6,9c-0.5,3.6,1.2,5.2,1.2,5.2c0.5-2.6,0.8-5.3,0.8-8c0.1-1.6,0-3.2-0.5-4.8
	C316.4,487.4,310.1,485.3,314.9,490.5z"/>
<path class="st2" d="M257.1,429.3c4.5,14.5,42.4,44.9,42.4,44.9s17.2,7.4-25-41.3C261.8,418.2,256,425.7,257.1,429.3z"/>
<path class="st8" d="M315.7,493.3l0.9-1l-0.6-4.7c0,0-4.4-7.3-7.1-9.4s-9.1-13.5-10.3-14.6s-8.3,1.1-8.3,1.1s9.3,9.8,12.7,14
	s6.1,11.8,7.4,13.5c2.1,2.9,3.1,4.5,3.1,4.5s1.4-1.4-1.7-6.1c-0.8-1.2,1-1.5,1-1.5L315.7,493.3z"/>
<path class="st8" d="M314.3,487.6c0,0,2.5,3.6,2.5,5.8c0,1.5-1.3,8.7-1.3,8.7c-0.8-1.6-1.1-3.4-0.8-5.2
	C315,493.7,314.9,490.6,314.3,487.6z"/>
<path class="st3" d="M290.3,446.5l-15.1-21.1c0,0-17.7-54.2-24.3-57c-7.8-3.3-21.1-3.9-21.1-3.9l22.6,65.4l13.6,26.3L290.3,446.5z"
	/>
<path class="st8" d="M552,403.3l61.3,35c0,0-2.9,4.6-7,4.5c-11-0.2-34.7-6.1-45.5-11.1c-9.8-4.7-19.2-10.3-28.1-16.7L552,403.3z"/>
<path class="st8" d="M601.1,442.4l7.3,4.6c2.5,1.6,5.3,2.8,8.2,3.6c4.8,1.3,8.2-1.4,10.3-5.8s1.7-7,1.7-7s-4.1-4.6-8.7-2.4
	s-16.8,0.8-17,2.9C602.6,439.8,602,441.2,601.1,442.4z"/>
<polygon class="st8" points="626.9,435.8 635.6,439.9 643.5,444 642,445.4 636,443.2 625.2,444.5 625.8,441.6 "/>
<polygon class="st8" points="634.2,446.1 639.8,451.7 638.8,453.4 632.2,448.9 624,446.8 625.8,441.6 "/>
<polygon class="st8" points="636.1,455.7 631.9,450.9 629.5,447.4 625.1,445.9 622.3,449.5 627.2,451 633.8,456.3 "/>
<polygon class="st8" points="630.6,458.8 624.5,449.1 621.3,448.2 619.3,450.6 623.6,453.9 628.6,458.6 "/>
<path class="st8" d="M599.2,436c4.6,2.3,9.5-0.1,9.5-0.1s12.4-5.7,15.1-4.5s8.6,0.6,8.6,0.6s2.6,1-2.4,3.3c-2.1,0.9-4.3,1.6-6.5,1.9
	c0,0-5.9,5.7-8.3,6.2c-4.9,1-15.8-4.8-15.8-4.8S598.6,435.7,599.2,436z"/>
<path class="st3" d="M531.1,384.9c-4.4-10.1-10.7-24.1-14-29.8c-3.8-6.6-16.6-21.6-16.6-21.6s-9.8,5.2-11.9,10.9
	c-6,16.4,2.6,35.3,2.6,35.3l41.7,46.1l30.9,7.1l8-18.3L531.1,384.9z"/>
<path class="st2" d="M742.8,248.1c0.2-0.5,0.3-0.9,0.4-1.4c0.2-1,0.2-2,0.1-2.9c-0.1-0.5-1.7-1.2-2.8-1.8c-0.6-0.3-2.4-1.2-4.2-2.1
	c-7-8.2-14.5-15.1-14.5-15.1c-2.6-1.2-21.4,11.6-22.9,16.8c-5.1,17.9,13.2,24,19.7,30.2c2.2,2.1,4.5,9.6,5.2,14.1
	c0.3,2.1,1.6,2.2,2.9,2.9c5,2.3,10.1,4.3,15.4,6c2.1,0.5,4.7-3.6,4-8.6c-0.2-1.1-3.7-9.7-3.2-14c0.5-4.6,5.3-9.2,5.4-9.6
	C749.5,259.2,746.9,253.8,742.8,248.1z"/>
<linearGradient id="SVGID_3_" gradientUnits="userSpaceOnUse" x1="765.7001" y1="585.59" x2="765.7001" y2="308.12" gradientTransform="matrix(1 0 0 -1 0 999)">
	<stop  offset="0" style="stop-color:#1E1649"/>
	<stop  offset="1" style="stop-color:#42317E"/>
</linearGradient>
<path class="st9" d="M782.4,682.8c-3-0.1-5.9-1.4-8-3.6l-0.2-2.5l-0.8-141.3l0,0l-1.2-121.9c0,0-43.8,32.8-41.9,69.9
	c1.5,28.5,10.9,52.3,15.2,61.8l-0.4,0.2c0,0-4.5,19.8-3.9,48.3c0.3,15.4,10.6,59.6,15.3,83.5h1.3v3.7c0,0-0.9,6.6,0.7,10.1h42.7
	C801.2,684.7,803.4,682.8,782.4,682.8z"/>
<path class="st10" d="M718.6,409.7l-34.2,131.2c0,0-3.1,3.5-13.1,21.5c-14.6,26.5-20.2,110.8-20.2,110.8l1.4,0.9c0,0-5.3,4-6.6,7.6
	l13.8,13.4h24.4c0,0,1.3-5.4-18.5-7.3c-0.1-2.7-0.1-3.1-0.1-3.1c-0.1-0.5-0.3-0.9-0.6-1.2l1.1-3.6l39.1-118.6l10.3-14.2l56.7-133.7
	L718.6,409.7z"/>
<path class="st11" d="M747.9,262c0,0-1.4,0.3-4.2,0.7c-1.6,0.2-3.2,0.5-4.8,1.1c-5.3,2.4-4.8,2.7-8.3,3.5c-4,0.9-12.8,1.2-12.8,1.2
	s4.4,1.7,6.2,2.4c2.7,1.1,5.7,1.1,8.4,0.1c9.7-3.3,9.7-2.3,10.7-3.2C743.2,267.7,743.5,267,747.9,262z"/>
<path class="st6" d="M695.1,241.1c1.8-9.5,14.8-20.4,29.5-18.4c3.1,0.4,4.2,3.3,1.2,6.1c0,0-8-2.8-14.7,4.6c-7,7.7-0.1,7.7-0.2,11.2
	c-0.1,2.9-0.4,5.5-0.4,5.5l2.7,5.4l-1.8,2c0,0-4.1-5.1-5-1.4c-0.7,2.7,3.8,5.8,4.3,6.2s1.3,1.2,1.2,1.6s2.8,2.5,6.2,7.5
	c-1,0.9-5.8,1.5-9-0.8C702.2,265.4,693,252.7,695.1,241.1z"/>
<path class="st2" d="M707.2,254.9c-1.8,1.5-2.7,4.7-1.2,6.5s5.3,3.5,7.1,2.1"/>
<path class="st11" d="M737.6,248.6c1-1.5,2.2-3,3.4-4.4c0.5-0.2,1.5-0.9,1.9-0.6s0.6,1.8-0.3,4.5
	C742.3,248.7,741.8,247.5,737.6,248.6z"/>
<polygon class="st8" points="476.6,325.1 491.1,311.3 509.5,316 500.9,331.1 490.9,342 "/>
<linearGradient id="SVGID_4_" gradientUnits="userSpaceOnUse" x1="462.33" y1="436.6684" x2="361.98" y2="436.6684" gradientTransform="matrix(1 0 0 -1 0 999)">
	<stop  offset="0" style="stop-color:#1E1649"/>
	<stop  offset="1" style="stop-color:#42317E"/>
</linearGradient>
<path class="st12" d="M453.6,550.4l8.7-38.3l-39.3-53.2L423,535l-55.8,92.3l-5.2,8l4.4,9.2c0,0,4.9,9.6,6.5,12.9
	c1.2,2.4,4.3,3.9,6.3,4.8c2.2,1,12.9,3.8,15.4,3.5c3-0.4,10-3,10-3s-0.9-2.4-2.1-2.8s-17.3-9.4-17.3-9.4l-1.1-9.5l3.1,2.6
	L453.6,550.4z"/>
<path class="st10" d="M592.6,635c-3.5-0.5-13,6.7-13,6.7l-15,2.9l5.1-2.9c0,0-37.9-45.6-52.7-73.4s-63.9-148.3-63.9-148.3
	s-51.3-37.7-57.6-2.6s21,50.2,21,50.2s28.4,34.2,43.5,66.9s79.3,124.6,79.3,124.6l1.9-1.1l7.1,12.3l11.6-5.7l12.6-7.6l22.2-19.3
	C594.7,637.7,593.8,635.2,592.6,635z"/>
<linearGradient id="SVGID_5_" gradientUnits="userSpaceOnUse" x1="432.6553" y1="562.7936" x2="469.6058" y2="683.6552" gradientTransform="matrix(1 0 0 -1 0 999)">
	<stop  offset="0" style="stop-color:#F05741"/>
	<stop  offset="0.36" style="stop-color:#EE3B50"/>
	<stop  offset="0.76" style="stop-color:#ED235C"/>
	<stop  offset="1" style="stop-color:#EC1A61"/>
</linearGradient>
<path class="st13" d="M504.2,353.3l-39.8,89.9l-73.9-19.9c0,0,13.1-31.6,19.2-41.2c23.9-37.1,60.2-62.7,60.2-62.7
	S489,306.9,504.2,353.3z"/>
<polygon class="st3" points="485.9,315.2 479.6,318.8 499.7,342.9 501.8,335.6 "/>
<path class="st6" d="M513,307.6c-2.1,7-9.4,11-16.4,8.9l-13.5-4c-7-2.1-11-9.4-8.9-16.4c0,0,0,0,0,0l0,0c2.1-7,12.4-10.1,19.4-8
	l10.5,3.1C511.1,293.3,515,300.7,513,307.6z"/>
<path class="st2" d="M517.2,331l11.8-39.6c1.9-6.3-5.1-1.5-11.4-3.4l-6.1-1.8c-6.3-1.9-12.9,1.7-14.8,8l-8.4,28.2L517.2,331z"/>
<path class="st2" d="M503.2,304.9c-0.8,2.8-7.9,3.9-10.7,3.1l0,0c-2.8-0.8-4.4-3.7-3.5-6.5l0,0c0.8-2.8,3.7-4.4,6.5-3.5l0,0
	C498.2,298.8,504,302.2,503.2,304.9L503.2,304.9z"/>
<path class="st6" d="M520,321.4l-9.1-2.7c-4.1-1.2-8.4,1-9.8,5.1c-10.7-3.3-10.8-7.1-10-11.1c0,0-6,9.1-7,12.4l-1.1,3.6
	c-2.1,7,3.4,14.7,12.3,17.4l12.8,3.8c1.8,0.5,3.6-0.5,4.1-2.2l4.3-14.6l0.6-2l0,0L520,321.4z"/>
<path class="st2" d="M505.8,326l-0.8,2.5c-0.2,0.7,0.2,1.4,0.9,1.6l7.4,2.2c0.7,0.2,1.4-0.2,1.6-0.9c0,0,0,0,0,0l0.7-2.5L505.8,326z
	"/>
<path class="st6" d="M534.7,285.3l-15.9-4.7c-0.3-0.1-0.6-0.1-0.8-0.1l-14.4-4.3c-2.5-0.8-5.2,0.7-5.9,3.2c0,0,0,0,0,0
	c-0.8,2.6-12.9-2.7-16,6c-1.4,3.7,1,7.8,4.8,8.9l9,2.6l-1.7,5.8l6.3,1.9l1.2-4l0,0l0.1-0.2l0,0c1.7-5,7-7.8,12.1-6.3l8,2.4l9.2,2.7
	c3.8,1.1,7.8-1,9-4.9C540.7,290.4,538.6,286.4,534.7,285.3L534.7,285.3L534.7,285.3z"/>
<linearGradient id="SVGID_6_" gradientUnits="userSpaceOnUse" x1="241.43" y1="495.5691" x2="197.8368" y2="495.5691" gradientTransform="matrix(1 0 0 -1 0 999)">
	<stop  offset="0" style="stop-color:#F05741"/>
	<stop  offset="0.36" style="stop-color:#EE3B50"/>
	<stop  offset="0.76" style="stop-color:#ED235C"/>
	<stop  offset="1" style="stop-color:#EC1A61"/>
</linearGradient>
<path class="st14" d="M211.6,532.3l29.8-5.1l-9-52.8l-29.8,5.1c-3.2,0.6-5.3,3.6-4.7,6.7c0,0,0,0,0,0l7.1,41.2
	C205.5,530.7,208.5,532.8,211.6,532.3z"/>
<path class="st15" d="M234.5,486.8l-2.1-12.3l-29.8,5.1c-3.2,0.6-5.3,3.6-4.7,6.7c0,0,0,0,0,0l1.1,6.6L234.5,486.8z"/>
<linearGradient id="SVGID_7_" gradientUnits="userSpaceOnUse" x1="340.29" y1="539.6606" x2="858.59" y2="539.6606" gradientTransform="matrix(1 0 0 -1 0 999)">
	<stop  offset="0" style="stop-color:#F9EC23"/>
	<stop  offset="0.67" style="stop-color:#FDD727"/>
	<stop  offset="1" style="stop-color:#FFCB29"/>
</linearGradient>
<path class="st16" d="M342.4,510.7l516.2-92.4c-1.9-6.2-7.6-10.4-14.1-10.3l-504.2,90.3L342.4,510.7z"/>
<linearGradient id="SVGID_8_" gradientUnits="userSpaceOnUse" x1="854.3548" y1="560.54" x2="335.27" y2="560.54" gradientTransform="matrix(1 0 0 -1 0 999)">
	<stop  offset="0" style="stop-color:#F9EC23"/>
	<stop  offset="0.67" style="stop-color:#FDD727"/>
	<stop  offset="1" style="stop-color:#FFCB29"/>
</linearGradient>
<path class="st17" d="M335.3,468.9l5,29.4L844.5,408l0,0c0,0,0.1-0.1,0.1-0.1h-0.2c6.7-2,10.9-9.2,9.7-16.7s-7.7-12.8-14.7-12.5
	l0.1-0.1c0,0-0.1,0-0.1,0l0,0L335.3,468.9z"/>
<linearGradient id="SVGID_9_" gradientUnits="userSpaceOnUse" x1="333.16" y1="582.43" x2="849.3432" y2="582.43" gradientTransform="matrix(1 0 0 -1 0 999)">
	<stop  offset="0" style="stop-color:#F9EC23"/>
	<stop  offset="0.67" style="stop-color:#FDD727"/>
	<stop  offset="1" style="stop-color:#FFCB29"/>
</linearGradient>
<path class="st18" d="M839.5,378.6c6.1-2.1,10.1-7.9,9.9-14.4l-516.2,92.4l2.1,12.4L839.5,378.6z"/>
<path class="st19" d="M849.3,364.2c0.3,6.5-3.7,12.4-9.9,14.4l0,0c0,0,0.1,0,0.1,0l-0.1,0.1c7-0.3,13.4,5,14.7,12.5
	s-3,14.7-9.7,16.7h0.2c0,0-0.1,0.1-0.1,0.1l0,0c6.5-0.1,12.2,4.1,14.1,10.3L965,372.2L849.3,364.2z"/>
<path class="st20" d="M849.3,364.2c0.3,6.5-3.7,12.4-9.9,14.4l0,0c0,0,0.1,0,0.1,0l-0.1,0.1c7-0.3,125.5-6.4,125.5-6.4L849.3,364.2z
	"/>
<rect x="235.1" y="465.2" transform="matrix(0.9857 -0.1683 0.1683 0.9857 -78.786 55.2995)" class="st21" width="103.4" height="54.3"/>
<rect x="235.7" y="490.4" transform="matrix(0.9857 -0.1685 0.1685 0.9857 -79.4467 55.5196)" class="st22" width="103.4" height="11.1"/>
<path class="st23" d="M930.1,369.8c0.1,2.6,0.3,5.2,0.7,7.8c0.5,2.9,1.3,5.7,2.2,8.5l31.9-13.8L930.1,369.8z"/>
<polygon class="st24" points="316.2,509.9 330.9,507.4 331.5,510.8 316.8,513.3 "/>
<rect x="315" y="500.8" transform="matrix(0.9858 -0.168 0.168 0.9858 -79.8303 61.3031)" class="st24" width="14.9" height="3.5"/>
<polygon class="st24" points="313.5,494.2 328.2,491.7 328.8,495.1 314.1,497.6 "/>
<rect x="312.4" y="485" transform="matrix(0.9857 -0.1683 0.1683 0.9857 -77.367 60.7749)" class="st24" width="14.9" height="3.5"/>
<rect x="311" y="477.2" transform="matrix(0.9856 -0.1688 0.1688 0.9856 -76.2831 60.6395)" class="st24" width="14.9" height="3.5"/>
<rect x="309.7" y="469.3" transform="matrix(0.9858 -0.1681 0.1681 0.9858 -74.6809 60.0317)" class="st24" width="14.9" height="3.5"/>
<rect x="308.3" y="461.4" transform="matrix(0.9858 -0.1681 0.1681 0.9858 -73.3795 59.689)" class="st24" width="14.9" height="3.5"/>
<polygon class="st24" points="253.7,520.6 268.4,518.1 269,521.5 254.3,524 "/>
<polygon class="st24" points="252.4,512.7 267,510.2 267.6,513.7 253,516.2 "/>
<polygon class="st24" points="251,504.8 265.7,502.3 266.3,505.8 251.6,508.3 "/>
<polygon class="st24" points="249.7,497 264.4,494.5 265,497.9 250.3,500.4 "/>
<rect x="248.5" y="487.8" transform="matrix(0.9856 -0.1688 0.1688 0.9856 -78.9818 50.2474)" class="st24" width="14.9" height="3.5"/>
<polygon class="st24" points="247,481.2 261.7,478.7 262.3,482.2 247.6,484.7 "/>
<rect x="245.9" y="472.1" transform="matrix(0.9857 -0.1685 0.1685 0.9857 -76.2123 49.4522)" class="st24" width="14.9" height="3.5"/>
<path class="st2" d="M544,465.4c0,0-2.2-4.5-3.8-6.9c-1.4-2.2-13.2-5.3-13.2-5.3c-1.6-0.4-3.1-1.2-4.4-2.2l-30.8-51.7l-22.6,0.7
	c4.6,9.9,10,19.4,16.2,28.4c6.8,9.5,23.9,25.7,33.5,31.7l0.2,0.9c0.6,2.5,1.6,5,3,7.1c0.5,0.7,1.1,1.4,1.8,1.9l0.6,4.4
	c0,0,0.7,12.7,12.4,7.5c5.2-2.3,7.8-3.4,7.8-3.4l-2.4-7.4L544,465.4z"/>
<path class="st3" d="M486,379.2c1.1-11,2.5-26.2,2.5-32.9c0-7.6-3.8-27-3.8-27S473.6,319,469,323c-13.3,11.4-15.1,32-15.1,32
	l13.6,60.7l23.4,21.5l15.9-12L486,379.2z"/>
<polygon class="st2" points="109,628.3 98.8,668.5 122.8,674.8 135.6,675.1 110.8,662.8 123.7,626 "/>
<path class="st6" d="M98.4,674.8l5,0.4l2.7-3.5l19.2,5.4l16.4,0.8c0-0.7-0.3-1.3-0.7-1.8c-2.4-2.1-14.4-5.7-14.4-5.7
	s0.5,3.7-1.1,4.1s-16.3-4.1-19.8-5.4c-6-2.3-7.4-4.2-7.7-3.9C97.1,665.9,98.4,674.8,98.4,674.8z"/>
<path class="st10" d="M133.7,430.7c-10,26.9,6.5,113.9,6.5,113.9s-13.4,24.5-17.1,37c-6.3,21.7-18.2,49.7-18.2,49.7l20,0.8
	c0,0,44.5-78.7,46.4-89.3s10.2-98.9-1.6-120.1S137.7,420,133.7,430.7z"/>
<path class="st2" d="M303.2,335.3c-1.4,1.2-3,2.4-4.5,3.4c-11,7-23.5,7.7-30.1,2.1c-4.1,3.3-8.7,6.1-13.5,8.2
	c-4.9,2.2-12.8,1.3-12.8,1.3c-7.7,4.9,2.9,36.5,3.4,35s3.5-14.2,9.1-22.5c3.3-4.7,8.4-7.8,14.1-8.5c4.5,0,8.9,1.8,12,5.1
	c0.4,0.5,1,0.8,1.7,0.8c1.3-0.6,2.5-1.4,3.5-2.3l12.4-11C301.9,344,303.6,339.7,303.2,335.3z"/>
<linearGradient id="SVGID_10_" gradientUnits="userSpaceOnUse" x1="172.48" y1="582.0095" x2="246.7012" y2="582.0095" gradientTransform="matrix(1 0 0 -1 0 999)">
	<stop  offset="0" style="stop-color:#F9EC23"/>
	<stop  offset="0.67" style="stop-color:#FDD727"/>
	<stop  offset="1" style="stop-color:#FFCB29"/>
</linearGradient>
<path class="st25" d="M172.5,460.5c0,0,21,4.2,25.9,0c6.4-5.5,2.7-18.8,12.9-31.4s14.3-15.8,18.5-18.5s10.1-4.8,12.1-10.8
	s5.5-15.9,4.7-17.8c-1.3-3.2-2.5-6.7-2.3-10.4C244.4,369.6,172.5,460.5,172.5,460.5z"/>
<linearGradient id="SVGID_11_" gradientUnits="userSpaceOnUse" x1="153.9595" y1="540.1141" x2="224.3802" y2="662.0755" gradientTransform="matrix(1 0 0 -1 0 999)">
	<stop  offset="0" style="stop-color:#F05741"/>
	<stop  offset="0.36" style="stop-color:#EE3B50"/>
	<stop  offset="0.76" style="stop-color:#ED235C"/>
	<stop  offset="1" style="stop-color:#EC1A61"/>
</linearGradient>
<path class="st26" d="M170.9,468.6c0,0,23.9-30.7,36.3-45.9s34.1-46,37.1-49.7c2.2-3.1,4.2-6.4,5.8-9.8c0,0,1.9-9-3.4-13.2
	s-8.2-4.3-29.8,1.5c-39.4,10.6-89.9,72.2-87.3,82.3c0.1,0.5,11.1,2.5,11.1,2.5S167.9,448.5,170.9,468.6z"/>
<polygon class="st3" points="248.8,347 249.9,353.5 251.2,363.2 243.8,367.7 243.8,347.5 "/>
<path class="st2" d="M279.1,514.7c-0.9-1.4-2.2-2.5-3.7-3.3c-3.3-2,0.3-2.4-0.3-4.5c-2.8-2.3-5.4-4.7-7.9-7.2
	c-3.5-3.8-10-6.8-14.9-18.1c-0.5-1.2-10.6-32.5-15.8-45.8c-9.6-24.1-14.2-22.5-14.2-22.5c-3.8,9.4,5.6,30.4,5.6,30.4l23.1,47.4
	c1.6,4.1,3.7,8,6.5,11.5c0.5,0.5,10,10.2,11.4,11c1.2,0.7,7.5,2.9,7.5,2.9L279.1,514.7z"/>
<path class="st3" d="M238.9,427c-1.1-2.6-2.4-5.1-3.9-7.4c0.4-1.8,0.6-3.7,0.8-5.5l5.3-52c0,0-1.6-6.6-6.5-7.6
	c-7.1-1.5-10.9,0.2-12.8,4.1c-3.8,7.7-3.2,3.5-6.8,33.3c-1.2,9.9-2.2,17.7-2.4,23.8c-1.2,3-0.8,6.7,0.9,10.6
	c5.3,12.5,12,26.5,12,26.5l21.4,0.1L238.9,427z"/>
<path class="st2" d="M690.8,457.8l3.9-4.4l-2.8-6.5l-2.4-0.4c-1.7-1.9-4.1-3-6.7-3c-1.1,0-2.2,0.2-3.2,0.6L659.3,388l-22.7-1.8
	c2.4,9.8,5.7,19.3,9.9,28.4c4.9,10.7,18.5,29.8,27.2,38.2c0,0.1,0,0.2,0,0.4c-0.1,5.2,4,9.5,9.2,9.6c1.7,0,3.4-0.5,4.8-1.4h0
	l0.1-0.1C689,460.4,690,459.2,690.8,457.8z"/>
</svg>
