<svg id="Layer_1" data-name="Layer 1" xmlns="http://www.w3.org/2000/svg" xmlns:xlink="http://www.w3.org/1999/xlink" viewBox="0 0 1000 1000"><defs><style>.cls-1{fill:#4f69b1;}.cls-2{opacity:0.15;}.cls-3{fill:#faced2;}.cls-4{fill:#c21e5c;}.cls-5{fill:url(#linear-gradient);}.cls-6{fill:url(#linear-gradient-2);}.cls-7{fill:#161641;}.cls-8{fill:#dee7ec;}.cls-12,.cls-16,.cls-9{fill:#fff;}.cls-10{fill:url(#linear-gradient-3);}.cls-11{fill:#42317e;}.cls-12{opacity:0.4;}.cls-13{fill:url(#linear-gradient-4);}.cls-14{fill:url(#linear-gradient-5);}.cls-15{fill:url(#linear-gradient-6);}.cls-16,.cls-21{opacity:0.1;}.cls-17{fill:url(#linear-gradient-7);}.cls-18{fill:url(#linear-gradient-8);}.cls-19{fill:url(#linear-gradient-9);}.cls-20{fill:#fff6f0;}.cls-21{fill:#231f20;}.cls-22{fill:#f69126;}.cls-23{fill:#ff983b;}.cls-24{fill:#30363d;}.cls-25{fill:#ed6d23;}.cls-26{fill:url(#linear-gradient-10);}.cls-27{fill:url(#linear-gradient-11);}</style><linearGradient id="linear-gradient" x1="705.52" y1="419" x2="705.52" y2="284.64" gradientUnits="userSpaceOnUse"><stop offset="0" stop-color="#f05741"/><stop offset="0.36" stop-color="#ee3b50"/><stop offset="0.76" stop-color="#ed235c"/><stop offset="1" stop-color="#ec1a61"/></linearGradient><linearGradient id="linear-gradient-2" x1="144.59" y1="520.78" x2="230.5" y2="520.78" gradientUnits="userSpaceOnUse"><stop offset="0" stop-color="#1e1649"/><stop offset="1" stop-color="#42317e"/></linearGradient><linearGradient id="linear-gradient-3" x1="765.7" y1="413.41" x2="765.7" y2="690.88" xlink:href="#linear-gradient-2"/><linearGradient id="linear-gradient-4" x1="462.33" y1="562.33" x2="361.93" y2="562.33" xlink:href="#linear-gradient-2"/><linearGradient id="linear-gradient-5" x1="432.65" y1="436.21" x2="469.6" y2="315.35" xlink:href="#linear-gradient"/><linearGradient id="linear-gradient-6" x1="241.43" y1="503.44" x2="197.82" y2="503.44" xlink:href="#linear-gradient"/><linearGradient id="linear-gradient-7" x1="340.29" y1="459.33" x2="858.59" y2="459.33" gradientUnits="userSpaceOnUse"><stop offset="0" stop-color="#f9ec23"/><stop offset="0.67" stop-color="#fdd727"/><stop offset="1" stop-color="#ffcb29"/></linearGradient><linearGradient id="linear-gradient-8" x1="854.36" y1="438.46" x2="335.27" y2="438.46" xlink:href="#linear-gradient-7"/><linearGradient id="linear-gradient-9" x1="333.16" y1="416.57" x2="849.34" y2="416.57" xlink:href="#linear-gradient-7"/><linearGradient id="linear-gradient-10" x1="172.48" y1="416.99" x2="246.7" y2="416.99" xlink:href="#linear-gradient-7"/><linearGradient id="linear-gradient-11" x1="153.97" y1="458.89" x2="224.39" y2="336.93" xlink:href="#linear-gradient"/></defs><title>pencil</title><path class="cls-1" d="M302.46,322.87l-4.89-5.33c-7.38-8.27-18.87-9-28.83-1.26s-35.32-7.3-46.08,2.31a25.62,25.62,0,0,0-8.27,15.92,26.9,26.9,0,0,0-20.16,6.72c-11.24,10-12,27.47-1.8,38.95s27.66,12.66,38.9,2.63a26.84,26.84,0,0,0,8.88-18c6.41.19,7.26,12,7.26,12,7.38,8.27,32.39-6.86,40.66-14.24l12.72-11.35A20.06,20.06,0,0,0,302.46,322.87Z"/><path class="cls-2" d="M279.09,672.31c0,11.48-49.85,20.79-111.35,20.79S56.39,683.79,56.39,672.31s49.86-20.79,111.35-20.79S279.09,660.83,279.09,672.31Z"/><path class="cls-2" d="M561.62,663.2c0,11.48-49.85,20.79-111.35,20.79s-111.35-9.31-111.35-20.79,49.85-20.79,111.35-20.79S561.62,651.72,561.62,663.2Z"/><path class="cls-2" d="M873.66,695.1c0,11.48-67.31,20.78-150.35,20.78S573,706.58,573,695.1s67.31-20.79,150.35-20.79S873.66,683.62,873.66,695.1Z"/><path class="cls-3" d="M882.7,381.34v-2.09l-8.08-1.72-4.89.35,4.82-3.94,6.52-1.49.56-2-9.29.8-8.87,1.17a19.94,19.94,0,0,0,1.41-2c3.05-4.86.26-4.26.26-4.26s-4.83,3.82-7.91,4.29-10.76,12.4-10.76,12.4-.06.36-1.08.26c-28.76,2.88-40-22.58-40-22.58s-33.55-10.6-35.92-2,2.66,15.39,19.13,29.6,51.17,10.54,60.33,5.22c.39-.23,7.81-.59,12.76-2.14a9,9,0,0,0,2.76-1.43l5.26.45,7,1.27,1.86-.93-9.29-4.38,1.92-.53,8.78.92,1.69-1.86L875.31,383l-2.91-1.26,2-.65Z"/><path class="cls-4" d="M754.54,292.51s-15.91,4.05-4.15,51.85,22.06,43.29,22.06,43.29l12.4.12,25.61-26.49-11.93-12.94-2.65.78s-3.19-1.77-3.36-5-1.55-18-11-44.77C770.49,268.25,757.61,291.71,754.54,292.51Z"/><path class="cls-5" d="M770.81,284.64s-34.15,0-63.8.62a25.43,25.43,0,0,0-2.86.24c-16.87,1.3-26.79,10.29-26.79,10.29l-47.05,69.33,5.37,21.05L660,388l-1.29-4.34,4.51-.62,30.27-46.41L714.19,419,774,415.27C790.79,302,770.81,284.64,770.81,284.64Z"/><path class="cls-4" d="M628.23,374s24.46,5.93,32.41,9.4l-2,.27L660,388l-8.39-.71-21.21-1.5-.64-5h3.64Z"/><polygon class="cls-3" points="194.38 614.38 189.23 652.2 213.22 658.4 226 658.78 201.23 646.4 207.73 614.18 194.38 614.38"/><path class="cls-6" d="M182.43,429s48.07,89.42,48.07,95.48-21.62,94.63-21.62,94.63l-18.51,2.3s11.36-78,9.35-86c-2.63-10.5-63.44-83-54.17-105.15S182.43,429,182.43,429Z"/><path class="cls-7" d="M188.85,658.4l5,.38,2.71-3.48,21.29,6.29,13.54,1.06a10.79,10.79,0,0,0-1.84-2.8c-2.46-2-12.28-5.72-12.28-5.72s.19,3.11-1.36,3.49-16.25-3.67-19.73-5c-6-2.33-7.38-4.2-7.75-3.87C187.49,649.59,188.85,658.4,188.85,658.4Z"/><path class="cls-8" d="M314.48,489.56s1.09-1,1.92-.2c1.37,1.32,2.8,4.87,3.25,6.16s1.78,8.56,1.78,8.56a8.41,8.41,0,0,1-2.59-4.6C318.08,495.3,314.48,489.56,314.48,489.56Z"/><path class="cls-8" d="M314.9,490.46c1.87,2,2.18,5.14,1.65,9-.5,3.59,1.18,5.25,1.18,5.25a44.16,44.16,0,0,0,.76-8,13.59,13.59,0,0,0-.5-4.81C316.41,487.37,310.07,485.34,314.9,490.46Z"/><path class="cls-3" d="M257.1,429.31c4.55,14.52,42.35,44.87,42.35,44.87s17.22,7.35-25-41.32C261.75,418.25,256,425.72,257.1,429.31Z"/><path class="cls-9" d="M315.73,493.33l.9-1-.62-4.69s-4.43-7.28-7.09-9.42-9.14-13.47-10.3-14.6-8.33,1.15-8.33,1.15,9.33,9.79,12.69,14,6.1,11.83,7.37,13.52c2.14,2.89,3.07,4.47,3.07,4.47s1.39-1.36-1.73-6.09c-.81-1.24,1-1.49,1-1.49Z"/><path class="cls-9" d="M314.32,487.59s2.48,3.58,2.46,5.77c0,1.52-1.29,8.67-1.29,8.67a8.56,8.56,0,0,1-.84-5.22A28.75,28.75,0,0,0,314.32,487.59Z"/><path class="cls-4" d="M290.3,446.55,275.17,425.4s-17.7-54.24-24.27-57c-7.8-3.32-21.08-3.93-21.08-3.93l22.55,65.37,13.57,26.3Z"/><path class="cls-9" d="M552,403.33l61.32,35.05s-2.94,4.59-7,4.51c-11-.24-34.7-6.07-45.54-11.11a185.53,185.53,0,0,1-28.08-16.71Z"/><path class="cls-9" d="M601.06,442.38l7.33,4.56a29.88,29.88,0,0,0,8.21,3.63c4.81,1.3,8.21-1.4,10.31-5.78s1.67-7,1.67-7-4.12-4.63-8.74-2.4-16.81.79-17,2.88A8.82,8.82,0,0,1,601.06,442.38Z"/><polygon class="cls-9" points="626.87 435.78 635.6 439.87 643.54 444.02 642.04 445.37 635.99 443.2 625.21 444.47 625.77 441.57 626.87 435.78"/><polygon class="cls-9" points="634.18 446.15 639.85 451.72 638.76 453.41 632.19 448.92 623.98 446.77 625.77 441.57 634.18 446.15"/><polygon class="cls-9" points="636.13 455.66 631.91 450.92 629.53 447.39 625.1 445.86 622.35 449.5 627.18 451 633.81 456.28 636.13 455.66"/><polygon class="cls-9" points="630.6 458.78 624.51 449.09 621.29 448.23 619.26 450.61 623.6 453.93 628.62 458.58 630.6 458.78"/><path class="cls-9" d="M599.16,436c4.57,2.3,9.48-.11,9.48-.11s12.39-5.68,15.12-4.48,8.62.63,8.62.63,2.56.95-2.42,3.31a22.74,22.74,0,0,1-6.52,1.88s-5.91,5.74-8.28,6.21c-4.87,1-15.84-4.84-15.84-4.84S598.58,435.73,599.16,436Z"/><path class="cls-4" d="M531.09,384.88c-4.43-10.08-10.73-24.09-14-29.83-3.77-6.59-16.62-21.59-16.62-21.59s-9.76,5.21-11.85,10.89c-6,16.44,2.56,35.28,2.56,35.28l41.7,46.14,30.94,7.15,8-18.26Z"/><path class="cls-3" d="M742.84,248.09a5.21,5.21,0,0,0,.38-1.42,13.05,13.05,0,0,0,.13-2.93c-.12-.47-1.65-1.17-2.82-1.76-.58-.3-2.42-1.21-4.19-2.14-7-8.18-14.51-15.12-14.51-15.12-2.58-1.24-21.42,11.59-22.9,16.84-5.08,17.94,13.18,24,19.68,30.21,2.22,2.13,4.54,9.65,5.24,14.06.33,2.07,1.56,2.19,2.87,2.91a143.35,143.35,0,0,0,15.39,6c2.11.5,4.66-3.62,3.95-8.61-.16-1.11-3.74-9.69-3.24-14,.53-4.61,5.27-9.18,5.44-9.6C749.52,259.19,746.86,253.79,742.84,248.09Z"/><path class="cls-10" d="M782.37,682.77a11.77,11.77,0,0,1-8-3.62l-.22-2.46-.81-141.33h0L772.1,413.41s-43.82,32.81-41.89,69.95c1.49,28.54,10.94,52.27,15.25,61.76l-.43.15s-4.51,19.81-3.86,48.29c.35,15.37,10.62,59.58,15.28,83.5h1.32v3.73s-.94,6.56.7,10.09h42.68C801.23,684.67,803.44,682.77,782.37,682.77Z"/><path class="cls-11" d="M718.61,409.69,684.45,540.93s-3.11,3.49-13.06,21.53C656.77,589,651.17,673.22,651.17,673.22l1.4.88s-5.3,4-6.63,7.62l13.78,13.38h24.39s1.33-5.4-18.47-7.28c-.07-2.73-.13-3.1-.13-3.1a2.29,2.29,0,0,0-.62-1.22l1.06-3.57,39.12-118.56,10.32-14.24L772.1,413.41Z"/><path class="cls-12" d="M747.92,262s-1.42.32-4.16.69a23.05,23.05,0,0,0-4.76,1.07c-5.3,2.4-4.83,2.7-8.32,3.52-4,.94-12.78,1.23-12.78,1.23s4.43,1.67,6.18,2.37a11.55,11.55,0,0,0,8.36.09c9.73-3.28,9.73-2.34,10.73-3.16C743.23,267.72,743.52,267,747.92,262Z"/><path class="cls-7" d="M695.12,241.13c1.76-9.5,14.77-20.43,29.54-18.38,3.12.44,4.16,3.29,1.21,6.09,0,0-8-2.79-14.66,4.58-7,7.74-.09,7.73-.23,11.23-.12,2.93-.36,5.53-.36,5.53l2.65,5.37-1.85,2s-4.11-5.13-5-1.41c-.65,2.7,3.85,5.77,4.31,6.24s1.27,1.24,1.15,1.59,2.81,2.46,6.22,7.49c-1,.86-5.85,1.52-9-.83C702.15,265.35,693,252.72,695.12,241.13Z"/><path class="cls-3" d="M707.15,254.94c-1.81,1.47-2.68,4.69-1.22,6.51s5.32,3.55,7.14,2.09"/><path class="cls-12" d="M737.63,248.6a43.73,43.73,0,0,1,3.37-4.39c.47-.24,1.52-.94,1.88-.59s.61,1.82-.33,4.46C742.32,248.72,741.76,247.54,737.63,248.6Z"/><polygon class="cls-9" points="476.59 325.07 491.08 311.3 509.45 315.96 500.88 331.1 490.94 342.02 476.59 325.07"/><path class="cls-13" d="M453.65,550.41l8.68-38.35-39.27-53.22L423,535l-55.83,92.35-5.19,8,4.35,9.24s4.86,9.56,6.5,12.94c1.16,2.39,4.33,3.92,6.31,4.81,2.18,1,12.94,3.82,15.42,3.45,2.95-.43,10-2.95,10-2.95s-.89-2.37-2.09-2.76-17.27-9.37-17.27-9.37l-1.1-9.48,3.12,2.56Z"/><path class="cls-11" d="M592.58,635c-3.54-.53-13,6.66-13,6.66l-14.95,2.89,5.12-2.92s-37.9-45.58-52.73-73.43-63.9-148.27-63.9-148.27-51.33-37.67-57.63-2.56,20.95,50.24,20.95,50.24,28.38,34.24,43.49,66.86,79.26,124.61,79.26,124.61l1.92-1.1,7.09,12.28,11.64-5.67L572.47,657l22.23-19.35S593.8,635.18,592.58,635Z"/><path class="cls-14" d="M504.16,353.31,464.34,443.2l-73.9-19.9s13.06-31.62,19.22-41.17c23.92-37.08,60.22-62.67,60.22-62.67S489,306.92,504.16,353.31Z"/><polygon class="cls-4" points="485.89 315.16 479.61 318.76 499.7 342.89 501.79 335.58 485.89 315.16"/><path class="cls-7" d="M513,307.65a13.22,13.22,0,0,1-16.43,8.92l-13.53-4a13.21,13.21,0,0,1-8.92-16.43h0c2.08-7,12.44-10.11,19.44-8l10.53,3.12A13.22,13.22,0,0,1,513,307.65Z"/><path class="cls-3" d="M517.16,331l11.77-39.65c1.87-6.32-5.12-1.52-11.44-3.4l-6.1-1.8a11.93,11.93,0,0,0-14.83,8l-8.36,28.22Z"/><path class="cls-3" d="M503.18,304.94c-.82,2.78-7.92,3.94-10.7,3.12h0a5.25,5.25,0,0,1-3.54-6.52h0a5.26,5.26,0,0,1,6.52-3.54h0c2.77.83,8.54,4.18,7.72,6.94Z"/><path class="cls-7" d="M520,321.44l-9.14-2.71a7.94,7.94,0,0,0-9.78,5.1c-10.69-3.34-10.84-7.11-10-11.13,0,0-6,9.13-7,12.37L483,328.68c-2.07,7,3.43,14.74,12.27,17.37l12.81,3.8a3.34,3.34,0,0,0,4.15-2.25L516.56,333l.6-2h0Z"/><path class="cls-3" d="M505.8,326l-.75,2.54a1.33,1.33,0,0,0,.89,1.65l7.42,2.19a1.32,1.32,0,0,0,1.65-.89l.74-2.54Z"/><path class="cls-7" d="M534.72,285.3l-15.87-4.72a6.17,6.17,0,0,0-.84-.15l-14.4-4.27a4.76,4.76,0,0,0-5.93,3.22c-.81,2.56-12.87-2.66-16,6-1.36,3.72,1,7.77,4.83,8.91l9,2.65-1.71,5.76,6.34,1.88,1.17-4h0l.08-.25h0A9.84,9.84,0,0,1,513.48,294l8,2.39,9.18,2.72a7.2,7.2,0,1,0,4.1-13.81Z"/><path class="cls-15" d="M211.62,532.32l29.81-5.1-9-52.75-29.81,5.09a5.8,5.8,0,0,0-4.69,6.74L205,527.52A5.79,5.79,0,0,0,211.62,532.32Z"/><path class="cls-16" d="M234.52,486.8l-2.11-12.33-29.81,5.09a5.8,5.8,0,0,0-4.69,6.74l1.12,6.56Z"/><path class="cls-17" d="M342.4,510.68,858.59,418.3A14.55,14.55,0,0,0,844.48,408L340.29,498.32Z"/><path class="cls-18" d="M335.27,468.93l5,29.39L844.48,408h0s.09-.06.14-.07h-.15c6.7-2.05,10.93-9.17,9.66-16.74s-7.66-12.82-14.67-12.53l.14-.06s-.1,0-.14,0h0Z"/><path class="cls-19" d="M839.46,378.6a14.54,14.54,0,0,0,9.87-14.39L333.16,456.58l2.11,12.35Z"/><path class="cls-20" d="M849.33,364.17a14.54,14.54,0,0,1-9.87,14.43h0s.1,0,.14,0l-.14.06c7-.29,13.38,5,14.67,12.53s-3,14.69-9.66,16.74h.15s-.1.06-.14.07h0a14.52,14.52,0,0,1,14.11,10.33L965,372.25Z"/><path class="cls-21" d="M849.33,364.17a14.54,14.54,0,0,1-9.87,14.43h0s.1,0,.14,0l-.14.06c7-.29,125.54-6.42,125.54-6.42Z"/><rect class="cls-22" x="235.14" y="465.21" width="103.39" height="54.31" transform="translate(-78.81 55.33) rotate(-9.69)"/><rect class="cls-23" x="235.76" y="490.36" width="103.38" height="11.09" transform="translate(-79.46 55.53) rotate(-9.7)"/><path class="cls-24" d="M930.14,369.83a56,56,0,0,0,.71,7.78,54.44,54.44,0,0,0,2.22,8.48L965,372.25Z"/><polygon class="cls-25" points="316.19 509.9 330.87 507.39 331.46 510.83 316.79 513.35 316.19 509.9"/><rect class="cls-25" x="315.04" y="500.75" width="14.89" height="3.5" transform="translate(-79.86 61.34) rotate(-9.67)"/><polygon class="cls-25" points="313.5 494.16 328.18 491.66 328.77 495.09 314.09 497.62 313.5 494.16"/><rect class="cls-25" x="312.35" y="485.02" width="14.89" height="3.5" transform="translate(-77.35 60.76) rotate(-9.69)"/><rect class="cls-25" x="311" y="477.16" width="14.89" height="3.48" transform="translate(-76.28 60.64) rotate(-9.72)"/><rect class="cls-25" x="309.66" y="469.28" width="14.89" height="3.49" transform="translate(-74.65 60) rotate(-9.68)"/><rect class="cls-25" x="308.31" y="461.42" width="14.89" height="3.48" transform="translate(-73.37 59.67) rotate(-9.68)"/><polygon class="cls-25" points="253.72 520.57 268.4 518.08 268.98 521.52 254.31 524.03 253.72 520.57"/><polygon class="cls-25" points="252.37 512.73 267.05 510.21 267.64 513.65 252.97 516.16 252.37 512.73"/><polygon class="cls-25" points="251.04 504.84 265.71 502.33 266.29 505.78 251.62 508.28 251.04 504.84"/><polygon class="cls-25" points="249.69 496.98 264.36 494.46 264.95 497.92 250.28 500.42 249.69 496.98"/><rect class="cls-25" x="248.53" y="487.84" width="14.89" height="3.48" transform="translate(-78.97 50.24) rotate(-9.72)"/><polygon class="cls-25" points="247 481.24 261.67 478.73 262.26 482.17 247.59 484.69 247 481.24"/><rect class="cls-25" x="245.84" y="472.09" width="14.89" height="3.48" transform="translate(-76.2 49.44) rotate(-9.7)"/><path class="cls-3" d="M544.05,465.39s-2.21-4.48-3.75-6.88c-1.4-2.17-13.24-5.27-13.24-5.27A10.88,10.88,0,0,1,522.7,451l-30.79-51.74-22.56.73a185.71,185.71,0,0,0,16.21,28.36c6.8,9.5,23.91,25.69,33.49,31.66l.22.9a22.22,22.22,0,0,0,3,7.15,6.25,6.25,0,0,0,1.8,1.85l.57,4.43s.65,12.69,12.42,7.5c5.22-2.31,7.8-3.38,7.8-3.38l-2.44-7.36Z"/><path class="cls-4" d="M486,379.18c1.1-11,2.51-26.25,2.48-32.86,0-7.59-3.84-27-3.84-27s-11.06-.28-15.67,3.64c-13.32,11.36-15.14,32-15.14,32l13.58,60.69,23.4,21.45,15.94-12Z"/><polygon class="cls-3" points="109.01 628.3 98.83 668.54 122.83 674.75 135.6 675.12 110.83 662.75 123.72 625.98 109.01 628.3"/><path class="cls-7" d="M98.44,674.75l5,.37,2.71-3.48,19.25,5.42,16.36.78a3,3,0,0,0-.68-1.85c-2.42-2.12-14.42-5.7-14.42-5.7s.48,3.67-1.06,4.07-16.35-4.07-19.83-5.42c-6-2.34-7.38-4.2-7.74-3.87C97.09,665.94,98.44,674.75,98.44,674.75Z"/><path class="cls-11" d="M133.69,430.74c-10,26.94,6.51,113.91,6.51,113.91s-13.45,24.53-17.09,37.05c-6.31,21.7-18.18,49.65-18.18,49.65l20,.82s44.54-78.74,46.37-89.34,10.2-98.92-1.65-120.13S137.68,420,133.69,430.74Z"/><path class="cls-3" d="M303.25,335.34a41.68,41.68,0,0,1-4.54,3.41c-11,7.05-23.48,7.73-30.07,2.14a61,61,0,0,1-13.5,8.23c-4.85,2.19-12.82,1.32-12.82,1.32-7.67,4.91,2.86,36.55,3.45,35s3.49-14.19,9.1-22.5A19.82,19.82,0,0,1,269,354.47a16.44,16.44,0,0,1,12,5.06,2.3,2.3,0,0,0,1.67.77,14.19,14.19,0,0,0,3.55-2.32l12.35-11A14.2,14.2,0,0,0,303.25,335.34Z"/><path class="cls-26" d="M172.48,460.5s21,4.24,25.88,0c6.4-5.55,2.69-18.78,12.86-31.35s14.26-15.84,18.52-18.48,10.14-4.76,12.13-10.82,5.5-15.85,4.72-17.81c-1.26-3.16-2.5-6.73-2.28-10.41C244.42,369.6,172.48,460.5,172.48,460.5Z"/><path class="cls-27" d="M170.87,468.65s23.95-30.71,36.33-45.9,34.14-46,37.1-49.68a57.84,57.84,0,0,0,5.75-9.82s1.86-9.05-3.39-13.19-8.22-4.29-29.79,1.52c-39.38,10.59-89.87,72.19-87.34,82.29.12.49,11.1,2.52,11.1,2.52S167.91,448.47,170.87,468.65Z"/><polygon class="cls-4" points="248.79 347.01 249.92 353.53 251.16 363.18 243.78 367.71 243.82 347.55 248.79 347.01"/><path class="cls-3" d="M279.09,514.66a10.46,10.46,0,0,0-3.67-3.26c-3.28-2,.27-2.36-.29-4.5a89.29,89.29,0,0,1-7.87-7.23c-3.54-3.79-10-6.75-14.89-18.09-.54-1.24-10.56-32.54-15.84-45.79-9.62-24.13-14.19-22.47-14.19-22.47-3.81,9.4,5.58,30.4,5.58,30.4L251,491.09a44,44,0,0,0,6.45,11.51c.5.54,10,10.19,11.41,11,1.22.67,7.49,2.88,7.49,2.88Z"/><path class="cls-4" d="M238.89,427.05A54.42,54.42,0,0,0,235,419.6a41.71,41.71,0,0,0,.76-5.51l5.28-52s-1.56-6.6-6.52-7.62c-7.15-1.49-10.87.21-12.76,4.07C218,366.21,218.6,362,215,391.88c-1.21,9.94-2.19,17.73-2.35,23.75-1.24,3-.82,6.72.85,10.65,5.31,12.53,12,26.51,12,26.51l21.42.13Z"/><path class="cls-3" d="M690.77,457.83l3.89-4.37L691.85,447l-2.43-.39a9,9,0,0,0-6.68-3.05,8.72,8.72,0,0,0-3.19.63L659.27,388l-22.74-1.8a154.6,154.6,0,0,0,9.89,28.42c4.91,10.71,18.49,29.77,27.16,38.2,0,.13,0,.24,0,.37a9.43,9.43,0,0,0,9.2,9.64,8.78,8.78,0,0,0,4.78-1.44h.05l.07-.08A9.42,9.42,0,0,0,690.77,457.83Z"/></svg>