<svg id="Layer_1" data-name="Layer 1" xmlns="http://www.w3.org/2000/svg" xmlns:xlink="http://www.w3.org/1999/xlink" viewBox="0 0 1000 1000"><defs><style>.cls-1{fill:#faf7fa;}.cls-2{fill:url(#linear-gradient);}.cls-3{fill:url(#linear-gradient-2);}.cls-4{fill:#fce4eb;}.cls-5,.cls-7{fill:none;stroke:#161641;stroke-linecap:round;stroke-miterlimit:10;}.cls-5{stroke-width:0.9px;}.cls-6{fill:url(#linear-gradient-3);}.cls-7{stroke-width:1.08px;}.cls-8{fill:#161641;}</style><linearGradient id="linear-gradient" x1="489.88" y1="557.68" x2="489.88" y2="523.05" gradientUnits="userSpaceOnUse"><stop offset="0" stop-color="#2e205d"/><stop offset="1" stop-color="#2e205d"/></linearGradient><linearGradient id="linear-gradient-2" x1="488.95" y1="525.94" x2="488.95" y2="454.08" gradientUnits="userSpaceOnUse"><stop offset="0" stop-color="#fce462"/><stop offset="0.19" stop-color="#facf5d"/><stop offset="0.58" stop-color="#f69952"/><stop offset="1" stop-color="#f05a44"/></linearGradient><linearGradient id="linear-gradient-3" x1="489.72" y1="481.84" x2="489.72" y2="455.98" xlink:href="#linear-gradient-2"/></defs><title>profile</title><circle class="cls-1" cx="489.13" cy="499.83" r="73.15"/><path class="cls-2" d="M488.48,557.68c15.74,0,30.51-4.83,40.94-12.61-1.65-9.19-5.61-14.61-9.5-16.52-8.28-4.07-9.15-1.75-14.57-4.92-2.71,6.24-8,12.62-15.47,12.62-6.64,0-11.45-7.71-13.74-13.2-2.64,1.94-13.1,3.7-17.31,6.41-7.19,4.64-7.81,12.85-7.81,12.85l-.68,3.24C460.86,553.57,474.23,557.68,488.48,557.68Z"/><path class="cls-3" d="M489.93,454.11c-14.1.68-24.72,7-27.24,24.16-.75,7.67.88,6.13,1.06,10.43.08,1.89-1.64,4.11-1.12,7.06s2.49,3.26,2.74,5-1.77,3-1.12,6,2.63,2.74,3.11,4.89c.38,1.7-1.23,3.59-.78,5.38.36,1.43,3.38,1.8,3.79,3.28s-1.82,4.05-1.38,5.58c0,0,8.56-3,10.57-6.2,2.31-3.66,2-13.25,2-13.25-3.2-2.68-4.73-6.78-6.25-10.53a29.4,29.4,0,0,1-1.14-3.23c-2.52.15-4.42-3.13-4.84-5.3-1-5.09,2.15-5.09,4.13-4.54a16.86,16.86,0,0,1,1.44-4.57,3.49,3.49,0,0,1,4.69-1.69c1.82-3.21,5.67-5.32,9.58-5.62a14.49,14.49,0,0,1,11.76,7,4.21,4.21,0,0,1,4.29,1.87,7.37,7.37,0,0,1,.93,3c2-.54,5-.45,4.07,4.58-.41,2.1-2.25,5.31-4.63,5.37a14.69,14.69,0,0,1-1.51,6.06c-1.3,2.55-2.77,5.74-5.42,7.75,0,0-.24,11.92,3.12,15,3.12,2.83,10.29,4.38,10.29,4.38s1.75-1.54,1.63-5.1c-.05-1.76-2.16-3.85-1.87-6.19s3-5.15,3.19-8-1.53-5-1.46-8.15c.06-2.89,1.83-5.26,1.83-8.13s-1.31-3.29-1.5-5,1-3.54.41-6.55-.79-3.95-1.32-5.81C509.78,461.78,503,453.48,489.93,454.11Z"/><path class="cls-4" d="M501.76,491.42c3.19,2.05-3.24,5.61-5.19,3.28S500,490.27,501.76,491.42Z"/><path class="cls-4" d="M478.66,492c-3.31,2.12,3.35,5.81,5.38,3.4S480.52,490.78,478.66,492Z"/><path class="cls-5" d="M506,478.6c.17,4.24,1.14,17.38-4.81,25-5.1,6.5-9.32,6.74-10.84,6.74s-7.6-1.76-11.07-6.68-5.65-10.22-5.77-23.46"/><path class="cls-5" d="M481,505.91s1.67,11.83-3.68,16.34-17.09,3-22.14,10.33-4.83,13.65-4.83,13.65"/><path class="cls-5" d="M498.77,506.3s-1.62,11.44,3.73,15.95,17.09,3,22.15,10.33,4.82,13.65,4.82,13.65"/><path class="cls-6" d="M473,481.84s14-2.49,16.82-9.52c0,0,4,7.57,16.83,8.92,0,0,10.21-25.21-17-25.26C462.23,455.93,473,481.84,473,481.84Z"/><path class="cls-7" d="M477.1,486.86a1.73,1.73,0,0,1-1.34-1.34"/><path class="cls-7" d="M478.62,485.76a1.4,1.4,0,0,1-1.09-1.08"/><path class="cls-7" d="M501.67,487.11a1.73,1.73,0,0,0,1.34-1.33"/><path class="cls-7" d="M500.41,486a1.4,1.4,0,0,0,1.09-1.08"/><path class="cls-5" d="M493.89,501.27a7.25,7.25,0,0,1-3.81,1.28,7.37,7.37,0,0,1-4.14-1.44"/><path class="cls-5" d="M492.4,483.69c1.93-1.85,6.9-2.42,10-.35"/><path class="cls-5" d="M486.54,483.69c-2.44-2.13-6.9-2.42-10-.35"/><path class="cls-5" d="M487.92,486.44c1,4.49-.69,6.56-.69,7.94s.34,2.76,3.79,2.76"/><path class="cls-5" d="M492.55,488c2.27-2.55,6.4-3.93,9.16-.48"/><path class="cls-5" d="M485.85,488c-2.26-2.55-6.4-3.93-9.16-.48"/><ellipse class="cls-8" cx="481.32" cy="487.29" rx="1.6" ry="1.77"/><ellipse class="cls-8" cx="497.53" cy="487.29" rx="1.6" ry="1.77"/></svg>