<svg id="Layer_1" data-name="Layer 1" xmlns="http://www.w3.org/2000/svg" xmlns:xlink="http://www.w3.org/1999/xlink" viewBox="0 0 1000 1000"><defs><style>.cls-1{opacity:0.15;}.cls-2{fill:#4f69b1;}.cls-12,.cls-3{fill:#fdeef2;}.cls-3{opacity:0.6;}.cls-4{fill:#fff;}.cls-5{fill:url(#linear-gradient);}.cls-6{fill:#faced2;}.cls-7{fill:#5ecae7;}.cls-8{fill:url(#Degradado_sin_nombre_57);}.cls-9{fill:url(#linear-gradient-2);}.cls-10{fill:#161641;}.cls-11{fill:#42317e;}.cls-13{fill:#56c0ee;}.cls-14{fill:#ed1459;}</style><linearGradient id="linear-gradient" x1="761.36" y1="633.24" x2="761.36" y2="398.75" gradientUnits="userSpaceOnUse"><stop offset="0" stop-color="#f05741"/><stop offset="0.36" stop-color="#ee3b50"/><stop offset="0.76" stop-color="#ed235c"/><stop offset="1" stop-color="#ec1a61"/></linearGradient><linearGradient id="Degradado_sin_nombre_57" x1="777.19" y1="628.89" x2="708.14" y2="715.9" gradientUnits="userSpaceOnUse"><stop offset="0" stop-color="#2788c3" stop-opacity="0.8"/><stop offset="0.99" stop-color="#2788c3" stop-opacity="0"/></linearGradient><linearGradient id="linear-gradient-2" x1="350.76" y1="748.36" x2="350.76" y2="452.99" xlink:href="#linear-gradient"/></defs><title>signs</title><path class="cls-1" d="M483.58,969.6c0,10.39-60.93,18.81-136.09,18.81S211.39,980,211.39,969.6s60.93-18.82,136.1-18.82S483.58,959.2,483.58,969.6Z"/><rect class="cls-2" x="740.65" y="501.99" width="39.1" height="42.44"/><rect class="cls-3" x="631.22" y="11.59" width="251.58" height="379.91"/><path class="cls-4" d="M690.46,76.53l4-1.71c1.48-.6,2.77-1.09,3.94-1.51,3,2.38,2.54,2.72,3.33,5.53l-32.9,15V94L683,100.42c7.09,3.26,13.3,6.14,18.67,8.48-.79,2.92-.15,3.15-3.33,5.65a49,49,0,0,1-4.77-1.94c-9.39-4.27-21.51-9.73-36.47-16.62V93.76c0-.27.5-.61,1.56-1.06-.42.15-.8.26-1.17.41v-.49a1.33,1.33,0,0,1,.64-1.29Z"/><path class="cls-4" d="M690.46,290.91l4-1.7c1.48-.61,2.77-1.1,3.94-1.52,3,2.39,2.54,2.73,3.33,5.53l-32.9,15v.08L683,314.8c7.09,3.26,13.3,6.14,18.67,8.49-.79,2.91-.15,3.14-3.33,5.64-1.78-.61-3.37-1.29-4.77-1.93-9.39-4.28-21.51-9.74-36.47-16.63v-2.23c0-.27.5-.61,1.56-1.06-.42.15-.8.26-1.17.42V307a1.32,1.32,0,0,1,.64-1.28Z"/><rect class="cls-4" x="735.77" y="85.85" width="127.96" height="13.47"/><rect class="cls-4" x="764.34" y="133" width="99.38" height="13.47"/><rect class="cls-4" x="809.24" y="173.4" width="54.48" height="13.47"/><rect class="cls-4" x="735.77" y="300.24" width="127.96" height="13.47"/><rect class="cls-4" x="764.34" y="253.1" width="99.38" height="13.47"/><rect class="cls-4" x="809.24" y="212.69" width="54.48" height="13.47"/><polygon class="cls-4" points="719.48 284.84 706.16 332.83 715.73 333.6 729.05 285.6 719.48 284.84"/><path class="cls-1" d="M888.46,879.64c0,10.39-60.93,18.82-136.1,18.82s-136.1-8.43-136.1-18.82,60.93-18.82,136.1-18.82S888.46,869.25,888.46,879.64Z"/><polygon class="cls-5" points="804.52 633.24 801.43 604.93 809.3 553.16 836.02 400.6 823.11 398.75 793.62 533.33 747.53 537.01 699.6 400.6 686.7 402.44 721.72 548.07 734.01 603.74 733.51 627.26 804.52 633.24"/><path class="cls-6" d="M742.08,498.22c0,13.18,10.7,31.42,23.89,31.42s23.88-18.24,23.88-31.42a23.89,23.89,0,1,0-47.77,0Z"/><polygon class="cls-6" points="779.2 534.48 765.97 557.97 759.3 536.07 779.2 534.48"/><path class="cls-6" d="M776,501.48a6.27,6.27,0,0,1,5.57-2.55,3.83,3.83,0,0,1,1.4.45,4.68,4.68,0,0,1,2.06,3.31c.67,3.65-1.44,7.44-4.57,9.43a7.13,7.13,0,0,1-2.91,1.14,3.94,3.94,0,0,1-3-.79C771.62,510,774.11,503.87,776,501.48Z"/><path class="cls-2" d="M755.86,490.42c-3.61,5.46-8.81,10.15-15.15,11.8a24.65,24.65,0,0,1,4.19-20.78c2.49-3.27,11.5-11.27,16.29-9.39C766.16,474,758.3,486.72,755.86,490.42Z"/><polygon class="cls-7" points="803.83 625.38 733.33 622.09 679.09 865.01 653.92 849.69 684.56 886.9 756.78 686.66 755.68 777.48 804.65 842.36 807.77 865.77 809.07 875.73 817.8 874.69 819.38 839 781.48 777.37 808.23 675.34 803.83 625.38"/><polygon class="cls-6" points="808.28 466.41 823.55 471.77 836.02 400.6 823.11 398.75 808.28 466.41"/><polygon class="cls-6" points="719.39 456.92 701.5 463.98 686.7 402.44 699.6 400.6 719.39 456.92"/><path class="cls-6" d="M680.92,393.22A11.06,11.06,0,1,0,692,382.16,11.06,11.06,0,0,0,680.92,393.22Z"/><path class="cls-6" d="M819.78,395.29a11.06,11.06,0,1,0,11.06-11.06A11.06,11.06,0,0,0,819.78,395.29Z"/><path class="cls-8" d="M736.92,741.72l17-47.22,1.59-15-22.21-57.42L709.77,727.6C719.85,733,729.69,738.05,736.92,741.72Z"/><path class="cls-2" d="M776,500.15a2.28,2.28,0,0,0,1.73.29c.56-.22.85-.82,1.21-1.3a4.35,4.35,0,0,1,6.25-.2,5.58,5.58,0,0,1,.68,6.55,7.92,7.92,0,0,1-5.76,3.68c-1.53,5.47-5.73,48.32-5.43,54,3.8.28,18.22,0,18.93-7.7.62-6.64,1.19-44,1.17-50.63,0-6.49-.79-13.23-4.14-18.79-4-6.66-20.47-17.62-28.51-11.47C753.28,481.34,769.88,497.2,776,500.15Z"/><polygon class="cls-6" points="776.65 536.68 766.75 537.25 766.34 523.89 778.09 523.21 776.65 536.68"/><polygon class="cls-9" points="302.86 748.36 289.07 606.59 274.44 454.52 285.14 452.99 316.64 596.74 365.87 600.68 417.07 454.96 427.07 457.03 393.44 612.49 395.41 744.42 302.86 748.36"/><path class="cls-6" d="M320.38,554.66c-3.72,13.59,2.15,35.39,15.74,39.11s29.74-12,33.47-25.63a25.51,25.51,0,0,0-49.21-13.48Z"/><path class="cls-10" d="M338.54,546.82c-2.78-.76-6.67-2.67-8.15-5.28a3.81,3.81,0,0,1-.28-.72,25.41,25.41,0,0,1,39.48,27.32c-2.66,9.7-11.66,20.48-21.54,24.51a43.45,43.45,0,0,1,1.54-8.11q4.23-16.11,9.4-32A137.12,137.12,0,0,1,338.54,546.82Z"/><path class="cls-6" d="M354.42,567.6a6.74,6.74,0,0,1,6.46-1.06,4.15,4.15,0,0,1,1.32.87,5,5,0,0,1,1.18,4c-.34,3.94-3.58,7.25-7.36,8.42a7.52,7.52,0,0,1-3.32.35,4.2,4.2,0,0,1-2.84-1.64C347.48,575.14,351.77,569.53,354.42,567.6Z"/><polygon class="cls-11" points="381.75 961.89 395.41 744.42 395.08 722.67 300.24 721.44 302.86 748.36 320.67 966.94 286.84 969.42 286.84 975.1 332.27 973.38 332.27 967.21 340.49 746.76 353.93 746.19 366.7 961.89 365.18 970.66 413.63 970.66 414.82 965.53 381.75 961.89"/><path class="cls-10" d="M344.76,573.1c-8.28.89-14.86-7.45-23.11-8.5a2.77,2.77,0,0,0-1.54.13,3.11,3.11,0,0,0-1.27,1.53l-3.14,6.12a25.68,25.68,0,0,0-2.62,6.49,30.74,30.74,0,0,0,2.05,14.75,15.8,15.8,0,0,0,8.86,7.52,27.3,27.3,0,0,0,11.75,1.23,21.52,21.52,0,0,0,7.83-2,14.71,14.71,0,0,0,7.7-15,17.42,17.42,0,0,1-.53-4.4,10.87,10.87,0,0,1,1.6-4c.81-1.43,6.27-8.59,2-8.63-1.29,0-3.18,2.21-4.31,2.87A13.62,13.62,0,0,1,344.76,573.1Z"/><path class="cls-6" d="M293,447.09a11.82,11.82,0,1,1-11.81-11.82A11.81,11.81,0,0,1,293,447.09Z"/><path class="cls-6" d="M430.85,451A11.82,11.82,0,1,1,419,439.21,11.82,11.82,0,0,1,430.85,451Z"/><rect class="cls-12" x="131.48" y="146.46" width="437.22" height="301.5"/><path class="cls-13" d="M216.88,324.54a.93.93,0,0,1-.9.91,160.94,160.94,0,0,1-17.71-.11,15.12,15.12,0,0,0-4.9-.21v-.51a1.11,1.11,0,0,1,0-1.27c.16-7.1.64-14.21.85-21.29a.86.86,0,0,1,1.46-.61,101.14,101.14,0,0,1,10.71,9.76,103.06,103.06,0,0,1,8.54-11,.89.89,0,0,1,1.51.63Q216.66,312.69,216.88,324.54Z"/><path class="cls-13" d="M240.56,322.6c-7.13-.45-14,.82-21.08,1.06a.86.86,0,0,1-.45-1.57.38.38,0,0,1,0-.31c1.91-4.48,3.9-8.91,6-13.28,1.72-3.51,3.21-8.2,6.15-10.91a.65.65,0,0,1,1.08.3c2.73,7.93,5.55,15.88,8.89,23.6C241.41,322,241.17,322.65,240.56,322.6Z"/><path class="cls-13" d="M261.88,325c-5.62.14-11.26.19-16.91.21a.83.83,0,0,1-.83-.82,196.92,196.92,0,0,1-.18-24,.65.65,0,0,1,.29-.55.85.85,0,0,1,.69-.32c4.72,0,9.44-.08,14.16-.05a.8.8,0,0,1,.69,1.19c-1.12,2-2.15,4.11-3.18,6.18-.53,1.06-3.24,5.2-2.44,6.34a126.81,126.81,0,0,0,8.35,10.44A.85.85,0,0,1,261.88,325Z"/><path class="cls-13" d="M278.77,314.85c-2.17.45-4.32,1-6.47,1.53a38.79,38.79,0,0,0,6.15,6c.59.45.08,1.4-.58,1.4-4,0-8,.05-12,.29a.83.83,0,0,1-.83-.82c-.13-7.79-.47-15.59-1-23.36a.84.84,0,0,1,.82-.82c3.68-.13,7.39-.29,11.11-.24.32,0,.45.21.45.42a.86.86,0,0,1,.16,1.28L271,306.89c2.7,2.23,5.43,4.43,8.14,6.63A.82.82,0,0,1,278.77,314.85Z"/><path class="cls-13" d="M307.67,311c-.11,4.24-.08,8.48.05,12.73a.74.74,0,0,1-.74.74c-2.2-.08-4.4-.16-6.6-.27a.78.78,0,0,1-.77-.77c.08-2.46,0-4.93,0-7.39,0-2.05.53-4.91-.77-6.58a64.18,64.18,0,0,1-6.57-10.63.35.35,0,0,1,.45-.48.51.51,0,0,1,.37-.26c3.36-.43,7,0,10.36.23,3.16.19,6.29.43,9.42.72a.74.74,0,0,1,.63,1.11C311.54,303.8,309.55,307.38,307.67,311Z"/><path class="cls-13" d="M331,322.75c-7.21,2.36-15.54-1.3-16.36-9.39-.53-5.33,1.56-13.6,7-15.38,5.78-3.6,12.91,1,14.88,7.08C338.33,310.9,338,320.47,331,322.75Z"/><path class="cls-13" d="M358.78,314.33c0,2.79.11,5.49-2.2,7.4-3.66,3-12.06,3.87-14.61-1-1.48-2.81-1.43-6.05-1.54-9.15-.13-3.94-.26-7.9,0-11.82a1,1,0,0,1,.8-1.57c4.4,0,8.8-.13,13.2-.21,1.12,0,2.73-.42,3.75.21.84.53.52,2.15.55,2.92C358.84,305.53,358.84,309.93,358.78,314.33Z"/><path class="cls-13" d="M380.38,325.72c-5.17,0-10.61.48-15.75-.16a.67.67,0,0,1-.64-.64c0-.87-.1-1.75-.13-2.65v0c-.42-4.17-.88-8.36-1-12.52a54.12,54.12,0,0,0-.59-6.6,9.52,9.52,0,0,1,.06-3.76.73.73,0,0,1,.55-.56c1.91-.27,3.5-.87,5.46-.72a23,23,0,0,1,5.15,1,7.43,7.43,0,0,1,5.17,5.07c.69,2.38,1.08,5.78-.72,7.82a7.21,7.21,0,0,1-4.64,2.39,99.77,99.77,0,0,0,7.72,9.94A.86.86,0,0,1,380.38,325.72Z"/><path class="cls-13" d="M403.25,306.05a.91.91,0,0,1-.64.82,36.37,36.37,0,0,1-5.38.71,20.13,20.13,0,0,1,4.45,7.78c.85,3.28.9,7.82-2.65,9.59a15.11,15.11,0,0,1-11.82.32c-3.42-1.38-3.85-5.22-3.87-8.43a.93.93,0,0,1,1.16-.9,30.35,30.35,0,0,0,4,.32c-4-3.21-6-8.73-3.89-13.47.79-3.9,5.43-6.44,9.46-6.13A9.81,9.81,0,0,1,403.25,306.05Z"/><path class="cls-13" d="M421,314.85c-2.17.45-4.32,1-6.46,1.53a38.37,38.37,0,0,0,6.15,6c.58.45.08,1.4-.59,1.4-4,0-8,.05-12,.29a.82.82,0,0,1-.82-.82c-.13-7.79-.48-15.59-1-23.36a.84.84,0,0,1,.82-.82c3.69-.13,7.4-.29,11.11-.24.32,0,.45.21.45.42a.85.85,0,0,1,.16,1.28l-5.65,6.36c2.71,2.23,5.44,4.43,8.14,6.63A.81.81,0,0,1,421,314.85Z"/><path class="cls-13" d="M443.54,318.43c-.14,1.86-.25,3.74-.37,5.62a.88.88,0,0,1-.85.85,132.87,132.87,0,0,0-16.81.63.81.81,0,0,1-.83-.82c-.08-7.87-.68-15.69-.87-23.57a1.4,1.4,0,0,1,0-.5.67.67,0,0,1,.16-.35,1,1,0,0,1,.77-.39l8.16-.24a.92.92,0,0,1,.93.93c-.18,4.88-.13,9.78.08,14.66,1.83.11,3.66.24,5.49.37,1.11.08,2.68-.08,3.69.5C443.85,316.58,443.61,317.77,443.54,318.43Z"/><path class="cls-13" d="M465.68,302.67c-4.35,6.6-5,14.9-9.68,21.27-.24.45-.51.92-.77,1.37a.81.81,0,0,1-1.38,0c-3.37-7.63-7.48-14.9-11-22.48a.53.53,0,0,1,.45-.8.42.42,0,0,1,.31-.23c3.27-.8,6.9-.69,10.27-.74,2.49,0,5,0,7.45.13a.82.82,0,0,1,1.08.05l2.52.16A.85.85,0,0,1,465.68,302.67Z"/><path class="cls-13" d="M482.11,314.85c-2.17.45-4.32,1-6.46,1.53a38.37,38.37,0,0,0,6.15,6c.58.45.08,1.4-.59,1.4-4,0-8,.05-12,.29a.82.82,0,0,1-.82-.82c-.13-7.79-.48-15.59-1-23.36a.84.84,0,0,1,.82-.82c3.69-.13,7.4-.29,11.11-.24.32,0,.45.21.45.42a.85.85,0,0,1,.16,1.28l-5.65,6.36c2.7,2.23,5.44,4.43,8.14,6.63A.81.81,0,0,1,482.11,314.85Z"/><path class="cls-13" d="M504.84,306.05a.91.91,0,0,1-.64.82,36.37,36.37,0,0,1-5.38.71,20.13,20.13,0,0,1,4.45,7.78c.85,3.28.9,7.82-2.65,9.59a15.11,15.11,0,0,1-11.82.32c-3.42-1.38-3.85-5.22-3.87-8.43a.93.93,0,0,1,1.16-.9,30.35,30.35,0,0,0,4,.32c-4-3.21-6-8.73-3.89-13.47.79-3.9,5.43-6.44,9.47-6.13A9.81,9.81,0,0,1,504.84,306.05Z"/><path class="cls-13" d="M248.94,396.23c-13.32-.85-26.14,1.53-39.37,2a1.61,1.61,0,0,1-.84-2.93.81.81,0,0,1,.05-.59c3.57-8.37,7.28-16.64,11.24-24.81,3.22-6.54,6-15.31,11.49-20.36a1.23,1.23,0,0,1,2,.55c5.1,14.8,10.35,29.66,16.59,44.07C250.53,395,250.08,396.32,248.94,396.23Z"/><path class="cls-13" d="M294.94,367.1a1.52,1.52,0,0,1-1.48,1.49,58.8,58.8,0,0,0-13.52.49c-.3,10.4-.4,20.85-.2,31.25a1.73,1.73,0,0,1-1.68,1.69c-4.61.2-9.17.45-13.72.64a1.71,1.71,0,0,1-1.69-1.68q0-16.05,1.24-32a36.39,36.39,0,0,1-12.28.74,1.84,1.84,0,0,1-1.78-1.79,121.55,121.55,0,0,1,.69-12.77,2.87,2.87,0,0,1,.2-.7,1.29,1.29,0,0,1,1-1.93c13.72-1.58,27.78-1.29,41.55-.4a1.56,1.56,0,0,1,1.54,1.54C294.85,358.19,294.9,362.65,294.94,367.1Z"/><path class="cls-13" d="M353.55,399.61A199.35,199.35,0,0,1,341,383.67a8.72,8.72,0,0,0-4.06,3l-12.33,13.12c-.95,1-3,.65-3.13-.64-.94-13.77-1.53-27.54-1.14-41.36v-1.23a1.28,1.28,0,0,1,0-.55v-.65c.05-1.08,1.94-1.23,2.48-.44a2.06,2.06,0,0,1,.55.35c2.32,2.18,4.7,4.31,7,6.49,1.38,1.28,4.7,5.49,7.38,5.29a2.76,2.76,0,0,0,.64-.1c2.77-2.42,5.6-4.8,8.22-7.32,2.38-2.23,3.72-5,6.49-7,1.63-1.19,4.16.64,2.53,1.83l-.05.05c.34,6.54.79,13.28.84,19.91a198.93,198.93,0,0,1,.49,23.68C358.2,399.71,354.93,401.1,353.55,399.61Z"/><path class="cls-13" d="M393.1,396.5c-13.47,4.41-29-2.43-30.56-17.53-1-10,2.92-25.41,13.08-28.73,10.79-6.73,24.11,1.84,27.78,13.23C406.87,374.36,406.22,392.24,393.1,396.5Z"/><path class="cls-13" d="M454.61,399.86a1.73,1.73,0,0,1-1.68,1.68,294.52,294.52,0,0,1-33.09-.19,28,28,0,0,0-9.16-.4V400a2.11,2.11,0,0,1,.05-2.38c.3-13.27,1.19-26.54,1.58-39.77a1.61,1.61,0,0,1,2.73-1.14,189,189,0,0,1,20,18.23A191.43,191.43,0,0,1,451,354.4a1.67,1.67,0,0,1,2.82,1.18Q454.2,377.72,454.61,399.86Z"/><path class="cls-13" d="M488.32,381.74c-4.06.85-8.07,1.84-12.09,2.88a72.05,72.05,0,0,0,11.5,11.19c1.08.84.14,2.62-1.1,2.62-7.52-.09-14.95.1-22.43.55a1.55,1.55,0,0,1-1.54-1.54c-.24-14.56-.89-29.12-1.83-43.63a1.59,1.59,0,0,1,1.54-1.54c6.88-.24,13.82-.54,20.75-.44.59.05.84.4.84.79a1.58,1.58,0,0,1,.3,2.38l-10.55,11.88c5.05,4.17,10.15,8.28,15.2,12.39A1.51,1.51,0,0,1,488.32,381.74Z"/><path class="cls-14" d="M238.61,228.07c-6.5,14.64-12.22,29.32-20.64,42.42-.3.45-.91.41-1.45.18a1.75,1.75,0,0,1-1.8-.63,82.44,82.44,0,0,1-10.89-16,150.81,150.81,0,0,1-15.89,6.76,2.58,2.58,0,0,1-2.89-1.64c-2.41-8.07-4.81-16.28-7.1-24.47q-1.89-6.69-3.73-13.33c-.67-2.42-2.65-6.9-2.65-9.29-1.21-1.58-.73-3.48,1.5-2.33l.12.06c1-.22,2.41.29,3.73,1.83a134,134,0,0,0,29.73,10.22c10.11,2.15,20.65,2.29,30.64,4.24C238.24,226.31,239,227.3,238.61,228.07Z"/><path class="cls-14" d="M275.33,249.17c-4.94,1.41-9.81,2.84-14.69,4.18a63.4,63.4,0,0,0,14,9.73c1.33.67.18,2.57-1.32,2.73-9.09,1-18.17,1.7-27.26,2.17a1.73,1.73,0,0,1-1.86-1.52c-.15-14.16-1.08-28.63-2.23-42.91-.06-.83.91-1.45,1.87-1.49,8.36-.18,17-1.16,25.21-1.62.7,0,1,.29,1,.68a1.33,1.33,0,0,1,.36,2.3c-5.12,5.19-7.69,7.73-12.81,12.68,6.13,3.76,12.33,7.25,18.47,10.55C277.07,247.21,276.47,248.84,275.33,249.17Z"/><path class="cls-14" d="M325.3,246.73c-.39,3.38-.57,7-.84,10.51a2.44,2.44,0,0,1-1.93,2c-12.76,2.57-25.46,5.45-38.15,8.37a1.43,1.43,0,0,1-1.86-1.24c-.09-14.35-1.57-28.61-2-43a2.24,2.24,0,0,1,0-.93,1.26,1.26,0,0,1,.36-.67,2.8,2.8,0,0,1,1.75-1c6.13-.93,12.4-2.14,18.53-3.49,1.07-.24,2.16.37,2.1,1.3a243.52,243.52,0,0,0,.19,26.89q6.23-.9,12.45-1.85c2.53-.39,6.09-1.46,8.37-.9C326,243.16,325.44,245.5,325.3,246.73Z"/><path class="cls-14" d="M367.78,249.21a3.19,3.19,0,0,1-1.74,1.27c-2.47,1.29-6.15,1.84-8.31,2.25-6.24,1.19-12.82,2.33-18.29.88-10.95-2.89-10.65-19.64-7.16-28.86a31.28,31.28,0,0,1,3.55-6.37,23.74,23.74,0,0,1,5.35-5.83c7.23-5.19,18-11,25.7-8.46.42.1.41.47.36.75a1.28,1.28,0,0,1-.54.85c-2.71,1.69-4.57,6.55-6.14,8.9-1.68,2.53-3.31,5.06-5.05,7.6-2,2.9-3.92,5.84-5.9,8.73,5,3.75,8.6,8.75,13.3,12.83,1.08.82,2.23,1.63,3.37,2.49.78.46,1.56.92,2.29,1.44A4.14,4.14,0,0,1,367.78,249.21Z"/><path class="cls-14" d="M410.47,236.65c-16.35,6.67-35.27,4.12-37.12-10.3-1.21-9.51,3.55-25.88,15.89-31.54,13.12-9.17,29.33-2.91,33.75,7.81C427.21,212.86,426.39,230.16,410.47,236.65Z"/><path class="cls-14" d="M484,240.18c0,.91-1,1.42-2,1.28-13.43-1.81-27.87-1.8-40.2-2.91a48.19,48.19,0,0,0-11.14.22v-.92a1.76,1.76,0,0,1,.06-2.35c.36-13.07,1.42-26.22,1.93-39.23.06-1.51,2-2.08,3.31-1.32a143.24,143.24,0,0,1,24.3,17.86,125.47,125.47,0,0,1,19.38-18.11c1.21-.87,3.42.42,3.43,1.77C483.21,210.89,483.85,225.78,484,240.18Z"/><path class="cls-14" d="M522,234.53a100.08,100.08,0,0,0-14.68-3.1c4.16,5.53,8.79,11,14,16.59,1.33,1.43.18,2.66-1.32,2a125.85,125.85,0,0,0-27.26-8.8,2.36,2.36,0,0,1-1.87-2c-.15-14.23-1.08-28.88-2.22-43.4-.06-.83.91-1.25,1.86-1.08,8.37,1.7,17.08,3.93,25.22,7.6a1.49,1.49,0,0,1,1,1.21c.85.83,1.26,2,.36,2.48-5.13,2.52-7.69,3.9-12.82,6.91,6.14,6.09,12.34,12.56,18.47,19.45C523.78,233.58,523.18,234.86,522,234.53Z"/></svg>