<?xml version="1.0" encoding="utf-8"?>
<!-- Generator: Adobe Illustrator 22.1.0, SVG Export Plug-In . SVG Version: 6.00 Build 0)  -->
<svg version="1.1" id="Layer_1" xmlns="http://www.w3.org/2000/svg" xmlns:xlink="http://www.w3.org/1999/xlink" x="0px" y="0px"
	 viewBox="0 0 1000 1000" style="enable-background:new 0 0 1000 1000;" xml:space="preserve">
<style type="text/css">
	.st0{fill:#4F69B1;}
	.st1{opacity:0.15;enable-background:new    ;}
	.st2{fill:#E5E5E4;}
	.st3{fill:#FFFFFF;}
	.st4{fill:url(#SVGID_1_);}
	.st5{fill:#FACED2;}
	.st6{fill:#5ECAE7;}
	.st7{fill:url(#SVGID_2_);}
	.st8{fill:url(#SVGID_3_);}
	.st9{fill:#161641;}
	.st10{fill:#42317E;}
	.st11{fill:#FDEEF2;}
	.st12{opacity:0.5;fill:#FFFFFF;enable-background:new    ;}
</style>
<title>signs-code</title>
<rect x="248.7" y="493.7" class="st0" width="36.4" height="39.5"/>
<path class="st1" d="M648.9,916.8c70,0,126.7,7.8,126.7,17.5s-56.7,17.5-126.7,17.5s-126.8-7.9-126.8-17.5S578.9,916.8,648.9,916.8z
	"/>
<rect x="152.8" y="37" class="st2" width="234.3" height="353.8"/>
<path class="st3" d="M362,111.2c0.4,0.2,0.7,0.7,0.6,1.2v0.4c-0.4-0.1-0.7-0.2-1.1-0.4c1,0.4,1.4,0.8,1.4,1v2.1
	c-14,6.4-25.2,11.5-34,15.5c-1.4,0.7-2.9,1.3-4.4,1.8c-3-2.3-2.4-2.5-3.1-5.2c5-2.2,10.8-4.9,17.4-7.9l13.2-6v-0.1l-30.7-14
	c0.7-2.6,0.3-2.9,3.1-5.2c1.1,0.4,2.3,0.9,3.7,1.4l3.7,1.6L362,111.2z"/>
<path class="st3" d="M362,310.9c0.4,0.2,0.6,0.7,0.6,1.2v0.5c-0.4-0.1-0.7-0.2-1.1-0.4c1,0.4,1.4,0.8,1.4,1v2.1
	c-14,6.4-25.2,11.5-34,15.5c-1.4,0.7-2.9,1.3-4.4,1.8c-3-2.3-2.4-2.5-3.1-5.3c5-2.2,10.8-4.9,17.4-7.9l13.2-6v-0.1l-30.7-14
	c0.7-2.6,0.3-2.9,3.1-5.1c1.1,0.4,2.3,0.9,3.7,1.4l3.7,1.6L362,310.9z"/>
<rect x="170.6" y="106.2" class="st3" width="119.2" height="12.5"/>
<rect x="170.6" y="150.1" class="st3" width="92.5" height="12.5"/>
<rect x="170.5" y="187.7" class="st3" width="50.7" height="12.5"/>
<rect x="170.6" y="305.8" class="st3" width="119.2" height="12.5"/>
<rect x="170.6" y="261.9" class="st3" width="92.5" height="12.5"/>
<rect x="170.5" y="224.3" class="st3" width="50.7" height="12.5"/>
<polygon class="st3" points="296,292.2 308.4,336.9 317.3,336.2 304.9,291.5 "/>
<linearGradient id="SVGID_1_" gradientUnits="userSpaceOnUse" x1="734.12" y1="386.07" x2="734.12" y2="604.44" gradientTransform="matrix(-1 0 0 -1 1000 1002)">
	<stop  offset="0" style="stop-color:#F05741"/>
	<stop  offset="0.36" style="stop-color:#EE3B50"/>
	<stop  offset="0.76" style="stop-color:#ED235C"/>
	<stop  offset="1" style="stop-color:#EC1A61"/>
</linearGradient>
<polygon class="st4" points="291.8,610.4 291.3,588.5 302.8,536.6 335.4,401 323.4,399.3 278.8,526.3 235.8,522.9 208.4,397.6 
	196.3,399.3 221.2,541.4 228.6,589.6 225.7,615.9 "/>
<path class="st5" d="M283.8,490.2C283.8,490.2,283.8,490.2,283.8,490.2c0-12.3-10-22.3-22.3-22.3c-12.3,0-22.2,10-22.2,22.3
	c0,12.3,10,29.3,22.2,29.3C273.8,519.5,283.8,502.5,283.8,490.2L283.8,490.2z"/>
<path class="st1" d="M274.2,827.9c70,0,126.8,7.8,126.8,17.5s-56.7,17.5-126.7,17.5s-126.7-7.8-126.7-17.5S204.2,827.9,274.2,827.9z
	"/>
<polygon class="st5" points="267.8,525.5 261.6,545.8 249.3,524 "/>
<path class="st5" d="M253.6,503.5c-0.8,0.6-1.8,0.9-2.8,0.7c-1-0.1-1.9-0.5-2.7-1.1c-2.9-1.9-4.9-5.4-4.3-8.8
	c0.2-1.3,0.9-2.4,1.9-3.1c0.4-0.2,0.9-0.4,1.3-0.4c2-0.2,4,0.7,5.2,2.4C254,495.5,256.3,501.2,253.6,503.5z"/>
<path class="st0" d="M266,465.8c4.5-1.8,12.8,5.7,15.2,8.7c4.1,5.5,5.6,12.6,3.9,19.4c-5.9-1.5-10.7-5.9-14.1-11
	C268.7,479.5,261.4,467.6,266,465.8z"/>
<polygon class="st6" points="222.2,655.2 247.1,750.2 211.8,807.6 213.3,840.8 221.4,841.8 222.7,832.5 225.6,810.7 271.2,750.3 
	270.1,665.7 337.4,852.2 365.9,817.5 342.5,831.8 292,605.5 226.3,608.6 "/>
<polygon class="st5" points="208.4,397.6 196.3,399.3 208,465.6 222.2,460.6 "/>
<polygon class="st5" points="323.4,399.3 335.4,401 321.6,458.3 305,451.7 "/>
<path class="st5" d="M330.5,382.1L330.5,382.1c-5.7,0-10.3,4.6-10.3,10.3c0,5.7,4.6,10.3,10.3,10.3s10.3-4.6,10.3-10.3
	S336.2,382.1,330.5,382.1z"/>
<path class="st5" d="M201.2,384L201.2,384c-5.7,0-10.3,4.6-10.3,10.3c0,5.7,4.6,10.3,10.3,10.3s10.3-4.6,10.3-10.3
	S206.9,384,201.2,384z"/>
<linearGradient id="SVGID_2_" gradientUnits="userSpaceOnUse" x1="748.8653" y1="390.1058" x2="684.5653" y2="309.0758" gradientTransform="matrix(-1 0 0 -1 1000 1002)">
	<stop  offset="0" style="stop-color:#2788C3;stop-opacity:0.8"/>
	<stop  offset="0.99" style="stop-color:#2788C3;stop-opacity:0"/>
</linearGradient>
<path class="st7" d="M313.9,703.8L292,605.5L271.3,659l1.5,14l15.9,44C295.4,713.5,304.5,708.8,313.9,703.8z"/>
<path class="st0" d="M265.1,468.2c-7.5-5.7-22.8,4.5-26.6,10.7c-3.1,5.2-3.9,11.5-3.9,17.5c0,6.2,0.5,41,1.1,47.1
	c0.6,7.2,14.1,7.4,17.6,7.2c0.3-5.3-3.6-45.2-5.1-50.3c-2.2-0.3-4.2-1.5-5.4-3.4c-1.1-2-0.9-4.5,0.7-6.1c0.1-0.1,0.1-0.1,0.2-0.2
	c1.7-1.5,4.2-1.3,5.6,0.4c0.3,0.4,0.6,1,1.1,1.2c0.6,0.1,1.1,0,1.6-0.3C258,489.2,273.4,474.5,265.1,468.2z"/>
<polygon class="st5" points="250.3,513.5 261.2,514.1 260.9,526.5 251.6,526 "/>
<linearGradient id="SVGID_3_" gradientUnits="userSpaceOnUse" x1="351.73" y1="278.85" x2="351.73" y2="553.92" gradientTransform="matrix(-1 0 0 -1 1000 1002)">
	<stop  offset="0" style="stop-color:#F05741"/>
	<stop  offset="0.36" style="stop-color:#EE3B50"/>
	<stop  offset="0.76" style="stop-color:#ED235C"/>
	<stop  offset="1" style="stop-color:#EC1A61"/>
</linearGradient>
<polygon class="st8" points="606.7,719.5 608.5,596.6 577.2,451.8 586.5,449.9 634.2,585.6 680,582 709.4,448.1 719.3,449.5 
	705.7,591.1 692.9,723.2 "/>
<path class="st5" d="M676.6,542.8c-3.5-12.7-16.5-20.1-29.2-16.6s-20.1,16.5-16.6,29.2c3.5,12.7,18.5,27.3,31.2,23.9
	C674.6,575.8,680,555.4,676.6,542.8L676.6,542.8z"/>
<path class="st9" d="M640.6,540.8c3.2,9.8,6.1,19.8,8.8,29.8c0.7,2.5,1.2,5,1.4,7.6c-9.2-3.8-17.6-13.8-20-22.8
	c-1.9-7-0.6-14.5,3.7-20.3c7.7-10.5,22.5-12.8,33.1-5.1c-0.1,0.2-0.2,0.5-0.3,0.7c-1.4,2.4-5,4.2-7.6,4.9
	C653.4,537.7,647.1,539.5,640.6,540.8z"/>
<path class="st5" d="M649.1,565c-0.6,0.8-1.6,1.4-2.6,1.5c-1,0.1-2.1,0-3.1-0.3c-3.5-1.1-6.5-4.2-6.9-7.8c-0.2-1.3,0.2-2.7,1.1-3.7
	c0.4-0.3,0.8-0.6,1.2-0.8c2-0.7,4.3-0.3,6,1C647.3,556.6,651.3,561.8,649.1,565z"/>
<polygon class="st10" points="588.6,925.4 589.7,930.2 634.8,930.2 633.4,922 645.3,721.1 657.8,721.7 665.5,927 665.5,932.7 
	707.8,934.3 707.8,929 676.3,926.7 692.9,723.2 695.3,698.1 607,699.2 606.7,719.5 619.4,922 "/>
<path class="st9" d="M648.9,558.2c-1-0.6-2.8-2.7-4-2.7c-4,0,1.1,6.7,1.9,8c0.7,1.1,1.2,2.4,1.5,3.7c0,1.4-0.1,2.8-0.5,4.1
	c-0.8,5.7,2.1,11.3,7.2,13.9c2.3,1.1,4.8,1.7,7.3,1.8c3.7,0.4,7.4,0,10.9-1.1c3.5-1.2,6.5-3.7,8.2-7c0.8-1.9,1.4-3.9,1.7-6
	c0.6-2.6,0.6-5.2,0.2-7.8c-0.5-2.1-1.4-4.1-2.4-6l-2.9-5.7c-0.2-0.6-0.7-1.1-1.2-1.4c-0.5-0.2-1-0.2-1.4-0.1
	c-7.7,1-13.8,8.7-21.5,7.9C652.1,559.7,650.4,559.1,648.9,558.2z"/>
<path class="st5" d="M702,442.6c0-6.1,4.9-11,11-11s11,4.9,11,11s-4.9,11-11,11S702,448.7,702,442.6L702,442.6z"/>
<path class="st5" d="M584.7,435.2L584.7,435.2c6.1,0,11,4.9,11,11s-4.9,11-11,11s-11-4.9-11-11S578.6,435.2,584.7,435.2z"/>
<rect x="445.3" y="201" class="st11" width="407.2" height="242.4"/>
<rect x="479.1" y="239.3" class="st12" width="160.7" height="166.4"/>
<rect x="664.8" y="241" class="st12" width="151.8" height="15.3"/>
<rect x="664.8" y="290.8" class="st12" width="151.8" height="15.3"/>
<rect x="664.8" y="340.6" class="st12" width="151.8" height="15.3"/>
<rect x="664.8" y="390.4" class="st12" width="151.8" height="15.3"/>
</svg>
