<svg xmlns="http://www.w3.org/2000/svg" xmlns:xlink="http://www.w3.org/1999/xlink" viewBox="0 0 1924.54 358.75"><defs><style>.cls-1{fill:#fff;opacity:0.05;}.cls-1,.cls-3,.cls-4{isolation:isolate;}.cls-2{fill:url(#linear-gradient);}.cls-3,.cls-4{opacity:0.24;}.cls-3{fill:url(#linear-gradient-2);}.cls-4{fill:url(#linear-gradient-3);}</style><linearGradient id="linear-gradient" x1="1821.75" y1="645.64" x2="1914.49" y2="535.88" gradientTransform="matrix(1, 0, 0, -1, 0, 906.44)" gradientUnits="userSpaceOnUse"><stop offset="0" stop-color="#4f69b1"/><stop offset="0.11" stop-color="#4e63ac" stop-opacity="0.96"/><stop offset="0.28" stop-color="#4c539e" stop-opacity="0.86"/><stop offset="0.49" stop-color="#483987" stop-opacity="0.69"/><stop offset="0.74" stop-color="#431568" stop-opacity="0.46"/><stop offset="0.8" stop-color="#420c60" stop-opacity="0.4"/><stop offset="1" stop-color="#2d0d53" stop-opacity="0"/></linearGradient><linearGradient id="linear-gradient-2" x1="1881.14" y1="627.86" x2="1901.64" y2="603.61" gradientTransform="matrix(1, 0, 0, -1, 0, 906.44)" gradientUnits="userSpaceOnUse"><stop offset="0" stop-color="#300d5d"/><stop offset="1" stop-color="#2d0d53" stop-opacity="0"/></linearGradient><linearGradient id="linear-gradient-3" x1="1871.05" y1="638.25" x2="1881.3" y2="626.11" xlink:href="#linear-gradient-2"/></defs><title>stars</title><g id="Layer_2" data-name="Layer 2"><g id="Layer_1-2" data-name="Layer 1"><polygon class="cls-1" points="424.15 4.2 430.75 2.02 428.47 8.59 432.58 14.19 425.63 14.04 421.57 19.69 419.56 13.04 412.94 10.93 418.65 6.96 418.61 0 424.15 4.2"/><polygon class="cls-1" points="293.92 49.42 310.97 40.46 307.71 59.45 321.51 72.9 302.44 75.67 293.92 92.94 285.39 75.67 266.32 72.9 280.11 59.45 276.86 40.46 293.92 49.42"/><polygon class="cls-1" points="27.59 233.49 44.65 224.51 41.38 243.51 55.19 256.95 36.12 259.72 27.59 277 19.07 259.72 0 256.95 13.79 243.51 10.54 224.51 27.59 233.49"/><polygon class="cls-1" points="759.08 26.53 772.84 19.3 770.21 34.61 781.33 45.45 765.95 47.69 759.08 61.62 752.21 47.69 736.84 45.45 747.96 34.61 745.34 19.3 759.08 26.53"/><polygon class="cls-1" points="353.64 270.36 360.23 268.18 357.95 274.74 362.07 280.35 355.11 280.21 351.06 285.85 349.04 279.2 342.42 277.08 348.13 273.12 348.1 266.17 353.64 270.36"/><polygon class="cls-1" points="44.49 46.63 32.95 36.22 48.23 33.4 54.58 19.23 61.98 32.87 77.42 34.52 66.72 45.78 69.93 60.98 55.91 54.28 42.45 62.03 44.49 46.63"/><path class="cls-2" d="M1816,310.78a48,48,0,1,1,48,48A48,48,0,0,1,1816,310.78Z"/><path class="cls-3" d="M1901.09,289.62A10.61,10.61,0,1,1,1890.48,279h0A10.61,10.61,0,0,1,1901.09,289.62Z"/><path class="cls-4" d="M1881,273.71a5.31,5.31,0,1,1-5.32-5.3h0a5.29,5.29,0,0,1,5.31,5.29Z"/><polygon class="cls-1" points="1583.23 205.91 1590.17 205.52 1586.27 211.27 1588.77 217.74 1582.1 215.8 1576.72 220.19 1576.5 213.25 1570.66 209.48 1577.21 207.13 1578.98 200.41 1583.23 205.91"/><polygon class="cls-1" points="1553.87 15.45 1570.93 6.49 1567.66 25.48 1581.47 38.93 1562.4 41.7 1553.87 58.97 1545.35 41.7 1526.28 38.93 1540.07 25.48 1536.82 6.49 1553.87 15.45"/><polygon class="cls-1" points="1155.49 42.04 1151.16 36.61 1158.11 36.49 1161.95 30.68 1164.21 37.25 1170.92 39.11 1165.36 43.3 1165.66 50.24 1159.97 46.26 1153.47 48.69 1155.49 42.04"/><polygon class="cls-1" points="1658.95 157.07 1676 148.12 1672.74 167.1 1686.54 180.55 1667.47 183.32 1658.95 200.6 1650.42 183.32 1631.36 180.55 1645.15 167.1 1641.9 148.12 1658.95 157.07"/><polygon class="cls-1" points="1891.61 165.49 1880.09 155.08 1895.36 152.26 1901.69 138.07 1909.09 151.73 1924.54 153.37 1913.84 164.63 1917.06 179.83 1903.04 173.13 1889.57 180.88 1891.61 165.49"/><polygon class="cls-1" points="1342.33 143.74 1338 138.3 1344.95 138.18 1348.78 132.39 1351.05 138.95 1357.74 140.81 1352.2 144.99 1352.5 151.94 1346.81 147.95 1340.31 150.39 1342.33 143.74"/></g></g></svg>