<?xml version="1.0" encoding="utf-8"?>
<!-- Generator: Adobe Illustrator 22.1.0, SVG Export Plug-In . SVG Version: 6.00 Build 0)  -->
<svg version="1.1" id="Layer_1" xmlns="http://www.w3.org/2000/svg" xmlns:xlink="http://www.w3.org/1999/xlink" x="0px" y="0px"
	 viewBox="0 0 1000 1000" style="enable-background:new 0 0 1000 1000;" xml:space="preserve">
<style type="text/css">
	.st0{opacity:5.000000e-02;enable-background:new    ;}
	.st1{fill:#FACED2;}
	.st2{fill:url(#SVGID_1_);}
	.st3{fill:url(#SVGID_2_);}
	.st4{fill:#4F69B1;}
	.st5{fill:#161641;}
	.st6{fill:url(#SVGID_3_);}
	.st7{fill:#42317E;}
	.st8{fill:#FFFFFF;}
	.st9{fill:#779AF8;}
	.st10{fill:#566CD3;}
	.st11{fill:#AFD136;}
	.st12{fill:#D81B61;}
	.st13{fill:#B7B9F0;}
	.st14{fill:#5ECAE7;}
</style>
<title>Artboard 6</title>
<path class="st0" d="M837.8,887.6c0,14-62.6,25.4-139.9,25.4S558,901.6,558,887.6s62.6-25.4,139.9-25.4S837.8,873.6,837.8,887.6z"/>
<path class="st0" d="M516.7,883c0,16.6-76.6,30-171,30s-171-13.4-171-30s76.6-30,171-30S516.7,866.4,516.7,883z"/>
<path class="st1" d="M720.2,214.4c8.4,0,15.2-6.8,15.2-15.2c0-8.4-2.1-20.3-10.5-20.3l-17.3-25.1h-53.1c0,0-3,29.5,2.2,49.8
	c6.3,24.6,30.7,28.6,30.7,28.6v27.8h-11v34.5h58.2v-34.5h-14.3V214.4z"/>
<linearGradient id="SVGID_1_" gradientUnits="userSpaceOnUse" x1="633.2919" y1="632.16" x2="776.6636" y2="632.16" gradientTransform="matrix(1 0 0 -1 0 999)">
	<stop  offset="0" style="stop-color:#F05741"/>
	<stop  offset="0.36" style="stop-color:#EE3B50"/>
	<stop  offset="0.76" style="stop-color:#ED235C"/>
	<stop  offset="1" style="stop-color:#EC1A61"/>
</linearGradient>
<path class="st2" d="M761.3,259.9h-39.2L686,290.7l-0.5-30.8h-9.2c-25.9,0-31.9,15.2-37,39.2c0,0-15.4,49.2,3.1,146l2.3,28.7H775
	C775,473.8,783.7,259.9,761.3,259.9z"/>
<linearGradient id="SVGID_2_" gradientUnits="userSpaceOnUse" x1="607.1181" y1="121.6895" x2="717.2612" y2="532.7438" gradientTransform="matrix(1 0 0 -1 0 999)">
	<stop  offset="0" style="stop-color:#5ECAE7"/>
	<stop  offset="3.000000e-02" style="stop-color:#5BCAE6"/>
	<stop  offset="0.68" style="stop-color:#22C0D9"/>
	<stop  offset="1" style="stop-color:#0BBCD4"/>
</linearGradient>
<path class="st3" d="M644.6,473.8l-6.5,194.9l10.3,183.8l-47.7,13.7c0,0-4.9,10.3,4.4,10.3H678v-24L690.8,654l54.5-180.2
	L644.6,473.8z"/>
<path class="st4" d="M653.5,160.6l54-0.9V184h11.8c8.2,0,13.6,0.6,14,8.8c0.5,8.8-4.5,15.7-13.2,15.7v19.6
	c18.5-4.7,29.5-21.7,32.2-41.4c3.8-27.5-7.2-60.4-42.8-60.4h-14.1c-15.2,0-39.2,11-41.9,31.8V160.6z"/>
<path class="st5" d="M323.4,220.4v39.5h5.7c10.9,0,19.7-8.8,19.7-19.7c0,0,0,0,0,0h-10.6v-21.6C335.2,219.7,323.4,220.4,323.4,220.4
	z"/>
<path class="st1" d="M331.1,153.8L290.5,184c-8.4,0-14.6,3-15.2,9.3c-0.7,8.4,6.8,15.2,15.2,15.2v51.4l32.9,24v-51.8
	c5.9,0.2,29.1-3.5,32.1-24.3c2.2-15.4,0.8-34.2,0.8-34.2L331.1,153.8z"/>
<linearGradient id="SVGID_3_" gradientUnits="userSpaceOnUse" x1="352.4803" y1="574.53" x2="352.4803" y2="739.1" gradientTransform="matrix(1 0 0 -1 0 999)">
	<stop  offset="0" style="stop-color:#F05741"/>
	<stop  offset="0.36" style="stop-color:#EE3B50"/>
	<stop  offset="0.76" style="stop-color:#ED235C"/>
	<stop  offset="1" style="stop-color:#EC1A61"/>
</linearGradient>
<path class="st6" d="M447.1,291.2l-27,69.3l-33.2-68.7c-9.3-19.5-29-31.9-50.6-31.9h-13v24l-32.9-24h-30.2c-53,0-3,164.6-3,164.6
	h117l-2-78.2c0,0,24.7,52.8,42.1,56.6c15.1,3.2,25.1-8.8,33-30.8l21.9-68.8L447.1,291.2z"/>
<path class="st5" d="M290.5,232.1v-17.7c1.5-20.2-8.4-30.4,0-30.4c0,0,27.1,3.3,49.7-21.2c5.6,8.1,16.1,15.4,16.1,15.4
	c0-17.4-1.7-51.8-40.1-51.8H307c-39.6,0-48.7,36.8-48.7,60.4v53.5h-17c0,10.9,8.8,19.7,19.7,19.7h29.5L290.5,232.1z"/>
<path class="st7" d="M459.5,866.1l-41.9-7.8c0,0-31.5-407.9-43.4-433.8H257.2c-12,26-17.7,54.3-16.8,82.9l11,350.9v18.1h61.2
	l4.4-10.3l-41.9-7.8l36.2-351.8h7.7l74.7,351.8v18.1H455L459.5,866.1z"/>
<polygon class="st8" points="352.8,406.1 322.9,406.1 316.6,345.7 359,345.7 "/>
<rect x="313" y="336.1" class="st9" width="49.7" height="9.6"/>
<polygon class="st10" points="359,327.5 316.6,331.8 316.6,336.1 359,336.1 "/>
<path class="st11" d="M345.7,362.6c0,4.3-3.5,7.8-7.9,7.8c-4.3,0-7.8-3.5-7.8-7.9c0-4.3,3.5-7.8,7.8-7.8
	C342.2,354.7,345.7,358.2,345.7,362.6z"/>
<path class="st1" d="M303.5,382.1v24c0,0,32,10.7,36.3,2.1c3.8-7.6,2.3-6.3,2.3-18.4s-15.7-16.2-15.7-16.2L303.5,382.1z"/>
<path class="st1" d="M447.1,291.2l-2-21.6l19-12.8c5.4-3.6,12.3-3.8,17.9-0.6l6.2,3.6L469,303.2L447.1,291.2z"/>
<path class="st12" d="M264.6,309.3c-10,29.3-26.8,63-26.8,63l65.8,7.2v27.6c0,0-81.2,13-96.6-4.6s6.3-108,17-123.6
	s33-20.3,37.8-18.8C269.4,262.5,273,284.5,264.6,309.3z"/>
<path class="st12" d="M264.6,309.3c-10,29.3-26.8,63-26.8,63l65.8,7.2v27.6c0,0-81.2,13-96.6-4.6s6.3-108,17-123.6
	s33-20.3,37.8-18.8C269.4,262.5,273,284.5,264.6,309.3z"/>
<path class="st12" d="M761,309.8c15.5,26.8,38.6,56.5,38.6,56.5l-76.3,26.2v26.8c0,0,100.8-9.1,112.4-29.3s-27.2-104.6-40.8-118
	s-36.3-13.5-40.7-11.1C747.1,264.9,747.9,287.2,761,309.8z"/>
<polygon class="st8" points="704,424.7 674.4,428.7 660,369.7 702,364 "/>
<rect x="655.5" y="357.3" transform="matrix(0.9908 -0.135 0.135 0.9908 -42.6626 95.1816)" class="st9" width="49.7" height="9.6"/>
<path class="st11" d="M691.1,382.5c0.6,4.3-2.4,8.3-6.7,8.8s-8.3-2.4-8.8-6.7c-0.6-4.3,2.4-8.2,6.7-8.8
	C686.5,375.2,690.5,378.2,691.1,382.5z"/>
<path class="st13" d="M680,336.2l2.8,20.7l-6.2,0.9l-2.8-20.7c-10.1,2.9-16.5,12.7-15.1,23.1l42-5.7
	C699.3,344.1,690.5,336.4,680,336.2z"/>
<polygon class="st8" points="670.8,315 673.8,337.1 676.6,357.8 682.8,356.9 680,336.2 677,314.1 "/>
<polygon class="st1" points="730,393.6 731,418.8 687.9,417.2 688.3,392.7 702.7,384 702.4,376.2 714.6,376.8 "/>
<circle class="st4" cx="749.8" cy="132.6" r="27.6"/>
<path class="st14" d="M656.5,473.8l44.9,201.3l65.7,168.2l-42.7,25.4c0,0-1.6,14.2,7.4,11.8l64.8-17.1l-6.6-26.2L746,632.9
	l27.9-159.1H656.5z"/>
<path class="st1" d="M290.5,184c-8.4,0-13.5,3.6-14,10c-0.7,8.4,5.6,14.5,14,14.5l19-2.1L290.5,184z"/>
</svg>
