<svg id="Layer_1" data-name="Layer 1" xmlns="http://www.w3.org/2000/svg" viewBox="0 0 1000 1000"><defs><style>.cls-1{fill:#faf7fa;}.cls-2{fill:#f1eff2;}</style></defs><title>talking</title><path class="cls-1" d="M628.36,924.56c-12.66-10.93-62.58-64,15.54-112.18,85.72-52.93,125.55-359.55-292.84-301.47-168.79,23.44-268.62,87-282.47,171.83-12.09,74,41.6,134.51,70.76,154.72C176.7,863.35,240.69,883.23,305,881.41c101.41-2.85,207.52-35.43,240.64.87C568.52,907.32,596.72,924.56,628.36,924.56Z"/><path class="cls-2" d="M291.23,654.21c19.56-22.48,54.8-83.46-42.87-125.08C48.66,444-34.95,153.21,379.24,70.39c181.26-36.24,500.43,15.93,552.2,148,30.93,78.86.81,238.16-145,289.94C676.16,547.47,470,534.13,404,580,377.21,598.55,344.19,653.4,291.23,654.21Z"/></svg>