<svg id="Layer_1" data-name="Layer 1" xmlns="http://www.w3.org/2000/svg" xmlns:xlink="http://www.w3.org/1999/xlink" viewBox="0 0 1000 1000"><defs><style>.cls-1{opacity:0.15;}.cls-2{fill:#faced2;}.cls-3{fill:url(#linear-gradient);}.cls-4{fill:url(#linear-gradient-2);}.cls-5{fill:#4f69b1;}.cls-6{fill:#161641;}.cls-7{fill:url(#linear-gradient-3);}.cls-8{fill:#42317e;}.cls-9{fill:#fff;}.cls-10{fill:#779af8;}.cls-11{fill:#566cd3;}.cls-12{fill:#afd136;}.cls-13{fill:#d81b61;}.cls-14{fill:#b7b9f0;}.cls-15{fill:#5ecae7;}</style><linearGradient id="linear-gradient" x1="633.26" y1="366.83" x2="776.68" y2="366.83" gradientUnits="userSpaceOnUse"><stop offset="0" stop-color="#f05741"/><stop offset="0.36" stop-color="#ee3b50"/><stop offset="0.76" stop-color="#ed235c"/><stop offset="1" stop-color="#ec1a61"/></linearGradient><linearGradient id="linear-gradient-2" x1="607.11" y1="877.31" x2="717.26" y2="466.23" gradientUnits="userSpaceOnUse"><stop offset="0" stop-color="#5ecae7"/><stop offset="0.03" stop-color="#5bcae6"/><stop offset="0.68" stop-color="#22c0d9"/><stop offset="1" stop-color="#0bbcd4"/></linearGradient><linearGradient id="linear-gradient-3" x1="352.47" y1="424.47" x2="352.47" y2="259.9" xlink:href="#linear-gradient"/></defs><title>Artboard 6</title><path class="cls-1" d="M837.81,887.61c0,14-62.64,25.39-139.9,25.39S558,901.63,558,887.61s62.63-25.4,139.89-25.4S837.81,873.58,837.81,887.61Z"/><path class="cls-1" d="M516.73,883c0,16.57-76.58,30-171,30s-171-13.44-171-30,76.58-30,171-30S516.73,866.42,516.73,883Z"/><path class="cls-2" d="M720.22,214.35a15.19,15.19,0,0,0,15.18-15.19c0-8.38-2.12-20.28-10.51-20.28l-17.33-25.13H654.41s-3,29.51,2.2,49.76c6.34,24.63,30.71,28.55,30.71,28.55V259.9h-11v34.53h58.16V259.9H720.22Z"/><path class="cls-3" d="M761.27,259.9H722.06L686,290.74l-.46-30.84h-9.25c-25.87,0-31.88,15.25-37,39.17,0,0-15.36,49.16,3.08,146l2.27,28.71H775S783.71,259.9,761.27,259.9Z"/><path class="cls-4" d="M644.61,473.76l-6.55,194.86,10.3,183.82L600.64,866.1s-4.86,10.31,4.42,10.31H678v-24L690.8,654l54.54-180.22Z"/><path class="cls-5" d="M653.54,160.55l54-.94V184h11.8c8.22,0,13.62.61,14,8.82.45,8.76-4.54,15.69-13.19,15.69v19.65c18.49-4.74,29.45-21.66,32.18-41.45,3.8-27.49-7.19-60.42-42.84-60.42H695.42c-15.18,0-39.18,11-41.88,31.84Z"/><path class="cls-6" d="M323.36,220.35V259.9h5.7a19.72,19.72,0,0,0,19.73-19.72H338.16V218.6C335.21,219.67,323.36,220.35,323.36,220.35Z"/><path class="cls-2" d="M331.11,153.83,290.46,184c-8.38,0-14.64,3-15.18,9.33-.72,8.35,6.8,15.18,15.18,15.18V259.9l32.9,24V232.06c5.92.19,29.11-3.47,32.14-24.33,2.24-15.35.77-34.25.77-34.25Z"/><path class="cls-7" d="M447.06,291.21l-27,69.28-33.16-68.66a56.1,56.1,0,0,0-50.61-31.93h-13v24l-32.9-24h-30.2c-53,0-3,164.57-3,164.57H374.16l-2-78.19s24.7,52.84,42.1,56.56c15.14,3.24,25.15-8.82,33-30.79l21.87-68.8Z"/><path class="cls-6" d="M290.46,232.06V214.35c1.47-20.18-8.38-30.37,0-30.37,0,0,27.1,3.3,49.68-21.24,5.62,8.06,16.13,15.38,16.13,15.38,0-17.45-1.73-51.85-40.14-51.85H307c-39.58,0-48.7,36.76-48.7,60.42v53.49h-17A19.73,19.73,0,0,0,261,259.9h29.45Z"/><path class="cls-8" d="M459.45,866.1l-41.86-7.8s-31.48-407.88-43.43-433.83H257.24a183.86,183.86,0,0,0-16.76,82.89l11,350.94v18.11H312.7l4.43-10.31-41.86-7.8,36.19-351.75h7.69L393.83,858.3v18.11H455Z"/><polygon class="cls-9" points="352.76 406.08 322.92 406.08 316.64 345.68 359.04 345.68 352.76 406.08"/><rect class="cls-10" x="312.97" y="336.12" width="49.73" height="9.56"/><polygon class="cls-11" points="359.04 327.48 316.64 331.8 316.64 336.12 359.04 336.12 359.04 327.48"/><path class="cls-12" d="M345.69,362.56a7.85,7.85,0,1,1-7.85-7.86A7.86,7.86,0,0,1,345.69,362.56Z"/><path class="cls-2" d="M303.55,382.09v24s32,10.72,36.31,2.12c3.78-7.59,2.26-6.32,2.26-18.35s-15.7-16.23-15.7-16.23Z"/><path class="cls-2" d="M447.06,291.21l-2-21.59,19-12.75a16.87,16.87,0,0,1,17.93-.56l6.16,3.59-19.13,43.35Z"/><path class="cls-13" d="M264.56,309.32c-10,29.29-26.81,63-26.81,63l65.8,7.23v27.64s-81.18,13-96.56-4.58S213.31,294.64,224,279s33-20.27,37.76-18.79C269.41,262.55,273,284.55,264.56,309.32Z"/><path class="cls-13" d="M264.56,309.32c-10,29.29-26.81,63-26.81,63l65.8,7.23v27.64s-81.18,13-96.56-4.58S213.31,294.64,224,279s33-20.27,37.76-18.79C269.41,262.55,273,284.55,264.56,309.32Z"/><path class="cls-13" d="M761,309.84c15.49,26.79,38.57,56.54,38.57,56.54l-76.35,26.2V419.4S824,410.34,835.66,390.1s-27.25-104.65-40.76-118-36.3-13.45-40.7-11.07C747.13,264.91,747.91,287.19,761,309.84Z"/><polygon class="cls-9" points="703.96 424.66 674.39 428.69 660.01 369.7 702.02 363.97 703.96 424.66"/><rect class="cls-10" x="655.51" y="357.31" width="49.73" height="9.56" transform="translate(-42.67 95.2) rotate(-7.76)"/><path class="cls-12" d="M691.08,382.49a7.85,7.85,0,1,1-8.84-6.72A7.86,7.86,0,0,1,691.08,382.49Z"/><path class="cls-14" d="M680,336.24l2.82,20.69-6.22.85-2.82-20.69a21.13,21.13,0,0,0-15.08,23.13l42-5.72A21.14,21.14,0,0,0,680,336.24Z"/><polygon class="cls-9" points="670.78 314.99 673.8 337.09 676.62 357.78 682.84 356.93 680.02 336.24 677.01 314.14 670.78 314.99"/><polygon class="cls-2" points="729.97 393.58 730.98 418.8 687.88 417.2 688.28 392.73 702.66 384.01 702.42 376.22 714.62 376.76 729.97 393.58"/><circle class="cls-5" cx="749.79" cy="132.56" r="27.56" transform="translate(125.87 569.01) rotate(-45)"/><path class="cls-15" d="M656.5,473.76l44.94,201.33,65.74,168.23-42.65,25.4s-1.57,14.22,7.41,11.85l64.83-17.13-6.62-26.19L746,632.87l27.94-159.11Z"/><path class="cls-2" d="M290.46,184c-8.38,0-13.48,3.64-14,10-.72,8.35,5.64,14.5,14,14.5l19.05-2.14Z"/></svg>