<?xml version="1.0" encoding="utf-8"?>
<!-- Generator: Adobe Illustrator 22.1.0, SVG Export Plug-In . SVG Version: 6.00 Build 0)  -->
<svg version="1.1" id="Layer_1" xmlns="http://www.w3.org/2000/svg" xmlns:xlink="http://www.w3.org/1999/xlink" x="0px" y="0px"
	 viewBox="0 0 1000 1000" style="enable-background:new 0 0 1000 1000;" xml:space="preserve">
<style type="text/css">
	.st0{opacity:0.6;fill:url(#SVGID_1_);enable-background:new    ;}
	.st1{fill:#0BBCD4;}
	.st2{opacity:0.5;fill:#FFFFFF;enable-background:new    ;}
	.st3{fill:#302A64;}
	.st4{fill:#0B0A35;}
	.st5{fill:url(#SVGID_2_);}
	.st6{fill:#3D3D7C;}
</style>
<title>ufo-middle</title>
<linearGradient id="SVGID_1_" gradientUnits="userSpaceOnUse" x1="378.7166" y1="928.1146" x2="679.9877" y2="100.3791">
	<stop  offset="0" style="stop-color:#F05741;stop-opacity:0.2"/>
	<stop  offset="1" style="stop-color:#FDFF15"/>
</linearGradient>
<path class="st0" d="M222.5,320.4C394.1,241.2,570.1,58,642.3,86.7c36,14.3,100.6,81,160.9,256.3c39.2,114,178,167.1,107.5,422.4
	s-489.4,267.7-714.2,45.2S50.9,399.6,222.5,320.4z"/>
<path class="st1" d="M669.1,57.1c-2.6,8-11.3,12.4-19.3,9.7c-8-2.6-12.4-11.3-9.7-19.3c0.1-0.3,0.2-0.7,0.4-1
	c2.9-7.9,11.7-11.9,19.6-9C668,40.4,672,49.2,669.1,57.1L669.1,57.1z"/>
<path class="st2" d="M656,43.5c-0.6,1.6-2.3,2.4-3.9,1.8c-1.6-0.6-2.4-2.3-1.8-3.9c0.6-1.6,2.3-2.4,3.9-1.8
	C655.7,40.1,656.6,41.9,656,43.5C656,43.5,656,43.5,656,43.5z"/>
<path class="st3" d="M670.4,55.2l-29.5-10.9c-1.3-0.5-2.7,0.2-3.2,1.5c0,0,0,0,0,0l-1.6,4.4l34.3,12.7l1.6-4.5
	C672.4,57.1,671.7,55.7,670.4,55.2C670.4,55.2,670.4,55.2,670.4,55.2z"/>
<path class="st4" d="M671.7,58.9l-34.2-12.7c-1.5-0.6-3.2,0.2-3.8,1.7c0,0,0,0,0,0l-2,5.5l39.7,14.7l2-5.5
	C673.9,61.2,673.2,59.5,671.7,58.9z"/>
<linearGradient id="SVGID_2_" gradientUnits="userSpaceOnUse" x1="4422.4487" y1="-3918.2803" x2="4419.7832" y2="-3887.366" gradientTransform="matrix(0.6859 0.5095 0.5151 -0.4706 -365.8728 -4019.6072)">
	<stop  offset="0" style="stop-color:#F9EC23"/>
	<stop  offset="1" style="stop-color:#FFCB29"/>
</linearGradient>
<path class="st5" d="M625.1,77.3c1.9-5.1,11.5-6.3,21.4-2.6c9.9,3.7,16.5,10.8,14.6,15.9s-11.5,6.3-21.4,2.6
	C629.7,89.5,623.2,82.4,625.1,77.3z"/>
<path class="st4" d="M624.7,81.1l34.1,12.6c1.5,0.6,3.2-0.2,3.7-1.6c0,0,0-0.1,0-0.1l1.9-5.1l-39.6-14.6l-1.9,5.1
	C622.4,78.9,623.1,80.6,624.7,81.1C624.7,81.1,624.7,81.1,624.7,81.1z"/>
<path class="st6" d="M647.8,70.1l-52.3-19.3c0,0,14.8,20.6,47.6,32.7l0,0l0,0l0,0l0,0l0,0c32.8,12.1,57.4,6.1,57.4,6.1l-52.3-19.3
	L647.8,70.1z"/>
<path class="st6" d="M648.7,69.2l54.2,20.1c0,0-1.6-16.1-35.5-28.7l-13.6-5l-0.5-0.2l-13.6-5c-33.9-12.6-45.7-1.3-45.7-1.3l54.2,20
	L648.7,69.2z"/>
<path class="st3" d="M702.4,83.5c-0.3-0.2-0.5-0.4-0.8-0.5L599,45.1l-0.4-0.1c-2.9-1.4-6.5-0.2-7.9,2.8c-1.4,2.9-0.2,6.5,2.8,7.9
	c0.4,0.2,0.7,0.3,1.1,0.4c0.1,0.1,0.2,0.1,0.3,0.2l101.7,37.6c0.9,0.5,1.8,0.7,2.8,0.7c3.3,0,5.9-2.6,5.9-5.9
	C705.4,86.5,704.2,84.6,702.4,83.5L702.4,83.5z"/>
</svg>
