<svg id="Layer_1" data-name="Layer 1" xmlns="http://www.w3.org/2000/svg" xmlns:xlink="http://www.w3.org/1999/xlink" viewBox="0 0 1000 1000"><defs><style>.cls-1,.cls-3,.cls-4{fill:#fff;}.cls-1{opacity:0.05;}.cls-2{fill:#3bf7ff;}.cls-3{opacity:0.3;}.cls-4{opacity:0.5;}.cls-5{fill:#4f69b1;}.cls-6{fill:#435a99;}.cls-7{fill:url(#linear-gradient);}.cls-8{fill:url(#linear-gradient-2);}.cls-9{fill:url(#linear-gradient-3);}.cls-10{fill:url(#linear-gradient-4);}.cls-11{fill:url(#linear-gradient-5);}.cls-12{fill:url(#linear-gradient-6);}.cls-13{fill:url(#linear-gradient-7);}.cls-14{fill:url(#linear-gradient-8);}.cls-15{fill:url(#linear-gradient-9);}.cls-16{fill:url(#linear-gradient-10);}.cls-17{fill:url(#linear-gradient-11);}.cls-18{fill:url(#linear-gradient-12);}.cls-19{fill:url(#linear-gradient-13);}.cls-20{fill:url(#linear-gradient-14);}.cls-21{fill:url(#linear-gradient-15);}.cls-22{fill:url(#linear-gradient-16);}.cls-23{fill:url(#linear-gradient-17);}.cls-24{fill:url(#linear-gradient-18);}.cls-25{fill:url(#linear-gradient-19);}.cls-26{fill:url(#linear-gradient-20);}.cls-27{fill:url(#linear-gradient-21);}.cls-28{fill:#ae1e59;}</style><linearGradient id="linear-gradient" x1="4466.52" y1="5089.69" x2="4464.4" y2="5065.1" gradientTransform="matrix(-0.24, 0.82, -0.62, -0.32, 4822.46, -1832.81)" gradientUnits="userSpaceOnUse"><stop offset="0" stop-color="#f9ec23"/><stop offset="1" stop-color="#ffcb29"/></linearGradient><linearGradient id="linear-gradient-2" x1="3857.35" y1="2733.14" x2="3857.35" y2="2733.13" gradientTransform="matrix(0.74, 0.67, -0.67, 0.74, -447.55, -4440.37)" gradientUnits="userSpaceOnUse"><stop offset="0" stop-color="#f05741"/><stop offset="0.36" stop-color="#ee3b50"/><stop offset="0.76" stop-color="#ed235c"/><stop offset="1" stop-color="#ec1a61"/></linearGradient><linearGradient id="linear-gradient-3" x1="3857.2" y1="2733.22" x2="3857.18" y2="2733.18" xlink:href="#linear-gradient-2"/><linearGradient id="linear-gradient-4" x1="3857" y1="2733.28" x2="3857" y2="2733.27" xlink:href="#linear-gradient-2"/><linearGradient id="linear-gradient-5" x1="3854.35" y1="2734.35" x2="3854.33" y2="2734.31" xlink:href="#linear-gradient-2"/><linearGradient id="linear-gradient-6" x1="3855.22" y1="2734.04" x2="3855.16" y2="2733.94" xlink:href="#linear-gradient-2"/><linearGradient id="linear-gradient-7" x1="3856.54" y1="2733.53" x2="3856.47" y2="2733.41" xlink:href="#linear-gradient-2"/><linearGradient id="linear-gradient-8" x1="3855.83" y1="2733.78" x2="3855.79" y2="2733.71" xlink:href="#linear-gradient-2"/><linearGradient id="linear-gradient-9" x1="3853.98" y1="2734.51" x2="3853.95" y2="2734.45" xlink:href="#linear-gradient-2"/><linearGradient id="linear-gradient-10" x1="3854.76" y1="2734.17" x2="3854.75" y2="2734.16" xlink:href="#linear-gradient-2"/><linearGradient id="linear-gradient-11" x1="3854.53" y1="2734.25" x2="3854.53" y2="2734.25" xlink:href="#linear-gradient-2"/><linearGradient id="linear-gradient-12" x1="3854.61" y1="2734.23" x2="3854.6" y2="2734.21" xlink:href="#linear-gradient-2"/><linearGradient id="linear-gradient-13" x1="3854.54" y1="2734.25" x2="3854.54" y2="2734.25" xlink:href="#linear-gradient-2"/><linearGradient id="linear-gradient-14" x1="3850.06" y1="2722.55" x2="3854.36" y2="2734.36" xlink:href="#linear-gradient-2"/><linearGradient id="linear-gradient-15" x1="3854.5" y1="2734.27" x2="3854.5" y2="2734.26" xlink:href="#linear-gradient-2"/><linearGradient id="linear-gradient-16" x1="3853.6" y1="2734.64" x2="3853.58" y2="2734.61" xlink:href="#linear-gradient-2"/><linearGradient id="linear-gradient-17" x1="3852.75" y1="2734.98" x2="3852.73" y2="2734.95" xlink:href="#linear-gradient-2"/><linearGradient id="linear-gradient-18" x1="3852.14" y1="2735.23" x2="3852.11" y2="2735.18" xlink:href="#linear-gradient-2"/><linearGradient id="linear-gradient-19" x1="3853.17" y1="2734.84" x2="3853.13" y2="2734.76" xlink:href="#linear-gradient-2"/><linearGradient id="linear-gradient-20" x1="3852.49" y1="2735.09" x2="3852.47" y2="2735.05" xlink:href="#linear-gradient-2"/><linearGradient id="linear-gradient-21" x1="3846.03" y1="2711.55" x2="3850.57" y2="2724.03" xlink:href="#linear-gradient-2"/></defs><title>ufo-middle</title><path class="cls-1" d="M206.46,399.44c68-86.45,330.15-247.69,387.61-224.84C642,193.67,860.51,516.92,838.14,695.86c-16.5,132-416.14,242.08-598.68,54.58C163.63,669.55,117.06,513.08,206.46,399.44Z"/><path class="cls-2" d="M615.37,148.18a12.14,12.14,0,1,1-22.76-8.41,12.13,12.13,0,0,1,22.76,8.41Z"/><path class="cls-3" d="M595.38,135.43a12.8,12.8,0,0,0,2.14,1,12.13,12.13,0,0,0,12.81-2.83,13.09,13.09,0,0,0-2.13-1A12.13,12.13,0,0,0,595.38,135.43Z"/><path class="cls-4" d="M604.91,137.32a2.42,2.42,0,1,1-1.43-3.11A2.41,2.41,0,0,1,604.91,137.32Z"/><path class="cls-5" d="M616.35,146.66,592.85,138a2,2,0,0,0-2.58,1.19L589,142.69l27.28,10.09,1.3-3.54A2,2,0,0,0,616.35,146.66Z"/><path class="cls-6" d="M617.38,149.63l-27.24-10.07a2.33,2.33,0,0,0-3,1.38l-1.63,4.4L617.12,157l1.63-4.4A2.33,2.33,0,0,0,617.38,149.63Z"/><ellipse class="cls-7" cx="594.63" cy="169.52" rx="7.83" ry="15.25" transform="translate(229.43 668.46) rotate(-69.71)"/><path class="cls-5" d="M580,167.29l27.12,10a2.3,2.3,0,0,0,3-1.37l1.51-4.07-31.47-11.64-1.5,4.08A2.32,2.32,0,0,0,580,167.29Z"/><path class="cls-8" d="M597.38,170.19s0,0,0,0Z"/><path class="cls-9" d="M597.09,170.08l.29.11Z"/><path class="cls-10" d="M597,170.05l.09,0Z"/><path class="cls-11" d="M594.51,169.12l-.29-.1Z"/><path class="cls-12" d="M594.85,169.25l.74.27Z"/><path class="cls-13" d="M596.1,169.71l.9.34Z"/><path class="cls-14" d="M595.59,169.52c.16.07.34.13.51.19Z"/><path class="cls-15" d="M594.22,169l-.47-.18Z"/><path class="cls-16" d="M594.72,169.2l.13.05Z"/><path class="cls-17" d="M594.56,169.15h0Z"/><path class="cls-18" d="M594.64,169.17h0l-.06,0h0Z"/><path class="cls-19" d="M594.59,169.15h0Z"/><path class="cls-20" d="M598.38,158.54,556.8,143.17s11.79,16.37,37.87,26h0l0,0h0s0,0,0,0l0,0c26.07,9.65,45.69,4.88,45.69,4.88l-41.59-15.37Z"/><path class="cls-21" d="M594.51,169.12l0,0h0Z"/><path class="cls-22" d="M593.75,168.84l-.28-.1Z"/><path class="cls-23" d="M592.86,168.51l-.23-.08Z"/><path class="cls-24" d="M592.34,168.32Z"/><path class="cls-25" d="M593.47,168.74l-.61-.23Z"/><path class="cls-26" d="M592.63,168.43l-.29-.11Z"/><path class="cls-27" d="M599.13,157.75l43.12,15.95S641,160.86,614,150.86l-10.81-4-.41-.15-10.8-4c-27-10-36.34-1.06-36.34-1.06l43.12,15.94Z"/><path class="cls-28" d="M641.8,169.17a2.53,2.53,0,0,0-.66-.38l-81.51-30.14-.28-.07a4.71,4.71,0,1,0-3.23,8.8,1.79,1.79,0,0,0,.24.12l80.87,29.9a4.68,4.68,0,0,0,2.23.58,4.71,4.71,0,0,0,2.34-8.81Z"/></svg>