<svg id="Layer_1" data-name="Layer 1" xmlns="http://www.w3.org/2000/svg" xmlns:xlink="http://www.w3.org/1999/xlink" viewBox="0 0 1000 1000"><defs><style>.cls-1{fill:url(#linear-gradient);}.cls-2{fill:#3bf7ff;}.cls-3,.cls-30,.cls-4{fill:#fff;}.cls-3{opacity:0.3;}.cls-4{opacity:0.5;}.cls-5{fill:#4f69b1;}.cls-6{fill:#435a99;}.cls-7{fill:url(#linear-gradient-2);}.cls-8{fill:url(#linear-gradient-3);}.cls-9{fill:url(#linear-gradient-4);}.cls-10{fill:url(#linear-gradient-5);}.cls-11{fill:url(#linear-gradient-6);}.cls-12{fill:url(#linear-gradient-7);}.cls-13{fill:url(#linear-gradient-8);}.cls-14{fill:url(#linear-gradient-9);}.cls-15{fill:url(#linear-gradient-10);}.cls-16{fill:url(#linear-gradient-11);}.cls-17{fill:url(#linear-gradient-12);}.cls-18{fill:url(#linear-gradient-13);}.cls-19{fill:url(#linear-gradient-14);}.cls-20{fill:url(#linear-gradient-15);}.cls-21{fill:url(#linear-gradient-16);}.cls-22{fill:url(#linear-gradient-17);}.cls-23{fill:url(#linear-gradient-18);}.cls-24{fill:url(#linear-gradient-19);}.cls-25{fill:url(#linear-gradient-20);}.cls-26{fill:url(#linear-gradient-21);}.cls-27{fill:url(#linear-gradient-22);}.cls-28{fill:#ae1e59;}.cls-29{fill:#42317e;}</style><linearGradient id="linear-gradient" x1="517.32" y1="181.36" x2="578.45" y2="880.09" gradientUnits="userSpaceOnUse"><stop offset="0" stop-color="#fff356"/><stop offset="0.06" stop-color="#feec55"/><stop offset="0.15" stop-color="#fcd853"/><stop offset="0.25" stop-color="#f9b74f"/><stop offset="0.37" stop-color="#f58a4a"/><stop offset="0.47" stop-color="#f05a44"/><stop offset="1" stop-color="#2d1a53" stop-opacity="0"/></linearGradient><linearGradient id="linear-gradient-2" x1="161.36" y1="1093.43" x2="157.31" y2="1046.48" gradientTransform="matrix(0.82, 0.24, -0.32, 0.62, 554.58, -502.48)" gradientUnits="userSpaceOnUse"><stop offset="0" stop-color="#f9ec23"/><stop offset="1" stop-color="#ffcb29"/></linearGradient><linearGradient id="linear-gradient-3" x1="343.31" y1="194.6" x2="343.31" y2="194.59" gradientUnits="userSpaceOnUse"><stop offset="0" stop-color="#f05741"/><stop offset="0.36" stop-color="#ee3b50"/><stop offset="0.76" stop-color="#ed235c"/><stop offset="1" stop-color="#ec1a61"/></linearGradient><linearGradient id="linear-gradient-4" x1="343.02" y1="194.75" x2="342.98" y2="194.68" xlink:href="#linear-gradient-3"/><linearGradient id="linear-gradient-5" x1="342.65" y1="194.87" x2="342.63" y2="194.84" xlink:href="#linear-gradient-3"/><linearGradient id="linear-gradient-6" x1="337.58" y1="196.91" x2="337.54" y2="196.83" xlink:href="#linear-gradient-3"/><linearGradient id="linear-gradient-7" x1="339.23" y1="196.32" x2="339.12" y2="196.13" xlink:href="#linear-gradient-3"/><linearGradient id="linear-gradient-8" x1="341.77" y1="195.34" x2="341.64" y2="195.11" xlink:href="#linear-gradient-3"/><linearGradient id="linear-gradient-9" x1="340.41" y1="195.82" x2="340.33" y2="195.69" xlink:href="#linear-gradient-3"/><linearGradient id="linear-gradient-10" x1="336.88" y1="197.21" x2="336.81" y2="197.09" xlink:href="#linear-gradient-3"/><linearGradient id="linear-gradient-11" x1="338.37" y1="196.57" x2="338.35" y2="196.54" xlink:href="#linear-gradient-3"/><linearGradient id="linear-gradient-12" x1="337.93" y1="196.72" x2="337.93" y2="196.72" xlink:href="#linear-gradient-3"/><linearGradient id="linear-gradient-13" x1="338.08" y1="196.68" x2="338.06" y2="196.65" xlink:href="#linear-gradient-3"/><linearGradient id="linear-gradient-14" x1="337.95" y1="196.72" x2="337.95" y2="196.71" xlink:href="#linear-gradient-3"/><linearGradient id="linear-gradient-15" x1="329.39" y1="174.38" x2="337.6" y2="196.92" xlink:href="#linear-gradient-3"/><linearGradient id="linear-gradient-16" x1="337.88" y1="196.75" x2="337.87" y2="196.74" xlink:href="#linear-gradient-3"/><linearGradient id="linear-gradient-17" x1="336.16" y1="197.47" x2="336.12" y2="197.4" xlink:href="#linear-gradient-3"/><linearGradient id="linear-gradient-18" x1="334.52" y1="198.11" x2="334.49" y2="198.05" xlink:href="#linear-gradient-3"/><linearGradient id="linear-gradient-19" x1="333.37" y1="198.6" x2="333.31" y2="198.49" xlink:href="#linear-gradient-3"/><linearGradient id="linear-gradient-20" x1="335.34" y1="197.85" x2="335.25" y2="197.69" xlink:href="#linear-gradient-3"/><linearGradient id="linear-gradient-21" x1="334.03" y1="198.31" x2="333.99" y2="198.24" xlink:href="#linear-gradient-3"/><linearGradient id="linear-gradient-22" x1="321.7" y1="153.39" x2="330.37" y2="177.21" xlink:href="#linear-gradient-3"/></defs><title>ufo</title><path class="cls-1" d="M364.75,194.71l-47.65,18.4L403.72,848.3c0,14.31,83.93,25.92,187.47,25.92s187.47-11.61,187.47-25.92Z"/><path class="cls-2" d="M340.77,140.41c4.71,11.89-.87,25.94-12.76,30.66s-25.59-1.7-30.3-13.59a23.16,23.16,0,0,1,43.06-17.07Z"/><path class="cls-3" d="M296.11,147.77a22.35,22.35,0,0,0,4.35-1.25,23.15,23.15,0,0,0,14.59-20.35,23.19,23.19,0,0,0-18.94,21.6Z"/><path class="cls-4" d="M312.07,138.31a4.63,4.63,0,1,1-6-2.59A4.62,4.62,0,0,1,312.07,138.31Z"/><path class="cls-5" d="M340.23,137l-44.47,17.62a3.84,3.84,0,0,0-2.15,5l2.65,6.68,51.6-20.45-2.65-6.68A3.83,3.83,0,0,0,340.23,137Z"/><path class="cls-6" d="M345.47,139.91l-51.53,20.42a4.45,4.45,0,0,0-2.49,5.77l3.3,8.33,59.79-23.7-3.31-8.33A4.43,4.43,0,0,0,345.47,139.91Z"/><ellipse class="cls-7" cx="338.51" cy="197.16" rx="29.11" ry="14.94" transform="translate(-48.83 138.59) rotate(-21.62)"/><path class="cls-5" d="M314.82,212.7l51.31-20.34a4.42,4.42,0,0,0,2.48-5.74l-3.05-7.71L306,202.51l3.05,7.71A4.42,4.42,0,0,0,314.82,212.7Z"/><path class="cls-8" d="M343.27,194.6Z"/><path class="cls-9" d="M342.73,194.82l.54-.22Z"/><path class="cls-10" d="M342.55,194.89l.18-.07Z"/><path class="cls-11" d="M337.83,196.76l-.55.22Z"/><path class="cls-12" d="M338.48,196.51l1.4-.56Z"/><path class="cls-13" d="M340.85,195.56l1.7-.67Z"/><path class="cls-14" d="M339.88,196l1-.39Z"/><path class="cls-15" d="M337.28,197l-.88.35Z"/><path class="cls-16" d="M338.23,196.6l.25-.09Z"/><path class="cls-17" d="M337.94,196.72h0Z"/><path class="cls-18" d="M338.09,196.66h0l-.12,0,0,0-.06,0h0l.08,0h0l.05,0,.08,0-.05,0Z"/><path class="cls-19" d="M338,196.7l-.08,0,.06,0Z"/><path class="cls-20" d="M329.84,176.79,251.17,208s37.64,8.22,87-11.33h0l.06,0h0l0,0h0l-.07,0c49.34-19.55,71.12-51.33,71.12-51.33l-78.67,31.18Z"/><path class="cls-21" d="M337.83,196.76l.09,0h0Z"/><path class="cls-22" d="M336.4,197.33l-.53.21Z"/><path class="cls-23" d="M334.72,198l-.43.16Z"/><path class="cls-24" d="M333.73,198.39Z"/><path class="cls-25" d="M335.87,197.54l-1.15.46Z"/><path class="cls-26" d="M334.29,198.16l-.56.23Z"/><path class="cls-27" d="M329.9,174.71l81.59-32.33s-18.15-16.63-69.31,3.64l-20.44,8.1-.77.31-20.44,8.1c-51.17,20.28-53,44.82-53,44.82L329.13,175Z"/><path class="cls-28" d="M409.88,139.51a4.78,4.78,0,0,1-2.69,6.22L253,206.86a4.79,4.79,0,0,1-6.22-2.69h0a4.78,4.78,0,0,1,2.69-6.22l154.22-61.12a4.78,4.78,0,0,1,6.22,2.68Z"/><path class="cls-28" d="M413,147.33a4.8,4.8,0,0,1-2.69,6.23L256.07,214.68a4.79,4.79,0,0,1-6.22-2.69h0a4.79,4.79,0,0,1,2.68-6.22l154.23-61.12a4.78,4.78,0,0,1,6.22,2.68Z"/><path class="cls-29" d="M416.15,141.55a5,5,0,0,1-2.86,6.53L250.13,212.74a5,5,0,0,1-6.56-2.79h0a5.05,5.05,0,0,1,2.87-6.53L409.6,138.76a5,5,0,0,1,6.55,2.79Z"/><path class="cls-30" d="M253,206.22a2.7,2.7,0,1,1-3.51-1.52A2.7,2.7,0,0,1,253,206.22Z"/><path class="cls-30" d="M278.67,195.75a2.7,2.7,0,1,1-3.51-1.52A2.7,2.7,0,0,1,278.67,195.75Z"/><path class="cls-30" d="M306.19,185a2.7,2.7,0,1,1-3.51-1.52A2.7,2.7,0,0,1,306.19,185Z"/><path class="cls-30" d="M335.46,173.43a2.71,2.71,0,1,1-3.52-1.52A2.7,2.7,0,0,1,335.46,173.43Z"/><path class="cls-30" d="M363,162.61a2.71,2.71,0,1,1-3.52-1.52A2.7,2.7,0,0,1,363,162.61Z"/><path class="cls-30" d="M387.49,152.91A2.71,2.71,0,1,1,384,151.4,2.71,2.71,0,0,1,387.49,152.91Z"/><path class="cls-30" d="M411.94,143.22a2.71,2.71,0,1,1-3.51-1.52A2.71,2.71,0,0,1,411.94,143.22Z"/></svg>