<?xml version="1.0" encoding="utf-8"?>
<!-- Generator: Adobe Illustrator 21.1.0, SVG Export Plug-In . SVG Version: 6.00 Build 0)  -->
<svg version="1.1" id="Layer_1" xmlns="http://www.w3.org/2000/svg" xmlns:xlink="http://www.w3.org/1999/xlink" x="0px" y="0px"
	 viewBox="0 0 2500 2500" style="enable-background:new 0 0 2500 2500;" xml:space="preserve">
<style type="text/css">
	.st0{fill:none;}
	.st1{fill:#E44D26;}
	.st2{fill:#F16529;}
	.st3{fill:#EBEBEB;}
	.st4{fill:#FFFFFF;}
</style>
<path class="st0" d="M0,0h2500v2500H0V0z"/>
<path class="st1" d="M2024.9,589.2L1883.7,2171l-634.7,176l-632.9-175.7l-141.1-1582H2024.9L2024.9,589.2z"/>
<path class="st2" d="M1250,2212.4l512.9-142.2l120.7-1351.7H1250V2212.4z"/>
<path class="st3" d="M975.5,1106.6H1250v-194H763.5l4.6,52.1l47.7,534.7H1250v-194H993.2L975.5,1106.6z M1019.2,1596.3H824.5
	l27.2,304.7l397.5,110.3l0.9-0.2v-201.9l-0.9,0.2l-216.1-58.3L1019.2,1596.3L1019.2,1596.3z"/>
<path class="st4" d="M1249.3,1499.3h238.9l-22.5,251.6l-216.4,58.4v201.9l397.8-110.2l2.9-32.8l45.6-510.8l4.7-52.1h-451V1499.3
	L1249.3,1499.3z M1249.3,1106.1v0.5H1718l3.9-43.6l8.8-98.4l4.6-52.1h-486V1106.1L1249.3,1106.1z"/>
<path d="M626.5,159.9h97.3V256h89v-96.1H910v291h-97.3v-97.4h-89v97.4h-97.3L626.5,159.9L626.5,159.9z M1037.9,256.4h-85.6v-96.5
	h268.5v96.5h-85.7v194.5h-97.3L1037.9,256.4L1037.9,256.4L1037.9,256.4z M1263.5,159.9h101.4l62.4,102.2l62.3-102.2H1591v291h-96.9
	V306.7l-66.9,103.5h-1.7l-67-103.5v144.2h-95.2V159.9z M1639.4,159.9h97.3v194.8h136.8v96.2h-234.1L1639.4,159.9L1639.4,159.9z"/>
</svg>
