<?xml version="1.0" encoding="utf-8"?>
<!-- Generator: Adobe Illustrator 22.1.0, SVG Export Plug-In . SVG Version: 6.00 Build 0)  -->
<svg version="1.1" xmlns="http://www.w3.org/2000/svg" xmlns:xlink="http://www.w3.org/1999/xlink" x="0px" y="0px"
	 viewBox="0 0 1000 1000" style="enable-background:new 0 0 1000 1000;" xml:space="preserve">
<style type="text/css">
	.st0{display:none;}
	.st1{display:inline;stroke:#FFFFFF;stroke-miterlimit:10;}
	.st2{opacity:5.000000e-02;fill:#FFFFFF;enable-background:new    ;}
	.st3{fill:url(#SVGID_1_);}
	.st4{fill:url(#SVGID_2_);}
	.st5{fill:url(#SVGID_3_);}
	.st6{fill:url(#SVGID_4_);}
	.st7{fill:url(#SVGID_5_);}
	.st8{fill:url(#SVGID_6_);}
</style>
<g id="Layer_2" class="st0">
	<rect x="-8" y="-10" class="st1" width="1016.5" height="1016.5"/>
</g>
<g id="Layer_1">
	<title>bg-header2</title>
	<path class="st2" d="M228.4,506.5c-8.7-103.2-69.8-114.8-7.9-193.4c47-59.8,300.1-89.2,342.8-88c64.7,1.7,84.1,46.1,148,110
		s154.4,61.4,142.2,185.5c-5.4,54.5-46.2,62-110.1,125.9S329.5,757,265.6,693.2C213.2,637.2,237.2,609.7,228.4,506.5z"/>
	<polygon class="st2" points="854.7,657.5 865.4,651.9 863.3,663.8 871.9,672.2 860,673.9 854.7,684.7 849.4,673.9 837.5,672.2 
		846.1,663.8 844.1,651.9 	"/>
	<polygon class="st2" points="238.4,751.6 248.2,746.5 246.3,757.3 254.2,765 243.3,766.5 238.4,776.4 233.6,766.5 222.7,765 
		230.6,757.3 228.7,746.5 	"/>
	<polygon class="st2" points="809.7,311.9 819.4,306.8 817.5,317.6 825.4,325.3 814.6,326.8 809.7,336.7 804.8,326.8 794,325.3 
		801.8,317.6 800,306.8 	"/>
	<polygon class="st2" points="565.5,796.4 575.3,791.3 573.4,802.2 581.3,809.8 570.4,811.4 565.5,821.2 560.7,811.4 549.8,809.8 
		557.7,802.2 555.8,791.3 	"/>
	<polygon class="st2" points="136.3,120.5 144.8,121.7 138.6,127.7 140.1,136.2 132.5,132.2 124.9,136.2 126.3,127.7 120.2,121.8 
		128.7,120.5 132.4,112.8 	"/>
	<polygon class="st2" points="932.8,275.5 947.1,268 944.4,283.9 955.9,295.2 940,297.5 932.8,312 925.7,297.5 909.7,295.2 
		921.2,283.9 918.5,268 	"/>
	<polygon class="st2" points="741.9,718.4 748.2,715 747,722.1 752.2,727.2 745.1,728.2 741.9,734.7 738.7,728.2 731.5,727.2 
		736.7,722.1 735.5,715 	"/>
	<polygon class="st2" points="678.9,174.3 690.6,178.7 680.1,185.3 679.6,197.8 670,189.8 658,193.2 662.6,181.6 655.7,171.2 
		668.1,172 675.8,162.3 	"/>
	<polygon class="st2" points="491,132.8 497.9,130.6 495.5,137.4 499.8,143.2 492.6,143.1 488.4,148.9 486.3,142 479.4,139.8 
		485.3,135.7 485.3,128.5 	"/>
	<polygon class="st2" points="67.7,756.9 74.9,756.5 70.9,762.4 73.5,769.2 66.5,767.2 61,771.7 60.7,764.5 54.7,760.6 61.5,758.2 
		63.3,751.2 	"/>
	<polygon class="st2" points="120.2,601.7 137.9,592.3 134.5,612.1 148.8,626 129,628.9 120.2,646.9 111.3,628.9 91.5,626 
		105.8,612.1 102.4,592.3 	"/>
	<polygon class="st2" points="237.5,165.6 255.2,156.3 251.8,176 266.1,190 246.3,192.9 237.5,210.8 228.6,192.9 208.8,190 
		223.1,176 219.7,156.3 	"/>
	
		<linearGradient id="SVGID_1_" gradientUnits="userSpaceOnUse" x1="552.9211" y1="720.8679" x2="717.1929" y2="720.8679" gradientTransform="matrix(1 -4.000000e-02 -4.000000e-02 -1 141.62 1008.62)">
		<stop  offset="0" style="stop-color:#FFF356"/>
		<stop  offset="6.000000e-02" style="stop-color:#FEEC55"/>
		<stop  offset="0.15" style="stop-color:#FCD853"/>
		<stop  offset="0.25" style="stop-color:#F9B74F"/>
		<stop  offset="0.37" style="stop-color:#F58A4A"/>
		<stop  offset="0.47" style="stop-color:#F05A44"/>
		<stop  offset="1" style="stop-color:#2D1A53;stop-opacity:0"/>
	</linearGradient>
	<path class="st3" d="M824,187L683.5,342.9c-3.9,4.2-10.5,4.6-15,1l0,0c-4.1-3.5-4.6-9.7-1.1-13.8c0.1-0.2,0.3-0.3,0.4-0.4
		L814,178.5L824,187z"/>
	
		<linearGradient id="SVGID_2_" gradientUnits="userSpaceOnUse" x1="655.6844" y1="657.4998" x2="687.1372" y2="657.4998" gradientTransform="matrix(1 0 0 -1 0 1000)">
		<stop  offset="0" style="stop-color:#F05741"/>
		<stop  offset="0.36" style="stop-color:#EE3B50"/>
		<stop  offset="0.76" style="stop-color:#ED235C"/>
		<stop  offset="1" style="stop-color:#EC1A61"/>
	</linearGradient>
	<polygon class="st4" points="671.4,332.7 681.1,327.5 679.3,338.4 687.1,346 676.3,347.6 671.4,357.5 666.6,347.6 655.7,346 
		663.6,338.4 661.7,327.5 	"/>
	
		<linearGradient id="SVGID_3_" gradientUnits="userSpaceOnUse" x1="261.8106" y1="265.8633" x2="426.0824" y2="265.8633" gradientTransform="matrix(1 -4.000000e-02 -4.000000e-02 -1 141.62 1008.62)">
		<stop  offset="0" style="stop-color:#FFF356"/>
		<stop  offset="6.000000e-02" style="stop-color:#FEEC55"/>
		<stop  offset="0.15" style="stop-color:#FCD853"/>
		<stop  offset="0.25" style="stop-color:#F9B74F"/>
		<stop  offset="0.37" style="stop-color:#F58A4A"/>
		<stop  offset="0.47" style="stop-color:#F05A44"/>
		<stop  offset="1" style="stop-color:#2D1A53;stop-opacity:0"/>
	</linearGradient>
	<path class="st5" d="M549.9,653.7L409.3,809.6c-3.9,4.2-10.5,4.7-15,1l0,0c-4.1-3.5-4.7-9.7-1.2-13.8c0.1-0.2,0.3-0.3,0.4-0.5
		l146.2-151.1L549.9,653.7z"/>
	
		<linearGradient id="SVGID_4_" gradientUnits="userSpaceOnUse" x1="381.5243" y1="190.7923" x2="412.9583" y2="190.7923" gradientTransform="matrix(1 0 0 -1 0 1000)">
		<stop  offset="0" style="stop-color:#F05741"/>
		<stop  offset="0.36" style="stop-color:#EE3B50"/>
		<stop  offset="0.76" style="stop-color:#ED235C"/>
		<stop  offset="1" style="stop-color:#EC1A61"/>
	</linearGradient>
	<polygon class="st6" points="397.2,799.4 407,794.3 405.1,805.1 413,812.7 402.1,814.3 397.2,824.2 392.4,814.3 381.5,812.7 
		389.4,805.1 387.5,794.3 	"/>
	
		<linearGradient id="SVGID_5_" gradientUnits="userSpaceOnUse" x1="-77.591" y1="219.9111" x2="86.6808" y2="219.9111" gradientTransform="matrix(1 -4.000000e-02 -4.000000e-02 -1 141.62 1008.62)">
		<stop  offset="0" style="stop-color:#FFF356"/>
		<stop  offset="6.000000e-02" style="stop-color:#FEEC55"/>
		<stop  offset="0.15" style="stop-color:#FCD853"/>
		<stop  offset="0.25" style="stop-color:#F9B74F"/>
		<stop  offset="0.37" style="stop-color:#F58A4A"/>
		<stop  offset="0.47" style="stop-color:#F05A44"/>
		<stop  offset="1" style="stop-color:#2D1A53;stop-opacity:0"/>
	</linearGradient>
	<path class="st7" d="M212.4,713.2L71.9,869.1c-3.9,4.2-10.5,4.7-15,1l0,0c-4.1-3.5-4.7-9.6-1.2-13.8c0.1-0.2,0.3-0.3,0.4-0.5
		l146.3-151L212.4,713.2z"/>
	
		<linearGradient id="SVGID_6_" gradientUnits="userSpaceOnUse" x1="44.085" y1="131.2321" x2="75.519" y2="131.2321" gradientTransform="matrix(1 0 0 -1 0 1000)">
		<stop  offset="0" style="stop-color:#F05741"/>
		<stop  offset="0.36" style="stop-color:#EE3B50"/>
		<stop  offset="0.76" style="stop-color:#ED235C"/>
		<stop  offset="1" style="stop-color:#EC1A61"/>
	</linearGradient>
	<polygon class="st8" points="59.8,858.9 69.5,853.8 67.7,864.6 75.5,872.3 64.7,873.9 59.8,883.7 54.9,873.9 44.1,872.3 
		51.9,864.6 50.1,853.8 	"/>
</g>
</svg>
