<?xml version="1.0" encoding="utf-8"?>
<!-- Generator: Adobe Illustrator 22.1.0, SVG Export Plug-In . SVG Version: 6.00 Build 0)  -->
<svg version="1.1" id="Layer_1" xmlns="http://www.w3.org/2000/svg" xmlns:xlink="http://www.w3.org/1999/xlink" x="0px" y="0px"
	 viewBox="0 0 1000 1000" style="enable-background:new 0 0 1000 1000;" xml:space="preserve">
<style type="text/css">
	.st0{opacity:5.000000e-02;enable-background:new    ;}
	.st1{fill:#5ECAE7;}
	.st2{fill:url(#SVGID_1_);}
	.st3{fill:#FFFFFF;}
	.st4{fill:#EEEEEE;}
	.st5{opacity:0.2;fill:#2E95D1;enable-background:new    ;}
	.st6{fill:#475D9E;}
	.st7{fill:#4F69B1;}
	.st8{fill:#6178B9;}
	.st9{fill:#3F4DA1;}
	.st10{fill:#CA8EDE;}
	.st11{opacity:0.2;fill:#064A7D;enable-background:new    ;}
	.st12{fill:#9F6FAE;}
	.st13{fill:#B67FC7;}
	.st14{fill:url(#SVGID_2_);}
	.st15{fill:#757576;}
	.st16{fill:#FACED2;}
	.st17{fill:#2E205D;}
	.st18{fill:#E4F2FC;}
	.st19{fill:#B6E2EB;}
	.st20{fill:url(#SVGID_3_);}
	.st21{fill:#42317E;}
	.st22{fill:url(#SVGID_4_);}
	.st23{fill:url(#SVGID_5_);}
	.st24{fill:url(#SVGID_6_);}
	.st25{fill:#161641;}
	.st26{fill:url(#SVGID_7_);}
	.st27{fill:url(#SVGID_8_);}
	.st28{fill:#EBC3C7;}
	.st29{fill:#DEE7EC;}
	.st30{fill:url(#SVGID_9_);}
	.st31{fill:#CDD5D7;}
	.st32{fill:#B7BEC0;}
	.st33{fill:url(#SVGID_10_);}
	.st34{fill:url(#SVGID_11_);}
	.st35{fill:#C21E5C;}
	.st36{fill:url(#SVGID_12_);}
	.st37{fill:#163F59;}
	.st38{fill:url(#SVGID_13_);}
	.st39{fill:none;stroke:#161641;stroke-width:4.54;stroke-linecap:round;stroke-miterlimit:10;}
	.st40{fill:none;stroke:#161641;stroke-width:6.34;stroke-linecap:round;stroke-miterlimit:10;}
</style>
<title>books</title>
<path class="st0" d="M844.5,954.7c0,8.4-49.4,15.3-110.4,15.3s-110.4-6.8-110.4-15.3s49.4-15.3,110.4-15.3S844.5,946.3,844.5,954.7z
	"/>
<path class="st1" d="M901,928.8h-10.3c-3.4,0-6.2-3.1-6.2-7V799.4c0-3.8,2.8-6.9,6.2-6.9H901v-13.9H108.5
	c-10.3,0-18.6,9.3-18.6,20.8v122.5c0,11.5,8.3,20.8,18.6,20.8H901V928.8z"/>
<linearGradient id="SVGID_1_" gradientUnits="userSpaceOnUse" x1="901" y1="138.36" x2="425.38" y2="138.36" gradientTransform="matrix(1 0 0 -1 0 999)">
	<stop  offset="0" style="stop-color:#5ECAE7"/>
	<stop  offset="3.000000e-02" style="stop-color:#5BCAE6"/>
	<stop  offset="0.68" style="stop-color:#22C0D9"/>
	<stop  offset="1" style="stop-color:#0BBCD4"/>
</linearGradient>
<path class="st2" d="M901,928.8h-10.3c-3.4,0-6.2-3.1-6.2-7V799.4c0-3.8,2.8-6.9,6.2-6.9H901v-13.9H425.4v164.1H901V928.8z"/>
<path class="st3" d="M884.5,921.9V799.4c0-3.8,2.8-6.9,6.2-6.9H108.5c-3.4,0-6.2,3.1-6.2,6.9v122.5c0,3.8,2.8,7,6.2,7h782.1
	C887.2,928.8,884.5,925.7,884.5,921.9z"/>
<path class="st4" d="M884.5,921.9V799.4c0-3.8,2.8-6.9,6.2-6.9H413c-3.4,0-6.2,3.1-6.2,6.9v122.5c0,3.8,2.8,7,6.2,7h477.7
	C887.2,928.8,884.5,925.7,884.5,921.9z"/>
<path class="st4" d="M808.8,626.7c-7.3,43.1-6.9,87.1,1.4,130H300.3v-130H808.8z"/>
<path class="st5" d="M808.8,626.7c-0.8,4.5-1.5,9-2.1,13.6h-460v-13.6H808.8z"/>
<path class="st6" d="M279.9,606.3h534.4c3.2,0,5.8,2.6,5.8,5.8v14.5H574.8v130h245.4v14.5c0,3.2-2.6,5.8-5.8,5.8H279.9
	c-3.2,0-5.8-2.6-5.8-5.8V612.1C274.1,608.9,276.7,606.3,279.9,606.3z"/>
<path class="st7" d="M148,606.3h413.2c-3.2,0-5.8,2.6-5.8,5.8v159.1c0,3.2,2.6,5.8,5.8,5.8l0,0H148c-3.2,0-5.8-2.6-5.8-5.8V612.1
	C142.2,608.9,144.8,606.3,148,606.3z"/>
<path class="st8" d="M148,606.3h413.2c-3.2,0-5.8,2.6-5.8,5.8v19.4H142.2v-19.4C142.2,608.9,144.8,606.3,148,606.3
	C148,606.3,148,606.3,148,606.3z"/>
<path class="st9" d="M852,593.5h-8.9c-3,0-5.4-2.7-5.4-6V481.9c0-3.3,2.4-6,5.4-6h8.9V464H169c-8.9,0-16.1,8-16.1,17.9v105.6
	c0,9.9,7.2,17.9,16.1,17.9h683V593.5z"/>
<path class="st9" d="M852,593.5h-8.9c-3,0-5.4-2.7-5.4-6V481.9c0-3.3,2.4-6,5.4-6h8.9V464H442.1v141.4H852V593.5z"/>
<path class="st3" d="M837.7,587.5V481.9c0-3.3,2.4-6,5.4-6H169c-2.9,0-5.4,2.7-5.4,6v105.6c0,3.3,2.4,6,5.4,6h674.1
	C840.1,593.5,837.7,590.8,837.7,587.5z"/>
<path class="st4" d="M837.7,587.5V481.9c0-3.3,2.4-6,5.4-6H431.4c-3,0-5.4,2.7-5.4,6v105.6c0,3.3,2.4,6,5.4,6h411.7
	C840.1,593.5,837.7,590.8,837.7,587.5z"/>
<polygon class="st10" points="238.9,631.3 212.8,615.1 186.6,631.3 186.6,569.6 212.8,569.6 238.9,569.6 "/>
<path class="st4" d="M764.5,233.1c-6.3,37.1-5.9,75,1.2,112H326.2v-112H764.5z"/>
<path class="st11" d="M764.5,233.1c-0.7,3.8-1.3,7.8-1.8,11.7H366.4v-11.7H764.5z"/>
<path class="st12" d="M308.7,215.6h460.6c2.8,0,5,2.2,5,5v12.5H562.8v112h211.5v12.5c0,2.8-2.2,5-5,5H308.7c-2.8,0-5-2.2-5-5V220.6
	C303.7,217.8,305.9,215.6,308.7,215.6C308.7,215.6,308.7,215.6,308.7,215.6z"/>
<path class="st10" d="M195,215.6h356.1c-2.8,0-5,2.2-5,5v137.1c0,2.8,2.2,5,5,5H195c-2.8,0-5-2.2-5-5V220.6
	C190,217.8,192.2,215.6,195,215.6C195,215.6,195,215.6,195,215.6z"/>
<path class="st13" d="M195,215.6h356.1c-2.8,0-5,2.2-5,5v16.7H190v-16.7C190,217.8,192.2,215.6,195,215.6
	C195,215.6,195,215.6,195,215.6z"/>
<path class="st1" d="M240.8,452.2h8.7c2.9,0,5.2-2.7,5.2-6.1V381c0-3.4-2.4-6.1-5.2-6.1h-8.7v-12.2h553.1c8.7,0,15.7,8.2,15.7,18.3
	v65.1c0,10.1-7,18.3-15.7,18.3H240.8V452.2z"/>
<linearGradient id="SVGID_2_" gradientUnits="userSpaceOnUse" x1="240.8" y1="585.445" x2="527.8" y2="585.445" gradientTransform="matrix(1 0 0 -1 0 999)">
	<stop  offset="0" style="stop-color:#5ECAE7"/>
	<stop  offset="3.000000e-02" style="stop-color:#5BCAE6"/>
	<stop  offset="0.68" style="stop-color:#22C0D9"/>
	<stop  offset="1" style="stop-color:#0BBCD4"/>
</linearGradient>
<path class="st14" d="M240.8,452.2h8.7c2.9,0,5.2-2.7,5.2-6.1V381c0-3.4-2.4-6.1-5.2-6.1h-8.7v-12.2h287v101.8h-287L240.8,452.2z"/>
<path class="st4" d="M254.7,446.1V381c0-3.4-2.4-6.1-5.2-6.1h544.4c2.9,0,5.2,2.8,5.2,6.1v65.1c0,3.4-2.3,6.1-5.2,6.1H249.5
	C252.4,452.2,254.7,449.5,254.7,446.1z"/>
<path class="st3" d="M254.7,446.1V381c0-3.4-2.4-6.1-5.2-6.1h288.7c2.9,0,5.2,2.8,5.2,6.1v65.1c0,3.4-2.3,6.1-5.2,6.1H249.5
	C252.4,452.2,254.7,449.5,254.7,446.1z"/>
<polygon class="st15" points="765.3,943.8 770.2,943.8 656.6,519.7 651.7,519.7 "/>
<polygon class="st15" points="698.5,943.8 703.4,943.8 589.8,519.7 584.9,519.7 "/>
<polygon class="st15" points="661.2,546 659.9,541.1 591.5,541.1 592.8,546 "/>
<polygon class="st15" points="671.2,583.3 669.9,578.4 601.5,578.4 602.8,583.3 "/>
<polygon class="st15" points="681.2,620.6 679.9,615.7 611.4,615.7 612.8,620.6 "/>
<polygon class="st15" points="691.2,657.9 689.9,653 621.4,653 622.7,657.9 "/>
<polygon class="st15" points="701.2,695.2 699.9,690.3 631.4,690.3 632.7,695.2 "/>
<polygon class="st15" points="711.2,732.5 709.9,727.6 641.4,727.6 642.7,732.5 "/>
<polygon class="st15" points="721.2,769.7 719.9,764.9 651.4,764.9 652.7,769.7 "/>
<polygon class="st15" points="731.2,807 729.8,802.1 661.4,802.1 662.7,807 "/>
<polygon class="st15" points="741.2,844.3 739.8,839.4 671.4,839.4 672.7,844.3 "/>
<polygon class="st15" points="751.1,881.6 749.8,876.7 681.4,876.7 682.7,881.6 "/>
<polygon class="st15" points="761.1,918.9 759.8,914 691.4,914 692.7,918.9 "/>
<path class="st16" d="M562.3,412c0,0-0.2,0.2-1,0.9s-0.2,2.5-0.2,2.5l-5-6.6l-2.7,0.5c-0.6-0.2-1.2-0.2-1.8,0.2
	c-0.8,0.6-1,2.7-1,2.7s-4.5,0.8-4.4,2.9c0,0.7,1.5,2.4,1.5,2.4l2.4,3.2l4.4,7.8l4.1,6c0,0,1.8,3.7-4.2-0.6s-6.7-0.7-6.7-0.7l2.2,1.8
	c0,0,9.1,6.3,11.7,7.8s12.5-2.3,12.5-2.3l2.4-1.9L562.3,412z"/>
<path class="st16" d="M697.7,487.1c-4,7.8-5.6,16.7-4.7,25.5c1.7,13.4-24-1-24-1s3.8-10-9.7-20.8C650.7,484,695.5,481.6,697.7,487.1
	z"/>
<path class="st17" d="M665.5,520.9c-3.8-3.1-28.3-23-40.7-31.3c-2.8-2.8-5.1-4.7-5.1-4.7c-7-8.2-44.5-49-44.5-49l-8.5,7.8
	c6.1,11.4,12.8,22.4,20.2,33c4.3,6.1,12.7,15.5,21.2,23.9c16.8,22.2,48.3,53.1,48.3,53.1C662.3,542.3,670.6,525.1,665.5,520.9z"/>
<path class="st18" d="M713.2,519.3c0,0-19.8-7.2-39.3-6.9c-18.3,0.3-19.7,1.9-22.6,3.9c-6,4.1-14.5,39.2-4.6,66.9
	c3.8,10.6,6.7,21.6,8.6,32.7c0,0,60.1,15.6,64,14.2s11.7-14.5,8.6-23s-7.6-57.2-2.6-66.7S723.8,518.7,713.2,519.3z"/>
<path class="st19" d="M682.1,615.7l-6.5,1.4c-7.4-35.3-7.5-71.8-0.2-107.1c1.9,0.4,3.7,0.8,5.6,1.1
	C674.1,545.7,674.5,581.3,682.1,615.7z"/>
<linearGradient id="SVGID_3_" gradientUnits="userSpaceOnUse" x1="689.6694" y1="389.87" x2="689.6694" y2="157.61" gradientTransform="matrix(1 0 0 -1 0 999)">
	<stop  offset="0" style="stop-color:#1E1649"/>
	<stop  offset="1" style="stop-color:#42317E"/>
</linearGradient>
<path class="st20" d="M705.9,714.9c-0.1-2.1-2.9-4.2-6.7-5.7l24.2-100l-63.2,4.2c0,0,18.2,71,19.1,101c0,1.6,0.1,3.1,0.3,4.5
	c-2.1,28.1,4,104.8,4,104.8s-4.5,10.1-9.7,10.5c-20,1.6-18.1,7.3-18.1,7.3l29.8-1.2l5-3.8l0.1,3.6l11.8-0.5c1.6-3.9,0.3-11,0.3-11.1
	L705.9,714.9z"/>
<path class="st21" d="M734.1,615.7c0,0-64.1-1.8-64.6,2.2c-0.8,6.5,4.4,19.9,10.3,29.5c2,3.2,8.7-0.9,9.9,2.5
	c2.4,6.6-2.5,75.5,2.2,82c2.8,34.2,15,91.8,15,91.8l-0.1,3.8c0,0-3.8,5-8.9,5.3c-20.1,1.4-20.2,8.6-20.2,8.6l29.8-0.9l5.2-0.2
	l11.8-0.3c1.7-4,3-16.4,3-16.4l-11.2-99.4l16.8-71.9L734.1,615.7z"/>
<rect x="656.6" y="612.8" transform="matrix(0.9977 -6.749289e-02 6.749289e-02 0.9977 -39.9907 48.1311)" class="st1" width="71.5" height="6.2"/>
<linearGradient id="SVGID_4_" gradientUnits="userSpaceOnUse" x1="664.5734" y1="380.4905" x2="667.6934" y2="380.4905" gradientTransform="matrix(1.0024 -1.297730e-03 -1.297730e-03 -1.0024 -0.2799 1000.8096)">
	<stop  offset="0" style="stop-color:#1E1649"/>
	<stop  offset="1" style="stop-color:#42317E"/>
</linearGradient>
<polygon class="st22" points="665.4,614.5 668,614.3 668.5,622.6 666,622.7 "/>
<linearGradient id="SVGID_5_" gradientUnits="userSpaceOnUse" x1="686.1775" y1="382.5467" x2="689.2975" y2="382.5467" gradientTransform="matrix(1 0 0 -1 5.353262e-03 999.0007)">
	<stop  offset="0" style="stop-color:#1E1649"/>
	<stop  offset="1" style="stop-color:#42317E"/>
</linearGradient>
<polygon class="st23" points="686.2,612.4 688.7,612.2 689.3,620.5 686.7,620.7 "/>
<linearGradient id="SVGID_6_" gradientUnits="userSpaceOnUse" x1="715.15" y1="384.515" x2="718.28" y2="384.515" gradientTransform="matrix(1 0 0 -1 0 999)">
	<stop  offset="0" style="stop-color:#1E1649"/>
	<stop  offset="1" style="stop-color:#42317E"/>
</linearGradient>
<polygon class="st24" points="718.3,618.5 715.7,618.7 715.2,610.5 717.7,610.3 "/>
<path class="st16" d="M678.9,452.6c-2,1-3.8,2.4-5.3,4.1l-4.3,5.6c-0.3,0.4-0.6,0.9-0.9,1.3c0,0,0,0.1-0.1,0.1l-2.7,5.1l-4.3,8
	l-5.6,10.5c-0.4,0.7-0.1,1.6,0.6,2l15.5,8.3c0.7,0.4,13.2-2.5,15.5-3.5c2.7-1,5.2-1.3,6.9-2.4c2.1-1.5,2.7-8.3,2.9-16.8
	C697.4,465.6,683.9,449.9,678.9,452.6z"/>
<path class="st25" d="M695.3,493.3l7.6-22.8c0,0,1-4.1-9.2-11.7s-18.2-9.8-21.2-7.4s-0.2,6.6-0.2,6.6l13.3,5.7l-6.7,7l-2.2,10.5
	l3,1.8v0.3c0,0,2-5.6,6.2-6.5s5.2,3.6,2.3,6.3s-3.1,4-3.1,4l2.5,5.6L695.3,493.3z"/>
<polygon class="st19" points="677.2,508.3 676,514.1 670.2,520.7 665.1,512 668.9,504.6 "/>
<polygon class="st19" points="694.3,508.9 696.4,516.5 683.7,523.2 676,514.1 677.2,508.3 "/>
<linearGradient id="SVGID_7_" gradientUnits="userSpaceOnUse" x1="728.6796" y1="486.09" x2="728.6796" y2="340.76" gradientTransform="matrix(1 0 0 -1 0 999)">
	<stop  offset="0" style="stop-color:#1E1649"/>
	<stop  offset="1" style="stop-color:#42317E"/>
</linearGradient>
<path class="st26" d="M719.7,517.9l-24.9-5c0,0-6.4,53.9,9.7,74.3c16.8,21.2,26.2,34.5,28.5,47s11.1,24.1,11.1,24.1l19.6-33.9
	c0,0,1.8-9.1-3.4-14.8s-26.8-30.6-32-50S736,531.8,719.7,517.9z"/>
<path class="st16" d="M624,626.8c-2.1,1.1-4.5,1.2-6.6,0.3c-3.9-1.5-2.1,1.3-2.1,1.3l-2.1,4.8l-2.8-3.7l-6.2-10.1l2.8-10.5
	c0,0,2.1-1.2,3.8-0.8s9.6,5.8,9.6,5.8L624,626.8z"/>
<path class="st17" d="M674.3,651.7c0,0-17.9-78.4-18.2-90.6c-0.3-11.3,8.8-48.6,8.8-48.6l-11.6,1.1c-4.2,5.5-7.4,11.8-9.4,18.5
	c-3.2,11.9-4.5,28.9-3.1,34.5c1.5,6.3,5.5,25.8,9.3,34.8c2.1,4.9,4.6,35,9.3,38C664.7,642.9,675.9,651.8,674.3,651.7z"/>
<path class="st25" d="M655.8,573.6c0.4-8.1,1.2-16.1,2.5-24.1c2.3-14.7,6.6-37,6.6-37l-15.6,2.2l-4.2,16.5l6.3,2.8l-6.3,10.8
	C648,554.7,651.6,564.3,655.8,573.6z"/>
<path class="st21" d="M725,521.6c0.7,1,5.6,10.5,3.9,18s-28,51-38.8,60s-15.1-0.3-15.7-7.2s4.3-12.5,11.4-30.1
	c8.2-20.5,12.3-28.2,17.4-37.3C707.2,518.1,718.9,513.3,725,521.6z"/>
<path class="st21" d="M692.1,590.2c0,0,2.8,9.2-14.1,16.5S623.3,629,623.3,629l-3.5-17.8c0,0,33.6-17.7,41.1-21.3
	S681.9,574.2,692.1,590.2z"/>
<linearGradient id="SVGID_8_" gradientUnits="userSpaceOnUse" x1="692.3258" y1="886.765" x2="768.5658" y2="950.735" gradientTransform="matrix(1 0 0 -1 0 999)">
	<stop  offset="0" style="stop-color:#FCE462"/>
	<stop  offset="0.13" style="stop-color:#FBDC60"/>
	<stop  offset="0.33" style="stop-color:#FAC85C"/>
	<stop  offset="0.58" style="stop-color:#F7A554"/>
	<stop  offset="0.85" style="stop-color:#F2764A"/>
	<stop  offset="1" style="stop-color:#F05A44"/>
</linearGradient>
<path class="st27" d="M760,39.9l-3.9-2.3c-8.7-5.1-19.8-2.4-25.2,6.1l-3.5,5.7c-0.5,0.8-1.2,2.3-4.5,4.1s-6.7,1.3-11,3.7
	c-2.2,1.3-3.7,4.7-6.2,6.3c-3.3,2.1-7.2-0.4-11.4,6c-1.2,1.8-7.5,2.8-9.1,4c-4.8,3.7-1.5,5.4-7,11.3c-8.6,9.1,13.8,23.8,25.8,28.6
	c9.4,3.7,43.3,5.3,47.1-7.2c0.8-2.7-0.6-6.1,0.6-10.2c0.8-3,2.3-1.9,3-4.9c0.5-2.1-0.4-4,0-5.9c0.9-3.7,4.5-5.4,5.9-7.6
	c2.4-3.8,6.3-13.2,6.3-13.2C771.3,54.4,768.7,45,760,39.9z M733.4,76.4v0.3h-0.1C733.4,76.6,733.4,76.5,733.4,76.4z"/>
<path class="st28" d="M732,163.6c0,0-1.1,3.4,15,9s41.2,10,41.2,10l-36-16.5C752.3,166.1,738.3,160.4,732,163.6z"/>
<path class="st28" d="M775.2,179.3c7.6,2.9,9.4,8,11.9,10.3c1.7,1.7,3.4,3.4,4.9,5.3c-0.4-3.9-2.8-4.9-3.7-6.4s-0.7-0.9,2.1,0
	c1.6,0.5,3.2,4.2,4.6,6.5c0.5,1,1.3,1.8,2.2,2.5c-0.6-2.3-1.5-4.5-2.6-6.7c-1.5-2.9-3.4-5.7-5.6-8.2c-1.4-1.2-6.4-3.4-10.2-4.3
	C774.5,177.1,769.7,177.2,775.2,179.3z"/>
<path class="st29" d="M788.5,182.5c0,0,5.2,3.7,6,4.9c0.5,0.8,2.3,5.1,2.3,5.1c-1.2-0.7-2.1-1.7-2.8-2.9
	C793.1,187.9,788.5,182.5,788.5,182.5z"/>
<path class="st17" d="M741.7,159.4c0,0-15-4.8-17.4,4.3c-1.3,5.2,1.3,8.2,5.9,9.6c5.8,1.6,11.7,2.8,17.7,3.5l4.4-12.8L741.7,159.4z"
	/>
<path class="st17" d="M742.6,152l0.1-42.4c0,0,1.3-10.9-2.7-11.1c-5.7-0.2-7.7,9.2-8.5,12.5c-1.6,6.8-3.3,9.4-4.8,26.9
	c-0.9,10.8-2.7,22.8-2.7,30.1c0,5.1,5.4-0.6,10.5-0.1C742.5,168.6,742.6,152,742.6,152z"/>
<linearGradient id="SVGID_9_" gradientUnits="userSpaceOnUse" x1="813.1797" y1="677.4087" x2="786.3098" y2="829.7848" gradientTransform="matrix(1 0 0 -1 0 999)">
	<stop  offset="0" style="stop-color:#5ECAE7"/>
	<stop  offset="3.000000e-02" style="stop-color:#5BCAE6"/>
	<stop  offset="0.68" style="stop-color:#22C0D9"/>
	<stop  offset="1" style="stop-color:#0BBCD4"/>
</linearGradient>
<path class="st30" d="M869.8,310.1c-2.1-1.4-11.9-2.8-11.9-2.8l-13.2-4.1l-29.3-110.9c0,0-2.1-5.9-16-7.1
	c-13.5-1.2-60.9-7.5-67.2-6.3c-15,2.8,30.8,17.9,27.2,30.1l39.2,2.8L837.8,314l2.6-0.4l1.7-3l15.6,2.1l12.8-1.2
	C870.5,310.9,870.2,310.4,869.8,310.1z"/>
<path class="st16" d="M765.9,51.2c-0.9,1.5-1.9,2.8-3,4.1c-6.6,6.7-18.2,4.7-25.2,4.2c-3,4.3-5.9,14.4-9.1,17.1
	c-2.4,1.9-5.4,2.9-8.4,2.7c-5.4,6.2-7.8,26.1,9.1,29.5c10.2,2,13-9.6,8.8-16.2c-1.9-3-4.7-5.1-3.8-6.7c7.8-13.2,9.2-9,12.5-6.7
	s9.5,0.9,12.5-3.9c2.5-4.1,5.6-13.1,5.6-13.1C767,59,767.3,54.8,765.9,51.2z"/>
<path class="st3" d="M701.3,189.3c0,0,6.6,2,8.4,2.9c2.4,1.1,9.8,0.6,9.8,0.6s4.1-35.9,7-48.3s6.4-15.5,6.8-19.4
	c0.5-6.3,0.1-7.8-0.5-12.8s3.1-11.1,1.9-10c-2,1.8-8.9,4.3-14.5-3.1C719.2,98,701.3,189.3,701.3,189.3z"/>
<path class="st21" d="M734.3,87.6c0,0,8.3,10,7.7,13s-0.8,15.8-4.1,29.1s-5.3,16.5-6.5,26.4s0.9,12.2-1,24.3
	c-1.5,9.4-3.7,17.6-3.7,17.6c-2.8,0.4-5.6-0.7-7.3-3c-2.9-3.8,1.2-36.7,3.1-44.7s8.6-28.9,8.8-34.6s-0.4-19.3-1.2-21.2
	C727.8,89.9,733.5,88,734.3,87.6z"/>
<path class="st17" d="M734.4,86.8c-0.3,0.4-0.8,0.8-1.2,1.1c-1,0.6-2,1.4-2.9,2.2c0,0,1.9-0.7,2.5,0.9c0.5,2.1,0.8,4.3,0.8,6.4
	c0,0,3.9-5.3,3.2-7.1C735.6,87,734.4,86.8,734.4,86.8z"/>
<path class="st1" d="M801.8,313.6c-0.8-0.7-1.7-1.4-2.6-2l-12-10.5c0,0,16.3-88.3,11.5-104.3c-3.4-11.2-10.4-9.7-10.4-9.7
	l-76.1-11.7l-9.4-2l-4.4-13.5l-16.1-0.9c0,0-8.5,9.8-10.4,21.1c-2.5,14.4,2.5,29.3,10.4,32.5c20.6,8.4,95.3,2.1,95.3,2.1l0.4,91.3
	l3.6,3.1l1.3-0.8l12.2,8.2c0,0,6.5,4,8.6,2C804.4,317.8,803.9,315.4,801.8,313.6z"/>
<path class="st21" d="M706.4,188.2c0,0,6.4-31.8,9.8-46.8s5.2-40.5,6-44.2c0.8-3,1.9-5.9,3.2-8.7c0,0-3-8.6-7.8-8.8
	c-4.3-0.1-18.1,3.2-24.8,5.2c-4.6,1.4-6.8,52.8-7.5,55.5c-2.3,9.6-8.1,20.3-11.8,27.7c-2.3,4.8-4.2,9.8-5.8,14.8
	C667.7,183,692.4,182.3,706.4,188.2z"/>
<path class="st17" d="M718.7,77.3l3.2,4.4c0,0,4.4,7.4,2.9,6.3c-2-1.4-5,5.6-5,5.6l-5.5-14.3L718.7,77.3z"/>
<path class="st16" d="M682.4,152.7c0,0-6.1,4.2,15,7.5s51.3,6.7,52.7,5.3s-47.6-13.5-47.6-13.5S689.4,148.2,682.4,152.7z"/>
<path class="st16" d="M754,172c2,0.3,4.7,4.2,6.8,6.5c0.9,1.1,1.9,1.9,3.2,2.5l-1.5-5.5c0,0-3-4.6-3.8-5.4s-7.5-4.6-7.7-4.7
	c-1.9-1.2-12-3.9-16.9-4.4c-5.5-0.5-8.1,2.2-1,3.8c9.9,2.2,13.3,6.6,17,8.9c2.5,1.6,4.8,3.4,7,5.2c-1.3-4.3-4.4-5.3-5.8-6.8
	C750.2,171.1,750.4,171.4,754,172z"/>
<path class="st17" d="M695.4,147.8l11-46c0,0-0.8-9.7-3.5-13.3c-3.2-4.2-10-3.7-10-3.7s-8.5,5.8-12.3,42.6
	c-2.6,25.2-5.9,35.4,4.9,37.5c10.1,1.9,27.1,5,27.1,5l3.5-16L695.4,147.8z"/>
<rect x="783.2" y="148.3" transform="matrix(8.854664e-02 -0.9961 0.9961 8.854664e-02 533.4419 946.5397)" class="st31" width="1.4" height="67.1"/>
<path class="st31" d="M780.1,180.7c-0.1,1,0.5,1.9,1.5,2.1l34.3,3c0.9,0.1,2.3-0.5,3.6-3.1l19.7-29.4c0.2-1-0.4-1.9-1.4-2.1
	c-0.1,0-0.3,0-0.4,0l-35.2-2.1c-1.1,0.2-2.1,1-2.4,2.1L780.1,180.7z"/>
<path class="st32" d="M784.1,182.5h-0.3l-33.4-3c1.6,0.9,3.5,1.4,5.4,1.5l28,2.5h0.3l28,2.5c1.9,0.2,3.8,0,5.6-0.6L784.1,182.5z"/>
<path class="st16" d="M387.9,727.9c0,0,12.4,27.8-9.8,44c-6.6,4.8,1.1,3,8.4,0.5s23.6-18.7,24.2-37.9s-0.5-26.7-6.2-30.5
	S387.9,727.9,387.9,727.9z"/>
<linearGradient id="SVGID_10_" gradientUnits="userSpaceOnUse" x1="296.5908" y1="245.6844" x2="407.6468" y2="245.6844" gradientTransform="matrix(1 0 0 -1 0 999)">
	<stop  offset="0" style="stop-color:#1E1649"/>
	<stop  offset="1" style="stop-color:#42317E"/>
</linearGradient>
<path class="st33" d="M404.2,759.7c-0.8-0.5-1.6-0.8-2.4-1.1l-77.2-33.4c0,0-23.3-5.6-22,22.3c0.5,10.3,11,15,24,17
	c-11.6,3.3-22.7,7.3-28.5,10.5c-4,2.2,1,6.6,1,6.6l102.5,0.3C401.6,781.9,413.2,765.7,404.2,759.7z"/>
<path class="st21" d="M329.9,733l-52.9,1.9c0,0-3.4,6.8-4.9,22.8c0,2.5,0.2,5,0.7,7.4c-1.4,21.6,6.7,50.8,8.2,55.9l-0.2-0.1
	c0,0-12.3,8-26.1,23.3c-10.3,11.4-31,56.1-31.3,56.1l-1.6,5.8c0,0,15.3,5.9,16.8,6.4c2.4,0.8,16.5,0.2,16.5,0.2l-0.2-3.4
	c0,0-10.2,0.2-13.9-2.6c-1.5-1.3-2.7-3-3.3-4.9l63.5-71.3l-1.2-0.6l1.2,0.5l13.5-68.1c4.6-6.5,10.8-15.7,10.8-15.7L329.9,733z"/>
<linearGradient id="SVGID_11_" gradientUnits="userSpaceOnUse" x1="362.93" y1="304.5108" x2="413.8861" y2="304.5108" gradientTransform="matrix(1 0 0 -1 0 999)">
	<stop  offset="0" style="stop-color:#F05741"/>
	<stop  offset="0.36" style="stop-color:#EE3B50"/>
	<stop  offset="0.76" style="stop-color:#ED235C"/>
	<stop  offset="1" style="stop-color:#EC1A61"/>
</linearGradient>
<path class="st34" d="M376,665.2c0,0,2.2-14.7,24,12.5c12.2,15.2,13.8,33.2,13.8,33.2l-2.4,15.6l-27.2,1.3l-0.8-12.5l1.8-1.1
	c0,0,0.7-2.6-1-4.2s-6.5-10.9-19.9-25.3C358.2,678,374,666.5,376,665.2z"/>
<path class="st35" d="M393.8,707.2l-6.5,2.3l-2.5,1.1c0.6,1.1,0.7,2.3,0.4,3.5l4.5-2.6l5.9-2.1l8.5-0.4L393.8,707.2z"/>
<path class="st3" d="M332.7,748.1c0,0,0.8-4.6-3.5-5.5S314,745,314,745c1.7,0.7,3.5,1.3,5.3,1.8c3.1,0.9,6.9,1.6,6.9,1.6
	L332.7,748.1z"/>
<linearGradient id="SVGID_12_" gradientUnits="userSpaceOnUse" x1="273.89" y1="300.3339" x2="391.7401" y2="300.3339" gradientTransform="matrix(1 0 0 -1 0 999)">
	<stop  offset="0" style="stop-color:#F05741"/>
	<stop  offset="0.36" style="stop-color:#EE3B50"/>
	<stop  offset="0.76" style="stop-color:#ED235C"/>
	<stop  offset="1" style="stop-color:#EC1A61"/>
</linearGradient>
<path class="st36" d="M332.5,744.2l-58.6-9.8c0,0,25.4-48.9,31.6-57.5c7.7-10.7,24-19.9,24-19.9s23.9-8.1,37.3-0.7
	c19.5,10.8,24.9,16.6,24.9,16.6S385.9,716.7,332.5,744.2z"/>
<path class="st16" d="M356.8,769.1l15.4,10.9l9.3,0.5c0,0-0.3,1.3-0.7,1.4c-2.4,0.9-10,0-10,0s-5.7-1.8-7.6-1.6s-7.2,2.5-7.6,2
	c-1.1-1.8,1.5-1.4,2.4-2.7c1.1-1.5-0.3-4.7-0.3-4.7L356.8,769.1z"/>
<path class="st16" d="M329.8,738.8l29.6,33.2l2.6,4c0,0-2-0.4-3.4-0.8c-6.2-1.9-26.7-12.7-32.9-18.3c-4.9-4.6-9.4-9.7-13.2-15.3
	L329.8,738.8z"/>
<path class="st35" d="M338,690.9l-6.5,44l-2.9,1.8l2.2,2.4l-17.1,6.5l-10.3-12l10-60c0,0,5-16.6,23.1-18.6
	C345.6,654,338.4,687.3,338,690.9z"/>
<path class="st35" d="M305.3,739.7c0,0,18.1-3.5,24.6-3.8l-1.2,0.8l2.2,2.4l-5.9,2.2l-14.5,5.4l-2-3l2.5-1.2L305.3,739.7z"/>
<path class="st37" d="M371.6,633.6c0.6,2.8-1.2,5.6-4,6.2c0,0,0,0,0,0l-19.2,4.2c-2.8,0.6-5.6-1.2-6.2-4l0,0c-0.6-2.8,1.2-5.6,4-6.2
	c0,0,0,0,0,0l19.3-4.2C368.2,629,371,630.8,371.6,633.6C371.6,633.6,371.6,633.6,371.6,633.6L371.6,633.6z"/>
<path class="st37" d="M370,643.3c1.1,5.2-2.1,10.3-7.4,11.5l-10,2.2c-5.2,1.1-10.4-2.1-11.5-7.4c0,0,0,0,0,0l0,0
	c-1.1-5.2,2.2-10.4,7.4-11.5l10-2.2C363.8,634.8,368.9,638.1,370,643.3L370,643.3z"/>
<path class="st16" d="M380.9,656.7l-6.5-29.5c-1-4.7-3.8,0.8-8.5,1.9l-4.5,1c-4.7,1-7.7,5.7-6.6,10.4c0,0,0,0,0,0l4.6,21
	L380.9,656.7z"/>
<path class="st16" d="M360,646.2c0.5,2.1-0.8,4.1-2.9,4.5c0,0,0,0,0,0l0,0c-2.1,0.5-4.1-0.8-4.6-2.9l0,0c-0.5-2.1,0.8-4.1,2.9-4.6
	l0,0C357.5,642.8,359.5,644.1,360,646.2C360,646.2,360,646.2,360,646.2z"/>
<path class="st37" d="M368.7,657.7c-8.5,1.9-10-0.5-10.9-3.5c0,0-0.6,8-0.1,10.4l0.6,2.7c1.1,5.2,7.4,8.2,14,6.8l11.9-2.6l-2.9-13.2
	l-0.7-3.1L368.7,657.7z"/>
<path class="st37" d="M379.4,649.6l-6.8,1.5c-3.1,0.7-5.1,3.8-4.4,6.9c0,0,0,0,0,0c0.1,0.5,0.3,0.9,0.5,1.4l12.3-2.7L379.4,649.6z"
	/>
<path class="st3" d="M371.9,657.5l0.4,1.9c0.1,0.5,0.6,0.8,1.1,0.7l5.5-1.2c0.5-0.1,0.8-0.6,0.7-1.2l-0.4-1.9L371.9,657.5z"/>
<path class="st37" d="M370.4,622.6l-17.4,3.8c-1.9,0.4-3.1,2.3-2.7,4.1c0,0,0,0,0,0l1.5,6.8l20.8-4.6L370.4,622.6z"/>
<path class="st37" d="M382.3,625.3c0.6,2.8-1.2,5.6-4,6.3c0,0,0,0,0,0l-11.8,2.6c-2.8,0.6-5.6-1.2-6.3-4l0,0c-0.6-2.8,1.2-5.6,4-6.3
	l11.8-2.6C378.9,620.7,381.7,622.5,382.3,625.3L382.3,625.3z"/>
<rect x="354.6" y="633.8" transform="matrix(0.9767 -0.2147 0.2147 0.9767 -129.1451 91.5939)" class="st37" width="4.8" height="12.7"/>
<rect x="355" y="627.2" transform="matrix(0.9767 -0.2147 0.2147 0.9767 -127.8311 92.56)" class="st37" width="14.2" height="15"/>
<path class="st16" d="M360.1,642.9c-0.9-3.9,1.6-7.7,5.4-8.6c0,0,0,0,0,0l3.6-0.8c3.9-0.8,6.6,1.8,7.5,5.7l0,0
	c0.8,3.9-1.6,7.7-5.5,8.6l-2.5,0.6C364.8,649.3,360.9,646.8,360.1,642.9C360.1,642.9,360.1,642.9,360.1,642.9L360.1,642.9z"/>
<path class="st25" d="M540.9,174.3c6.6,5.3,7.7,15,2.3,21.6c-2.1,2.7-5.1,4.5-8.4,5.3"/>
<linearGradient id="SVGID_13_" gradientUnits="userSpaceOnUse" x1="1751.4508" y1="229.8047" x2="1751.4508" y2="327.8642" gradientTransform="matrix(5.669279e-02 -0.9984 -0.9984 -5.669279e-02 637.8589 1935.7323)">
	<stop  offset="0" style="stop-color:#F9EC23"/>
	<stop  offset="0.67" style="stop-color:#FDD727"/>
	<stop  offset="1" style="stop-color:#FFCB29"/>
</linearGradient>
<path class="st38" d="M489.2,145L489.2,145c-14.4-19.6-41.9-23.9-61.5-9.5c-19.6,14.4-23.9,41.9-9.5,61.5
	c13.2,18,37.8,23.3,57.2,12.3l0,0l0.3-0.1l0.1-0.1c6.9-3.8,14.9-5.1,22.6-3.5l5.1-23.8l5.1-23.8c-7.7-1.8-14.4-6.2-19.1-12.5
	l-0.1-0.1L489.2,145z"/>
<path class="st39" d="M508.6,174.7c0,0-41.2-2.1-46.4-9.9s6.2-13.9,8.4-3.3s-3,30.5-9.2,27.1s-5.5-19.3,44.5-1"/>
<line class="st40" x1="503" y1="207.5" x2="513.7" y2="156.6"/>
<line class="st40" x1="516.5" y1="210.3" x2="527.2" y2="159.4"/>
<line class="st40" x1="530.1" y1="212.8" x2="540.8" y2="161.9"/>
</svg>
