<svg id="Layer_1" data-name="Layer 1" xmlns="http://www.w3.org/2000/svg" xmlns:xlink="http://www.w3.org/1999/xlink" viewBox="0 0 1000 1000"><defs><style>.cls-1{fill:#161641;}.cls-2{fill:url(#linear-gradient);}.cls-3{fill:none;stroke-width:6.92px;}.cls-3,.cls-4{stroke:#161641;stroke-linecap:round;stroke-miterlimit:10;}.cls-4{fill:#fff;stroke-width:9.65px;}.cls-5{opacity:0.15;}.cls-6{fill:#d81b61;}.cls-7{fill:url(#linear-gradient-2);}.cls-8{fill:#5ecae7;}.cls-9{fill:url(#linear-gradient-3);}.cls-10{fill:#faced2;}.cls-11{fill:#4f69b1;}.cls-12{fill:#c21e5c;}.cls-13{fill:url(#linear-gradient-4);}.cls-14{fill:url(#linear-gradient-5);}.cls-15{fill:url(#linear-gradient-6);}.cls-16{fill:#42317e;}</style><linearGradient id="linear-gradient" x1="639.48" y1="2860" x2="639.48" y2="2710.67" gradientTransform="translate(478.53 -2541.45) rotate(12.23)" gradientUnits="userSpaceOnUse"><stop offset="0" stop-color="#f9ec23"/><stop offset="0.67" stop-color="#fdd727"/><stop offset="1" stop-color="#ffcb29"/></linearGradient><linearGradient id="linear-gradient-2" x1="347.34" y1="900.78" x2="347.34" y2="694.32" gradientUnits="userSpaceOnUse"><stop offset="0" stop-color="#5ecae7"/><stop offset="0.03" stop-color="#5bcae6"/><stop offset="0.68" stop-color="#22c0d9"/><stop offset="1" stop-color="#0bbcd4"/></linearGradient><linearGradient id="linear-gradient-3" x1="362.97" y1="705.49" x2="362.97" y2="542.09" gradientUnits="userSpaceOnUse"><stop offset="0" stop-color="#f05741"/><stop offset="0.36" stop-color="#ee3b50"/><stop offset="0.76" stop-color="#ed235c"/><stop offset="1" stop-color="#ec1a61"/></linearGradient><linearGradient id="linear-gradient-4" x1="597.71" y1="115.43" x2="712.73" y2="115.43" xlink:href="#linear-gradient-3"/><linearGradient id="linear-gradient-5" x1="555.07" y1="182.48" x2="624.96" y2="182.48" xlink:href="#linear-gradient-3"/><linearGradient id="linear-gradient-6" x1="748.7" y1="99.82" x2="748.7" y2="262" gradientUnits="userSpaceOnUse"><stop offset="0" stop-color="#1e1649"/><stop offset="1" stop-color="#42317e"/></linearGradient></defs><title>drop</title><path class="cls-1" d="M489.35,438.9a23.39,23.39,0,0,1-39-15.55"/><path class="cls-2" d="M545.82,368.24h0a67,67,0,1,0-93.39-36h0l.17.44.08.21c1,2.86,6.48,17.85-.05,34.77L487.25,381l34.64,13.36c6.52-16.93,20.64-24.35,23.32-25.8l.19-.1Z"/><path class="cls-3" d="M496.42,390.32s12.9-61.42,26-67.42,19.4,12.65,2.94,13.37-45.19-11.84-38.6-20.37,30.37-3.76-9.12,67.18"/><line class="cls-4" x1="448.5" y1="374.07" x2="522.53" y2="402.28"/><line class="cls-4" x1="441.05" y1="393.69" x2="515.09" y2="421.89"/><line class="cls-4" x1="434.02" y1="413.51" x2="508.06" y2="441.71"/><path class="cls-5" d="M841.9,270.46c0,8.68-50.92,15.72-113.74,15.72s-113.74-7-113.74-15.72,50.92-15.73,113.74-15.73S841.9,261.77,841.9,270.46Z"/><path class="cls-5" d="M423.72,907.14c0,8.69-50.92,15.73-113.74,15.73s-113.74-7-113.74-15.73S247.16,891.42,310,891.42,423.72,898.46,423.72,907.14Z"/><polygon class="cls-6" points="375.78 527.37 371.71 561.9 347.4 625.03 369.63 631.88 386.74 566.02 388.98 528.89 375.78 527.37"/><polygon class="cls-7" points="323.81 694.32 334.67 804.19 331.05 900.78 368.48 900.78 370.49 893.59 344.84 890.17 358.52 804.64 370.87 698.29 323.81 694.32"/><polygon class="cls-8" points="311.44 693.09 302.93 786.68 245.63 862.8 252.47 898.72 269.58 898.72 259.31 891.02 257.6 867.93 312.34 806.36 361.94 696.03 311.44 693.09"/><path class="cls-9" d="M414.36,542.09l-11.95,4a95.23,95.23,0,0,1-23.64,37.19L356.41,605l-27.54,18.6-20.46,75.88,64,6,2.11-83.61,23.76-29.7a95.31,95.31,0,0,0,19.24-42Z"/><polygon class="cls-10" points="401.16 550.22 416.9 555.8 427.06 502.49 424 497.96 401.16 550.22"/><path class="cls-6" d="M397.61,549.2l19.8,9.65s4.06-3.55,3.55-5.59a7.33,7.33,0,0,0-3-4.56c-1.53-1-16.76-6.61-16.76-6.61Z"/><polygon class="cls-10" points="388.98 528.89 388.19 499.12 379.69 500.34 375.78 527.37 388.98 528.89"/><path class="cls-10" d="M414.5,499.91c.15-.1,7.15-4,7.3-4.45S426.9,483,426.9,483l7.12,1-2,19.64L422.18,506Z"/><path class="cls-10" d="M311.79,590.24c4.77,10.93,20.23,22.18,31.16,17.41s13.2-23.75,8.43-34.69a21.6,21.6,0,1,0-39.59,17.28Z"/><path class="cls-11" d="M340.52,608.42c-10.68,2.36-24.31-8-28.73-18.18A21.59,21.59,0,0,1,323,561.8c.66-.29,1.34-.43,2-.65a11.64,11.64,0,0,1,2.71,4.41,20.31,20.31,0,0,1-3.27,17.59S336.77,606.47,340.52,608.42Z"/><path class="cls-10" d="M323,586.65a8.37,8.37,0,0,0-3.58,3.88c-2.49,5.21,3.41,10.32,8.45,9.65a12.47,12.47,0,0,0,4.58-1.71,6.67,6.67,0,0,0,3-3,5,5,0,0,0-.22-4,10,10,0,0,0-2.55-3.21C330.27,586.23,325.84,585.15,323,586.65Z"/><path class="cls-10" d="M394.25,495.9c-.15-.1-7.15-4-7.3-4.46s-5.1-12.45-5.1-12.45l-7.13,1,2,19.63,9.82,2.37Z"/><polygon class="cls-12" points="601.66 124.28 535.05 235.31 543.71 238.4 624.13 135.71 601.66 124.28"/><ellipse class="cls-10" cx="536.6" cy="243.59" rx="10.61" ry="11.12"/><path class="cls-10" d="M574.11,99.93c11.82,1.94,26.59,14.21,24.65,26s-19.86,18.71-31.68,16.77a21.69,21.69,0,0,1,7-42.81Z"/><path class="cls-1" d="M598.9,123.41c-.33-11-13.82-21.68-24.79-23.48a21.69,21.69,0,0,0-24.92,17.89,18.82,18.82,0,0,0-.13,2.11,11.74,11.74,0,0,0,5,1.56A20.39,20.39,0,0,0,570.33,114S596.08,120.24,598.9,123.41Z"/><path class="cls-10" d="M573.38,111.69a8.36,8.36,0,0,1,2.89-4.44c4.46-3.71,10.89.77,11.48,5.84a12.43,12.43,0,0,1-.53,4.88,6.65,6.65,0,0,1-2.14,3.62,5.08,5.08,0,0,1-4,.78,10.17,10.17,0,0,1-3.75-1.69C574.78,118.91,572.63,114.86,573.38,111.69Z"/><path class="cls-13" d="M597.71,111.85C640.58,90.63,689.37,84,689.37,84l23.36,45.68L607.48,146.84Z"/><path class="cls-14" d="M596.56,181.06l-41.49,72.07,9.46.73L617.68,200,625,130.83s0-21.11-9.47-19.66-13.83,13.11-13.83,13.11Z"/><path class="cls-15" d="M760.34,262l41-1-4.47-10.05-52.38-84.16-17.3-53.32s-3.7-15.66-18.31-13.41-12.86,24.42-12.86,24.42l30.45,58.88,62.39,69.77L761.35,257Z"/><path class="cls-16" d="M693.37,177.94,728.16,115a31.17,31.17,0,0,0-32.25-31.2l-6.54.22-19.78,99,20.66,85.44s-28.72,4.44-30.23,3.94-4,6.06-4,6.06l45.47-1-1.74-9Z"/><path class="cls-10" d="M571.34,254.73a10.62,10.62,0,1,1-10.61-11.12A10.87,10.87,0,0,1,571.34,254.73Z"/><circle class="cls-1" cx="566.15" cy="92.05" r="11.05"/></svg>