<?xml version="1.0" encoding="utf-8"?>
<!-- Generator: Adobe Illustrator 22.1.0, SVG Export Plug-In . SVG Version: 6.00 Build 0)  -->
<svg version="1.1" id="Layer_1" xmlns="http://www.w3.org/2000/svg" xmlns:xlink="http://www.w3.org/1999/xlink" x="0px" y="0px"
	 viewBox="0 0 1000 1000" style="enable-background:new 0 0 1000 1000;" xml:space="preserve">
<style type="text/css">
	.st0{fill:url(#SVGID_1_);}
	.st1{fill:#42317E;}
	.st2{fill:#FACED2;}
	.st3{fill:#5ECAE7;}
	.st4{fill:#2E205D;}
	.st5{fill:url(#SVGID_2_);}
	.st6{fill:#FAF7FA;}
	.st7{fill:url(#SVGID_3_);}
	.st8{fill:url(#SVGID_4_);}
	.st9{fill:#161641;}
	.st10{fill:url(#SVGID_5_);}
	.st11{fill:none;stroke:#161641;stroke-width:10.08;stroke-linecap:round;stroke-miterlimit:10;}
	.st12{fill:none;stroke:#161641;stroke-width:14.07;stroke-linecap:round;stroke-miterlimit:10;}
</style>
<title>punch</title>
<linearGradient id="SVGID_1_" gradientUnits="userSpaceOnUse" x1="533.3812" y1="-1680.3687" x2="652.7412" y2="-1580.2185" gradientTransform="matrix(1 -0.48 -0.47 -0.97 -1225.15 -979.45)">
	<stop  offset="0" style="stop-color:#FCE462"/>
	<stop  offset="0.13" style="stop-color:#FBDC60"/>
	<stop  offset="0.33" style="stop-color:#FAC85C"/>
	<stop  offset="0.58" style="stop-color:#F7A554"/>
	<stop  offset="0.85" style="stop-color:#F2764A"/>
	<stop  offset="1" style="stop-color:#F05A44"/>
</linearGradient>
<path class="st0" d="M144.4,239.4l-8.2-0.6c-18.2-1.2-34.7,12.1-36.8,29.8l-1.4,12c-0.2,1.6-0.3,4.7-4.3,10.1s-10.1,7.4-15.3,14.7
	c-2.7,3.8-2.5,10.6-5.4,15.1c-3.9,6-12.2,5-14.1,18.8c-0.5,3.9-4.8,7.4-6.4,10.6c-5.1,9.7,5.2,7,0.6,20.9
	c-7,21.5,41.2,27.2,64.7,25.4c18.3-1.5,66.7-20,63.2-43.1c-0.7-5-5.7-9.3-7-16.8c-0.9-5.4,2.3-4.9,1.1-10.3
	c-0.9-3.8-3.8-6.1-4.5-9.5c-1.4-6.6,3.3-12.3,3.9-16.9c1-8,0.1-26.1,0.1-26.1C174.2,253.6,162.6,240.6,144.4,239.4z M129,319.2
	l0.2,0.5l-0.2,0.1C129,319.5,129,319.4,129,319.2z"/>
<path class="st1" d="M314.5,346l-72.3,0.1c0,0-50.6-5.4-79.7-8.8l0,0c-3.7-1.1-7.5-1.7-11.3-1.6h-9.2v17.1l-23.5-17.1H96.9
	c-37.8,0-2.2,117.3-2.2,117.3h83.4l-1.4-55.8l5.2-19.2c9,0.9,38.4-9.4,54.2-7.2c10.4,1.5,81.6-11.8,81.6-11.8L314.5,346z"/>
<path class="st2" d="M165.3,272.7c0,0-7.5-5.2-11.5-11c-16.1,17.5-35.4,19.8-35.4,19.8c-6,0,1,7.3,0,21.7v32.5l23.5,17.1v-36.9
	c4.2,0.1,20.8-2.5,22.9-17.4C166.4,287.5,165.3,271.6,165.3,272.7z"/>
<path class="st3" d="M238.9,767.9l-29.9-5.6c0,0-22.4-290.8-31-309.3H94.7c-8.5,18.5-12.6,38.7-11.9,59.1l7.9,250.2v12.9h43.6
	c6.6,0,3.2-7.4,3.2-7.4l-29.8-5.6l25.8-250.8h5.5l53.2,250.8v12.9h43.6C242.4,775.2,238.9,767.9,238.9,767.9z"/>
<path class="st2" d="M150.1,378l15.8,6.5c0,0,15.7-18.2,11.2-23.4c-4-4.5-3.6-3.2-11.5-6.4s-14.9,6-14.9,6L150.1,378z"/>
<path class="st4" d="M110.4,364.1c10.8,19.3,20.6,44.3,20.6,44.3l18.3-31.1l18.1,7.4c0,0-18.3,54.7-35,54.5S78.2,384.2,75,371
	s5-27.1,8.1-29C88,339.1,101.4,347.8,110.4,364.1z"/>
<path class="st2" d="M118.4,281.5c-6,0-9.6,2.6-10,7.1c-0.5,6,4,10.3,10,10.3l13.6-1.5L118.4,281.5z"/>
<linearGradient id="SVGID_2_" gradientUnits="userSpaceOnUse" x1="300.04" y1="653.024" x2="334.6022" y2="653.024" gradientTransform="matrix(1 0 0 -1 0 1002)">
	<stop  offset="0" style="stop-color:#F05741"/>
	<stop  offset="0.36" style="stop-color:#EE3B50"/>
	<stop  offset="0.76" style="stop-color:#ED235C"/>
	<stop  offset="1" style="stop-color:#EC1A61"/>
</linearGradient>
<path class="st5" d="M301,344.2l9.9-8c0.7-0.6,1.7-0.7,2.5-0.4l12.3,5.1c5.2,2.1,8.7,7,9,12.5v0.5c0.1,1.7-1.1,3.2-2.8,3.5
	l-27.7,4.8c-1.4,0.2-2.6-0.7-2.9-2c0-0.1,0-0.1,0-0.2l-1.2-13.8C300,345.5,300.4,344.7,301,344.2z"/>
<polygon class="st6" points="458.2,548 436.6,632 471.8,624.2 448.3,694.5 538.2,581.3 495.2,593 518.7,532.5 "/>
<polygon class="st6" points="649.5,624.7 687.9,740.3 723.5,704.3 749.2,805.3 769.4,603.1 727.5,649.6 709.2,560.2 "/>
<linearGradient id="SVGID_3_" gradientUnits="userSpaceOnUse" x1="137.3583" y1="630.1485" x2="190.5042" y2="630.1485" gradientTransform="matrix(1 0 0 -1 0 1002)">
	<stop  offset="0" style="stop-color:#F05741"/>
	<stop  offset="0.36" style="stop-color:#EE3B50"/>
	<stop  offset="0.76" style="stop-color:#ED235C"/>
	<stop  offset="1" style="stop-color:#EC1A61"/>
</linearGradient>
<path class="st7" d="M139,393.5l22.7,9.3c0,0,30.6-19.8,28.7-35.3c-1.5-12.5-6-18.6-21.8-25.1s-29.3,8.4-30.8,15.3
	S139,393.5,139,393.5z"/>
<linearGradient id="SVGID_4_" gradientUnits="userSpaceOnUse" x1="305.8184" y1="660.6141" x2="370.0923" y2="660.6141" gradientTransform="matrix(1 0 0 -1 0 1002)">
	<stop  offset="0" style="stop-color:#F05741"/>
	<stop  offset="0.36" style="stop-color:#EE3B50"/>
	<stop  offset="0.76" style="stop-color:#ED235C"/>
	<stop  offset="1" style="stop-color:#EC1A61"/>
</linearGradient>
<path class="st8" d="M307.7,334l20.1-13c15.4-4.6,20.2-4.2,30.5,0s16.4,28.1,7.6,37.7c-8.4,9.1-57.7,6.7-57.9,3.8l-2.1-24.1
	C305.7,336.7,306.4,335.1,307.7,334z"/>
<polygon class="st6" points="823.6,467.6 893.5,518.9 899.3,483.4 955.8,531.4 884.3,405.8 879.1,450 831.7,405.6 "/>
<path class="st9" d="M689.5,462c-4.1,18.4-22.3,30-40.7,25.9c-7.4-1.6-14-5.7-18.8-11.5"/>
<linearGradient id="SVGID_5_" gradientUnits="userSpaceOnUse" x1="-824.6071" y1="-3862.5564" x2="-824.6071" y2="-3644.8228" gradientTransform="matrix(0.92 -0.392 -0.392 -0.92 -98.1129 -3480.9316)">
	<stop  offset="0" style="stop-color:#F9EC23"/>
	<stop  offset="0.67" style="stop-color:#FDD727"/>
	<stop  offset="1" style="stop-color:#FFCB29"/>
</linearGradient>
<path class="st10" d="M697.1,330.3L697.1,330.3c24.9-47.9,6.2-106.9-41.7-131.7c-47.9-24.9-106.9-6.2-131.7,41.7
	c-22.9,44-9.1,98.1,31.9,125.9l0,0l0.6,0.4l0.3,0.2c3.6,2.6,22.8,15.8,29.2,41.4l52.5-13.3l52.5-13.3c-6.5-25.6,4-46.4,6-50.3
	l0.2-0.3C697,330.5,697.1,330.3,697.1,330.3z"/>
<path class="st11" d="M657,398.2c0,0-36.4-84-25.9-102.1s33.7-1.3,14.8,13.4s-63.7,24-63.1,8.3s33-30.1,45.8,87.6"/>
<line class="st12" x1="586.2" y1="419.3" x2="698.1" y2="390.5"/>
<line class="st12" x1="593.9" y1="448.9" x2="705.8" y2="420.1"/>
<line class="st12" x1="602.2" y1="478.4" x2="714.1" y2="449.6"/>
</svg>
