<?xml version="1.0" encoding="utf-8"?>
<!-- Generator: Adobe Illustrator 22.1.0, SVG Export Plug-In . SVG Version: 6.00 Build 0)  -->
<svg version="1.1" id="Layer_1" xmlns="http://www.w3.org/2000/svg" xmlns:xlink="http://www.w3.org/1999/xlink" x="0px" y="0px"
	 viewBox="0 0 1000 1000" style="enable-background:new 0 0 1000 1000;" xml:space="preserve">
<style type="text/css">
	.st0{opacity:5.000000e-02;enable-background:new    ;}
	.st1{fill:#4F69B1;}
	.st2{opacity:0.6;fill:#FDEEF2;enable-background:new    ;}
	.st3{fill:#FFFFFF;}
	.st4{fill:url(#SVGID_1_);}
	.st5{fill:#FACED2;}
	.st6{fill:#5ECAE7;}
	.st7{fill:url(#SVGID_2_);}
	.st8{fill:url(#SVGID_3_);}
	.st9{fill:#161641;}
	.st10{fill:#42317E;}
	.st11{fill:#FDEEF2;}
	.st12{fill:#56C0EE;}
	.st13{fill:#ED1459;}
</style>
<title>signs</title>
<path class="st0" d="M483.6,969.6c0,10.4-60.9,18.8-136.1,18.8s-136.1-8.4-136.1-18.8s60.9-18.8,136.1-18.8S483.6,959.2,483.6,969.6
	z"/>
<rect x="740.7" y="502" class="st1" width="39.1" height="42.4"/>
<rect x="631.2" y="11.6" class="st2" width="251.6" height="379.9"/>
<path class="st3" d="M690.5,76.5l4-1.7c1.5-0.6,2.8-1.1,3.9-1.5c3,2.4,2.5,2.7,3.3,5.5l-32.9,15V94l14.2,6.4
	c7.1,3.3,13.3,6.1,18.7,8.5c-0.8,2.9-0.2,3.2-3.3,5.7c-1.6-0.6-3.2-1.2-4.8-1.9c-9.4-4.3-21.5-9.7-36.5-16.6v-2.2
	c0-0.3,0.5-0.6,1.6-1.1c-0.4,0.2-0.8,0.3-1.2,0.4v-0.5c-0.1-0.5,0.2-1,0.6-1.3L690.5,76.5z"/>
<path class="st3" d="M690.5,290.9l4-1.7c1.5-0.6,2.8-1.1,3.9-1.5c3,2.4,2.5,2.7,3.3,5.5l-32.9,15v0.1l14.2,6.5
	c7.1,3.3,13.3,6.1,18.7,8.5c-0.8,2.9-0.2,3.1-3.3,5.6c-1.8-0.6-3.4-1.3-4.8-1.9c-9.4-4.3-21.5-9.7-36.5-16.6v-2.2
	c0-0.3,0.5-0.6,1.6-1.1c-0.4,0.1-0.8,0.3-1.2,0.4V307c-0.1-0.5,0.2-1,0.6-1.3L690.5,290.9z"/>
<rect x="735.8" y="85.8" class="st3" width="128" height="13.5"/>
<rect x="764.3" y="133" class="st3" width="99.4" height="13.5"/>
<rect x="809.2" y="173.4" class="st3" width="54.5" height="13.5"/>
<rect x="735.8" y="300.2" class="st3" width="128" height="13.5"/>
<rect x="764.3" y="253.1" class="st3" width="99.4" height="13.5"/>
<rect x="809.2" y="212.7" class="st3" width="54.5" height="13.5"/>
<polygon class="st3" points="719.5,284.8 706.2,332.8 715.7,333.6 729,285.6 "/>
<path class="st0" d="M888.5,879.6c0,10.4-60.9,18.8-136.1,18.8s-136.1-8.4-136.1-18.8s60.9-18.8,136.1-18.8S888.5,869.2,888.5,879.6
	z"/>
<linearGradient id="SVGID_1_" gradientUnits="userSpaceOnUse" x1="761.36" y1="365.76" x2="761.36" y2="600.25" gradientTransform="matrix(1 0 0 -1 0 999)">
	<stop  offset="0" style="stop-color:#F05741"/>
	<stop  offset="0.36" style="stop-color:#EE3B50"/>
	<stop  offset="0.76" style="stop-color:#ED235C"/>
	<stop  offset="1" style="stop-color:#EC1A61"/>
</linearGradient>
<polygon class="st4" points="804.5,633.2 801.4,604.9 809.3,553.2 836,400.6 823.1,398.8 793.6,533.3 747.5,537 699.6,400.6 
	686.7,402.4 721.7,548.1 734,603.7 733.5,627.3 "/>
<path class="st5" d="M742.1,498.2c0,13.2,10.7,31.4,23.9,31.4s23.9-18.2,23.9-31.4c0.3-13.2-10.2-24.1-23.4-24.4
	c-13.2-0.3-24.1,10.2-24.4,23.4C742.1,497.6,742.1,497.9,742.1,498.2z"/>
<polygon class="st5" points="779.2,534.5 766,558 759.3,536.1 "/>
<path class="st5" d="M776,501.5c1.3-1.8,3.4-2.7,5.6-2.5c0.5,0.1,1,0.2,1.4,0.5c1.1,0.8,1.9,2,2.1,3.3c0.7,3.6-1.4,7.4-4.6,9.4
	c-0.9,0.6-1.9,1-2.9,1.1c-1.1,0.2-2.2-0.1-3-0.8C771.6,510,774.1,503.9,776,501.5z"/>
<path class="st1" d="M755.9,490.4c-3.6,5.5-8.8,10.1-15.2,11.8c-1.8-7.2-0.3-14.8,4.2-20.8c2.5-3.3,11.5-11.3,16.3-9.4
	C766.2,474,758.3,486.7,755.9,490.4z"/>
<polygon class="st6" points="803.8,625.4 733.3,622.1 679.1,865 653.9,849.7 684.6,886.9 756.8,686.7 755.7,777.5 804.7,842.4 
	807.8,865.8 809.1,875.7 817.8,874.7 819.4,839 781.5,777.4 808.2,675.3 "/>
<polygon class="st5" points="808.3,466.4 823.5,471.8 836,400.6 823.1,398.8 "/>
<polygon class="st5" points="719.4,456.9 701.5,464 686.7,402.4 699.6,400.6 "/>
<path class="st5" d="M680.9,393.2c0,6.1,5,11.1,11.1,11.1c6.1,0,11.1-5,11.1-11.1c0-6.1-4.9-11-11-11.1
	C685.9,382.1,680.9,387.1,680.9,393.2C680.9,393.2,680.9,393.2,680.9,393.2z"/>
<path class="st5" d="M819.8,395.3c0,6.1,5,11.1,11.1,11.1s11.1-5,11.1-11.1s-5-11.1-11.1-11.1l0,0
	C824.7,384.2,819.8,389.2,819.8,395.3z"/>
<linearGradient id="SVGID_2_" gradientUnits="userSpaceOnUse" x1="777.1826" y1="370.1158" x2="708.1326" y2="283.1058" gradientTransform="matrix(1 0 0 -1 0 999)">
	<stop  offset="0" style="stop-color:#2788C3;stop-opacity:0.8"/>
	<stop  offset="0.99" style="stop-color:#2788C3;stop-opacity:0"/>
</linearGradient>
<path class="st7" d="M736.9,741.7l17-47.2l1.6-15l-22.2-57.4l-23.5,105.5C719.8,733,729.7,738,736.9,741.7z"/>
<path class="st1" d="M776,500.1c0.5,0.3,1.1,0.4,1.7,0.3c0.6-0.2,0.8-0.8,1.2-1.3c1.6-1.8,4.4-1.9,6.1-0.3c0,0,0.1,0.1,0.1,0.1
	c1.6,1.8,1.9,4.5,0.7,6.5c-1.3,2-3.4,3.4-5.8,3.7c-1.5,5.5-5.7,48.3-5.4,54c3.8,0.3,18.2,0,18.9-7.7c0.6-6.6,1.2-44,1.2-50.6
	c0-6.5-0.8-13.2-4.1-18.8c-4-6.7-20.5-17.6-28.5-11.5C753.3,481.3,769.9,497.2,776,500.1z"/>
<polygon class="st5" points="776.7,536.7 766.8,537.2 766.3,523.9 778.1,523.2 "/>
<linearGradient id="SVGID_3_" gradientUnits="userSpaceOnUse" x1="350.755" y1="250.64" x2="350.755" y2="546.01" gradientTransform="matrix(1 0 0 -1 0 999)">
	<stop  offset="0" style="stop-color:#F05741"/>
	<stop  offset="0.36" style="stop-color:#EE3B50"/>
	<stop  offset="0.76" style="stop-color:#ED235C"/>
	<stop  offset="1" style="stop-color:#EC1A61"/>
</linearGradient>
<polygon class="st8" points="302.9,748.4 289.1,606.6 274.4,454.5 285.1,453 316.6,596.7 365.9,600.7 417.1,455 427.1,457 
	393.4,612.5 395.4,744.4 "/>
<path class="st5" d="M320.4,554.7c-3.7,13.6,2.1,35.4,15.7,39.1s29.7-12,33.5-25.6c3.7-13.6-4.3-27.6-17.9-31.3
	C338.1,533.1,324.1,541.1,320.4,554.7z"/>
<path class="st9" d="M338.5,546.8c-2.8-0.8-6.7-2.7-8.1-5.3c-0.1-0.2-0.2-0.5-0.3-0.7c11.3-8.3,27.2-5.8,35.5,5.5
	c4.6,6.3,6.1,14.3,4,21.8c-2.7,9.7-11.7,20.5-21.5,24.5c0.3-2.7,0.8-5.5,1.5-8.1c2.8-10.7,6-21.4,9.4-32
	C352,551.2,345.2,549.3,338.5,546.8z"/>
<path class="st5" d="M354.4,567.6c1.8-1.4,4.3-1.8,6.5-1.1c0.5,0.2,0.9,0.5,1.3,0.9c1,1.1,1.4,2.6,1.2,4c-0.3,3.9-3.6,7.2-7.4,8.4
	c-1.1,0.4-2.2,0.5-3.3,0.3c-1.1-0.1-2.2-0.7-2.8-1.6C347.5,575.1,351.8,569.5,354.4,567.6z"/>
<polygon class="st10" points="381.8,961.9 395.4,744.4 395.1,722.7 300.2,721.4 302.9,748.4 320.7,966.9 286.8,969.4 286.8,975.1 
	332.3,973.4 332.3,967.2 340.5,746.8 353.9,746.2 366.7,961.9 365.2,970.7 413.6,970.7 414.8,965.5 "/>
<path class="st9" d="M344.8,573.1c-8.3,0.9-14.9-7.5-23.1-8.5c-0.5-0.1-1-0.1-1.5,0.1c-0.6,0.4-1,0.9-1.3,1.5l-3.1,6.1
	c-1.2,2-2,4.2-2.6,6.5c-0.5,5,0.2,10.1,2,14.8c1.9,3.5,5.1,6.2,8.9,7.5c3.8,1.3,7.8,1.7,11.8,1.2c2.7-0.2,5.4-0.8,7.8-2
	c5.5-2.9,8.5-8.9,7.7-15c-0.4-1.4-0.5-2.9-0.5-4.4c0.3-1.4,0.8-2.8,1.6-4c0.8-1.4,6.3-8.6,2-8.6c-1.3,0-3.2,2.2-4.3,2.9
	C348.4,572.2,346.6,572.8,344.8,573.1z"/>
<path class="st5" d="M293,447.1c0,6.5-5.3,11.8-11.8,11.8c-6.5,0-11.8-5.3-11.8-11.8c0-6.5,5.3-11.8,11.8-11.8c0,0,0,0,0,0
	C287.7,435.3,293,440.6,293,447.1C293,447.1,293,447.1,293,447.1z"/>
<path class="st5" d="M430.9,451c0,6.5-5.3,11.8-11.8,11.8s-11.8-5.3-11.8-11.8c0-6.5,5.3-11.8,11.8-11.8
	C425.5,439.2,430.8,444.5,430.9,451C430.9,451,430.9,451,430.9,451z"/>
<rect x="131.5" y="146.5" class="st11" width="437.2" height="301.5"/>
<path class="st12" d="M216.9,324.5c0,0.5-0.4,0.9-0.9,0.9c-5.9,0.3-11.8,0.3-17.7-0.1c-1.6-0.3-3.3-0.4-4.9-0.2v-0.5
	c-0.3-0.4-0.3-0.9,0-1.3c0.2-7.1,0.6-14.2,0.9-21.3c0-0.5,0.4-0.9,0.9-0.9c0.2,0,0.4,0.1,0.6,0.2c3.8,3,7.4,6.3,10.7,9.8
	c2.6-3.9,5.4-7.5,8.5-11c0.4-0.3,0.9-0.3,1.3,0c0.2,0.2,0.2,0.4,0.3,0.6C216.6,308.7,216.7,316.6,216.9,324.5z"/>
<path class="st12" d="M240.6,322.6c-7.1-0.5-14,0.8-21.1,1.1c-0.5,0-0.8-0.4-0.8-0.9c0-0.3,0.1-0.5,0.4-0.7c0-0.1,0-0.2,0-0.3
	c1.9-4.5,3.9-8.9,6-13.3c1.7-3.5,3.2-8.2,6.1-10.9c0.3-0.2,0.7-0.2,0.9,0c0.1,0.1,0.1,0.2,0.2,0.3c2.7,7.9,5.6,15.9,8.9,23.6
	C241.4,322,241.2,322.6,240.6,322.6z"/>
<path class="st12" d="M261.9,325c-5.6,0.1-11.3,0.2-16.9,0.2c-0.5,0-0.8-0.4-0.8-0.8c-0.5-8-0.6-16-0.2-24c0-0.2,0.1-0.4,0.3-0.5
	c0.2-0.2,0.4-0.3,0.7-0.3c4.7,0,9.4-0.1,14.2,0c0.4,0,0.8,0.4,0.8,0.8c0,0.1,0,0.3-0.1,0.4c-1.1,2-2.1,4.1-3.2,6.2
	c-0.5,1.1-3.2,5.2-2.4,6.3c2.6,3.6,5.4,7.1,8.4,10.4c0.3,0.4,0.2,0.9-0.1,1.2C262.2,324.9,262.1,325,261.9,325z"/>
<path class="st12" d="M278.8,314.9c-2.2,0.5-4.3,1-6.5,1.5c1.8,2.2,3.9,4.2,6.1,6c0.6,0.5,0.1,1.4-0.6,1.4c-4,0-8,0-12,0.3
	c-0.5,0-0.8-0.4-0.8-0.8c-0.1-7.8-0.5-15.6-1-23.4c0-0.4,0.4-0.8,0.8-0.8c3.7-0.1,7.4-0.3,11.1-0.2c0.3,0,0.5,0.2,0.5,0.4
	c0.4,0.3,0.5,0.8,0.2,1.2c0,0,0,0.1-0.1,0.1l-5.6,6.4c2.7,2.2,5.4,4.4,8.1,6.6c0.3,0.3,0.3,0.9-0.1,1.2
	C279,314.8,278.9,314.8,278.8,314.9z"/>
<path class="st12" d="M307.7,311c-0.1,4.2-0.1,8.5,0,12.7c0,0.4-0.3,0.7-0.7,0.7c-2.2-0.1-4.4-0.2-6.6-0.3c-0.4,0-0.8-0.3-0.8-0.8
	c0.1-2.5,0-4.9,0-7.4c0-2,0.5-4.9-0.8-6.6c-2.5-3.3-4.7-6.9-6.6-10.6c-0.1-0.2,0-0.4,0.2-0.5c0.1,0,0.2-0.1,0.3,0
	c0.1-0.1,0.2-0.2,0.4-0.3c3.4-0.4,7,0,10.4,0.2c3.2,0.2,6.3,0.4,9.4,0.7c0.4,0,0.7,0.3,0.7,0.8c0,0.1,0,0.2-0.1,0.4
	C311.5,303.8,309.5,307.4,307.7,311z"/>
<path class="st12" d="M331,322.8c-7.2,2.4-15.5-1.3-16.4-9.4c-0.5-5.3,1.6-13.6,7-15.4c5.8-3.6,12.9,1,14.9,7.1
	C338.3,310.9,338,320.5,331,322.8z"/>
<path class="st12" d="M358.8,314.3c0,2.8,0.1,5.5-2.2,7.4c-3.7,3-12.1,3.9-14.6-1c-1.5-2.8-1.4-6-1.5-9.1c-0.1-3.9-0.3-7.9,0-11.8
	c-0.3-0.5-0.2-1.1,0.3-1.4c0.2-0.1,0.4-0.2,0.5-0.2c4.4,0,8.8-0.1,13.2-0.2c1.1,0,2.7-0.4,3.8,0.2c0.8,0.5,0.5,2.1,0.5,2.9
	C358.8,305.5,358.8,309.9,358.8,314.3z"/>
<path class="st12" d="M380.4,325.7c-5.2,0-10.6,0.5-15.8-0.2c-0.3,0-0.6-0.3-0.6-0.6c0-0.9-0.1-1.8-0.1-2.6l0,0
	c-0.4-4.2-0.9-8.4-1-12.5c-0.1-2.2-0.3-4.4-0.6-6.6c-0.2-1.2-0.2-2.5,0.1-3.8c0.1-0.3,0.3-0.5,0.5-0.6c1.9-0.3,3.5-0.9,5.5-0.7
	c1.7,0.1,3.5,0.5,5.1,1c2.5,0.7,4.4,2.6,5.2,5.1c0.7,2.4,1.1,5.8-0.7,7.8c-1.2,1.3-2.8,2.2-4.6,2.4c2.4,3.5,4.9,6.8,7.7,9.9
	c0.3,0.4,0.2,0.9-0.1,1.2C380.7,325.6,380.6,325.7,380.4,325.7z"/>
<path class="st12" d="M403.2,306c0,0.4-0.3,0.7-0.6,0.8c-1.8,0.4-3.6,0.6-5.4,0.7c2,2.2,3.6,4.9,4.5,7.8c0.9,3.3,0.9,7.8-2.6,9.6
	c-3.7,1.7-8,1.8-11.8,0.3c-3.4-1.4-3.9-5.2-3.9-8.4c0-0.5,0.4-0.9,0.9-0.9c0.1,0,0.2,0,0.2,0c1.3,0.2,2.7,0.3,4,0.3
	c-4-3.2-6-8.7-3.9-13.5c0.8-3.9,5.4-6.4,9.5-6.1C399.1,297,403,301,403.2,306z"/>
<path class="st12" d="M421,314.9c-2.2,0.5-4.3,1-6.5,1.5c1.8,2.2,3.9,4.2,6.1,6c0.6,0.5,0.1,1.4-0.6,1.4c-4,0-8,0-12,0.3
	c-0.5,0-0.8-0.4-0.8-0.8l0,0c-0.1-7.8-0.5-15.6-1-23.4c0-0.4,0.4-0.8,0.8-0.8c3.7-0.1,7.4-0.3,11.1-0.2c0.3,0,0.5,0.2,0.5,0.4
	c0.4,0.3,0.5,0.8,0.2,1.2c0,0-0.1,0.1-0.1,0.1l-5.6,6.4c2.7,2.2,5.4,4.4,8.1,6.6c0.3,0.3,0.3,0.8,0,1.1
	C421.2,314.7,421.1,314.8,421,314.9z"/>
<path class="st12" d="M443.5,318.4c-0.1,1.9-0.2,3.7-0.4,5.6c0,0.5-0.4,0.8-0.9,0.9c-5.6-0.1-11.2,0.1-16.8,0.6
	c-0.4,0-0.8-0.3-0.8-0.8c0,0,0,0,0,0c-0.1-7.9-0.7-15.7-0.9-23.6c0-0.2,0-0.3,0-0.5c0-0.1,0.1-0.3,0.2-0.4c0.2-0.2,0.5-0.4,0.8-0.4
	l8.2-0.2c0.5,0,0.9,0.4,0.9,0.9c0,0,0,0,0,0c-0.2,4.9-0.1,9.8,0.1,14.7c1.8,0.1,3.7,0.2,5.5,0.4c1.1,0.1,2.7-0.1,3.7,0.5
	C443.9,316.6,443.6,317.8,443.5,318.4z"/>
<path class="st12" d="M465.7,302.7c-4.4,6.6-5,14.9-9.7,21.3c-0.2,0.5-0.5,0.9-0.8,1.4c-0.2,0.4-0.7,0.5-1.1,0.3
	c-0.1-0.1-0.2-0.2-0.3-0.3c-3.4-7.6-7.5-14.9-11-22.5c-0.1-0.3-0.1-0.6,0.2-0.7c0.1,0,0.2-0.1,0.3-0.1c0.1-0.1,0.2-0.2,0.3-0.2
	c3.3-0.8,6.9-0.7,10.3-0.7c2.5,0,5,0,7.5,0.1c0.3-0.3,0.8-0.2,1.1,0l2.5,0.2c0.5,0,0.9,0.4,0.9,0.8
	C465.8,302.4,465.8,302.5,465.7,302.7z"/>
<path class="st12" d="M482.1,314.9c-2.2,0.5-4.3,1-6.5,1.5c1.8,2.2,3.9,4.2,6.1,6c0.6,0.5,0.1,1.4-0.6,1.4c-4,0-8,0-12,0.3
	c-0.5,0-0.8-0.4-0.8-0.8l0,0c-0.1-7.8-0.5-15.6-1-23.4c0-0.4,0.4-0.8,0.8-0.8c3.7-0.1,7.4-0.3,11.1-0.2c0.3,0,0.5,0.2,0.5,0.4
	c0.4,0.3,0.5,0.8,0.2,1.2c0,0-0.1,0.1-0.1,0.1l-5.6,6.4c2.7,2.2,5.4,4.4,8.1,6.6c0.3,0.3,0.3,0.8,0,1.1
	C482.3,314.7,482.2,314.8,482.1,314.9z"/>
<path class="st12" d="M504.8,306c0,0.4-0.3,0.7-0.6,0.8c-1.8,0.4-3.6,0.6-5.4,0.7c2,2.2,3.6,4.9,4.5,7.8c0.9,3.3,0.9,7.8-2.6,9.6
	c-3.7,1.7-8,1.8-11.8,0.3c-3.4-1.4-3.9-5.2-3.9-8.4c0-0.5,0.4-0.9,0.9-0.9c0.1,0,0.2,0,0.2,0c1.3,0.2,2.7,0.3,4,0.3
	c-4-3.2-6-8.7-3.9-13.5c0.8-3.9,5.4-6.4,9.5-6.1C500.7,297,504.6,301,504.8,306z"/>
<path class="st12" d="M248.9,396.2c-13.3-0.9-26.1,1.5-39.4,2c-0.9,0-1.6-0.8-1.5-1.7c0-0.5,0.3-1,0.7-1.2c-0.1-0.2,0-0.4,0.1-0.6
	c3.6-8.4,7.3-16.6,11.2-24.8c3.2-6.5,6-15.3,11.5-20.4c0.5-0.5,1.3-0.4,1.7,0.1c0.1,0.1,0.2,0.3,0.3,0.5
	c5.1,14.8,10.4,29.7,16.6,44.1C250.5,395,250.1,396.3,248.9,396.2z"/>
<path class="st12" d="M294.9,367.1c0,0.8-0.7,1.5-1.5,1.5c-4.5-0.4-9-0.2-13.5,0.5c-0.3,10.4-0.4,20.9-0.2,31.2
	c0,0.9-0.8,1.7-1.7,1.7c-4.6,0.2-9.2,0.5-13.7,0.6c-0.9,0-1.7-0.8-1.7-1.7c0-10.7,0.4-21.4,1.2-32c-4,0.9-8.2,1.2-12.3,0.7
	c-1,0-1.8-0.8-1.8-1.8c0-4.3,0.2-8.5,0.7-12.8c0-0.2,0.1-0.5,0.2-0.7c-0.4-0.6-0.1-1.4,0.5-1.8c0.2-0.1,0.3-0.2,0.5-0.2
	c13.7-1.6,27.8-1.3,41.6-0.4c0.8,0,1.5,0.7,1.5,1.5C294.9,358.2,294.9,362.6,294.9,367.1z"/>
<path class="st12" d="M353.5,399.6c-4.5-5.1-8.6-10.4-12.5-15.9c-1.6,0.6-3,1.6-4.1,3l-12.3,13.1c-1,1-3,0.6-3.1-0.6
	c-0.9-13.8-1.5-27.5-1.1-41.4v-1.2c0-0.2,0-0.4,0-0.5v-0.6c0-1.1,1.9-1.2,2.5-0.4c0.2,0.1,0.4,0.2,0.5,0.4c2.3,2.2,4.7,4.3,7,6.5
	c1.4,1.3,4.7,5.5,7.4,5.3c0.2,0,0.4,0,0.6-0.1c2.8-2.4,5.6-4.8,8.2-7.3c2.4-2.2,3.7-5,6.5-7c1.6-1.2,4.2,0.6,2.5,1.8l0,0
	c0.3,6.5,0.8,13.3,0.8,19.9c0.6,7.9,0.8,15.8,0.5,23.7C358.2,399.7,354.9,401.1,353.5,399.6z"/>
<path class="st12" d="M393.1,396.5c-13.5,4.4-29-2.4-30.6-17.5c-1-10,2.9-25.4,13.1-28.7c10.8-6.7,24.1,1.8,27.8,13.2
	C406.9,374.4,406.2,392.2,393.1,396.5z"/>
<path class="st12" d="M454.6,399.9c0,0.9-0.8,1.7-1.7,1.7c-11,0.6-22.1,0.5-33.1-0.2c-3-0.6-6.1-0.8-9.2-0.4V400
	c-0.5-0.7-0.5-1.7,0-2.4c0.3-13.3,1.2-26.5,1.6-39.8c0-0.9,0.7-1.6,1.6-1.6c0.4,0,0.8,0.2,1.1,0.5c7.1,5.6,13.8,11.7,20,18.2
	c4.8-7.2,10.2-14.1,16-20.5c0.7-0.6,1.7-0.6,2.4,0.1c0.3,0.3,0.5,0.7,0.5,1.1C454.1,370.3,454.3,385.1,454.6,399.9z"/>
<path class="st12" d="M488.3,381.7c-4.1,0.9-8.1,1.8-12.1,2.9c3.4,4.1,7.3,7.9,11.5,11.2c1.1,0.8,0.1,2.6-1.1,2.6
	c-7.5-0.1-15,0.1-22.4,0.5c-0.8,0-1.5-0.7-1.5-1.5c-0.2-14.6-0.9-29.1-1.8-43.6c0-0.8,0.7-1.5,1.5-1.5c6.9-0.2,13.8-0.5,20.8-0.4
	c0.6,0,0.8,0.4,0.8,0.8c0.7,0.5,0.9,1.5,0.4,2.2c0,0.1-0.1,0.1-0.1,0.2l-10.5,11.9c5,4.2,10.1,8.3,15.2,12.4c0.6,0.6,0.6,1.6,0,2.1
	C488.7,381.6,488.5,381.7,488.3,381.7z"/>
<path class="st13" d="M238.6,228.1c-6.5,14.6-12.2,29.3-20.6,42.4c-0.3,0.5-0.9,0.4-1.4,0.2c-0.7,0.2-1.4-0.1-1.8-0.6
	c-4.2-4.9-7.9-10.3-10.9-16c-5.2,2.6-10.5,4.8-15.9,6.8c-1.2,0.2-2.5-0.5-2.9-1.6c-2.4-8.1-4.8-16.3-7.1-24.5
	c-1.3-4.5-2.5-8.9-3.7-13.3c-0.7-2.4-2.6-6.9-2.6-9.3c-1.2-1.6-0.7-3.5,1.5-2.3l0.1,0.1c1-0.2,2.4,0.3,3.7,1.8
	c9.5,4.6,19.5,8,29.7,10.2c10.1,2.1,20.6,2.3,30.6,4.2C238.2,226.3,239,227.3,238.6,228.1z"/>
<path class="st13" d="M275.3,249.2c-4.9,1.4-9.8,2.8-14.7,4.2c4.2,3.9,8.9,7.1,14,9.7c1.3,0.7,0.2,2.6-1.3,2.7
	c-9.1,1-18.2,1.7-27.3,2.2c-0.9,0.1-1.8-0.6-1.9-1.5c-0.1-14.2-1.1-28.6-2.2-42.9c-0.1-0.8,0.9-1.4,1.9-1.5c8.4-0.2,17-1.2,25.2-1.6
	c0.7,0,1,0.3,1,0.7c0.7,0.3,1,1,0.8,1.7c-0.1,0.2-0.2,0.4-0.4,0.6c-5.1,5.2-7.7,7.7-12.8,12.7c6.1,3.8,12.3,7.2,18.5,10.6
	C277.1,247.2,276.5,248.8,275.3,249.2z"/>
<path class="st13" d="M325.3,246.7c-0.4,3.4-0.6,7-0.8,10.5c-0.2,1-0.9,1.8-1.9,2c-12.8,2.6-25.5,5.5-38.1,8.4
	c-0.8,0.2-1.6-0.2-1.8-0.9c0-0.1-0.1-0.2-0.1-0.3c-0.1-14.4-1.6-28.6-2-43c-0.1-0.3-0.1-0.6,0-0.9c0-0.3,0.2-0.5,0.4-0.7
	c0.4-0.5,1.1-0.9,1.8-1c6.1-0.9,12.4-2.1,18.5-3.5c1.1-0.2,2.2,0.4,2.1,1.3c-0.4,9-0.4,17.9,0.2,26.9c4.2-0.6,8.3-1.2,12.5-1.9
	c2.5-0.4,6.1-1.5,8.4-0.9C326,243.2,325.4,245.5,325.3,246.7z"/>
<path class="st13" d="M367.8,249.2c-0.4,0.6-1,1.1-1.7,1.3c-2.5,1.3-6.1,1.8-8.3,2.2c-6.2,1.2-12.8,2.3-18.3,0.9
	c-11-2.9-10.6-19.6-7.2-28.9c0.9-2.3,2.1-4.4,3.5-6.4c1.4-2.2,3.3-4.2,5.4-5.8c7.2-5.2,18-11,25.7-8.5c0.4,0.1,0.4,0.5,0.4,0.8
	c-0.1,0.3-0.3,0.7-0.5,0.9c-2.7,1.7-4.6,6.6-6.1,8.9c-1.7,2.5-3.3,5.1-5,7.6c-2,2.9-3.9,5.8-5.9,8.7c5,3.8,8.6,8.8,13.3,12.8
	c1.1,0.8,2.2,1.6,3.4,2.5c0.8,0.5,1.6,0.9,2.3,1.4C368.4,248.2,368.1,248.8,367.8,249.2z"/>
<path class="st13" d="M410.5,236.6c-16.4,6.7-35.3,4.1-37.1-10.3c-1.2-9.5,3.5-25.9,15.9-31.5c13.1-9.2,29.3-2.9,33.8,7.8
	C427.2,212.9,426.4,230.2,410.5,236.6z"/>
<path class="st13" d="M484,240.2c0,0.9-1,1.4-2,1.3c-13.4-1.8-27.9-1.8-40.2-2.9c-3.7-0.4-7.4-0.3-11.1,0.2v-0.9
	c-0.6-0.7-0.6-1.7,0.1-2.4c0.4-13.1,1.4-26.2,1.9-39.2c0.1-1.5,2-2.1,3.3-1.3c8.7,5.1,16.9,11.1,24.3,17.9
	c5.8-6.7,12.3-12.8,19.4-18.1c1.2-0.9,3.4,0.4,3.4,1.8C483.2,210.9,483.9,225.8,484,240.2z"/>
<path class="st13" d="M522,234.5c-4.8-1.4-9.7-2.4-14.7-3.1c4.2,5.5,8.8,11,14,16.6c1.3,1.4,0.2,2.7-1.3,2c-8.7-4-17.9-6.9-27.3-8.8
	c-1-0.2-1.7-1-1.9-2c-0.1-14.2-1.1-28.9-2.2-43.4c-0.1-0.8,0.9-1.2,1.9-1.1c8.4,1.7,17.1,3.9,25.2,7.6c0.5,0.2,0.9,0.6,1,1.2
	c0.8,0.8,1.3,2,0.4,2.5c-5.1,2.5-7.7,3.9-12.8,6.9c6.1,6.1,12.3,12.6,18.5,19.4C523.8,233.6,523.2,234.9,522,234.5z"/>
</svg>
